<svg xmlns="http://www.w3.org/2000/svg" viewBox="0 0 95 95" width="95" height="95">
  <g fill="#926c3e">
    <path d="M73.1 88.1v-3.2c.1-.1.3-.1.4-.2v3.2c-.2 0-.3.1-.4.2zm-1.7.7v-3.2h.1c.2-.1.3-.1.5-.2v3.2c-.2 0-.4.1-.6.2zm-1.6-2.7c.2-.1.4-.1.6-.2v3.3c-.2.1-.4.1-.6.2v-3.3zm-1.6.4c.2-.1.4-.1.6-.2v3.3c-.2.1-.4.1-.6.2v-3.3zm-1.6.4c.2 0 .5-.1.7-.2V90c-.2.1-.5.1-.7.2v-3.3zm-1.6.3c.2 0 .5-.1.8-.1v3.3c-.2.1-.5.1-.8.1v-3.3zm-1.6.3c.3 0 .6-.1.8-.1v3.3c-.3 0-.6.1-.8.1v-3.3zm-1.6.2c.3 0 .6-.1.9-.1v3.3c-.3 0-.6.1-.9.1v-3.3zm-1.6.2c.3 0 .7-.1 1-.1v3.3c-.3 0-.6.1-1 .1v-3.3zm-1.6.1c.3 0 .7-.1 1-.1v3.3c-.3 0-.6.1-1 .1V88zm-1.6.2c.3 0 .7 0 1-.1v3.4c-.3 0-.6.1-1 .1v-3.4zm-1.6.1c.3 0 .7 0 1-.1v3.4c-.3 0-.7.1-1 .1v-3.4zm-1.6.1c.3 0 .7 0 1-.1v3.4c-.3 0-.7 0-1 .1v-3.4zm-1.6 0h1.1v3.4h-1.1v-3.4zm-1.5.1h1.1v3.4h-1.1v-3.4zm-1.6 0h1.1v3.4h-1.1v-3.4zm-1.6 0h1.1v3.4h-1.1v-3.4zm-1.6 0H47v3.4h-1.1v-3.4zm-1.6-.1h1.1v3.5h-1.1v-3.5zm-1.5 0c.4 0 .7 0 1.1.1V92h-1.1v-3.6zm-1.6-.1c.4 0 .7 0 1.1.1v3.5h-1.1v-3.6zm-1.6-.1h1.1v3.5c-.4 0-.7 0-1.1-.1v-3.4zm-1.6-.1c.4 0 .7 0 1.1.1v3.5c-.4 0-.7-.1-1.1-.1v-3.5zm-1.5-.1c.4 0 .7.1 1.1.1v3.5c-.4 0-.7-.1-1.1-.1V88zm-1.6-.1c.4 0 .7.1 1.1.1v3.4c-.4 0-.7-.1-1.1-.1v-3.4zm-1.6-.2c.4 0 .7.1 1.1.1v3.4c-.4 0-.7-.1-1.1-.1v-3.4zm-1.6-.2c.4.1.7.1 1.1.2V91c-.4 0-.7-.1-1.1-.2v-3.3zm-1.6-.3c.4.1.7.1 1.1.2v3.4c-.4-.1-.7-.1-1.1-.2v-3.4zm-1.5-.3c.4.1.7.1 1.1.2v3.4c-.4-.1-.7-.1-1.1-.2v-3.4zm-1.6-.3c.4.1.7.2 1.1.3v3.4c-.4-.2-.8-.3-1.1-.3v-3.4zm-1.6-.4c.2.1.4.1.7.2.1 0 .3.1.4.1v3.4c-.4-.1-.7-.2-1.1-.3v-3.4zm-1.6-.5c.4.1.7.2 1.1.3v3.4c-.4-.1-.7-.2-1.1-.3v-3.4zm-1.5-.7c.4.2.7.3 1.1.4v3.4c-.4-.1-.7-.3-1.1-.4V85zm-1.6-.8c.4.2.7.4 1.1.6v3.4c-.4-.2-.7-.4-1.1-.6v-3.4zm-1.3 1.5v-2.5c.2.2.4.4.7.6.1 0 .1.1.2.1 0 0-.1.1-.1.2v3.1c-.4-.4-.7-.8-.7-1.2 0-.1 0-.2-.1-.3zm.5-12.6c0-1.1 1.3-1.9 2.9-1.9 1.6 0 2.9.9 2.9 1.9 0 .4-.2.8-.6 1.2l.1-.1c.1-.2.1-.4.1-.6 0-.5-.4-1.1-.7-1.4-.3-.2-.6-.4-1.1-.4.6.3 1.2.9 1.3 1.6.1.3 0 .7-.2 1-.1.2-.2.3-.3.4l-.1.1c-.1 0-.2.1-.3.1.2-.2.3-.4.4-.6.2-.5.2-1.2-.2-1.6-.2-.2-.4-.3-.7-.3.5.3.7.9.5 1.4-.1.4-.4.8-.6 1.1h-.5c-1.5 0-2.9-.8-2.9-1.9zM21 60.9c-.1-.3-.3-.6-.4-.9-.6-1.3-.8-2.5-.8-3.7 0-1.6.4-2.8 2.1-4.4.3.1.7.2 1 .2.4 0 .7-.1 1-.1.4.4.7.7 1 1.1-.4 0-.8.1-1.2.1-.3 0-.3.3 0 .3.5 0 1 .1 1.5.1.2.4.4.7.5 1.1-.7.1-1.4.1-2 .2-.3 0-.3.3 0 .3.7 0 1.4.1 2.2.2.1.3.1.7.1 1-.8.1-1.7.2-2.4.2-.3 0-.3.3 0 .3.7 0 1.6.1 2.4.2 0 .3-.1.7-.1 1-.8.1-1.6.1-2.3.2-.3 0-.3.3 0 .3.7 0 1.4.1 2.1.2-.1.3-.2.7-.3 1.1-.6.1-1.2.1-1.9.2-.3 0-.3.3 0 .3.5 0 1.1.1 1.6.1-.1.3-.2.5-.4.8-.1.1-.1.2-.1.3-.5 0-1 .1-1.5.1-.3 0-.3.3 0 .3.4 0 .9.1 1.3.1-.2.4-.3.8-.5 1.2-.3 0-.7.1-1 .1-.3 0-.3.3 0 .3s.6 0 .9.1c0 .1 0 .2-.1.3-.1.3-.1.6-.1 1-.3 0-.6.1-.9.1-.3 0-.3.3 0 .3s.6 0 .9.1v1.2c-.3 0-.6 0-.9.1-.3 0-.3.3 0 .3s.6 0 .8.1v1.2c-.3 0-.6 0-.8.1-.3 0-.3.3 0 .3s.6 0 .8.1v1.2c-.3 0-.6 0-.9.1-.3 0-.3.3 0 .3s.6 0 .8.1V71.5c-.3 0-.6-.1-.8-.1-.3 0-.6 0-.9.1v-.7-5.1c0-.4-.1-.7-.1-1.1.2-2-.2-2.9-.6-3.7zm0-25.6c.4-.8.8-1.7 1-2.7v-1-5.8c.3 0 .6.1.9.1.3 0 .6 0 .8-.1V26.7c-.3 0-.6 0-.8.1-.3 0-.3.3 0 .3s.6 0 .9.1v1.2c-.3 0-.6 0-.8.1-.3 0-.3.3 0 .3s.6 0 .8.1v1.2c-.3 0-.6 0-.8.1-.3 0-.3.3 0 .3s.6 0 .8.1v1.2c-.3 0-.6 0-.9.1-.3 0-.3.3 0 .3s.6 0 .9.1c0 .3.1.6.1.9 0 .1.1.3.1.4-.3 0-.6.1-.9.1-.3 0-.3.3 0 .3s.7 0 1 .1c.1.4.3.8.5 1.2-.4 0-.9.1-1.3.1-.3 0-.3.3 0 .3.5 0 1 .1 1.6.1l.1.2c.1.3.3.6.4.9-.6.1-1.2.1-1.7.1-.3 0-.3.3 0 .3.6 0 1.2.1 1.9.2.1.4.2.7.3 1-.7.1-1.5.1-2.2.2-.3 0-.3.3 0 .3.7 0 1.5.1 2.3.2.1.3.1.7.1 1-.8.1-1.6.2-2.4.2-.3 0-.3.3 0 .3.7 0 1.6.1 2.4.2 0 .3-.1.7-.1 1-.7.1-1.5.1-2.1.2-.3 0-.3.3 0 .3.6 0 1.3.1 2 .2-.1.4-.3.7-.6 1.1-.5 0-1 .1-1.4.1-.3 0-.3.3 0 .3s.7 0 1.1.1c-.2.3-.5.6-.9.9-.3-.1-.7-.2-1-.2-.4 0-.7.1-1 .2-1.7-1.6-2.1-2.9-2.1-4.4 0-1.2.3-2.4.8-3.7-.1-1.1 0-1.4.2-1.7zm-1.1-12.2c0-1.1 1.3-1.9 2.9-1.9 1.6 0 2.9.9 2.9 1.9 0 .4-.3.9-.7 1.2 0-.1.1-.1.1-.2.1-.2.1-.4.1-.6 0-.5-.4-1.1-.7-1.4-.3-.2-.6-.4-1.1-.4.6.3 1.2.9 1.3 1.6.1.3 0 .7-.2 1-.1.2-.2.3-.3.4l-.1.1c-.1 0-.2.1-.3.1.2-.2.3-.4.4-.6.2-.5.2-1.2-.2-1.6-.2-.2-.4-.3-.7-.3.5.3.7.9.5 1.4-.1.4-.4.8-.7 1.2h-.4c-1.4 0-2.8-.8-2.8-1.9zm54.7 0c0 .4-.3.9-.7 1.2 0-.1.1-.1.1-.2.1-.2.1-.4.1-.6 0-.5-.4-1.1-.7-1.4-.3-.2-.6-.4-1.1-.4.6.3 1.2.9 1.3 1.6.1.3 0 .7-.2 1-.1.2-.2.3-.3.4l-.1.1c-.1 0-.2.1-.3.1.2-.2.3-.4.4-.6.2-.5.2-1.2-.2-1.6-.2-.2-.4-.3-.7-.3.5.3.7.9.5 1.4-.1.4-.4.8-.7 1.2h-.4c-1.6 0-2.9-.9-2.9-1.9 0-1.1 1.3-1.9 2.9-1.9 1.6 0 3 .9 3 1.9zm0 50c0 .4-.2.8-.6 1.2l.1-.1c.1-.2.1-.3.1-.5v-.1c0-.5-.4-1.1-.7-1.4-.3-.2-.6-.4-1.1-.4.6.3 1.2.9 1.3 1.6.1.3 0 .7-.2 1-.1.2-.2.3-.3.4H73c-.1 0-.2.1-.3.1.2-.2.3-.4.4-.6.2-.5.2-1.2-.2-1.6-.2-.2-.4-.3-.7-.3.5.3.7.9.5 1.4-.1.4-.4.8-.6 1.1h-.5c-1.6 0-2.9-.9-2.9-1.9s1.3-1.9 2.9-1.9c1.6.1 3 1 3 2zm-49.2 4.2c.1 0 .1 0 0 0l.1.1c0 .1.1.1.1.2.7 1.5-.1 3.3-1.6 3.9-.4.2-.8.2-1.2.2-1.1 0-2.2-.6-2.7-1.7v-.1c0-.1-.1-.2-.1-.3 0-.1 0-.1-.1-.2-.1-.2-.1-.5-.1-.7 0-1.7 1.3-3 3-3 1.1.1 2.1.7 2.6 1.6zM20.2 16c0 .1.1.1.2.1.5.3 1 .6 1.6.8v.3c0 .2.1.3.3.4.1.1.3.2.5.2s.4-.1.5-.2l.1-.1c.2.1.3.1.5.2-.2.3-.4.5-.8.6-.4.1-.8.1-1.2-.1.3.4.8.5 1.3.4.4-.1.8-.5 1-.9.2.1.4.1.6.2-.2.6-.8 1-1.4 1.2-.6.2-1.3.2-1.9-.2.5.6 1.3.9 2.1.7.8-.2 1.4-.9 1.7-1.6v-.1c.2.1.4.1.6.2-.4 1.3-1.5 2.2-2.9 2.2-1.7 0-3-1.3-3-3-.1-.4 0-.9.2-1.3zm51.4 4.4c-1.4 0-2.5-.9-2.9-2.2.7-.2 1.5-.4 2.2-.7l.1.1c.1.1.3.2.5.2s.4-.1.5-.2c.1-.1.2-.4.2-.6.2-.1.4-.2.5-.2 0 .2 0 .5-.1.7-.2.4-.5.6-.8.7-.4.1-.8.1-1.2-.1.3.4.8.5 1.3.4.5-.1.9-.5 1-1 .1-.3.1-.6 0-.9l.6-.3c.2.5.2 1 0 1.5-.2.6-.8 1-1.4 1.2-.6.2-1.3.2-1.9-.2.5.6 1.3.9 2.1.7.8-.2 1.4-.9 1.7-1.6.2-.6.1-1.3-.1-1.8.2-.1.3-.2.5-.3.2.4.4.9.4 1.4-.2 1.8-1.5 3.2-3.2 3.2zm3 58.8c0 .2-.1.4-.1.6-.1.2-.1.4-.2.5v.1c-.5.9-1.5 1.4-2.6 1.5-.7 0-1.4-.3-2-.8-.2-.2-.5-.5-.6-.8-.3-.4-.4-1-.4-1.5v-.1c0-.3.1-.6.2-.8v-.1c.1-.3.3-.6.5-.9.6-.7 1.4-1.2 2.3-1.2 1.7 0 3 1.3 3 3-.1.3-.1.4-.1.5zm-48.3 6.2c-1.4-.3-2.7-.7-4-1.2-.6-.3-1.2-.6-1.8-1-.5-.4-1-.9-1.1-1.4v-.2c0-.2.1-.5.2-.7.7 1.1 1.9 1.9 3.2 1.9 2.1 0 3.8-1.7 3.8-3.8 0-.5-.1-1-.3-1.4l1.2-.3c.2.7.5 1.4.9 2.1.8 1.5 2 2.8 3.4 3.8.1.2.3.3.5.3h.1c1.7 1 3.7 1.4 5.5 1.7 1.1.2 2.3.3 3.4.4 1.7.1 3.4.2 5.4.2H52.9l3.9-.3c.8-.1 1.6-.3 2.4-.5 2.6.1 6.4.1 9.7.2-.4.1-.7.2-1.1.3-.7.2-1.5.3-2.2.5-7.6-.1-17.2 0-18.1.1-.3 0-.3.2 0 .3.8 0 7.3.1 13.9.2h-.2c-4.5.6-9.1.9-13.7 1-2.3 0-4.6 0-6.8-.1-4.9-.4-9.7-1-14.4-2.1zm3.3-8.2c0-.1 0-.3-.1-.4.6-.1 1.1-.2 1.7-.3 0 .2-.1.5-.1.7 0 1 .1 1.9.2 2.9l.3 1.8c-.4-.4-.8-.7-1.1-1.2v-.1c-.4-1-.8-2.4-.9-3.4zm-1-.3h.1v.4c0 .3.1.6.1.8-.2-.4-.3-.8-.4-1.2h.2zm19.9-6.6c-.1-.1-.1-.1-.3 0l-.1.1c-.1 0-.2-.2-.2-.3l.1-.1c.2.1.3 0 .4-.2 0 0 .1-.1.1 0 0 0 .1 0 .1.1 0 0 0 .1-.1.1s-.1 0-.1.1c0 0-.1.1 0 .1 0 .1.1.1.1.1v.1s0 .1-.1.1h-.1c.3-.1.2-.2.2-.2zm-.4.4l.1-.1c.1.1.1.2.3.2 0 .1-.1.2-.1.2-.2.1-.3-.1-.3-.3zm-.4-1.1h-.2c-.1 0-.2-.1-.3-.1v-.1l.1-.1h.2c.2.1.3 0 .4-.3v-.1h.1s.1.1 0 .1c0 .1-.1.2-.1.3 0 .3 0 .3-.2.3zm.3 1.9c.1 0 .2 0 .2.1s-.1.2-.2.2h-.1c-.1 0-.2-.1-.1-.2 0 0 0-.1.1-.1h.1zm.6 2.7c0 .1 0 .2-.2.2-.1 0-.1-.1-.2 0s-.3.1-.5.1l-.1-.1.1-.1h.1c.2 0 .3-.1.5 0 .1-.1.2-.1.3-.1-.1 0-.1 0 0 0zm-.1-.6c-.1.1 0 .3-.2.3h-.1c-.1 0-.1 0-.1-.1s.1-.2.1-.2c.1-.1.1-.1.1-.3-.1 0-.1 0-.2-.1-.1 0-.1-.1 0-.1 0-.1.1-.1.1-.1.2.1.3.1.5.1.1 0 .1.1.1.2 0 .2-.2.2-.3.3zm.7.4c0 .1.1.1 0 .2s-.1 0-.3-.1c-.1 0-.1-.1-.1-.2.1-.1.3-.3.2-.5 0-.1 0-.1.1-.2 0 0 .1 0 .1-.1.1-.1 0-.2 0-.2s-.1 0-.1-.1c0 0-.1 0 0-.1l.1-.1c.1 0 .2.1.3.2v.2c.1.2.1.2-.1.4-.2.3-.2.4-.2.6zm11.6 10.4c.7-.3 1.3-.6 2-1 3.4.1 6.8.1 10.3.2-.1.1-.2.1-.3.2-.4.2-.8.4-1.2.5-3.2 0-7.6 0-10.8.1-.1 0 0 0 0 0zm2.1-4.8c.1-.3.2-.6.2-.9H65c-.2.3-.3.6-.5.9h-1.6zm-7.1-1.5c-.1-.2-.1-.4-.1-.6 0-.1-.1-.3-.3-.4 1.9 0 4 .1 6.1.1v.6s0 .1.1.1c0 0 .1 0 .1-.1.1-.2.2-.4.2-.6H63c-.1.3-.1.6-.2.9-2.5-.1-4.9 0-7 0zm-1.4 0c0-.1 0-.1.1-.2 0-.1 0-.2-.1-.2l-.1-.1v-.1h.1l.1.1h.2v-.2c0-.2.1-.2.2-.2h.2c.1 0 .1 0 .2.1 0 .1 0 .2-.1.2s-.2.1-.3.2c0 .1 0 .2-.1.2l-.1.1c0 .1-.1.1-.3.1zM52 77c.1.1.1.1.1.2v.1l-.1.1-.1-.1-.2-.2-.1-.1h.4zm-2.7.1s0 .1 0 0c0 .1 0 .1-.1.1v.1h-.1s-.1 0-.1-.1v-.1h.1s0-.1.1-.1h.1v.1zm0-.6c.1 0 .1.1.1.1h-.7v-.1-.2c0-.1.2-.1.2-.1.1.2.2.2.4.3zm18.6 3h-1.7c.1-.3.3-.5.4-.8h1.3v.1c-.1.3-.1.5 0 .7zm.3 1.6h-3.1c.2-.2.3-.4.5-.6.1-.1.1-.2.2-.2h2.4c.1.3.3.5.5.8h-.5zm-4.7-4h1.3v.1s0 .1.1.1c0 0 .1 0 .2-.1v-.1h.7c-.1.3-.2.5-.3.8h-2.1c0-.2 0-.5.1-.8zm-1.5-.7h.2-.2zm-7.8-.1c-.1 0-.2 0-.2-.1s0-.2-.1-.2h-.1c-.1-.1-.2-.1-.3-.2-.1-.1-.1-.1 0-.2l.1-.1c.8.1 1.6.1 2.4.2v.2s0 .1.1.1c0 0 .1 0 .1-.1v-.1l2.7.3c.9.1 1.7.2 2.6.4v.1c-2.3 0-4.7.1-6.8.1-.3-.3-.5-.4-.5-.4zm-2.1-.1c-.1-.1-.1-.2-.1-.3 0-.1 0-.1.1-.1s.1 0 .2-.1h.4c.1 0 .1-.1.1-.2v-.2h.1v.3c0 .1 0 .3.2.4v.2c-.1.1-.3.1-.4 0 0 0 0-.1-.1-.2 0-.1-.1-.1-.2-.1s-.2.1-.2.2 0 .2.1.2c.1.1.2.2.1.2h-.6c.4 0 .4-.1.3-.3zm-2 .4c0-.1 0-.1 0 0-.1-.1-.1-.2-.1-.2-.1-.1-.2 0-.3-.1 0-.1-.1-.2-.2-.2-.2 0-.3-.1-.5-.1 0 0-.1 0-.1-.1s0-.1.1-.2c0 0 .1-.1.2 0 .1 0 .1.1.2.1s.3.1.4.2c.1.1.2.1.3 0l.1-.1h.2c.1-.1.3-.1.4 0 .1 0 .1.1.1.1 0 .2.2.3.4.3 0 0 .1 0 0 .1h-.5c-.1-.1-.3-.1-.3-.3 0-.1-.1-.2-.3-.2 0 .1-.1.1-.1.2-.2.1-.1.3 0 .5zm3.7.9s.1 0 0 0c.2 0 .3 0 .3.2v.1c0 .1-.1.1-.2.1s-.1-.1-.2-.1-.2-.1-.2-.2c0-.2-.1-.2-.2-.2 0 0-.1 0-.1-.1l.1-.1c.1 0 .2 0 .3-.1.1 0 .1 0 .1.1v.1c0 .2 0 .2.1.2zm17.7 5.1H70c-1.9 0-4.2.1-6.4.1l.6-.6.3-.3h4.8c.7.6 1.4.8 2.2.8zm3.3-.6c-.1.2-.3.4-.5.6h-2.6c.7 0 1.4-.3 2-.7l1.1.1zm-6.9-4.1h-1.1c.1-.2.1-.4.2-.5.3.1.7.2 1 .3 0 0 0 .1-.1.2zm-17.1-4.2v-.1h.2c0 .1.1 0 .1.1V74H51c-.1 0-.1 0-.1-.1v-.1c-.1.1-.1 0-.1-.1zm-.6 0v-.2s0-.1.1-.1.2-.1.2 0c0 0 .1 0 0 .1-.1.2-.1.4 0 .6.1.1 0 .2-.1.3h-.5c-.2 0-.3-.1-.4-.3V74s.1-.1.1 0c.1 0 .1.1.2.1.2.1.3 0 .3-.2.1-.1.1-.1.1-.2zm1.6 1.6c0-.1 0-.1.1-.1h.1v.1c0 .1-.1.1-.1.1s-.1 0-.1-.1zm-3.9 1.3c0-.1.1-.1.1-.2.1-.1.2-.1.3-.1V76.6h-.4zm.6 1.1v-.3c.1-.1.2-.1.3-.2v.2c.1.1.2.2.4.1h.2c0 .1-.1.2-.3.2-.1 0-.2 0-.2.1-.1.1-.2.1-.2.2h-.2c-.1 0-.1-.1 0-.1-.1-.1 0-.1 0-.2 0 .1 0 0 0 0zM62.3 81c.1-.3.2-.5.3-.8h1.3c-.2.3-.5.6-.8.8l-.1.1h-.8c.1 0 .1 0 .1-.1zm-.4 1c0-.1.1-.1.1-.2h.4c-.2.1-.4.3-.6.4 0-.1 0-.1.1-.2zM23.2 17.4c-.2.3-.6.3-.9.2-.2-.1-.3-.4-.2-.6.4.1.7.2 1.1.4zm47.9.1c.2-.1.4-.2.7-.3l-.2.4c.1 0 .3-.1.4-.2.1-.1.1-.2.2-.3 0 .1-.1.3-.2.4-.1.1-.2.2-.4.2-.2-.1-.4-.1-.5-.2zm-49.3-5.2v3.3c-.3-.1-.6-.3-.9-.5-.1 0-.1-.1-.2-.1v-3.2c.3.2.7.4 1.1.5zm6.8 5.4v-3.4c.4.1.7.1 1.1.2V18h-.1c-.4-.1-.7-.2-1-.3zm-1.6-.3V14c.4.1.7.2 1.1.2v3.4c-.4 0-.8-.1-1.1-.2zm-3.2-.9v-3.3c.3.1.7.2 1.1.3v3.4c-.2-.1-.5-.1-.7-.2-.1 0-.2-.1-.2-.1l-.2-.1zm47.6-.3v-3.3c.2-.1.3-.1.5-.2V16c-.1.1-.3.1-.5.2zm-9.6 2.2V15c.3 0 .6-.1.9-.1v3.4c-.3.1-.6.1-.9.1zM57 19v-3.4c.3 0 .7-.1 1-.1v3.4c-.3 0-.6.1-1 .1zm-6.3.3v-3.4h1.1v3.4h-1.1zm-1.6 0v-3.4h1.1v3.4c-.4.1-.8.1-1.1 0 0 .1 0 0 0 0zm-1.6.1V16h1.1v3.4h-1.1zm-1.6 0V16H47v3.4h-1.1zm-1.6-.1v-3.4h1.1v3.4c-.3.1-.7.1-1.1 0zm-1.5 0v-3.4h1.1v3.4h-1.1zm-1.6-.1v-3.4h1.1v3.4c-.4.1-.8 0-1.1 0zm-6.3-.5v-3.4c.4 0 .7.1 1.1.1v3.4c-.4 0-.8 0-1.1-.1zm-1.6-.2v-3.4c.4 0 .7.1 1.1.1v3.4c-.4 0-.7 0-1.1-.1zm-1.6-.2v-3.4c.4.1.7.1 1.1.2v3.4c-.4-.1-.7-.1-1.1-.2zm-1.6-.3v-3.4c.4.1.7.1 1.1.2v3.4c-.3 0-.7-.1-1.1-.2zm6.4.9v-3.4c.4 0 .7.1 1.1.1V19c-.4 0-.8-.1-1.1-.1zm1.5.1v-3.4c.4 0 .7.1 1.1.1v3.4c-.3 0-.7 0-1.1-.1zm1.6.1v-3.4c.4 0 .7 0 1.1.1v3.4c-.4 0-.7 0-1.1-.1zm12.6.2v-3.4c.4 0 .7 0 1.1-.1v3.4c-.3 0-.7.1-1.1.1zm1.6-.1v-3.4c.3 0 .7 0 1-.1v3.4c-.3.1-.6.1-1 .1zm1.6-.1v-3.4c.3 0 .7 0 1-.1V19c-.3.1-.6.1-1 .1zm3.2-.3v-3.4c.3 0 .7-.1 1-.1v3.4c-.3.1-.7.1-1 .1zm1.6-.1v-3.4c.3 0 .7-.1 1-.1v3.4c-.4 0-.7 0-1 .1zm3.2-.5v-3.4c.3 0 .6-.1.8-.1v3.4c-.3 0-.5.1-.8.1zm1.6-.3v-3.4c.3 0 .5-.1.8-.1v3.4l-.8.1zm1.6-.3v-3.4c.2-.1.5-.1.7-.2v3.4c-.2.1-.4.1-.7.2zm2-.5c-.1 0-.3.1-.4.1v-3.4c.2-.1.4-.1.6-.2V17c0 .1-.2.1-.2.1zm1.2-.3v-3.4c.2-.1.4-.1.6-.2v3.4c-.2 0-.4.1-.6.2zm3.4-1.4l-.1.1v-3.3l.1-.1.1-.1.1-.1V15.2c0 .1-.1.2-.2.2zm-50.9.5v-3.3c.3.1.7.3 1.1.4v3.3c-.5-.1-.8-.3-1.1-.4zm4 1.3l-.4-.1c-.2 0-.3-.1-.5-.1v-3.4c.4.1.7.2 1.1.3v3.4l-.2-.1zm-6.8-3.8v-2.5c.1.1.2.2.4.3.1 0 .1.1.2.1s.1.1.2.1v3.1c-.6-.3-.8-.7-.8-1.1zm11.6 51.2c1.3-2.1 2.9-4 5.2-6.4 2.2-2.2 4.5-4.1 6.3-5.5.8-.6 1.5-1.3 1.8-2.3.1-.2.1-.4.1-.7 0-.2 0-.4-.1-.7-.3-1-1.1-1.7-1.8-2.3-1.8-1.4-4.2-3.4-6.3-5.5-2.3-2.4-4-4.4-5.2-6.4-2.1-3.4-3.1-6.3-3.2-8.9 0-3.2 1.2-5.7 1.8-6.8 1.2.2 2.4.4 3.7.6-.1.3-.4.8-.6 1.3-.3.7-.5 1.4-.7 2.2-.2.8-.3 1.5-.3 2.3 0 .7 0 1.5.2 2.4l.1.1c.1 0 .1-.1.1-.2-.1-.9-.1-1.6 0-2.3.2-1.9 1-3.8 2.1-5.3 0 0 .2-.3.3-.5 4 .4 8.3.7 12.6.7 4.4 0 8.9-.2 13-.7.1.2.3.4.4.7.3.6.5 1.2.6 1.8.1.4.2.8.2 1.2 0 .1.1.1.1.1s.1 0 .1-.1c.1-.7 0-1.4 0-2.1 0-.4-.1-.7-.2-1.1 0-.2-.1-.4-.2-.5.5-.1 1.1-.1 1.6-.2.7 1.2 1.3 2.5 1.5 4 .1.7.1 1.4.1 2.3 0 .7-.2 1.4-.4 2.3 0 .1 0 .2.1.2s.1 0 .1-.1c.3-.8.5-1.6.6-2.3.1-.9.1-1.6.1-2.4-.1-1.4-.5-2.8-1.1-4.1.3-.1.6-.1.9-.2.6 1.1 1.9 3.6 1.8 6.8 0 2.6-1.1 5.5-3.2 8.9-1.3 2.1-2.9 4-5.2 6.4-2.1 2.2-4.5 4.1-6.3 5.5-.7.5-1.5 1.2-1.8 2.2-.1.2-.1.4-.1.7 0 .2 0 .4.1.7.3 1 1 1.7 1.8 2.3 1.8 1.4 4.2 3.4 6.3 5.5 1.3 1.4 2.4 2.6 3.4 3.8 1.3 1.8 2.5 3.7 3.4 5.7 1 2.3 1.6 4.8 1.4 7.2-.1.5-.1 1-.3 1.5-.1 0-.2 0-.3-.1-.1 0-.3 0-.4-.1.1-.4.1-.7.1-1.1 0-.6 0-1.3-.2-2.1-.2-.7-.4-1.4-.6-2-.3-.8-.6-1.4-1-1.9 0-.1-.1-.1-.1-.1-.1 0-.1.1-.1.1.4 1.3.8 2.6 1.1 3.9.1.6.2 1.3.3 2v1c-.4 0-.8 0-1.3-.1 0-.5-.1-1.1-.2-1.6 0-.1-.1-.1-.2-.1s-.1.1-.1.2c.1.5.1.9.1 1.5-.4-.1-.8-.1-1.1-.2v-.3c-.1-.9-.4-1.6-.8-2.2 0 0-.1-.1-.1 0l-.1.1c0 .5.1 1 .2 1.4 0 .3.1.5.1.8v.1c-1.7-.2-3.4-.3-5.1-.4.1-.5 0-1-.2-1.6-.3-.8-.6-1.4-1.1-1.8h-.1v.1c.1.4.2.9.4 1.3.1.2.1.4.2.6.1.2.1.4.2.5 0 .1.1.3.1.4 0 .1.1.3.1.5-.8 0-1.6 0-2.3-.1 0 0 0-.1-.1-.1-.1-.1-.1-.1 0-.2s.1-.1 0-.2c0 0-.2-.1-.2 0-.1.1-.2.1-.3.1-.1-.1-.3-.1-.4-.1 0-.1 0-.2-.1-.2h-.1-.1c-.1 0-.2 0-.3.1 0 0-.1.1-.2.1h-.2s-.1 0-.1-.1v-.1c.1-.1.2-.2.2-.3.1 0 .1.2.2.2H52.1c.1-.2.1-.3-.2-.3-.1 0-.1 0-.1-.1s-.1-.1-.2-.1h-.1s0-.1.1 0c.1 0 .1 0 .2.1.1 0 .1 0 .1-.1v-.2c-.1-.1-.2-.3-.4-.2-.1 0-.2.1-.2.1v.2c-.2.1-.2.1-.2-.1 0 0 0-.1-.1-.1v-.1l.1-.1c.1-.2.1-.4.2-.6 0-.1 0-.1-.1-.1s-.1 0-.1.1 0 .2-.1.3c-.1.2-.3.3-.4.4h-.1v-.1-.2c0-.1-.1-.1-.1-.2-.1 0-.1 0-.2.1l-.1.1H50s-.1 0-.1-.1c.1-.2.1-.4.1-.6 0-.1-.1-.2-.2-.2-.1-.1-.1-.1-.2 0v.2c0 .1-.1.2-.1.3l-.1.1h-.1-.1v-.1-.1c.2-.2.2-.4.1-.6 0-.1-.1-.1-.1-.2-.1-.1-.2-.1-.3-.2-.1-.1 0-.3 0-.4v-.1c0-.1-.1-.1 0-.2.1 0 .2-.1.2 0 .1.1.2.2.2.3v.1c0 .2.1.3.2.4l.1.1c.1.2.2.3.4.1.1-.1.1-.1.2.1 0 .1.1.2.1.3l.1.1c.1 0 .2 0 .3.2v.1c0 .1.1.1.1.1.1 0 .1 0 .2-.1v-.1c0-.1 0-.2.1-.2 0-.1-.1-.2-.1-.2h-.1c-.1.1-.2 0-.3-.1l-.1-.1c0-.2.1-.3.3-.4.1 0 .1-.1.1-.2s-.1-.1-.2-.1-.1.1-.2.2c0 .1-.1.1-.2 0v-.1c0-.1-.1-.2-.2-.2s-.1.1-.2 0 0-.1 0-.2v-.1c-.1-.1-.2-.3-.2-.4-.1-.2-.2-.3-.4-.4h-.1l-.1-.1c0-.1.1-.1.1-.2s.1-.1.1-.1h.2s.1 0 .1-.1c.1-.1 0-.3-.1-.3s-.3 0-.3-.2c0-.1-.1-.1-.2 0l-.1.1v.2s-.1.1-.1 0c-.1-.1-.2-.2-.1-.3 0-.3 0-.3-.1-.3 0 0-.1 0-.2-.1h-.2c-.1 0-.2-.1-.2-.2v-.1c0-.1.1-.1.2-.1s.2.1.3.2c0 .1.1.1.1.1s.1 0 .2-.1v-.1c0-.1 0-.2-.2-.3-.1 0-.2-.1-.3-.2v-.1h.2s.1 0 .1-.1-.1-.3-.2-.2c-.2 0-.3 0-.3-.2l-.1-.1c-.1-.1-.1-.2 0-.3.1-.1.1-.2.2-.3 0-.1 0-.1-.1-.2h-.4c-.1 0-.1 0-.2-.1-.1-.2-.1-.2.1-.2.1 0 .2 0 .2-.1v-.1c0-.1-.1-.1-.1-.1l-.1-.1c-.3-.2-.3-.2-.3-.5v-.1s0-.1-.1-.1c0-.1-.1-.1 0-.2.1 0 .1 0 .1-.1s.1-.3.1-.4c0 0 0-.1-.1-.1s-.1-.1-.1-.2-.1-.2-.2-.2-.1 0-.2.1c0 .1-.1.2-.1.3-.1.2-.1.2.1.3.1.1.2.2.1.4-.1 0-.3.1-.2.2 0 0 0 .1-.1.1 0 .1 0 .2.1.2h.2c.1 0 .1.1.1.1-.1.1-.1.2-.1.3V66.7c-.1.1-.1.2 0 .3.1.1.1.2.2.3 0 .1.1.2.2.1h.1s.1 0 .1.1c0 0 0 .1-.1.1-.2.1-.3.2-.4.4.1.1.2.2.2.3v.1H47c-.1 0-.1 0-.2-.1 0 0 0-.1-.1-.1-.2-.2-.4-.3-.7-.2-.1 0-.1.1-.1.2v.1c.1 0 .2 0 .2.1l.2.2c0 .1-.1.2-.1.2s0 .1-.1.1c0 .1-.1.1-.2.1-.1.1-.1.2-.1.3-.1.1-.1.2 0 .3 0 .1-.1.2-.1.3l-.2.2c0 .1 0 .1.1.2h.1c.1 0 .1 0 .1.1v.1c0 .1.1.2.2.1.2-.1.4-.2.5-.3.1-.1.2-.1.3 0 .1.1.2 0 .2 0v-.1c0-.1 0-.2-.1-.2h-.2c-.1.1-.1.1-.2.1-.2 0-.4.1-.2-.3v-.1c0-.1.1-.1.2 0s.2.1.3.1c.1-.1.2.1.3.2 0 .1.1.1.2.2.1 0 .1.1.1.2v.1c0 .1 0 .2-.1.2l-.1.1H47c-.1.1-.1.1-.2 0s-.1-.1-.2 0c0 .1-.1.2-.1.3 0 .2-.1.2-.2.3l-.1.2c-.1-.1-.2-.2-.2-.3 0-.1-.1-.2-.2-.2s-.1-.1-.2-.1h-.1c-.1 0-.1.1-.1.2.1.1.2.2.2.4 0 .1.1.1.1.1.1 0 .1.1.1.2 0 .2-.1.3-.1.4-.1.2 0 .3.2.3h.2l.1-.1h.1s.1 0 .1-.1l.1-.1v-.4c.2 0 .2 0 .2.3-.1 0-.1.1 0 .1 0 .1 0 .1.1.1v.1l.1.1c.2.2.3.1.4-.1 0-.1.1-.1.2-.2.3-.1.3-.1.5-.3.1 0 0 .1 0 .1 0 .1.1.2.1.3-.1.1-.2 0-.3.1-.1 0-.1.1-.1.2-.2 0-.3.1-.4.3h-.1-.1c-.1 0-.2-.1-.2-.2-.1-.1-.1-.2-.2-.3h-.1c-.1 0-.1 0-.1.1v.4c.1 0 .1.1.1.2l-.1.1-.1.1c-.1.1-.1.1.1.2.1.1.1.1.2 0 .1 0 .1-.1.1-.1v-.2s.1-.1.2 0c.1 0 .1.1.1.2H47.4c.1 0 .2.1.2.2v.1c-.1 0-.2 0-.3.1-.1.1-.1.2-.2.3 0 .1-.1.2 0 .3v.1c0 .2.1.3.2.4.1.1.2.1.3 0 0 0 0-.1.1-.1v-.1c0-.1.1-.1.1-.1.2.1.4 0 .6-.1h.1c.1 0 .1.1.2.2l.1.1H49.1c.2-.1.4 0 .6-.1.1 0 .1.1.1.1v.1H49.5c-.1.1-.2.1-.3 0-.1-.1-.2-.1-.2 0l-.1.1c-.2 0-.3 0-.4.1-.1 0-.2.1-.2.2v.1c0 .1 0 .2-.1.2H48l-.1-.1s-.1 0-.2-.1c0-.1.1-.1.1-.2.1-.1.2-.1.3-.2.1 0 .1 0 .1-.1.1-.1 0-.2 0-.3 0-.1-.1-.1-.2 0-.1 0-.1.1-.2 0h-.1-.1c0 .1-.1.1-.2.1s-.1 0-.2.1V75.2s0 .1.1.1c0 .1 0 .2-.1.2 0 0-.1 0-.1.1-.1.1-.2 0-.3 0-.1 0-.2.2-.2.2-.2.1-.3.2-.4.3 0 .1-.1.1-.1.2 0 0-.1 0-.1.1h.1c0 .1 0 .1.1.1h.3l.2-.1c.1-.1.2-.2.2-.3 0-.1 0-.2.2-.1.1 0 .1 0 .2.1 0 0 .1 0 .1.1s0 .1-.1.1l-.1.1c-.1 0-.1 0-.2.1-.1 0-.2.1-.1.2h.1c.1 0 .2.1.3.2l.1.1c.1 0 .1-.1.1-.1v-.1-.1h.5c0 .1-.1.2-.2.2s-.1.1-.1.1v.5c0 .1 0 .1-.1.2-.1.2-.2.3-.3.5v.2c.1.1.1.1.2 0h.1v-.1c0-.1 0-.1.1-.2v.1c.1.2.1.2.3.1.2-.1.4-.2.5-.4h.1c.1 0 .1-.1.2-.1s.2-.1.2-.3c0-.1.1-.2.1-.2l.1-.1c.1-.1.1-.2.1-.3 0 0 0-.1.1-.1s.2.1.2.2c.2.3.2.4.1.7 0 0-.1.1-.1 0l-.1-.1c-.1-.1-.2 0-.3.1 0 .1-.1.2-.2.2s-.1.2-.1.2c.3 0 .3.1.3.3V78.7h-.1s0-.1-.1-.1c0-.2-.1-.2-.2-.3 0 0-.1 0-.1-.1l-.1-.1c-.1 0-.2.1-.4.1 0 0-.1 0-.1.1v.1c0 .1 0 .1-.1.1l-.1.1c-.1 0-.1.1-.2.1s-.1-.1-.1-.1c0-.1-.1-.1-.2 0h-.2c-.2.1-.2.1-.2.3 0 .1.1.1.1.1.1 0 .2 0 .3.1H48c.1-.1.2-.2.2-.3v-.1c0-.1.1-.1.1-.1.1 0 .1 0 .1.1s0 .1.1.1c.2 0 .3.2.5.1.1 0 .2 0 .3.1 0 .1.1.1.1.1.1 0 .1 0 .1-.1v-.1-.1s0-.1-.1-.1v-.2c0-.1.1-.1.1-.2V78.6s0 .1.1.1.1 0 .1-.1l.1-.1h.1c.1.1.1.1.2 0 0 0 .1 0 .1-.1 0 0 .1 0 .1-.1v-.2c0-.2.2-.3.4-.3h.8s.1.1 0 .1H50.9c-.1-.1-.2 0-.3 0l-.1.1v.2s0 .1.1.1.2.1.3 0c.1 0 .2-.1.2-.1h.1v.1s0 .1.1.1c.1.1.2.1.3.1.1 0 .2-.1.2-.2v-.1c0-.2 0-.2.2-.1.1 0 .1 0 .2.1.2.1.2 0 .3-.1.1-.2.2-.2.4 0 .1.1.2.1.3 0 .1 0 .1-.1.1-.2s.1-.1.2-.1.3 0 .4.1c.1.1.2.1.3 0 .1-.1.1-.2.1-.2h.3s0 .1.1.1.1 0 .2-.1c2.1 0 4.6.1 7.1.1-.1.2-.1.4-.2.7 0 .1-.1.2-.1.3H59c-3.6.1-6.5.1-7.1.1-.3 0-.3.2 0 .3.7 0 4.9.1 9.5.2-.1.2-.2.4-.4.7-.1.1-.1.2-.2.3-3.3.1-6 .1-6.6.1-.3 0-.3.2 0 .3.5 0 3.1.1 6.2.1-.1.2-.2.3-.3.5v.1l-.2.3-.1.2c-3.6.1-6.5.1-7.1.1-.3 0-.3.2 0 .3.5 0 2.8.1 5.8.1-.8.2-1.6.4-2.4.5-1.2.2-2.5.4-3.8.5-.5 0-1.1.1-1.6.1-.4 0-.8 0-1.2.1h-.6c-.1 0-.2-.1-.2-.1h-.5l-.1.1-1.5.1h-1.8c-1.3 0-2.6-.1-3.9-.2-1.1-.1-2.2-.2-3.3-.4-1.7-.3-3.5-.6-5.1-1.5-.4-1.2-.8-2.5-1-3.8-.1-.6-.2-1.3-.2-1.9v-.7c3.4-.6 6.9-.9 10.4-1.1 0 0 0-.1-.1-.1-3.5.1-6.9.4-10.3.9v-.1c0-.3 0-.5.1-.8v-.2c.2-1.3.5-2.5.9-3.7 0-.1 0-.2-.1-.2s-.2 0-.2.1c-.8 1.6-1.2 3.3-1.4 5l-1.8.3c-.1-.7-.1-1.5-.1-2.2 0-1.1.1-2.1.3-3 .2-1.1.5-2.1 1-2.9 0-.1 0-.2-.1-.2s-.2 0-.2.1c-.5.8-.8 1.7-1.2 2.9-.3 1-.4 2-.5 3.1v2.4h-.4c-.2-2.5.7-6.5 3.5-11zm40.5-13.4c-1.7 0-3.1-1.4-3.1-3.1 0-1.7 1.4-3.1 3.1-3.1 1.7 0 3.1 1.4 3.1 3.1.1 1.7-1.3 3.1-3.1 3.1zm1 .7c.4.4.7.7 1 1.1-.4 0-.8.1-1.2.1-.3 0-.3.3 0 .3.5 0 1 .1 1.5.1.2.4.4.7.5 1.1-.7.1-1.4.1-2 .2-.3 0-.3.3 0 .3.7 0 1.4.1 2.2.2.1.3.1.7.1 1-.8.1-1.7.2-2.4.2-.3 0-.3.3 0 .3.7 0 1.6.1 2.4.2 0 .3-.1.7-.1 1-.8-.1-1.6 0-2.3 0-.3 0-.3.3 0 .3.7 0 1.4.1 2.1.2-.1.3-.2.7-.3 1.1-.6.1-1.2.1-1.9.2-.3 0-.3.3 0 .3.5 0 1.1.1 1.6.1-.1.3-.2.5-.4.8 0 .1-.1.2-.1.3-.5 0-1.1.1-1.5.1-.3 0-.3.3 0 .3.4 0 .9.1 1.3.1-.2.4-.3.8-.4 1.2-.3 0-.7.1-1 .1-.3 0-.3.3 0 .3s.6 0 .9.1c0 .1 0 .2-.1.3-.1.3-.1.6-.1 1-.3 0-.6.1-.9.1-.3 0-.3.3 0 .3s.6 0 .9.1v1.2c-.3 0-.6 0-.8.1-.3 0-.3.3 0 .3s.6 0 .8.1v1.2c-.3 0-.6 0-.8.1-.3 0-.3.3 0 .3s.6 0 .8.1v1.2c-.3 0-.6 0-.8.1-.3 0-.3.3 0 .3s.6 0 .8.1V71.2c-.3 0-.6-.1-.8-.1-.3 0-.6 0-.9.1v-.7-5.1c0-.4-.1-.7-.1-1.1-.1-1-.6-1.8-1-2.7-.1-.3-.3-.6-.4-.9-.6-1.3-.8-2.5-.8-3.7 0-1.6.4-2.8 2.1-4.4.3.1.7.2 1 .2.5-.8.8-.8 1.1-.9zm-.1-25.4v.2c-.3 0-.6 0-.8.1-.3 0-.3.3 0 .3s.6 0 .8.1v1.2c-.3 0-.6 0-.8.1-.3 0-.3.3 0 .3s.6 0 .8.1v1.2c-.3 0-.6 0-.8.1-.3 0-.3.3 0 .3s.6 0 .8.1v1.2c-.3 0-.6 0-.9.1-.3 0-.3.3 0 .3s.6 0 .9.1c0 .3.1.6.1.9 0 .1.1.3.1.4-.3 0-.6.1-.9.1-.3 0-.3.3 0 .3s.7 0 1 .1c.1.4.3.8.5 1.2-.4 0-.9.1-1.3.1-.3 0-.3.3 0 .3.5 0 1 .1 1.6.1l.1.2c.1.3.3.6.4.9-.6.1-1.1.1-1.7.1-.3 0-.3.3 0 .3.6 0 1.3.1 1.9.2.1.4.2.7.3 1-.7.1-1.5.1-2.2.2-.3 0-.3.3 0 .3.7 0 1.5.1 2.3.2.1.3.1.7.1 1-.8.1-1.6.2-2.4.2-.3 0-.3.3 0 .3.7 0 1.6.1 2.4.2 0 .3-.1.7-.1 1-.7.1-1.5.1-2.1.2-.3 0-.3.3 0 .3.6 0 1.3.1 2 .2-.1.4-.3.7-.6 1.1-.5 0-.9.1-1.4.1-.3 0-.3.3 0 .3s.7 0 1.1.1c-.2.3-.5.6-.9.9-.3-.1-.7-.2-1-.2-.4 0-.7.1-1 .2-1.7-1.6-2.1-2.9-2.1-4.4 0-1.1.3-2.4.8-3.7.1-.3.3-.6.4-.9.4-.8.8-1.7 1-2.7.1-.3.1-.7.1-1.1v-5.8c.3 0 .6.1.9.1.3 0 .6 0 .8-.1h-.2zm-2.5-1v6.1c0 .3 0 .6-.1 1-.1.5-.3 1.1-.5 1.6-.1.3-.3.6-.4.9-.1.3-.3.6-.4.9-.6 1.4-.9 2.7-.9 4 0 1.6.4 3.1 2.1 4.7-1.2.7-2.1 2-2.1 3.5s.9 2.8 2.1 3.5c-1.7 1.7-2.1 3.1-2.1 4.8 0 1.3.3 2.6.9 4 .1.3.3.6.4.9.1.2.2.5.3.7.3.6.5 1.1.6 1.7 0 .3.1.6.1 1v6c-1.2.4-2.1 1.4-2.1 2.4s.8 1.9 2 2.4c-.6.3-1.1.7-1.4 1.3l-1.2-.3c.1-.5.2-1.1.2-1.6.2-2.7-.6-5.3-1.7-7.7-.7-1.5-1.6-3-2.6-4.4-.1-.1-.2-.3-.3-.4-.1-.1-.2-.2-.2-.3-1.1-1.4-2.3-2.9-4-4.5-2.2-2.2-4.6-4.2-6.4-5.6-.7-.5-1.3-1.1-1.6-1.9 0-.1-.1-.3-.1-.4 0-.1 0-.3.1-.4.2-.8.9-1.4 1.6-1.9 1.8-1.5 4.2-3.4 6.4-5.6 2.4-2.4 4-4.5 5.3-6.6 2.2-3.5 3.2-6.6 3.3-9.3 0-3.2-1.1-5.7-1.8-7 .8-.1 1.6-.3 2.3-.5.3 1 1 1.9 1.9 2.4-1.2.5-2 1.4-2 2.4.2.9 1 1.8 2.3 2.2zM47.3 3c5.2 0 9.9.3 13.9.8-6.5.1-13 .2-13.7.2-.3 0-.3.2 0 .3.8.1 10.5.2 18.1.3 1.1.2 2.2.5 3.3.8-7 .1-17.7.2-18.7.3-.3 0-.3.2 0 .3 1.1 0 14.8.1 21.3.2.6.2 1.1.4 1.5.7-3 0-8.8.1-13.5.2-3.6.1-6.5.1-7.1.1-.3 0-.3.2 0 .3.8 0 6.3.1 11.6.2 4.5.1 8.8.1 10.4.1.2.2.4.4.5.6-.6 0-3.3 0-6.7.1-1.5 0-3.2 0-4.8.1-4.1.1-8 .1-8.6.2-.3 0-.3.2 0 .3.9 0 6.9.2 12.2.2l4 .1c2 0 3.5.1 3.9.1-.1.2-.2.4-.4.6H70c-6.1.1-15.6.2-16.7.3-.3 0-.3.2 0 .3 1.2.1 13.5.2 19.1.3h.9c-.1.1-.3.1-.4.2-.3.2-.7.3-1 .5-5 .1-14.1.2-15.2.3-.3 0-.3.2 0 .3 1 .1 7.7.2 12.8.3-1 .3-2 .5-3.2.8-7.7.1-17.7.2-18.7.3-.3 0-.3.2 0 .3.8 0 7.7.1 14.5.2-3.8.5-8.2.9-13.1.9h-1.5-.1-1.6c-11-.1-19.6-1.7-23.6-3.6-1.6-.8-2.5-1.6-2.5-2.4-.2-3 11.2-6.1 27.6-6.1zM22.9 44.9c1.7 0 3.1 1.4 3.1 3.1 0 1.7-1.4 3.1-3.1 3.1-1.7 0-3.1-1.4-3.1-3.1-.1-1.6 1.3-3.1 3.1-3.1zm3.7 28.2c0-1.1-.9-2-2.1-2.5v-.9-5.1c0-.3.1-.6.1-1 .1-.8.5-1.7.9-2.5.1-.3.3-.6.4-.9.6-1.4.9-2.7.9-4 0-1.6-.4-3.1-2.1-4.7 1.3-.7 2.1-2 2.1-3.5s-.9-2.8-2.1-3.5c1.7-1.7 2.1-3.1 2.1-4.7 0-1.3-.3-2.6-.9-4-.1-.3-.3-.6-.4-.9-.4-.8-.8-1.6-.9-2.5 0-.3-.1-.6-.1-1v-6c1.2-.4 2.1-1.4 2.1-2.5 0-1-.8-1.9-2-2.4.9-.5 1.6-1.3 1.9-2.4.8.2 1.5.4 2.4.5-.7 1.3-1.8 3.8-1.8 7 0 2.7 1.1 5.8 3.3 9.3 1.3 2.1 2.9 4.1 5.3 6.6 2.2 2.2 4.6 4.2 6.4 5.6.7.5 1.3 1.1 1.6 1.9 0 .2.1.3.1.4 0 .1 0 .3-.1.4-.2.8-.9 1.4-1.6 1.9-1.8 1.4-4.2 3.4-6.4 5.6-2.4 2.4-4 4.5-5.3 6.6-2.9 4.7-3.9 8.9-2.9 12.7-.4.1-.9.2-1.3.3-.4-.7-.9-1.2-1.6-1.6 1.2-.3 2-1.2 2-2.2zm49.4 8c-.1-.4-.3-.7-.5-1l-.3-.3c.1-.3.1-.6.1-1 0-1.5-.8-2.7-2-3.3 1.2-.5 2-1.4 2-2.4 0-1.1-.9-2-2.1-2.5v-.9-5.1c0-.3.1-.6.1-1 .1-.8.5-1.7.9-2.5.1-.3.3-.6.4-.9.6-1.4.9-2.7.9-4 0-1.6-.4-3.1-2.1-4.7 1.3-.7 2.1-2 2.1-3.5s-.9-2.8-2.1-3.5c1.7-1.7 2.1-3.1 2.1-4.7 0-1.3-.3-2.6-.9-4-.1-.3-.3-.6-.4-.9-.4-.8-.8-1.6-.9-2.5 0-.3-.1-.6-.1-1v-6.1c1.2-.4 2.1-1.4 2.1-2.5 0-1-.8-1.9-2-2.4 1.2-.6 2-1.9 2-3.3 0-.7-.2-1.3-.5-1.9.7-.6 1.1-1.3 1.1-2V8.9C75.8 4.4 61.1 2 47.3 2S18.7 4.4 18.5 8.9v4.5c0 .7.4 1.4 1.1 2-.3.6-.5 1.2-.5 1.9 0 1.5.8 2.7 2 3.3-1.2.5-2 1.4-2 2.4 0 1.1.9 2 2.1 2.4v6.1c0 .3 0 .6-.1 1-.1.5-.3 1.1-.5 1.6-.1.3-.3.6-.4.9-.1.3-.3.6-.4.9-.6 1.4-.9 2.7-.9 4 0 1.6.4 3.1 2.1 4.7-1.2.7-2.1 2-2.1 3.5s.9 2.8 2.1 3.5c-1.7 1.7-2.1 3.1-2.1 4.8 0 1.3.3 2.6.9 4 .1.3.3.6.4.9.1.2.2.5.3.7.3.6.5 1.1.6 1.7 0 .3.1.6.1 1v6c-1.2.4-2.1 1.4-2.1 2.4s.8 1.9 2 2.4c-1.2.6-2 1.9-2 3.3 0 .5.1.9.3 1.3l-.4.4c0 .1 0 .1-.1.2 0 0 0 .1-.1.1 0 .1-.1.2-.1.3-.1.1-.1.2-.1.3v4.2c-.1.1-.1.2-.1.3 0 .9.6 1.7 1.7 2.5 0 .1.1.2.2.2 4.5 2.8 15.9 4.3 26.8 4.3 13.9 0 28.8-2.4 28.8-7V82c.1-.3.1-.6 0-.9z"/>
    <path d="M50.7 83.1H51.9c.1 0 .2 0 .2-.1s-.2-.1-.2-.1h-1.2c-.1 0-.1.1-.1.1-.1.1 0 .1.1.1m-4.3 3h-.5l-.1.1c0 .1 0 .1.1.1h.5c.1 0 .2 0 .2-.1l-.2-.1m27.2-39.4c-.5-.6-1.2-.9-2-.9.7 0 1.4.4 1.7 1 .4.6.4 1.3.2 1.9-.2.6-.8 1-1.4 1.2-.6.2-1.3.2-1.9-.2.5.6 1.3.9 2.1.7.8-.2 1.4-.9 1.7-1.6.2-.7 0-1.5-.4-2.1m-4 .5c.2-.5.6-1 1.2-1.2.1 0 .1 0 .1-.1h-.1c-.6.2-1.1.6-1.3 1.2-.3.6-.3 1.4 0 2v.1c0 .1.1.2.2.2 0 .1.1.1.1 0v-.1c-.4-.6-.5-1.4-.2-2.1"/>
    <path d="M72.6 47.1c.2.3.3.8.1 1.2-.1.4-.5.6-.8.7-.4.1-.8.1-1.2-.1.3.4.8.5 1.3.4.5-.1.9-.5 1-1 .1-.5.1-1-.2-1.4-.3-.4-.7-.6-1.2-.6.3.3.7.5 1 .8m-2.4 1.4l.1.1h.1c-.2-.4-.2-.9-.1-1.3.1-.3.4-.6.7-.8h-.1c-.4.1-.6.4-.8.7-.1.4-.1.9.1 1.3"/>
    <path d="M71.1 48.4c-.2-.2-.3-.5-.2-.8-.1.1-.1.3-.1.5 0 .1.1.2.3.3.1.2.2.3.4.3s.4-.1.5-.2c.3-.3.3-.7 0-1-.1-.1-.3-.2-.5-.3-.2 0-.3 0-.5.1.3-.2.6-.1.8.2.2.2.2.6 0 .8-.1.2-.5.2-.7.1m.5 28s0 .1 0 0c0 .1 0 .1 0 0 .7.1 1.4.5 1.7 1.1.2.3.3.7.3 1.1 0 .2 0 .4-.1.6 0 .1 0 .2-.1.2 0 .1-.1.2-.1.2-.2.3-.4.5-.7.7-.2.1-.3.2-.5.3-.6.2-1.3.2-1.9-.2.2.3.5.4.8.6.4.2.9.2 1.3.1.1 0 .3-.1.4-.2.3-.1.6-.4.8-.7.1-.1.2-.3.3-.4.1-.1.1-.3.2-.4v-.1-.5c0-.5-.2-1.1-.5-1.5-.4-.5-1.1-.9-1.9-.9"/>
    <path d="M71.9 80.1c.4-.1.6-.3.8-.6.1-.1.1-.2.2-.4v-.2-.6c0-.2-.1-.4-.3-.6-.3-.4-.7-.6-1.2-.6.4 0 .8.3 1.1.6.1.1.1.2.1.3.1.2.1.4 0 .6 0 .1 0 .1-.1.2 0 .1-.1.2-.1.3-.1.1-.1.2-.2.2-.1.1-.3.2-.5.3-.4.1-.8.1-1.2-.1.4.5.9.7 1.4.6"/>
    <path d="M71 79.1c.1.1.3.2.5.2s.4-.1.5-.2V79c.1-.1.1-.1.1-.2v-.3c0-.2-.1-.3-.2-.4-.1-.1-.3-.2-.5-.3-.2 0-.3 0-.5.1.3-.2.6-.1.8.2.1.1.1.2.1.3 0 .2 0 .4-.1.5 0 .3-.4.3-.7.2 0-.2-.1-.2-.1-.4v-.2c0-.1 0-.2.1-.3-.1.1-.1.2-.1.3V78.8c-.1.1 0 .2.1.3m-17.5-6.6l.1.2c.2.4.3.7.4 1.1.1.2.1.4.2.6l.1.1.1-.1c0-1.2-.3-2.4-1-3.7-.6-1.3-1.4-2.3-2.2-3.1h-.1s-.1.1 0 .1c.7 1.2 1.2 2.2 1.7 3.3.2.4.4.9.7 1.5m4.9-2c-.3-.4-.6-.6-.9-.8h-.1v.1l.3.5c.3.5.5 1 .8 1.5.1.3.3.6.4.8l.5 1.2.1.1s.1 0 .1-.1c.1-.7-.1-1.6-.5-2.3-.3-.4-.5-.7-.7-1m-1-3.7h-.1v.1c.3.4.5.8.8 1.2.1.2.3.4.4.6.1.2.2.3.3.5.1.1.2.2.3.4l.6.9h.1c.1 0 .1 0 .1-.1 0-.7-.4-1.3-.9-2-.5-.8-1-1.3-1.6-1.6m4.3 2.6c.4.8.8 1.7 1.1 2.5 0 .1.1.1.1.1l.1-.1c-.1-.8-.3-1.7-.8-2.7-.3-.8-.8-1.6-1.4-2.5-.5-.8-1.1-1.5-1.7-2.2-.7-.8-1.4-1.4-2-1.9H57v.1c1.1 1.4 2.3 2.8 3.3 4.4.5.7 1 1.5 1.4 2.3m.1-2.9c0 .1.1.1.1.2.1.1.2.2.3.4l.1.1c.1.1.2.3.4.4h.1l.1-.1c0-.5-.2-.9-.5-1.4-.4-.5-.7-.8-1.2-.9h-.1v.1c.2.5.5.8.7 1.2zm-1.2 5c-.1-.1-.1-.2-.2-.3 0-.1-.1-.2-.2-.2 0 0-.1 0-.1.1v.4c.1.4.3.7.5 1.1 0 .1.1.1.1.1h.1v-.3-.3c-.1-.2-.1-.4-.2-.6m-26.1-6.7h.1c.7-1 1.3-1.8 1.9-2.6.2-.2.4-.5.6-.7.5-.6.9-1 1.6-1.8v-.1h-.1c-.5.3-.9.7-1.3 1-.4.3-.8.7-1.1 1.2-.3.4-.7.8-1 1.4-.3.5-.5 1-.7 1.5v.1m-4.3 9.7c.1 0 .1 0 0 0 .1.1.2.1.2 0 .1-.7.2-1.4.5-2.1.2-.7.4-1.4.7-2 .5-1.1 1.1-2.3 1.9-3.8v-.1h-.1c-.5.4-.9 1-1.4 1.7-.4.6-.7 1.3-1 1.9-.7 1.6-.9 3-.8 4.4m1.4-8.3c.7-.7 1.2-1.6 1.7-2.3.5-.7.9-1.4 1.5-2.2l.1-.1v-.1h-.1c-.4.3-.8.7-1.1 1-.3.4-.6.8-.9 1.1-.6 1-1 1.7-1.3 2.5 0 0 0 .1.1.1m5.8-2.2c-.6.3-1.1.8-1.5 1.5-.4.7-.7 1.4-.8 2 0 0 0 .1.1.1h.1c.4-.5.7-.9 1-1.4l.8-1.2c.1-.1.1-.2.2-.3.1-.2.3-.4.4-.6-.1 0-.1 0-.3-.1.1 0 0 0 0 0m23.2-32.8c.4-.4.7-.8.9-1.4.2-.4.3-.9.4-1.3v-.4c0-.4.1-.9 0-1.3 0-.5-.1-1-.3-1.5l-.1-.1c-.1 0-.1.1-.1.1 0 1 0 1.9-.2 2.9-.1 1.1-.4 2-.7 2.8-.1 0-.1.1.1.2-.1 0-.1 0 0 0m2.1-3.4c0 .1 0 .1.1.1 0 0 .1 0 .1-.1.3-.5.5-1 .6-1.6.1-.5.1-1 .1-1.5V24.4c0-.4-.1-.8-.1-1.1-.1-.4-.2-.8-.3-1.1 0-.2-.1-.3-.2-.5-.1-.1-.1-.2-.2-.3-.1-.1-.1-.1-.2-.1s-.1.1-.1.2c.2 1 .4 2 .4 3.1.1 1.2 0 2.2-.2 3.2m-31.5 3.1c-.2-.9-.5-2.1-.6-3.4-.1-1.2 0-2.5.1-3.7.1-.8.4-1.7.6-2.5 0-.1.1-.3.1-.4 0-.2-.1-.3-.2-.3-.2 0-.2.1-.3.1-1.2 2-1.3 4.4-1.1 6.9.2 2.2.8 4.3 1.9 6.3v.1s.1.1 0 .1v.1h.1s0 .1.1.1h.2s.1 0 .1-.1v-.1c-.4-1.2-.7-2.2-1-3.2m2.1 1.6c.1 0 .2-.1.2-.2s-.1-.1-.1-.1h-.1c-.1-.6-.3-1.3-.4-1.9 0-.2-.1-.4-.1-.5 0-.1-.1-.3-.2-.4h-.2v.1c0 .7.2 1.5.4 2.2 0 .1.1.3.2.4.1.1.1.3.2.5 0 0 0 .1.1.1h.1c-.1 0-.1-.1-.1-.2m1.2-1.4c.1.5.2.9.4 1.4 0 .1-.1.1-.1.2v.1h.1l.1-.1c.1.2.1.4.2.5.1.2.2.5.2.7.1.4.3.8.5 1.3-.1 0-.2.2-.1.3h.1c.1 0 .1 0 .2-.1.1.2.2.5.3.7l-.1.1v.1h.1c.1.1.1.3.2.4l.1.1s.1 0 .1-.1v-.1l-.6-2.1-.2-.8c-.1-.3-.2-.7-.3-1-.2-.6-.3-1.2-.5-1.8-.3-1-.5-1.9-.7-2.8-.1-.5-.2-1-.2-1.4-.1-.5-.1-1-.2-1.5H34h.1c0-.1 0-.1-.1-.1s-.1 0-.1.1c-.1 1 0 2.1.1 3 .1.9.3 1.8.5 2.9m8.2 4.6s0 .1.1.1c0 0 0 .1.1.1l.1.1s.1 0 .1-.1v-.1l-.5-1.8c-.1-.2-.1-.4-.2-.7l-.3-1.2-.6-1.8c-.2-.6-.4-1.2-.7-1.8 0-.1-.1-.1-.1-.1h-.1v.1c.2 1.3.5 2.5.8 3.7.2 1.2.6 2.4 1.3 3.5m10.8 9.4l.1-.1-.1.1c0-.1 0-.1 0 0M54.7 44.1c.1 0 0 0 0 0zM54.1 44.6c-.1 0-.1 0 0 0-.1 0 0 0 0 0m-.1.1zm-1.1.8c.1 0 0 0 0 0m-.6.6c.1-.1.1-.1 0 0 .1-.1.1-.1 0 0M52.3 46.1zm.6-.5c0-.1 0 0 0 0m-.2.1c.1 0 .1 0 0 0 .1 0 0 0 0 0m-.1.2c0-.1 0-.1 0 0m.1-.1zm0 0c0-.1 0 0 0 0m.1-.1c.1-.1.1-.1 0 0 0-.1 0-.1 0 0M55.900000000000006 43zm1.1-1c0-.1 0-.1 0 0zm-.5.4c0-.1 0-.1 0 0m.5-.4c-.1 0-.1 0 0 0M57.5 41.4l.1-.1c0 .1-.1.1-.1.1zM57.5 41.4zm-.2.2c0 .1-.1.1 0 0m-1.5 1.5s.1-.1 0 0c.1-.1 0 0 0 0m-.9.8c0 .1 0 0 0 0m.8-.7zm-.1.1c0-.1 0 0 0 0M55.5 43.4c.1-.1.1-.1 0 0M56.2 42.7s-.1 0 0 0c-.1.1-.1.1 0 0m-4.4 3.9c0 .1 0 0 0 0m4.2-4.1z"/>
    <path d="M44 43.2l-.1.1c-.1 0-.1.1-.2 0l-.1-.1c-.1 0-.1 0-.2-.1 0-.1 0-.1.1-.2 0-.1 0-.1-.1-.1h-.2c-.1 0-.2-.2-.1-.2.1-.1.2-.1.3 0 0 .1.1.2.2.2.1-.1.3-.1.4-.2h.1v.1c0 .1-.1.1-.2.2.1 0 .3.1.3.2h.1c.1 0 .1-.1.2-.1.2-.1.2-.1.2-.3 0-.1 0-.1.1-.2v.1c.1.2.2.3.5.2.1 0 .2 0 .3.1 0 .1.1.1.1.1.2.1.2.1 0 .2h-.4c-.1 0-.1 0-.2.1s-.1 0-.1-.1c.1-.1 0-.1 0-.2-.2 0-.3.1-.3.2s-.1.1-.1.1c-.1 0-.3.1-.4-.1H44m-1.2-3.5v-.1c0-.1-.1-.1-.1-.1l-.1-.3c.1 0 .1 0 .2-.1h.1c.1 0 .1 0 .1.1v.1c0 .2 0 .3.2.4.1.1.1.2 0 .3-.1.1-.1.2-.1.3-.1-.3-.2-.5-.3-.6m-.7.3s-.1.1-.1 0c0 0-.1-.1 0-.1l.2-.4v-.1c.1.1.2.3.2.4-.1 0-.2.1-.3.2m-.2-.9c-.2.3-.4.2-.6 0V39v-.1c.1-.1.1-.2.2-.2.1-.1.1-.2.2-.2 0 .2.1.4.2.6m.1-1.5c.1 0 .1 0 .2.1v.2c0 .1 0 .2.1.3.2.1.2.2.2.4 0 .1 0 .1-.1.1 0 0 0-.1-.1-.1v-.1-.1s0-.1-.1-.1c-.1-.2-.2-.4-.2-.7-.1.1 0 0 0 0m1.5 2.7c.2-.1.2-.1.3 0v.1c0 .1 0 .3.1.4v.1s0 .1-.1.1-.1.1-.2 0v-.2c.1-.1 0-.3-.1-.4h-.1l-.1.1c-.1-.2-.2-.3-.2-.5.1.4.3.3.4.3m.5.8h.1c.2 0 .2-.1.1-.3 0-.1 0-.2-.1-.2H44v-.1-.1c.2-.1.3-.2.5-.2.1 0 .1 0 .2.1v.3l-.3.3v.2c0 .1 0 .1-.1.1-.2.1-.3.3-.4.5-.1.2-.2.2-.4.3-.1 0-.2-.1-.2-.2s0-.1.1-.2c.1 0 .2-.1.2-.1.2-.1.3-.2.4-.4-.1.1 0 .1 0 0m.6.2l.1-.1v.1c.1 0 0 .1-.1 0 0 .1 0 0 0 0m0 .6c0-.1.1-.2.3-.2.1 0 .1 0 .1.1s0 .1.1.2c0 .1 0 .2-.1.2-.2 0-.2 0-.2.2v.1c-.1.1-.1.1-.2 0s-.2-.1-.3 0c-.1.1-.3 0-.4 0v-.1c.1-.1.2-.1.3-.2.1-.1.2-.1.3-.1 0 0 .1-.1.1-.2m.7.4c0 .1 0 .1-.2.1v-.1c.1 0 .1-.1.2 0-.1-.1 0-.1 0 0 0-.1 0-.1 0 0m-.2-1.8c.1-.1.2-.2.2-.3l.1-.1s.1-.1.1 0c.1 0 .1.1.1.1v.1c-.1.2-.2.5-.4.7-.1.1-.2.1-.2.1h-.1V41c0-.3.1-.4.2-.5m.9-.4h.2c.1 0 .1 0 .1.1 0 0 0 .1.1.2 0 .1.1.1.2.1s.1-.1.1-.1v-.3c-.1-.2 0-.3.1-.5 0-.1.1-.1.2 0l.1.1c.1.1.2.2.4.2h.1v.1c-.1 0-.1.1-.2.1-.1.1-.3.2-.4.3-.1.1-.2.1-.2.2s-.1.2-.2.2-.2.1-.3-.1c0-.1-.1-.1-.2 0H45.8c-.1 0-.1-.1-.1-.2.1-.3.1-.4.3-.4m1.6.4c.1.1.1.1 0 0 .1.1.1.2 0 .2-.2.1-.4.1-.6.2-.1 0-.1 0-.2-.1v-.1-.1c0-.1.1-.1.1-.1s.1 0 .1.1c.1.1.2.1.2 0 .2 0 .3-.1.4-.1m0-1.1c0-.1.1-.1.2-.2.1 0 .2 0 .2.1s0 .2-.1.2h-.1-.1c-.1 0-.1-.1-.1-.1m.2 1.7c0-.1.1-.1.2-.1 0 0 .1 0 .1.1s-.1.2-.2.1c-.1 0-.1 0-.1-.1m.1.4h.1c.1 0 .1 0 .1.1s0 .1-.1.1c0 0-.1 0-.1.1-.1 0-.2 0-.2-.1 0-.2 0-.2.2-.2m-.6.2c0 .1.1.1.2.2-.1.2-.2.3-.4.4 0 0 0 .1-.1.1 0 .1-.2.2-.3.3-.1.1-.2 0-.3-.1v-.1c0-.1.1-.2.1-.2 0-.1.1-.1.1-.1.1 0 .2 0 .3-.1.1-.1.2-.2.2-.4 0-.1 0-.2-.1-.2s-.2 0-.2.1c-.1.1-.2.3-.3.4v-.1c.2-.2.3-.5.5-.6h.1s.1 0 .1.1c.1.1.2 0 .3.1-.1 0-.2.1-.2.2m-1.5.2c.1.1.1.2.2.3.1.1.1.1 0 .2 0 0-.1.1-.2.1s-.2 0-.2-.1 0-.2-.1-.3c-.1 0 0-.1 0-.2v-.2c0-.1-.2-.1-.1-.2 0-.1.1-.1.2-.1.1-.1.1-.2.2-.3.1.1.2.2.4.2.1 0 .1.1.1.2-.1.1-.2.2-.3.2h-.1c-.1 0-.2.1-.1.2m2.3-2c.1-.1.3-.1.3-.1.1 0 .2.2.2.3 0 .2.1.3.1.5.1.1.2.2.3.1h.1s.1 0 .1.1v.1l-.1.1c-.1 0-.1 0-.2.1 0 .2-.1.3-.3.4-.1 0-.1.1-.1.2s-.1.2-.1.3v.1c0 .1.1.1 0 .2s-.1 0-.2-.1l-.1-.1h-.2c-.1.1-.1.1 0 .2s.1.2.2.2c0 .1-.1.1-.2.2-.2.3-.2.4-.1.7-.1.1-.2.1-.3.2h-.1v-.1l.1-.1c.1-.2.1-.2-.1-.3h-.1c-.1 0-.2 0-.3.1-.1.1-.1.2 0 .2.1.1 0 .2-.1.2 0 .1-.1.2-.2.3-.1.1-.1.2.1.3 0 0 .1 0 .1.1l-.1.1c-.1 0-.1 0-.2.1-.1 0-.2.1-.2.2 0 .2-.2.3-.3.4H46V45c0-.2.1-.3.1-.5 0-.1.1-.1.1-.2.2-.2.3-.4.3-.6v-.1c0-.2 0-.2-.2-.2h-.1c-.1 0-.3.1-.3.2V43.9c0 .1 0 .1-.1.1.2.1.2 0 .2 0 0-.1 0-.2-.1-.2s-.1-.1 0-.2.2-.1.2-.2c.1-.1.2-.2.4-.2.1 0 .2 0 .3-.1h.1c.2-.1.4-.1.6-.2.2 0 .2-.1.3-.3v-.2c.1-.1.1-.2.1-.3 0-.1.1-.2.2-.3.3-.1.4-.3.5-.5 0-.1.1-.3.1-.4 0-.1 0-.1-.1-.1h-.1c-.2 0-.1-.1-.2-.2v-.2c0-.1.1-.1.1-.2v-.1h-.1c-.1 0-.1.1-.2.1-.1.1-.2.1-.3.1 0 0-.1 0-.1-.1s0-.1.1-.1.2 0 .3-.2m1.3 1.9l.1-.1h.1s0 .1-.1.1c-.1.1-.2.2-.2.4s-.2.4-.3.6h-.1v-.2l.1-.1c.1-.1.1-.1 0-.2 0-.1 0-.1.1-.2 0-.1.2-.2.3-.3m.2-1.1c.2-.1.3-.2.5-.2h.2c0 .1-.1.1-.1.2-.1.1-.1.1-.2 0s-.1 0-.2.1-.1 0-.2 0c-.1.1-.1 0 0-.1m.3-.8l.2-.2c.1-.1.2-.1.3 0 .1.1.1 0 .1-.1v-.1h.1c.1.1.1.2.1.3-.1.1-.2.2-.3.2-.1 0-.2 0-.3.1H50l-.1-.2c0 .1 0 .1 0 0m1.1.1h.1s.1.1 0 .1l-.1.1c-.1.1-.1.2 0 .4 0 .1-.1.2-.2.2h-.1c-.1-.1-.1-.2-.1-.2 0-.1.1-.1 0-.2.1-.2.3-.3.4-.4m.5 2.5c.1 0 .2-.1.2-.2 0-.2.2-.3.3-.4h.1s.1 0 .1.1 0 .2-.1.3c0 .2-.2.4-.4.5-.2.1-.3.2-.5.3-.1-.1-.2-.1-.3-.1 0 0-.1 0-.1-.1s.1-.3.2-.3c.2 0 .3-.1.5-.1m.3-3.5h.3c0 .1-.1.1-.2.1-.2.1-.2.2 0 .3 0 0 .1 0 .1.1v.1h-.2c-.1 0-.2-.1-.3-.2v-.1c0-.1.1-.3.3-.3m.9 1.4c.1.2.3.3.5.4.2.1.2.3.1.4 0 .1-.2.1-.2 0-.1 0-.1-.1-.2-.2-.1-.2-.2-.2-.3-.1-.1.1-.2.2-.4.2.2-.2.3-.4.3-.6 0-.1-.1-.1-.1-.1-.1 0-.1.1-.2.1h-.1v-.1c.1-.2.5-.2.6 0m.5-.8s.1 0 0 0c.2-.2.3-.2.5-.1 0 0 .1 0 .1.1-.1 0-.2.1-.2.1h-.2c-.1 0-.1.1-.3 0 0 .1.1 0 .1-.1m.4 2.1c-.1.1-.1.2 0 .3.1.1 0 .2-.1.3 0 0-.1.1-.2.1h-.1l-.1-.1c0-.1.1-.2.1-.3 0-.1 0-.1-.1-.2-.1 0-.2.1-.2 0 .4-.2.4-.2.7-.2.1.1 0 .1 0 .1m-1 .6c-.1.1-.2.1-.3 0l-.1-.1c0-.1 0-.1.1-.1H52.6c.1 0 .1 0 .1.1 0 0 0 .1-.1.1m-1.5 3.2c-.1.1-.2.2-.4.2h-.1v-.1c0-.1.1-.1.1-.2s0-.1.1-.1.3.1.3.2m-.6-3.4c0 .1 0 .2-.1.3-.1.1-.2 0-.3-.1v-.1c0-.1.1-.2.2-.2.1-.1.2-.2.1-.3v-.1c0-.1 0-.1.1-.1s.1 0 .2.1v.2c-.2 0-.2.1-.2.3m-.7 1.9l.2.2v.1c-.1 0-.2.1-.3.1h-.1c-.1 0-.2-.3-.1-.3.1-.1.1-.2.1-.3 0 0 0-.1.1-.1.1-.1.2-.1.2-.2h.1v.1c0 .1 0 .1-.1.2l-.1.1c-.1-.1-.1 0 0 .1m-.2 1.3l-.2.2h-.1c-.1 0-.1 0-.1-.1s.1-.2.2-.3c.1 0 .1-.1.2 0 .1 0 0 .1 0 .2m-.3-2.3s0-.1 0 0c.1-.3.2-.3.4-.2.1 0 .1 0 .1.1v.1l-.1.1c-.1 0-.2.1-.3.1 0 0-.1.1-.2 0 0-.1 0-.2.1-.2m-.2.7c.1-.2.2-.2.3-.1v.1c0 .1-.1.1-.3 0 0 .1 0 .1 0 0m-.1 3.9h-.2s-.1 0-.1-.1 0-.1.1-.1.1-.1.2-.1c0 0 .1 0 .1.1s-.1.2-.1.2m-.7-3.6s-.1 0 0 0c-.1 0-.1 0 0 0-.1 0-.1 0 0 0-.1-.1-.1-.1 0-.1l.1-.1c.1-.1.2-.2.2-.4v-.2h.1c0 .1.1.2.1.4 0 .1 0 .2-.1.2-.2 0-.3.1-.4.2m.1 1.5c0 .1-.1.1-.2.2-.2.2-.5.4-.7.6h-.1v-.1c0-.2.1-.3.3-.4.2-.1.4-.3.6-.4.1-.1.1-.2 0-.3 0 0 0-.1.1-.1h.1c.1.1 0 .3-.1.5m-.8-.8s0-.1 0 0c.2-.1.2-.2.4-.2.1-.1.2 0 .3.1v.1c-.1.1-.2.1-.3.1-.2 0-.2 0-.4-.1.1 0 0 0 0 0m-.2.9c-.1 0-.1 0-.2-.1 0-.1 0-.2-.1-.2 0 0-.1-.1 0-.1 0-.1.1-.1.2-.1s.2.1.3.2v.1c0 .1-.1.2-.2.2m-.4.6c0 .1-.1.1-.2.1h-.1v-.1-.1c0-.1.1-.1.2-.1s.1.1.1.2m-.4-.4s-.1 0 0 0c0-.2.1-.3.2-.4v.2l-.2.2m-.3.4c.1 0 0 .1 0 .2-.1 0-.1 0-.2.1-.1 0-.2.1-.2.2s0 .2-.1.2c0-.1-.1-.1-.1-.1h-.2c.1-.1.2-.3.3-.5 0-.2.1-.3.2-.3s.1-.1.1-.2-.1-.1-.2-.1l-.1.1h-.1v-.1c0-.1.1-.1.1-.1.2 0 .4 0 .5.1.1 0 .1.1 0 .2s-.1.1-.1.2c0 0 0 .1.1.1m-3.6-3c-.1 0-.2-.1-.2-.2v-.1-.1h.1c.1 0 .2 0 .2.1.1.2 0 .3-.1.3m-.2-.7c-.1 0-.1 0 0 0l-.1-.1c-.1-.2-.1-.2.2-.3.2-.1.2 0 .2.2-.1.1-.1.2-.3.2m6.9-3.4c-.1 0-.1-.1-.1-.1s0-.1.1-.1c0 0 .1.1 0 .2.1 0 0 0 0 0m5.8-.8s.1-.1.2-.1c0-.1.1-.1.2-.1s.1.1.1.2.2.1.2.2-.1.1-.2.2h-.1c-.1-.1-.2-.2-.3-.2-.1-.1-.1-.1-.1-.2-.1.1 0 .1 0 0m.8-.7c0-.1.1-.1.2-.2h.1c.1 0 .1.2.1.3 0 .1-.1.1-.1.2-.1.1-.1.1-.2 0-.1 0-.2 0-.3-.1.1 0 .2-.1.2-.2m.5 2.4c.1 0 .2.1.2.2 0 0 0 .1-.1.1-.1-.1-.2-.2-.1-.3m-.3.4c0 .1-.1.1-.1.1-.1 0-.1-.1-.1-.1 0-.1 0-.1-.1-.2 0-.1 0-.2.1-.3h.2v.5c0-.1 0-.1 0 0m1.2-3.7c0 .1 0 0 0 0h-.2v-.1c0-.1.1-.1.1-.2s0-.1-.1-.2c0-.1 0-.1.1-.1l.1.1c.1.1.1.1.2 0 0 0 .1-.1.1-.2l.1-.1c.1-.1.2-.2.3-.2 0 0 .1 0 .1-.1v-.1c.1-.1.1-.1 0-.2l-.1-.1v-.1c.1 0 .2.1.3.1 0 0 .1.1 0 .1 0 .2-.1.3-.2.4 0 0-.1 0-.1.1-.1.2-.2.4-.3.5l-.1.1-.3.3m1.8.2c.1 0 .1 0 0 0 0 .2 0 .3-.2.4-.2.1-.3.2-.5.2-.1 0-.2.1-.2.1-.1 0-.1.1-.2.2H58v-.1c.1-.2.3-.3.6-.3.2-.1.4-.2.6-.5m-.5-.5c.2-.2.3-.3.3-.5v-.1c0-.2.2-.2.3-.2 0 0 .1 0 .1.1-.1.2-.2.3-.2.5 0 .1-.1.1-.1.2h-.3c0 .1-.1.1-.1 0 0 .1 0 .1 0 0-.1 0-.1 0 0 0m.7-1.2c.1-.1.1-.2.2-.3.1-.1.1-.2.1-.3-.1 0-.1-.1-.1-.1.1-.3.2-.6.4-.9 0-.1.1-.1.2-.2s.2-.2.2-.3h.2c0 .1 0 .1-.1.1s-.2.1-.2.2 0 .1.1.2c.1 0 .2 0 .2.1 0 0 0 .1-.2.2h-.1c-.1 0-.1.1-.1.1 0 .2-.1.3-.3.3 0 0-.1 0-.1.1 0 0 0 .1.1.1s.2.1.2.2.1.2.2.2h.3l.1.1c-.3.4-.6.8-.9 1.1-.1 0-.1-.1-.1-.1 0-.4 0-.4.4-.4h.1c.1-.1.2-.2.3-.4 0 0 0-.1-.1-.1s-.1.1-.2.1h-.1c-.1-.2-.1-.2-.3-.1-.1 0-.2.1-.3.3 0 .1-.1.1-.1.2 0 0-.1.1-.1 0 .1-.3.1-.4.1-.4m1.1-2.7c0-.1.1-.1 0 0h.2c.1 0 .1-.1.2 0 0 .1 0 .1-.1.2h-.2c-.2-.2-.2-.2-.1-.2m-.5 4.2c0 .1-.1.1-.1.2h-.1v-.2c0-.1 0-.2.1-.2 0 0 0-.1.1-.1.1-.1.2-.1.3-.2-.3.1-.3.3-.3.5m-2 2.9c-.1 0-.2-.1-.1-.2 0-.1 0-.1.1-.1s.2.1.2.2c-.1 0-.2.1-.2.1m-10.7 9c-.2.1-.4.3-.4.5h-.1s-.1 0-.1-.1v-.2c0-.1 0-.1.1-.2.1-.2.3-.2.4-.3.1 0 .1-.1.2 0 0 .2-.1.2-.1.3m-2.6-2c0-.1 0-.2-.1-.2-.2-.1-.1-.3-.1-.5h.1v.1c0 .1.1.1.2.1s.2 0 .2-.1v-.2c0-.1 0-.1-.2-.2-.1 0-.1-.1-.1-.2.1-.1 0-.2 0-.3-.2-.1-.2-.1-.3-.1-.1 0-.2.1-.2.2-.1.1-.1.2-.1.3.1.2 0 .3-.1.4l-.1.1c-.1-.1-.2 0-.3.1h-.1V46c.1-.1.1-.2.1-.3 0 0 0-.1.1-.1h.1c.1 0 .1-.1.1-.2v-.2c0-.1 0-.1.1-.1s.2-.1.3-.2c0-.1.1-.3.2-.3h.2s0 .1.1.1c.1.1.2.1.3 0 .1-.1.1-.2.1-.3 0-.1 0-.1-.1-.2 0-.1-.1-.1-.1-.1-.1 0-.3 0-.4.1h-.1-.1s-.1 0-.1-.1c0 0 .1-.1.2-.1.1-.1.3-.1.4-.2.1-.1.3 0 .4 0 0 .1.1.3 0 .4-.1.1-.1.2-.1.3 0 .1 0 .2.2.2h.2c.1 0 .1.1.1.1 0 .1 0 .2-.1.2s-.1.1-.2.1c0 .1-.1.2-.2.3-.1.1-.2.2-.1.4v.1c0 .1 0 .2-.1.2-.2 0-.2.1-.2.3v.2c0 .1-.1.1-.1.2-.1.1-.1.1-.1.2v.2c-.1.1-.1.2-.1.4 0 .1.1.2.2.2s.1-.1.2-.2c0-.1 0-.3.1-.4.1-.1.3-.1.4-.1.1 0 .2 0 .2.1s-.1.1-.2.1c0 0-.1 0-.1.1 0 .2-.1.3-.2.4v.1c.1.1.1.2.1.3 0 0 0 .1.1.1s.1-.1.2-.1v-.1c-.1-.1 0-.2 0-.2 0-.1.1-.1.2-.1s.2-.1.3-.1c.2-.1.4-.3.4-.6 0-.1 0-.3.1-.3v.2c0 .1.1.1.2.1h.1v.3c0 .1 0 .1-.1.1-.2 0-.3 0-.5.1-.1 0-.1.1-.1.2l.1.1s.1 0 .1-.1c.1-.1.2-.2.4-.2.1 0 .2-.1.3-.1h.2c.1.1.1.1.1.2s-.1.1-.1.1H47c-.2 0-.3 0-.5.2-.1.1-.2.2-.4.1H46c-.1.1 0 .2 0 .2h-.2c-.2 0-.2.2-.3.3 0 .1 0 .1.1.1s.1 0 .2-.1l.1-.1h.1v.1c0 .1-.1.1 0 .2 0 .1 0 .2.2.2.1 0 .2.1.3.1.1 0 .1.1.1.1 0 .1 0 .2.1.2 0 0 .1.1 0 .1s-.1.1-.2.1v.1h.1c.2-.1.3 0 .3.2l.1.1c0 .1 0 .1-.1.2h-.1c-.1 0-.1 0-.1.1v.2c0 .1.1.1.2.1 0 0 .1 0 .1.1.1.1.1.1.2 0h.1s0 .1.1.1h.1c.1 0 .2-.1.2-.3 0-.1 0-.1-.1-.1s-.1-.1-.1-.1v-.2c0-.1 0-.1-.1-.1s-.1-.1 0-.1c.1-.1.1-.1.2-.1s.1 0 .2-.1l.1-.1c0-.1 0-.1-.1-.1h-.1c-.1 0-.1 0-.1-.1s0-.1.1-.1.2-.1.3-.2c0 0 0-.1-.1-.1l-.1-.1s-.1 0-.1-.1v-.1c.1-.1.1-.1.2 0s.2 0 .3 0c.1-.1.2-.2.2-.3v-.5c0-.1 0-.2.1-.2.1-.1.2 0 .2.1 0 .2 0 .4.1.6 0 .1-.1.2-.1.2-.1.1-.1.1 0 .1h.1l.4-.3.3-.3c0-.1.1-.1 0-.2 0-.1-.1-.1-.2 0h-.1-.1v-.1c.1-.1.3-.2.3-.3 0 0 .1 0 .1-.1h.3c0 .1-.1.1-.1.2v.2c.1.1.1 0 .2 0s.1-.1.1-.2c.1-.1.1-.2.1-.3l-.1-.1v-.1c.1-.1.1-.2 0-.3v-.1h.1c.1.1.3.1.4 0 0 0 .1 0 .1-.1.1-.1.1-.1 0-.2 0 0 0-.1-.1-.1 0 0-.1-.1 0-.1h.2c.2.1.3 0 .4-.1.1 0 .2-.2.2-.3 0-.1.1-.3.2-.3.2-.1.3-.2.4-.3l.1-.1c0-.1 0-.1.1-.2 0-.1.1-.1.1-.2h-.1c-.1-.1-.2-.1-.3 0h-.1c.1-.1.2-.2.2-.3 0-.1.1-.1.1-.1.2.1.4 0 .5-.1h.1v.1s-.1.1-.2.1c0 0-.1.1 0 .1h.4l.1-.1v-.1c0-.1.1-.3 0-.4 0-.1 0-.2.2-.1.1 0 .1.1.1.1s0 .1-.1.1v.1h.1c.1-.1.1-.2.2-.3v-.1c.1-.1.2-.1.2-.2 0 0 .1-.1.1 0 .2 0 .3-.1.4-.1.1-.1.1-.1.1-.2s.1-.2.2-.2l.1-.1c.1-.1.2-.2.3-.2.1 0 .2-.2.2-.2v-.2c0-.1 0-.2.1-.2.1-.1.2-.1.3 0l.1.1h.1c0-.1 0-.1.1-.2v-.1-.1s0-.1.1-.1v-.1c0-.1 0-.1.1-.2v-.1s0-.1-.1-.1-.1-.1 0-.2c0-.1.1-.1.2 0 .1.2.3.2.4.2h.1c.2 0 .2-.1.2-.3 0-.1 0-.2.1-.3.1-.1.2-.2.3-.2h.1c0-.1.1-.1.1-.2s.1-.2 0-.3v-.1c.1-.1.1-.1.2-.1s.2 0 .2-.1l.3-.3c.1 0 .1-.1.1-.2s0-.2.2-.2c.1 0 .1 0 .1-.1s0-.1.1-.1c.2 0 .2-.1.2-.2v-.1c0-.1 0-.1.1-.2 0 0 .1 0 .1-.1.2 0 .2 0 .2-.2l.1-.1.1-.1.1.1s0 .1-.1.1c0 .1-.1.1 0 .2.1 0 .1 0 .1-.1l.1-.2c.5.3.5.2.5.1 0 0-.1-.1 0-.1.1-.1.2-.3.3-.3.2 0 .3-.2.4-.3.1 0 .1-.1 0-.2l-.1-.1v-.1s.1 0 .1-.1v-.2c0-.2.2-.3.3-.4l.1-.1s.1 0 .1.1 0 .1-.1.1c-.1.1-.1.2-.2.3l-.1.1c0 .1 0 .1.1.1.2 0 .3-.1.4-.3.1-.1.3-.3.4-.3.2 0 .2-.1.2-.3 0-.1 0-.1-.1-.1s-.2 0-.2-.1-.1-.1-.2 0-.1.2-.2.2v-.1c0-.1 0-.2.1-.3l.1-.1c.1 0 .1-.1.1-.2h-.1c-.1 0-.1 0-.2.1-.1 0-.1.1-.2.1.1-.1.2-.2.2-.3.1 0 .1-.1.2-.1l.1-.1v-.1l.3-.3h.1s-.1 0-.1.1c-.1 0-.1.1-.1.1v.1c0 .3-.1.5.1.8h.6c.2-.1.2-.2.1-.4 0 0-.1-.1 0-.1.2-.1.2-.3.4-.5v-.1-.1h-.1c-.1.1-.3.2-.4.3-.1 0-.1.1-.2 0v-.2l.3-.3.1-.1c.1-.1 0-.2-.1-.3 0 0-.1 0-.1-.1h.1c.1 0 .2-.1.3-.1.1 0 .1.1.1.2h.2v-.5c0-.1-.1-.1-.1 0l-.1.1h-.1l-.1-.1c.3-.5.5-1 .7-1.5.2-.6.4-1.2.5-1.9 0-.1 0-.1-.1-.1s-.1 0-.1.1c-.3.7-.6 1.3-.9 2-.1 0-.1-.1-.2-.1h-.1s-.1 0-.1-.1c-.1 0-.2 0-.2.1s0 .2.1.2c.1.1.1.1 0 .2l-.3.6c0 .1-.1.1-.2.1-.2-.1-.3 0-.5.1 0 0-.1 0-.1.1l.1.1.1.1c0 .1 0 .2-.1.3 0 0-.1 0-.3-.1v-.1c0-.2.1-.3 0-.3l-.1-.1h-.1l-.1-.1v-.1h.2c.1 0 .1 0 .1-.1v-.4-.1c-.2 0-.2-.2-.3-.3.1-.1.2-.1.3-.2.1-.1.1-.2 0-.3v-.1l-.1-.1c-.1 0-.1 0-.1.1 0 .2-.1.4-.2.5-.1.1-.1.2 0 .3 0 0 .1.1 0 .1s-.2.1-.3.1h-.2c-.1 0-.1.1-.1.1 0 .2-.2.2-.2.3v.4l-.2.2-.1.1c-.1.1-.1.2-.2.1h-.1s-.1 0-.1.1v.1h.1c.1.1.1.1.1.2-.1.1-.1.2-.2.4-.1 0-.1-.1-.1-.2s-.2-.1-.2 0-.1.1-.1.2 0 .1.1.1v.1c-.1 0-.1 0-.1.1-.1.1-.1.2-.2.2s-.2 0-.2-.1c-.1 0-.1-.1-.2-.1H58c-.1 0-.2.2-.2.2 0 .1.1.1.1.2v.4c-.1.1-.2.2-.2.3l-.1.1-.2-.1c0-.1.1-.1.1-.2v-.2h-.2s-.1 0-.1.1c-.2.2-.4.4-.7.6-.1.1-.2.1-.3.1l-.1.1c0 .1 0 .1.1.2h.1c.1-.1.1-.2.3-.1h.2l.1-.1h.1v.1s0 .1-.1.1c-.1.1-.1.2.1.3.1 0 .1.1.1.1v.2s0 .1.1.1h.1c.1 0 .2 0 .3-.1h.1v.1c-.1.1-.2.1-.3.1h-.2c-.1.1-.1.2-.3.3h-.1v-.2c0-.1.1-.1.1-.2s0-.1-.1-.2h-.2l-.1.1h-.2s-.1-.1-.1-.2-.1-.1-.1-.1c-.1 0-.1 0-.2.1s-.1.3.1.4c.1.1 0 .1-.1.1-.2 0-.3 0-.4.2 0 .2-.1.2-.2.3l-.1.1c-.1.1-.1 0-.2-.1 0-.1 0-.1.1-.2.2-.1.3-.4.4-.5.1-.1 0-.2-.1-.2h-.3c-.1 0-.2 0-.2.1s.1.1 0 .2c-.1 0-.2 0-.3.1 0 .1 0 .1.1.2s.1.2-.1.2h-.2-.1c0-.2-.2-.2-.3-.2-.1.1-.1.2-.1.3v.2c-.1 0-.1.1-.2.1s-.1 0-.2-.1c0 0 0-.1-.1-.1s-.3 0-.4.1c-.1.1-.1.1-.2 0h-.2-.1s-.1.1-.2 0c-.2.1-.3.1-.4.2l-.1.1c-.2 0-.3.1-.4.2h-.2c-.1-.2-.3-.2-.5 0-.1.1-.2.1-.2.2 0 0 0 .1-.1.1-.2 0-.2.1-.4.2h-.1v-.1c.1-.1.2-.1.3-.2.1 0 .1 0 .1-.1.1-.1.1-.1 0-.2 0-.1.1-.2.3-.2.2 0 .3-.1.2-.3-.1-.1-.1-.1-.3-.1h-.1c-.1-.1 0-.1 0-.2s0-.1-.1-.1H50c-.1 0-.2 0-.2.1s-.1.3-.1.4l.1.1c.1 0 .1 0 .1-.1s.1-.1.1-.2h.1v.1c0 .1-.1.2-.1.4-.1.1-.2.3-.3.3l-.1.1-.2.2c0 .1-.1.1-.1.1s-.1 0-.1.1h-.1c-.1-.1-.1 0-.1.1.1.1.1.3.3.3l.1.1c.1.1.3 0 .3-.1v-.3c0-.1 0-.1.1-.1.2 0 .3-.1.5-.2 0-.1.1-.1.2-.1s.2 0 .2-.1c.1-.1.2 0 .2.1v.1c0 .1 0 .2.1.3.1.1 0 .2-.1.2s-.2 0-.2-.1v-.4c-.1 0-.1-.1-.2 0s-.3.2-.3.3c-.1.1-.1.2-.3.2 0 0-.1 0-.1.1-.1.1-.2.2-.3.2-.2 0-.2.1-.2.3 0 .1 0 .1.1.2s0 .1-.1.2h-.1c0-.2-.1-.3-.3-.3-.1 0-.1-.1-.1-.1 0-.1 0-.2.1-.3.1-.1.1-.2 0-.2l-.3-.3c0-.2-.1-.2-.3-.2h-.1c-.1.1-.1.1-.2.1s-.1-.1-.2-.1c0-.1-.1-.1-.1-.2s-.1-.1-.2-.1c0 0-.1 0-.1.1V39l.1.1c0 .1 0 .2-.1.2h-.1c-.2-.1-.3-.2-.4-.4v-.1-.2s-.1-.1-.1 0h-.3-.2c-.1 0-.2.1-.2.2s0 .1.1.1h.4v.1c-.1 0-.2.1-.3.2 0 .1 0 .1-.1.1v.1c-.1.2-.2.3-.4.3s-.3.1-.5 0c-.1 0-.1 0-.1-.1-.1-.1-.1-.1-.2-.1s-.1 0-.2.1h-.1c0-.1.1-.3.2-.4h.1s0 .1.1.1c.1.1.1.1.2.1s.2-.1.2-.2v-.3c-.1 0-.1-.1-.1-.2v-.2c0-.1-.1-.1-.1-.1-.1 0-.2.1-.4.1 0 0-.1 0-.1.1s-.1.2-.2.2-.2.1-.2.1c-.1 0-.1.1-.2.1 0-.1-.1-.2-.3-.2h-.1c-.1 0-.1.1-.1.1v.2c0 .1 0 .3.2.3.1 0 .1.2.2.2.1.1.1.2 0 .3-.2.2-.2.3-.4 0l-.1-.1c-.1-.1-.1-.2-.2-.3v-.1l.1-.1v-.1h-.1l-.1.1h-.2v-.2c0-.1.1-.1.1-.1h.2c.1 0 .1 0 .1-.1v-.1c-.2 0-.4-.1-.6 0-.1 0-.2 0-.2-.2v-.2c-.1 0-.3-.1-.3-.2 0-.2-.1-.3-.2-.5v-.1c.1 0 .3 0 .4.2.1.2.1.2.2.1.2 0 .3-.1.4-.2 0-.1.1-.1.2-.2.1 0 .1-.1 0-.2s-.1-.1-.2 0l-.1.1v.1c-.1.1-.2.2-.3.1-.1 0-.1-.1-.1-.2-.1-.2-.2-.2-.4-.1-.1 0-.1.1-.2 0 0-.1 0-.1-.1-.2s-.1-.2-.2-.3h-.4c0 .1.1.1.1.2v.2c0 .1 0 .2-.1.2-.2-.5-.4-.9-.6-1.4-.2-.6-.5-1.1-.7-1.7-.1-.3-.2-.6-.4-.9l.3-.5-.9-2.1c0-.1-.1-.1-.1-.1s-.1 0-.1.1v.1c.1.4.2.7.3 1.1-.1 0-.2 0-.2.1v.1s0 .1.1.1.1 0 .1-.1v-.1c.1.2.1.5.2.7V33.1c0 .1.1.1.1.2.3 1 .6 1.9 1 2.9.3.8.6 1.5 1 2.1-.1.1-.1.1-.3 0-.1-.1-.1-.1-.1-.2S41 38 41 38c-.1 0-.2.1-.2.2l-.1.1c0 .1 0 .1.1.2.1 0 .2 0 .3.1-.1.1-.2.2-.4.2-.1 0-.1 0-.2.1s-.2.1-.3 0h-.1c-.1 0-.2 0-.3.1v.1c0 .1-.1.1-.1 0l-.1.1c0 .1 0 .1-.1.2 0 .1-.1.1-.2.1s-.1-.1-.2 0H39c-.1 0-.1-.1-.1-.1s0-.1-.1-.1c-.1.1-.1.2-.1.3l-.1.1c-.1 0-.1-.1-.2-.2s-.2-.1-.2 0c-.1.1 0 .1 0 .2 0 0 0 .1.1.1.1.1 0 .1 0 .2 0 0-.1.1 0 .2s.2.1.3 0l.1-.1h.2l.2.2c.1.1.1.2.1.3v.1c.1.2.2.1.4 0v-.2h-.1v-.1h.1c.1 0 .3 0 .4-.1 0-.1.1-.1.2-.1s.1 0 .2-.1H40.7c.2 0 .3-.1.3-.3 0-.1 0-.1-.1-.1s-.2 0-.3.1c0 .1-.1.1-.2.1h-.1-.1l-.1-.1c-.1-.1-.2 0-.2.1v.2c0 .1-.1.1-.2.1l-.2-.2v-.1c.2-.1.3-.1.5-.2.1-.1.1-.1.3 0h.2s.1-.1 0-.1v-.2c.1 0 .1 0 .2-.1h.1c.2.1.3 0 .5 0 .1 0 .1.1.1.1 0 .1 0 .1.1.1h.1c.1 0 .1 0 .1.1s0 .1.1.1c.1.1.1.1 0 .2s-.2.2-.2.3c0 .1-.1.1-.2.2h-.2c-.1-.2-.2-.2-.4-.2-.1-.1-.2-.1-.2 0 0 0-.1 0-.1.1v.1l.1.1c0 .1.1.1.1.1.1.2.2.2.4.2h.2c-.1.1-.1.2-.1.3 0 .2-.1.2-.3.2-.1 0-.1-.1-.1-.1s0-.1-.1-.1l-.1.1v.2c0 .1 0 .2-.1.2s-.2.1-.2.1c0 .1-.1.3-.1.4 0 .1.1.1.2.1.1.1.2 0 .2 0 .1 0 .1-.1.2-.1h.1v.1c-.1.1-.2.1-.1.2 0 .1 0 .2-.1.2s-.2.1-.2.2c-.1 0-.1.1 0 .2 0 .1.1 0 .2 0s.1-.1.2-.1.1-.1.2.1c.1.1.1.1.2.1s.1-.1.2-.1h.1v.1c0 .1 0 .1-.1.1s-.1 0-.2.1c0 0-.1.1-.1.2s.1.1.1.1h.4s.1 0 .1-.1v-.2-.3c0-.1 0-.2-.1-.3 0 0-.1-.1-.1-.2h-.2c-.1 0-.2.1-.2 0-.1-.1 0-.1 0-.2v-.4s0-.1-.1-.1h-.2l-.1-.1c0-.1 0-.1.1-.1s.1 0 .2-.1c.2 0 .2 0 .2.1 0 0 0 .1.1.1.1.1.2.1.3.1.1-.1.2-.1.1-.3 0-.2 0-.2-.2-.4l.1-.1c.1-.1.1-.1 0-.2s-.1-.1 0-.2c0 0 .1-.1.2-.1h.1l.2.2c.1.1.2 0 .3-.1v-.2c0-.1 0-.2.2-.2h.3c.1 0 .1 0 .2-.1.1.1.2.2.3.4l-.1.1c-.1.1-.1.1.1.2.1 0 .1.1 0 .1 0 0-.1 0-.1.1-.1.1-.2.1-.1.3v.1l-.3.3-.1.1H42.6c0 .1-.1.3 0 .4v.2c0 .2 0 .2.2.2h.1c0 .2-.1.3-.2.4h-.1s0-.1-.1-.1c0-.1-.1-.1-.1-.2s-.1-.1-.2-.1l-.1.1c-.1 0-.1.1-.1.2 0 .2 0 .3.1.5 0 .1.1.1.1.2s.1.1.1.2c.1 0 .2 0 .2.1l-.1.1h-.1c-.1 0-.1.1 0 .2 0 .1.1.1.1.1.2 0 .3 0 .5-.2 0 0 .1-.1.1-.2v-.1c0-.1-.1-.1-.3-.2v-.1h.1c.1 0 .2.1.2.1l.1.1H43.4c.1 0 .1 0 .2-.1v-.1-.2c0-.1.1-.1.1-.1.1 0 .2.1.1.2 0 .1 0 .2.1.2l.3.3v.4c0 .1.1 0 .1.1.1.1.1.1 0 .2s-.1.2-.1.3c0 .1 0 .1-.1.2s-.2.1-.3 0c-.1-.1-.1-.1-.2-.1 0 0-.1 0-.1.1v.1h-.1c-.1-.1-.2 0-.3.1-.1.1-.1.1-.2 0v-.1c0-.2.1-.3.3-.3h.5c.1 0 .2-.2.1-.3l-.1-.1h-.2c-.1 0-.1-.1-.1-.1v-.1-.1-.2h-.1-.1l-.1.1s0 .1-.1.1c-.1.2-.2.4-.4.5-.2.1-.3.2-.5.3-.1.1-.1.2 0 .2s.1.1.1.1v.2s.1 0 .1.1l-.1-.1s0 .1.1.1.1 0 .2.1c.1 0 .1.1 0 .1l-.1.1s0 .1-.1.1v.2l.1.1h.1c.1 0 .1 0 .1-.1.3-.1.4 0 .6.2l.1.1h.2c.1 0 .1 0 .1.1v.1c0 .1.1.2.2.2h.1c0 .1.1.2.2.2s.2-.1.3-.1c.1-.2.2-.3.3-.4 0 .1 0 0 0 0m1.4 27.5v.4c0 .1.1.1.2.1s.1-.1.2-.1c.2-.1.2-.1.3.1 0 .1 0 .1.1.1.1.1.1.1 0 .2 0 .1-.1.1-.2.2-.1 0-.1-.1-.1-.1-.1-.1-.1-.1-.2 0l-.1.1c-.1.1-.1.2-.1.3v.3c0 .1.1.2.2.2.1-.1.3-.1.5-.1.1 0 .2-.1.2-.3 0-.1 0-.3.1-.4l.1-.1c.1-.1.1-.2.1-.3 0-.1-.1-.1 0-.2 0-.2-.1-.3-.1-.5-.1-.1-.2-.3-.3-.4-.1-.1-.2-.1-.3 0-.1.1-.1.2-.2.3-.4.1-.4.2-.4.2m.1 3.4c0 .2-.2.3-.2.5 0 .1 0 .2.1.1.2 0 .3.2.4.2v.1c0 .1 0 .1.1.2s.2.2.3.4h.2c.1 0 .3-.1.3-.2.1-.1.1-.1 0-.2s-.1-.1 0-.2.1-.2 0-.3h-.1c-.1.1-.1.2-.1.3 0 .1-.1.1-.1 0s-.1-.1-.2-.2-.2-.2-.2-.3c0-.1 0-.1-.1-.2l-.2-.2c0-.1-.2-.1-.2 0m-.4-6.2h-.1c0-.1.1-.2.1-.3 0 0 0-.1-.1-.1h-.1c-.1 0-.1.1-.1.1 0 .1-.1.1-.2.1-.2 0-.2 0-.3.2 0 .1 0 .1-.1.1 0 .1 0 .2.1.3h.3c.1-.1.1-.1.3-.1h.2c.1 0 .1-.1.2-.1v-.1c-.1-.1-.1-.1-.2-.1m-.6 3.8c.2 0 .3-.2.2-.4l-.1-.1v-.2c.2-.1.2-.2.2-.4v-.1c.1.1.1.1.2 0h.4c.2 0 .3-.3.2-.4-.1-.1-.2-.1-.2 0-.1.1-.1.2-.3.2-.1 0-.2.1-.2.2s-.1.1-.2.1c-.2 0-.2 0-.2.1 0 .2-.1.3-.2.4l-.1.1c0 .1-.1.1 0 .2s.1.1.1.2c-.1.1-.1.1.2.1-.1 0 0 0 0 0m1.5-8.3v.2c0 .3-.1.6-.3.8v.1c.1.2.2.2.4.1v-.1c.1-.2.1-.3 0-.5v-.1l.2-.2V67c0-.1-.1-.2-.2-.2 0-.1-.1-.1-.1 0m.4-14.5c-.1 0-.1 0-.1.1-.1.1-.1.1-.1.2.1.2.1.2.1.5 0 .1 0 .2.1.2h.2c.2-.1.3-.4.2-.6-.1-.4-.3-.4-.4-.4m-4.2 22.6c.1 0 .1 0 0 0 .2-.1.2-.1.3 0 .1.1.2.1.2.2h.2c.1 0 .1-.1.1-.1 0-.1-.1-.2-.1-.2 0-.1-.1-.2-.2-.2s-.2 0-.2-.2c0-.1-.1-.1-.2-.1s-.1.1-.1.2v.2c-.1.2 0 .2 0 .2m2.1-1.7c.1 0 .1 0 0 0 .2-.1.2-.1.3-.2.1-.1.1-.2.1-.3 0-.1-.1-.1-.1-.1-.2 0-.2-.2-.2-.3 0-.1 0-.2-.1-.3 0 0-.1 0-.1.1-.1 0-.1.1-.1.2l.1.1s.1 0 .1.1c0 .2.1.3.1.5 0-.1-.1 0-.1.2 0-.1 0 0 0 0m.4 4.6h-.2c-.2 0-.2.1-.3.2 0 .1 0 .1.1.1s.2 0 .2.1 0 .1.1.1c.3 0 .3 0 .3-.1v-.3c.1-.1 0-.2-.2-.1m1.8-24.4c-.1 0-.2 0-.2.1-.1.2 0 .3 0 .5.1 0 .1.1.2.1s.2-.1.2-.2v-.3c.1-.1 0-.2-.2-.2m-3.1 20.4c.1-.1.3-.2.4-.3v-.1c0-.2.1-.3.1-.4 0-.1 0-.2-.1-.2s-.1 0-.2.1c0 0-.1 0-.1.1v.2s-.1 0-.1.1v.1l-.1.1h-.1l-.1.1c0 .1-.1.1 0 .2h.3m3.3-16.5c0-.1 0-.1-.1-.1s-.2-.1-.2-.3c0-.1-.1-.1-.2-.1s-.1.1-.1.2c.1.1.1.2.1.3 0 .1 0 .1.1.1.2.3.4.1.4-.1m-1.6 12.2l-.1.1c0 .1-.1.2-.2.2l-.1.1c0 .1-.1.2-.1.3 0 0 0 .1.1.1h.1c.1-.1.1-.2.1-.2 0-.2.1-.3.3-.4l.1-.1c.1-.1 0-.2-.2-.1M46.9 56c.1.1.2.2.2.4 0 .1.2.1.3 0v-.1-.1c0-.1-.1-.2-.1-.2-.1-.2-.1-.2-.3-.1 0 0-.1 0-.1.1-.1-.1-.1-.1 0 0m.3 6.8c-.1 0-.1.1-.1.1 0 .1 0 .3-.1.4v.2c0 .1.1.1.1.1.1 0 .1 0 .1-.1v-.1c0-.1 0-.3.1-.4v-.1c.2 0 0-.1-.1-.1m.4 15c.1 0 .2-.1.3-.2v-.3h-.2-.1-.1c-.1 0-.1 0-.1.1-.1.1-.1.2 0 .3-.1.1 0 .1.2.1m-5.4-.3c-.1.1-.1.3-.3.3-.1 0-.1.1-.1.2s.1.2.2.2c0 0 .1 0 .1-.1.1-.1.2-.3.3-.3l.1-.1c0-.1 0-.2-.1-.2-.1-.1-.2-.1-.2 0m4.2 1.8h-.2-.1c-.1.1-.1.3 0 .4l.1.1c.2 0 .4-.1.4-.3 0-.2 0-.2-.2-.2M47.4 58.1h-.1c-.1.2-.1.4-.2.5 0 .1.1.2.2.2s.3-.1.2-.2v-.2-.1c-.1-.1-.1-.1-.1-.2m-.3-6.8h-.3c-.1.1 0 .2.1.3.1.1.3 0 .4-.1v-.1c0-.1 0-.1-.1-.1h-.1m0 9.4h.2c.1 0 .1-.1.1-.2v-.3c0-.1-.1-.2-.2-.1-.1 0-.1.1-.1.2V60.6c-.1.1-.1.1 0 .1M40 78.2h-.1c-.1-.1 0-.2-.1-.2 0-.1-.1-.1-.2 0s-.1.2-.1.3c0 .1 0 .1.1.1.2 0 .3.2.5.1.1 0 .1-.2.1-.2-.1-.2-.2-.2-.2-.1m3.1.6c-.1.1-.1.1 0 .2v.2l-.1.1v.1l.1.1c.1 0 .3-.1.3-.2s0-.2.1-.3c0-.1 0-.1-.1-.2s-.2 0-.3 0m1.5.2c-.1 0-.1 0-.1.1l-.1.1c0 .1-.1.1-.2.1s-.2.2-.2.3c0 0 0 .1.1.1s.1-.1.2-.2.1-.2.3-.2c.1 0 .2-.1.1-.2l-.1-.1m.9-.3c-.1 0-.2 0-.2.1v.1c.1.1 0 .3.1.4h.1c.1 0 .1 0 .1-.1V78.9c0-.1 0-.2-.1-.2m-.2-3.1c.1.1.2.2.3.1.1 0 .2-.1.2-.2v-.1c0-.1-.1-.2-.2-.1-.1 0-.2.1-.3.2v.1m.8-2.3c.1 0 .2-.1.2-.2V73v-.1-.1c0-.1-.1-.1-.2-.1-.1.1-.2.2-.2.4 0 .1.1.2.2.2m-3.9 5.6c-.1.1-.1.3-.1.4l.1.1c.1-.1.3-.2.4-.3 0-.1 0-.2-.1-.2-.1-.1-.2-.1-.3 0m4.9-24.3c-.1 0-.1.1-.1.2 0 .2.1.2.2.2h.1c.1-.1.2-.2.1-.3-.1-.1-.2-.1-.3-.1m-3.6 19.3c.1 0 .3-.2.3-.3 0-.1 0-.1-.1-.2h-.1c-.1.1-.2.2-.2.4 0 .1 0 .1.1.1m-.4 3.1c0-.1.1-.1 0 0 .1-.2.1-.4.2-.5v-.1s0-.1-.1-.1-.1 0-.1.1c-.1.2-.1.4-.2.6v.1c.1-.1.2-.1.2-.1m14.5-35.6s0-.1 0 0c0-.1 0-.1 0 0zM44.2 74c-.2.1-.2.2-.3.3v.1l.1.1c.1 0 .2-.1.3-.2.1-.1 0-.3-.1-.3m-3.4 3.2c.1 0 .2.1.2.1.1 0 .2 0 .2-.1s0-.2-.1-.2-.1 0-.2-.1c0 0-.1-.1-.1 0l-.1.1c0 .1 0 .2.1.2m-.6.5c.2-.1.1-.3.2-.4 0-.1 0-.1-.1-.1 0 0-.1 0-.2.1s-.1.2-.1.4v.1c.1 0 .1-.1.2-.1m3.9-.3v.5h.1c.1-.1.1-.3.2-.4 0-.1 0-.1-.1-.1-.1-.2-.2-.1-.2 0m2.5-11.3c0 .1 0 .1 0 0 0 .2.1.2.2.2s.1-.1.2-.1v-.1c0-.1 0-.2-.2-.2-.1.1-.2.1-.2.2m.4-4.2c0 .1.1.2.2.2s.2-.1.2-.2-.1-.2-.2-.2-.2.1-.2.2m.4 17.4c-.1 0-.1 0-.2.1 0 .1 0 .1-.1.2 0 .2 0 .2.1.2s.2-.1.2-.3c.2-.1.1-.2 0-.2m3.7.4h.2c.1-.1 0-.1 0-.2v-.1c-.1-.2-.1-.2-.2-.2-.1.1-.1.2-.1.3v.1s0 .1.1.1m-9-3.7c.1-.1.2-.3.1-.4l-.1-.1c-.1 0-.2.2-.2.3v.1c0 .2.1.2.2.1m1.9.5c.1 0 .3-.1.3-.3v-.1c0-.1-.1-.1-.2-.1-.1.1-.2.2-.2.3-.1.1 0 .2.1.2m.7-.1c-.1.1-.2.2-.2.3 0 .1 0 .1.1.1.2 0 .3-.1.3-.3 0-.1 0-.1-.1-.1h-.1m2.2 1.3c.1 0 .2-.1.2-.2v-.1c0-.1-.1-.1-.2-.2-.1 0-.2.1-.2.2v.1c0 .1.1.2.2.2m-2.3-4.1c0 .1-.1.2-.1.2 0 .1 0 .1.1.1s.2 0 .2-.1v-.2c0-.1 0-.1-.1-.1s-.1.1-.1.1m-3.3 2.7c-.2.1-.3.2-.2.4 0 0 0 .1.1.1s.3 0 .3-.2c-.1-.2-.1-.3-.2-.3m3.1-.7h.2v-.2c0-.1 0-.1-.1-.1h-.2c-.1 0-.1.2-.1.3h.2m.9 1.6c.2-.1.2-.3.2-.4-.1 0-.2.1-.3.1-.1 0-.1.1-.1.2 0 0 0 .1.1.1 0 .1.1.1.1 0M47 68c0 .1 0 .2.1.2H47.4c.1 0 .1-.1.1-.2s-.1-.2-.2-.2c-.2.1-.2.1-.3.2m.2-6.7c.1 0 .3-.1.2-.2 0-.1-.1-.1-.2-.1s-.2.1-.2.2c0 0 .1.1.2.1m5.4 12.5c-.1 0-.2.1-.2.2s.1.2.2.2.2-.1.2-.3c0 0-.1-.1-.2-.1m-5-22.1c-.1 0-.1 0-.2.1 0 .1 0 .2.1.2h.1c.1 0 .1 0 .2-.1v-.2h-.2M46.2 69c-.1.1-.2.1-.1.3.1.1.2 0 .3 0v-.1-.1-.1h-.1c0-.1 0-.1-.1 0 0-.1 0 0 0 0m-5 9.7c-.1.1-.2.2-.2.3 0 .1.1.2.1.2.1 0 .2-.1.2-.2s0-.2-.1-.3m2.7-5.5c.1.1.2.1.2 0 0 0 .1-.1.1-.2l.1-.1c0-.1 0-.2-.1-.2-.1-.1-.2 0-.2.1v.1c-.1.1-.1.2-.1.3m-3.2 4.3c-.1 0-.1 0-.2.1 0 .1-.1.2 0 .2 0 0 .1.1.1 0 .1 0 .1-.1.2-.1.1-.1 0-.2-.1-.2M45 76v.1h.1c.1 0 .2-.1.2-.2s-.1-.1-.1-.1l-.2.2m.6-3.5c.1 0 .3-.1.3-.2s-.1-.2-.2-.2-.2.1-.2.2 0 .2.1.2m-1 3.3c0 .1.1.1.2.1s.2-.1.2-.2-.1-.1-.2-.1h-.2c-.1 0-.1.1 0 .2"/>
    <path d="M46.4 78.69999999999999c0-.1 0-.1 0 0v-.2c0-.1 0-.1-.1-.1h-.1c-.1.1-.1.1-.1.2s.1.1.1.1c.1.1.2.1.2 0M44 79c0-.1-.1-.2-.2-.2s-.2.1-.1.2c0 .1.1.1.1.1.2.1.3 0 .2-.1m3.2-19.8c-.1 0-.1.1-.1.2s.1.2.2.1c.1 0 .2-.1.2-.2s0-.1-.1-.2c-.1 0-.1 0-.2.1M44 78c0-.1 0-.1-.1-.1s-.2 0-.2.1v.2s0 .1.1.1c.2-.1.2-.2.2-.3m1.9-1.4c0-.1-.1-.1-.1-.1-.1 0-.1 0-.2.1 0 .1-.1.1-.1.2h.1c.2 0 .3 0 .3-.2m-2.4.6c0 .1.1.1.2.1s.1-.1.1-.2-.1-.2-.2-.2c0 .1-.1.2-.1.3m-.8-1.1c0-.1 0-.1.1-.2h-.2c-.1 0-.1.1-.1.2s.1.1.2.1v-.1m.9-.7c-.1 0-.2.1-.2.3 0 0 0 .1.1.1s.3-.1.3-.2c0-.2-.1-.3-.2-.2m-.3 2.6c-.1 0-.2.1-.2.2s.1.1.1.1c.1 0 .2-.1.2-.2s0-.1-.1-.1m2.7-.7c0-.1-.1-.1-.1-.1s-.1 0-.1.1-.1.1-.1.2 0 .1.1.1.2-.1.2-.3m8.8 2.2c.1 0 .1-.1.1-.1v-.1c0-.1 0-.1-.1-.1s-.1.1-.1.1v.1c-.1 0 0 .1.1.1m-13.1-.8c0 .1 0 .1 0 0-.2.1-.1.2-.1.3h.2c.1 0 .1-.1.1-.2s-.1-.1-.2-.1m2.6-.4c-.1.1-.1.1 0 .2h.1c.1 0 .2-.1.2-.2 0 0 0-.1-.1-.1 0 0-.1.1-.2.1m11.8-.7c-.1 0-.2.1-.2.2s.1.1.2.1.1-.1.1-.1c0-.2-.1-.2-.1-.2M43 77.5c0-.1-.1-.2-.1-.1-.1 0-.1.1-.1.2s.1.1.1.1.1-.1.1-.2m-1.1-.7c0-.1-.1-.1 0 0-.2 0-.3.1-.2.2 0 0 0 .1.1.1.1-.1.2-.2.1-.3m-1.6 1.8c-.1 0-.1.1-.1.2s0 .1.1.1.1-.1.1-.1c0-.2 0-.2-.1-.2m2.7-2.8v-.1s-.1-.1-.1 0c0 0-.1 0-.1.1s0 .1.1.2c0-.1 0-.1.1-.2M45.699999999999996 74.4c0-.1 0-.1-.1-.1s-.1 0-.1.1.1.1.1.1c0 .1.1 0 .1-.1m4.2-4c0 .1 0 .1.1.1s.1 0 .1-.1-.1-.1-.1-.1c-.1 0-.1 0-.1.1m-9 7.9c-.1 0-.1.1-.1.1s0 .1.1.1c0 0 .1 0 0-.2m15.9-43.1V35c0-.1-.1-.2-.2-.2s-.2 0-.2.1h-.1v-.1c.2-.1.2-.2.3-.4.1.1.2.1.2.2.1.1.2.1.2 0 .1.2 0 .4-.2.6m1.2-4.3c.2.1.3.3.2.5-.1.1-.1.2-.3.1-.1 0-.2 0-.2.1-.1.2-.4.2-.5.4 0 .1-.1 0-.2 0-.1-.1-.1-.1-.2-.1h-.3c-.1 0-.2.1-.1.2 0 .1.2.2.3.2h.2v.1l-.1.1c-.1.1-.1.2-.1.3 0 .1.1.1.2.1l.1-.1c0-.1.1-.2.2-.2s.2-.1.2-.2 0-.1.1-.2c.1 0 .2 0 .3-.1h.1c0 .1.1.1.2.1s.1.1 0 .2c0 .1-.1.1-.2 0 0 0-.1-.1-.1 0-.1 0-.1.1 0 .2 0 .1.1.1.1.2l.1.1v.2c0 .1-.1.1-.2 0h-.2c0 .1-.1.1-.1.2 0 0-.1 0-.1.1-.1 0-.1.1-.1.2s.1.1.2.1h.2v.1c-.1.1-.1.2-.1.3 0 0 0 .1-.1.1s-.1 0-.1-.1v-.2s-.1-.1-.1 0c-.2.1-.4.1-.4.4 0 .1 0 .1-.1.2 0 0-.1.1-.1.2 0 .2-.1.2-.2.3-.1 0-.1.1 0 .2s.2.1.2.2.1.1.1.2c0 .2.1.2.2.3.1.1.2.1.3 0 0 0 .1-.1.1-.2h.1c.1-.1.2-.2.3-.4.1 0 .1-.1.1-.2.1-.2.2-.3.3-.5.1 0 .3 0 .4.1.1 0 .2 0 .2-.1.1-.1.1-.1.1-.2s0-.1.1-.2c0-.2.2-.3-.1-.4h-.1-.1-.1c-.2.1-.2.1-.2.3 0 .1 0 .1-.1.1-.1.1-.2.1-.2 0l.3-.6h.1c.1-.1.1-.2.3-.2.1 0 .1-.1.1-.1 0-.1 0-.2-.2-.2.1-.2.1-.3.2-.5 0 0 0 .1.1.1s.2.1.2 0c.1-.1.1-.2.1-.3h.2c.1.1.2 0 .3.1.1.1.2.1.3 0 .1-.2.3-.3.3-.5 0-.1 0-.1.1-.1l.1-.1v-.2c-.1-.1-.2-.2-.3-.2l-.3-.3h-.1v.1c.1.1.2.4.4.5-.1.1-.1.2-.2.3H60l-.1-.1c-.1-.1-.2 0-.3 0-.1.1-.2.1-.2.1-.1.1-.2 0-.2-.1l-.1-.1c.1-.3.1-.6.2-.9v-.2c0-.2.1-.3.1-.5 0-.1.1-.2.1-.4h-.1c0-.2 0-.4.1-.6 0-1 .1-2.2-.1-3.3-.1-.9-.2-2.1-.6-3.3 0-.1-.1-.1-.1-.1-.1 0-.1.1-.1.1.3 2.3.3 4.5.2 6.5 0 .5-.1 1-.1 1.4 0 .1-.1.2-.2.2h-.1v-.1c0-.1.1-.1.1-.2v-.1h-.1c-.1 0-.3.1-.4.2-.1.1 0 .2.1.2-.2.1-.2.1-.1.2m-21.2 7.3zm-.3.9h-.1c.1-.1.1-.2.2-.3.1-.1.2-.1.3 0 .1 0 .1 0 .1.1v.1c0 .1 0 .2.1.2h.5c.1-.1.3-.2.4-.2h.1c.1-.1.2-.1.3 0 .1 0 .2 0 .3-.2 0-.1 0-.2-.2-.2-.1 0-.1 0-.2.1h-.2c-.1-.1 0-.1 0-.2.1-.1.2-.1.2-.3.1 0 .2-.1.3-.1l.1-.1c0-.1-.1-.1-.1 0-.1 0-.1 0-.1.1s-.1.1-.1.2c0 0-.1 0-.1-.1-.1-.1-.2-.1-.3 0l-.1.1c-.1.1-.3.1-.4.2-.1 0-.3 0-.4.1-.1 0-.1 0-.2-.1v-.1c-.1 0-.2 0-.4.1-.1 0-.1.1-.1.2s0 .2-.1.2h-.2c-.2-.1-.4 0-.5.2v.1c0 .1.1.1.1.1h.1c.1 0 .1-.1.1-.1h.1c.1.1.1.2.1.3v.1c0 .2.1.2.2.2s.1-.1.2-.1c.2.1.2-.1.3-.1-.1-.6-.1-.6-.3-.5m3.2 2.8c0-.1 0-.1.1-.2s.1-.1.2-.1c0 0 .1 0 .1-.1.1 0 .1-.1 0-.2 0-.1-.1-.1-.1 0h-.1c-.1 0-.2 0-.2-.1s.1-.2.1-.2c0-.1-.1-.2-.2-.2s-.1 0-.1.1c0 .2-.1.2-.3.2v.2s0 .1.1.1.1.1.1.2.1.2 0 .3c-.1 0-.3 0-.3-.1 0 0-.1-.1 0-.2s.1-.2 0-.4h-.2V41c0-.1 0-.1-.1-.1s-.2.1-.2.2 0 .1.1.2c.1 0 .1.1.1.2v.1c.1.1.1.1 0 .2v.2c.2 0 .2.1.3.2 0 0 .1.1.2.1h.3c.1 0 .2-.1.3-.2-.2-.1-.2-.2-.2-.2m12.4-5.4v-.4-.1 0c0-.1.1-.2 0-.3-.1-.1-.1-.1-.2 0-.1 0-.1-.1-.1-.1v-.1s.1-.1 0-.1c-.2 0-.2 0-.3.3v.1c0 .1.1.2 0 .2-.2.1-.2.3-.3.4-.1.3 0 .4.3.3.1 0 .2-.1.2 0s-.1.1-.1.2c-.1.2-.1.3.2.4h.2v.2l.1.3.1.1h.4c.1 0 .1 0 .1-.1s-.1-.1-.1-.2c-.1-.1-.3-.1-.4-.1-.1 0-.1-.1-.2-.1.1-.1.2 0 .2-.1.1 0 .2-.1.2-.3 0-.1 0-.1-.1-.2-.1 0-.2 0-.2-.1-.1 0 0 0 0-.2 0 .1 0 .1 0 0z"/>
    <path d="M52.3 36.6h.3c0 .1 0 .1.1.1s.1-.1.1-.1v-.1c0-.5-.1-.4.4-.5.1 0 .2-.1.2-.2v-.2c.1-.2.2-.4.2-.6 0-.1 0-.1-.2-.1h-.1v-.1c0-.1-.1-.1-.1-.1-.1 0-.1.1-.1.1v.3c0 .1 0 .3.1.3v.1c-.2 0-.4.1-.6.1-.1 0-.2.1-.2.2s.1.1.2.1c-.1.1-.1.2-.2.3-.1 0-.1.1-.2.2 0 .2 0 .2.1.2m3.9-.7c0-.1.1-.1 0-.2H56l-.1.1c-.1.2-.3.3-.4.4 0 0-.1.1-.1 0v-.1c.2-.2.4-.4.5-.7.1 0 .1-.1.1-.2s-.1-.2-.2-.2h-.1v.1c-.1.1-.1.2-.1.3 0 .1 0 .2-.2.2h-.1c-.1 0-.1 0-.1.1v.2c0 .1-.1.1-.2.1h-.3c-.1 0-.1.1-.1.2s.1.2.2.3c.1.1.2 0 .3 0 .2-.1.2-.1.3.1v.1c.1.1.2.1.3 0 .1-.1.1-.1 0-.2s-.1-.2 0-.2c.3-.2.4-.3.5-.4m-16.6 2.5c-.1.1-.1.1-.2 0s-.2-.1-.3-.2c-.1 0-.1 0-.2.1v.2l.1.1c-.2.2-.2.2-.2.4 0 .1.1.1.2.2h.3l.1-.1V39v-.2c.1-.1.1-.1.2-.1.2.1.3 0 .4-.1.1-.1.2-.1.3 0h.1c.1 0 .2-.2.1-.3 0-.1-.1-.1-.2-.1-.2 0-.4.1-.6.1 0 0-.1 0-.1.1m15.6-6.7s0-.1-.1-.2h-.2c-.1 0-.2 0-.1.2l.1.1c.1 0 .1.1.1.2H55.3v.1c0 .1-.1.1-.1.2-.1.1-.2.2-.3.4 0 0 0 .1-.1.1-.1.1-.2.1-.1.2 0 .1.1.1.2.1.1-.1.1-.2.3-.2.1 0 .1-.1.2-.2 0-.1 0-.2-.1-.2v-.1c.1-.1.2 0 .3 0h.2c.1-.1.2-.2.2-.4v-.1h-.1s-.1 0-.1.1h-.1v-.1s0-.1.1-.1v-.1h-.2c-.1 0-.1.1-.2.1s-.1 0-.2-.1"/>
    <path d="M55.1 31.9zm-.1 3.9c.1 0 .1-.1 0-.2 0-.1-.2-.2-.3-.2v-.1c0-.1.1-.1.1-.2s.1-.2 0-.3v-.1s.1-.1 0-.1c.1-.1.2-.3.2-.5.1-.1 0-.2.2-.2.1 0 .2-.1.3-.2.1 0 .1 0 .1.1.1.1.2.1.3 0 .1-.1.2-.1.2 0 .2 0 .2 0 .2-.2v-.2c0-.1-.1-.1-.1-.1-.1 0-.1.1-.2.1-.2.1-.3 0-.3-.1v-.1c0-.1 0-.1-.1-.1 0 0-.1 0-.1.1s0 .2-.1.2c-.1.1-.3.1-.4.3 0 0-.1 0-.2.1-.1 0-.2.1-.2.2s-.1.2-.2.3v.1s.1 0 .1.1c.1.1 0 .2-.1.2-.1.1-.2 0-.3 0-.1 0-.1 0-.1.1 0 0 0 .1.1.1h.1s-.1 0-.1.1-.1.1 0 .2.1.2 0 .3c0 .1-.1.2-.1.3 0 .1 0 .1.1.1h.1l.2-.2c.1 0 .1.1.1.2.3-.1.5 0 .5-.1"/>
    <path d="M54.2 36.1l-.1-.1c0-.2-.1-.3 0-.5v-.1c0-.1 0-.1-.1-.1h-.1c-.1.1-.1.2 0 .3.1.2.1.4 0 .5-.1.2-.1.3-.3.4-.1 0-.1.1 0 .2 0 0 0 .1.1.1.1.1.3.2.4.2h.1s0-.1.1-.1v-.1s-.1 0-.1-.1c-.1-.1-.1-.1 0-.2h.2l.3-.3c.1-.1.1-.1 0-.3-.1 0-.1 0-.2.1-.2.1-.2.1-.3.1m-2.1-3.4c0 .1 0 .1-.1.2-.1 0-.2.1-.3.1-.1.1-.2.2-.3.2v.1h.5c.1 0 .2-.1.3-.2.1-.3.3-.4.5-.6h.1v.5s0 .1.1.1h.1l.1-.1c0-.2.1-.2.3-.2.1 0 .1-.1.1-.1 0-.1 0-.1-.1-.1s-.1-.1-.2-.2c0-.1-.1-.1-.1 0l-.1.1c-.1 0-.2.1-.4.1-.3-.2-.4-.1-.5.1m-3 3.3s.1 0 0 0l.1-.1h-.1-.1c-.2.1-.3.3-.4.4v.1h.2c.1 0 .1 0 .2.1 0 0 0 .1.1.1.1.1.1.1 0 .2-.1 0-.1.1-.2.2 0 .1-.1.1-.2.1s-.2.1-.2.2 0 .2.1.3h.1c.1-.1.1-.2.1-.2.1-.1.2-.2.3-.1.2.1.2 0 .3-.2 0-.1 0-.2.1-.2 0-.1 0-.1-.1-.2-.1 0-.1 0-.1-.1v-.2c0-.1 0-.1-.1-.1-.1-.2-.1-.1-.1-.3-.1 0 0 0 0 0m3-1.8c0 .1 0 .1-.1.1h-.1c-.1 0-.2 0-.3-.1-.1-.1-.2 0-.2 0-.1.1-.2.2-.3.2v.1c0 .1 0 .2.1.2 0 0 .1.1.2 0l.1-.1s.1-.1.2-.1h.4l.1.1s0 .1-.1.1c-.1.1-.1.2-.1.3 0 .1 0 .1.1.1s.1 0 .2-.1c0 0 0-.1.1-.1l-.3.1s.1 0 .1-.1c.1-.1.1-.3.1-.4v-.1c0-.1 0-.1.1-.2 0-.1.1-.1.1-.2 0 0 0-.1-.1-.1h-.1c-.1.2-.2.2-.2.3m3.7.1h.3c.1 0 .2-.1.2-.2s0-.1-.1-.2h-.1c-.2-.1-.3-.1-.4.1v.1c0 .2-.1.2-.2.2h-.1c-.1 0-.1 0-.1.1v.1c0 .1 0 .2.1.2h.1c.1.3.1.3.3.2h.1c.1-.2.1-.3-.1-.4-.1 0-.1-.1-.1-.1-.1 0-.1-.1.1-.1M55.8 35c-.1 0-.1 0 0 0zm-2.4-2.9s0 .1 0 0c0 .2.1.3.2.3h.1c.1-.1.2-.1.3-.1.1 0 .3 0 .4.1h.1c.1 0 .1-.1.1-.1s0-.1-.1-.1c0-.1 0-.3.1-.4 0-.1.1-.1 0-.2 0-.1-.1 0-.1 0-.1.1-.3.2-.3.4l-.1.1c-.2 0-.3.1-.5.1-.1-.3-.1-.2-.2-.1m-2.9 3.2c0 .1 0 .1.1.2.1 0 .1 0 .2-.1l.1-.1c.1-.1 0-.2-.1-.3-.1 0-.1 0-.1-.1s0-.2.1-.3c0-.1 0-.1.1-.2 0-.1-.1-.2-.1-.2-.1 0-.1 0-.2.1s-.1.2-.1.3c0 .2 0 .3-.2.4-.1 0-.1.1 0 .2 0 .1.1.1.2 0-.1-.1-.1-.1 0 .1m2.8-1.3s.1-.1 0 0c.3 0 .4-.1.5-.2h.1c.1-.1.1-.2.1-.3 0-.1-.1-.1-.2-.1l-.3.3s0 .1-.1.1c0 .1-.1.1-.2 0v-.1c-.1-.2-.2-.2-.3 0-.1 0-.1.1-.1.2-.1.1 0 .2.1.2s.2.1.2.1c.1-.1.2-.1.2-.2m-1.4-2.4v.1s-.1 0-.1-.1-.1-.1-.1-.1c-.2 0-.2 0-.2.2 0 .1 0 .2-.1.3v.1c.1.1.1.1.2 0s.2-.2.3-.2l.1-.1c0-.1.1-.2.2-.3.1 0 .1-.1 0-.2 0-.1-.1-.1-.2-.1 0 .2-.1.3-.1.4M53.1 34.2z"/>
    <path d="M52.5 34.6l-.1.1c-.2.2-.2.5-.2.8 0 0 0 .1.1.1h.1c.1-.1.1-.2.2-.4 0-.2.1-.4.2-.6l.1-.1c.2 0 .2-.1.2-.3h-.3c-.1.1-.3.2-.3.4m1.2.1c0 .1.1.2.1.3.3.1.3 0 .3-.3v-.2c0-.2-.1-.2-.2-.3h-.3c-.2 0-.4.1-.4.3 0 .1 0 .1.1.1s.1 0 .2-.1c.2.1.2.1.2.2m-16.3-1.8v.3c-.1.2 0 .4.3.4.1 0 .2 0 .2-.1s0-.2-.1-.3c-.1-.1-.1-.1-.1-.3v-.1-.2c0-.1 0-.1-.1-.1s-.1 0-.1.1c-.1.1-.2.2-.1.3m11.3.7s0 .1.1.1h.2c0-.1.1-.1.1-.2s.1-.1.2-.2l.3-.3c.1 0 0-.1 0-.2-.1-.1-.1-.1-.2 0s-.2.1-.3.1v.2H49c-.3.3-.3.3-.3.5m5.2-1c0-.1-.1-.1-.2-.1-.2 0-.2 0-.2.2 0 .1-.1.1-.1.1-.1 0-.1.1-.1.1 0 .1 0 .2.1.2s.2 0 .2.2c0 .1.1.1.1.1.1 0 .1-.1.1-.1v-.1s-.1 0-.1-.1c.1 0 .1 0 .2-.1 0-.2.1-.3 0-.4m-2.6 3.2c.1-.1.1-.1 0-.3 0 0 0-.1-.1-.1 0-.1-.1-.1-.1 0-.1.2-.2.3-.5.3-.1 0-.1 0-.1.1v.4s.1.1.1 0c0 0 .1 0 .1-.1.1-.2.2-.2.4-.3h.2M38 40.5c0-.1 0-.3-.1-.4-.1-.1-.2-.2-.4-.2-.1 0-.2 0-.2.1s0 .1.1.2h.1c.1 0 .1.1.1.2s-.1.1-.1.2v.1l.1.1c.2-.1.3-.2.4-.3m5.9-6.4c-.1.1-.1.1-.1.2.1.2.1.3.1.5v.4h.1c.1-.1.2-.2.1-.4v-.2-.1-.2c.1-.2-.1-.2-.2-.2m3.5-.6c.1 0 .1-.1.2-.1s.2 0 .2.1v.2c0 .1.2.2.3.1l.1-.1c0-.1-.1-.2-.1-.3 0-.1-.2-.1-.2-.1-.1-.1-.1-.1-.2 0s-.2.1-.2.1h-.2c-.1.1-.1.1.1.1zM53.2 31.099999999999998s.1 0 0 0c.2-.1.3-.2.4-.3.1-.1.1-.2 0-.3-.1-.1-.2 0-.3 0l-.1.1s0 .1-.1.1c-.1-.1-.1-.2-.2-.3-.1-.1-.2 0-.2.1v.1c-.1.1-.1.1 0 .1.3.2.4.3.5.4m-3.3 3.8c0-.1-.1-.2-.1-.2h-.1v.1c0 .1-.1.2-.2.2s-.1.1-.1.1c0 .1-.1.1-.1.1-.1 0-.1 0-.1.1v.1c.1.1.2.1.3 0 .1-.1.1-.1.2-.1s.2-.2.2-.4m-5.4-1.5h.1c.1-.1.1-.1 0-.2s0-.1 0-.2l.1-.1c.1-.1.1-.2.1-.3l-.1-.3h-.1l-.1.1c.1.2 0 .3-.1.4 0 0-.1.1 0 .1.1.1 0 .2 0 .3 0 .1.1.1.1.2m4 5.2c.1 0 .1 0 .2.1s.3.1.5.1h.1c.1 0 .1-.1.1-.1 0-.1 0-.2-.1-.2h-.4c-.2-.1-.4-.1-.5 0-.1 0 0 0 .1.1-.1 0-.1 0 0 0m-.7-2.5c0 .1 0 .1 0 0 .1.1.2.1.3.2.1.1.2.1.2 0s.1-.2.3-.3v-.1c0-.1-.1-.2-.1-.2s-.1-.1-.1 0v.1c0 .1 0 .2-.1.1-.3-.1-.5.1-.5.2m8.1-5.7c0 .1.1.1.2.1.2 0 .2-.2.2-.3-.1-.1 0-.2.1-.2h.1c.1 0 .1-.1.1-.1 0-.1-.1-.2-.1-.2s-.1 0-.1.1-.1.1-.2.1-.2 0-.2.1c0 0-.1.1 0 .1-.1.1-.1.2-.1.3m-9.3 7.3v-.1h-.1s-.1.1-.1.2c-.1.1-.1.1-.2.1h-.1-.1s-.1.1 0 .1c.1.1.1.2.1.4 0 0 0 .1.1.1h.1c.1 0 .1-.1.1-.2s.1-.2.2-.2v-.4m.5-3.2c0 .1 0 .2.1.2h.1c.1 0 .1 0 .1-.1v-.2c0-.2 0-.2.2-.1.1 0 .2 0 .2-.1v-.1c0-.1-.1-.1-.1-.1h-.1c-.1.1-.2.1-.2 0h-.1s-.1.1 0 .1c.1.1 0 .2 0 .2-.2.1-.2.2-.2.2m7.5-2c-.1 0-.2 0-.2.1s-.1.2-.2.2-.1 0-.1.1c-.1 0-.1.1 0 .2 0 .1.1.1.1.1h.1c.1-.1.3-.2.4-.3 0-.1.1-.1 0-.2 0-.2-.1-.2-.1-.2M41.5 44v-.2-.1h-.2c-.2.1-.2.2 0 .3 0 0 .1.1 0 .1v.1c0 .1 0 .1.1.1h.2c.1-.1.1-.2 0-.3-.1.2-.1.1-.1 0m5.8-6.5h.3c.2 0 .2-.1.2-.3 0-.1 0-.1-.1-.1h-.3c-.2 0-.3.1-.2.3l.1.1m9.4-6c-.1 0-.1 0 0 0-.2.1-.3.2-.2.3 0 .1.1.1.1.1.1 0 .1 0 .2-.1s.2-.1.2-.2c.1 0 .2 0 .3.1.1 0 .2 0 .2-.1s.1-.1.1-.2.1-.1.1-.1h.2l.1-.1c0-.1 0-.1-.2-.2h-.1v-.1s0-.1-.1-.1c-.1-.1-.2 0-.3.1v.1c0 .1 0 .1-.1.1s-.1 0-.1.1l-.1.1c-.1.1-.2.2-.3.2m-6.3.9c-.1 0-.1.1 0 .2s.1.1 0 .2c0 .1-.1.1-.1.2-.1.1-.1.2 0 .2 0 .1.1.1.1.1.1 0 .2 0 .2-.2 0-.1 0-.2.1-.3v-.1c0-.1 0-.2-.1-.3 0-.1-.1-.1-.2 0m2-1.4h.2v-.1c-.1-.1-.1-.1 0-.2l.1-.1h.1c.1-.1.1-.2 0-.3h-.2c-.1 0-.1.1-.2.1-.2 0-.2.1-.2.3 0 .1.1.2.2.3m2-.2c-.2 0-.2.1-.3.2v.3c0 .1.1.1.1.1.1 0 .1-.1.2-.1 0-.1.1-.2.2-.3v-.1c-.1-.1-.2-.1-.2-.1m-.3-.5c0 .1.1.2.2.1 0 0 .1 0 .1-.1.1 0 .1-.1.2-.1.1-.1-.1-.1-.1-.2v-.1c0-.1-.1-.1-.1-.1h-.2c-.1 0-.1.1-.1.2V30.3M37 37.8c.1-.1.2-.1.2-.1.1 0 .1.1.2 0s.2-.1.4-.1c.1 0 .1 0 .2-.1s.1-.1 0-.2h-.1-.1c-.2.1-.2.1-.4.1H37c-.1.1-.2.1-.2.3v.1c0 .1-.1.1-.2.1.1-.1.1-.3 0-.5v-.1c-.1-.1-.2-.1-.2 0-.1 0-.1.1-.1.2s0 .1-.1.2 0 .2 0 .3l.1.1c0 .1.1.1.2.1h.2l.1.1c.2-.2.3-.2.2-.5m24.4-5.4c.2 0 .3-.1.4-.3.1-.1 0-.2-.1-.2h-.1c-.2 0-.2 0-.3.2v.1c0 .2 0 .2.1.2m-5.1-1.6v.1s0 .1.1.1h.4c.1 0 .1 0 .1-.1s0-.2-.1-.3c-.1-.1-.2-.1-.3-.1 0 .1-.1.2-.2.3m-19.5 8.8c-.1 0-.1.1-.1.2 0 .2.1.3.1.4 0 .1.1.1.1.1.1 0 .1 0 .1-.1V40c0-.1-.1-.3-.1-.4h-.1m22.3-8.7v.4c0 .1 0 .1.1.1h.2c0-.1.1-.1.1-.2s-.1-.3-.1-.4c0-.1-.1-.1-.2-.1-.1.1-.1.1-.1.2m-7.9 7c0 .1 0 .1 0 0 .2 0 .3-.1.4-.2.1-.1.1-.1 0-.2 0 0 0-.1-.1-.1 0-.1-.1 0-.1 0h-.1l-.1-.1c.1-.1.1-.2 0-.2s-.1 0-.1.1V37.5c0 .1.1.3.1.4m4.8-6.5c.1-.1.1-.1.1-.2s-.1-.2-.1-.4c0-.1-.1-.1-.1-.1-.1 0-.2.2-.2.4s.2.3.3.3m-18.5 8.1s0 .1-.1.1c0 0 0 .1.1.1h.1c.2 0 .2-.1.3-.2.1 0 0-.2-.1-.2-.2 0-.2 0-.3.2m19.2-5.8h.1c.1 0 .2-.1.1-.2 0-.1-.1-.2-.1-.2 0-.1 0-.1-.1-.1s-.1 0-.2.1v.1c.1 0 .1.1.2.3-.1 0 0 0 0 0m-18.4-2.5h.4s.1-.1 0-.2c0-.1-.1-.1-.2-.1s-.1 0-.2-.1h-.1l-.1.1s-.1.1 0 .2c0 0 .1.1.2.1m13-.7h.1c.1-.1.2-.2.3-.2.1 0 .1-.1.1-.1l-.1-.1c-.1 0-.2.1-.3.1-.1 0-.2 0-.2.1-.1.1 0 .2.1.2m4.9 2.4c.2 0 .2-.1.2-.2s-.1-.2-.2-.2h-.3c-.1 0-.2.1-.2.2s.1.1.1.1c.2.1.3.1.4.1m3-.2c0 .1 0 .2-.1.2 0 .1 0 .2.1.2.1.1.1 0 .2 0V33c0-.1.1-.2.1-.2 0-.1 0-.2-.1-.2s-.2 0-.2.1m-5.3 4.9h.2c.1 0 .1 0 .2-.1 0 0 0-.1.1-.1-.1-.1-.3-.3-.5-.2-.2 0-.3-.1-.3-.3 0-.1 0-.2-.1-.1-.2 0-.4 0-.5.2-.1.1-.1.3-.2.4h.1s.1-.1.1 0-.1.1-.1.2v.1h.1v-.1c0-.1.1-.1.2-.2.1 0 .1-.1.2-.1l.1-.1c0-.1-.1-.2-.2-.2s-.2 0-.3.1c0 0 0 .1-.1.1v-.3h.4c.1.1.2.2.4.3 0 .2.1.2.2.4 0-.1 0-.1 0 0 0-.1 0-.1 0 0m.8-4c.1-.1.1-.2.1-.4 0-.1-.1-.1-.2-.1s-.1 0-.2.1c0 .1 0 .2-.1.3-.1.1 0 .1 0 .2v.1c.1 0 .1 0 .1-.1.2.1.2 0 .3-.1m-6.1-1.8v-.1-.1-.1c0-.1-.1-.1-.2-.1h-.1c0 .2-.1.3-.1.5 0 0 0 .1.1.1.2 0 .3-.1.3-.2m8.5-1.1H57.4c.1 0 .1-.1.1-.2v-.1l-.1-.1s-.1-.1-.2 0c-.1 0-.2.1-.2.2s.1.2.1.2m-18.3 10c.1-.1.1-.1.1-.2s-.1-.2-.1-.3h-.1c-.1.1-.1.2-.1.3-.1.2 0 .3.2.2m1.1 1.8c-.1 0-.3.1-.3.2s0 .1.1.2c0 0 .1.1.1 0 .1 0 .2-.1.2-.2 0 0 0-.1-.1-.2.1.1.1 0 0 0m9.6-4.5c0-.1 0-.1-.1-.1s-.2 0-.3.1c0 .1-.1.1-.1.2s.1 0 .1 0h.2c.2 0 .2 0 .2-.2m1.9-6.7v-.2c0-.1 0-.1-.1-.1h-.1-.1c-.1 0-.1 0-.1.1s0 .1.1.2.2.1.3 0m-3.5 6.9c.2-.1.4 0 .5-.1.1 0 .1-.1.1-.2s0-.1-.1-.1c-.2 0-.4.2-.5.4 0-.1 0-.1 0 0m2.4-6.9c0 .1.1.2.2.2s.1-.1.1-.2v-.1-.2s0-.1-.1-.1h-.1c-.1.2-.1.3-.1.4m-.5.6s.1.1.2.1c0 0 .1-.1.1-.2s0-.2.1-.3v-.1h-.1c0 .1-.1.2-.1.3-.2.1-.2.2-.2.2M50.4 33.8c.1-.1.2-.2.4-.3v-.1c-.1-.1-.2-.1-.3-.1-.1 0-.3.2-.2.3 0 .2 0 .2.1.2M45.1 38c.1-.1.1-.2.2-.3v-.1h-.1c-.2.1-.3.2-.3.4v.1c0 .1 0 .1.1.1l.1-.2m7.6-6.4v-.2c-.2-.1-.3 0-.3.2 0 .1 0 .2.2.2 0 0 .1 0 .1-.2m-14 6.1s.1 0 .1.1c.1 0 .2-.1.2-.2s0-.1-.2-.1h-.1c-.1 0-.2.1-.2.1.1.1.2.1.2.1m4.2-1.2c-.1 0-.2.1-.2.1 0 .1.1.1.1.2 0 0 .1 0 .1.1.1 0 .2-.1.2-.2s0-.1-.2-.2c.1 0 .1 0 0 0m.5-.3c.1 0 .2-.1.2-.2s0-.1-.2-.1h-.1c-.1 0-.2.1-.2.1 0 .1.1.1.1.2h.2m-5.2-1.5c-.1 0-.1 0-.1.1v.3c0 .1.1.1.2 0l.1-.1c0-.1-.1-.3-.2-.3m7.9.4c-.1 0-.1.1-.2.1s-.1 0-.1.1 0 .1.1.1c.1.1.2.1.4 0 .1 0 .1-.1.1-.2-.1-.1-.2-.2-.3-.1m-.9-2.9c.1 0 .1-.1.2-.2 0-.1 0-.1-.1-.2-.1 0-.1-.1-.1-.2v-.1h-.1c-.1 0-.1.1-.1.1v.3c0 .3.1.3.2.3M40 36.4c-.1 0-.1.1 0 0-.1.1-.1.1-.1.2v.4s0 .1.1.1h.1V37c0-.1 0-.2.1-.2 0-.2 0-.3-.2-.4m-2.3-.2s0-.1-.1-.2h-.2c-.1.1-.1.2-.1.3l.1.1c.1 0 .2 0 .3-.2m-.4.7s0-.1-.1-.2H37c-.1.1-.1.2-.1.3 0 0 0 .1.1.1.2 0 .3 0 .3-.2m-1.4-.3s0-.1-.1-.2h-.2c-.1.1-.1.2-.1.3 0 0 0 .1.1.1.2 0 .3 0 .3-.2"/>
    <path d="M35.7 37.4s.1 0 0 0c.1 0 0 .1 0 0l-.1.1-.1-.1c.1-.1.2 0 .2 0m-2-3.1c.5 1.4 1.1 2.7 2.1 3.9 0 0 .1.1.1 0 .1 0 .1-.1.1-.1s0-.1-.1-.1c0-.1 0-.1-.1-.2s-.1-.1 0-.1c0 0 .1 0 .1-.1 0 0 .1-.1 0-.1-.1-.1-.1-.1-.1-.2s-.1-.1-.1-.1h-.2c-.3-.5-.5-1.1-.8-1.6v-.1c-.1-.1-.1-.1-.2-.1-.1-.2-.2-.4-.2-.5-.1-.1-.1-.2-.2-.3-.1-.2-.3-.5-.5-.7h-.1s-.1 0-.1.1v.1c0 .1.1.2.1.3l-.1-.1-.1-.1c-.1 0-.1.1-.1.1 0 .3 0 .3.2.3l.3-.3m.4 2c0-.1-.1-.1-.1-.1-.1 0-.1.1-.1.1 0 .3 0 .3.2.3h.1v-.2s-.1 0-.1-.1m15-5.6c.1 0 .1-.1.1-.2s0-.1-.1-.2c-.1 0-.1-.1 0-.2V30v-.1H49c-.1 0-.1.1-.1.2v.3c0 .2.1.3.2.3M34 31.8c0 .2 0 .3-.1.4v.1h.1c.1-.1.2-.2.2-.4 0-.1 0-.1-.1-.2 0 0-.1 0-.1.1m5.2 2.6s-.1 0 0 0c0 .2 0 .3.1.3h.1l.1-.1c.1-.1 0-.2-.2-.2h-.1m3.9-4.1c.1 0 .1-.1.1-.2s-.1-.1-.1 0c-.1 0-.2.1-.3.2v.1l.1.1c0-.1.1-.2.2-.2m-7.9 7.8c-.1 0-.1.1 0 .2 0 .1 0 .1.1.2 0 .1.1 0 .2 0s.1 0 .1-.1c0 0 0-.1-.1-.2s-.2-.2-.3-.1M49 33c.1 0 0 0 0 0zm.1-.4H49c-.1.1-.2.3-.2.4v.1h.1l.1-.1c0-.1.1-.2.1-.3v-.1M38 37.7l-.1.1v.1h.1c.2 0 .3 0 .4-.2v-.1l-.1-.1c-.1.1-.2.2-.3.2m11.4-6.3c.1 0 .1-.1.1-.2V31h-.1c-.1 0-.1.1-.2.1v.2c.1.1.2.2.2.1m4.8 2.6c-.1.1-.1.1 0 .2 0 .1.1.1.2.1s.2-.1.1-.2-.1-.2-.1-.3c-.1.1-.1.2-.2.2M44 36.3c-.1 0-.1.1-.2.1 0 .1-.2.1-.1.2 0 .1.1 0 .2.1h.2c0-.1.1-.2.1-.3-.1-.1-.2-.1-.2-.1m2.3-4.7s0-.1 0 0c0-.1-.1-.1-.1-.1-.1.1-.2.2-.2.3 0 0 0 .1-.1.1l.1.1c.1 0 .1 0 .1-.1.1-.1.2-.2.2-.3m.3.8v.1s.1 0 0-.1h.3c.1 0 .2-.1.2-.2 0 0 0-.1-.1-.1s-.1 0-.1.1c-.1-.1-.2 0-.3.2m-.4-1.3c.1-.1.2-.2.1-.2-.1-.1-.2-.1-.3-.1 0 0-.1 0-.1.1v.1c0 .1.1.1.3.1m-8.7-.1c.1 0 .1 0 .1-.1.1-.1.1-.2.1-.2 0-.1-.1-.1-.2-.1s-.1 0-.1.1v.2c.1 0 .1.1.1.1m21.4 2.2c-.1 0-.1.1-.2.1v.1c0 .1 0 .1.2.2h.1c0-.1.1-.1.1-.2v-.1c-.1-.1-.1-.1-.2-.1m-4.2 3.6c0-.1 0-.1-.1-.1s-.3.1-.3.2v.1c.1.1.3 0 .4-.2M53 31.7c0 .1-.1.2 0 .3l.1.1c.1 0 .3-.2.3-.3 0 0 0-.1-.1-.1-.1-.1-.2-.1-.3 0m-1.9 1.5c.1-.1.1-.2.1-.3 0-.1-.2 0-.3.1-.1.1-.1.1-.1.2 0 0 0 .1.1.1.1.1.2 0 .2-.1M46.9 31c.1-.1.2-.3 0-.5h-.1s-.1 0-.1.1v.4c.1.1.1.1.2 0m-8.4 5.9l.1-.1v-.2c-.1 0-.1 0-.2.1-.1 0-.1.1-.1.2s0 .1.1.1c0-.1.1-.1.1-.1m.7.2c-.1 0-.1.1 0 .2 0 .1 0 .1.1.1s.1 0 .1-.1l.1-.1V37c-.2 0-.3 0-.3.1m-3.4-1.2v-.2c-.1 0-.1 0-.2.1-.1 0-.1.1 0 .2 0 .1 0 .1.1.1s.1 0 .1-.1c-.1 0 0 0 0-.1m15.6-2c.1 0 .1 0 .2-.1 0-.2 0-.3-.2-.2 0 0-.1 0-.1.1v.2s0 .1.1 0m-7.5-.6c0 .1.1.2.2.2s.2-.1.2-.2-.1-.1-.2-.1c-.1-.1-.2 0-.2.1m3 3.7c.1 0 .1-.1.2-.1v-.1c0-.1-.1-.1-.1-.1-.1 0-.2 0-.2.2V37.2c0-.1.1-.1.1-.2m-7.5.9c0 .1.1.1 0 0l.1.1h.2c.1 0 .1-.1.1-.1 0-.1-.1-.1-.1-.1-.1-.1-.2 0-.3.1M50 37c.1 0 .3-.2.2-.3 0 0 0-.1-.1-.1s-.2.2-.3.3c.1 0 .2.1.2.1m-2.8-2c-.1 0-.1 0-.2.1v.1s0 .1.1.1c0 .1.1.1.2 0 0 0 .1 0 .1-.1 0 0 0-.1-.2-.2m1.2-.2c-.1.1-.1.2-.1.3 0 .1.1.1.1.1.1 0 .1 0 .1-.1v-.2-.1s0-.1-.1 0c0-.1 0 0 0 0M45 38.4c0-.1 0-.1.1-.2 0-.1 0-.1-.1-.2h-.1l-.1.1v.2c.1.2.2.2.2.1m12.4-5.6c0-.1-.1-.1-.1-.1h-.1l-.1.1v.3h.2c.1-.2.1-.3.1-.3m-20.7-.7s-.1.1 0 .1c0 0 .1 0 .1.1.1 0 .2 0 .2-.1V32h-.1c-.1 0-.2.1-.2.1m-.4 1.6c.1 0 .2 0 .2-.1v-.2h-.1c-.1 0-.1.1-.2.1 0 0-.1.1 0 .1 0 .1 0 .1.1.1M47.2 36H47c-.1 0-.1.1 0 .2s.1.1.2 0l.1-.1s0-.1-.1-.1m-12.1 1.8H35c-.1.1-.1.2-.1.3 0 0 0 .1.1 0 .1 0 .2-.1.2-.1s0-.1.1-.1l-.2-.1m16.1-5.9c.1 0 .2 0 .2-.1v-.1c0-.1-.2-.1-.3-.1-.1 0-.1.1-.1.2s.1.1.2.1c-.1 0-.1 0 0 0m-13.1 4s.1-.1 0 0v-.3c0-.1 0-.1-.1-.1s-.1.1-.1.1c0 .1 0 .2.1.3h.1m-1 .1v-.3c0-.1 0-.1-.1-.1s-.1.1-.1.1c0 .1 0 .2.1.3 0 0 .1.1.1 0m-.2-4.6c0-.1 0-.2-.1-.2h-.1c-.1 0-.1.1-.1.1 0 .1 0 .2.1.3.1 0 .1-.1.2-.2m10.9 5.4s-.1.1 0 0c0 .1 0 .1.1.1h.2c.1 0 .1-.1.2-.1v-.1h-.1c-.2-.1-.4 0-.4.1m1.9-3.2c-.1 0-.2.1-.2.2s.1.2.2.1c.1 0 .2-.1.1-.2 0-.1 0-.1-.1-.1m-12.5-1.7c.1 0 .2-.1.2-.2s-.1-.2-.2-.2-.2.1-.2.2c.1.1.1.2.2.2m8.1-.7c.1 0 .1-.1.1-.1 0-.2-.1-.3-.2-.2-.1 0-.1.1-.1.2 0 0 .1.1.2.1m.8-.8c.1 0 .1-.1.1-.1 0-.2-.1-.2-.2-.2s-.1.1-.1.2.1.1.2.1m3.5 1.7h-.1c-.1.1-.1.2 0 .3h.1c.2 0 .2-.1 0-.3.1.1.1 0 0 0M33 35.8c-.1 0-.1.1-.2.1v.1c.1.1.2.1.3 0 .1 0 .1-.1.1-.2-.1 0-.1-.1-.2 0m1.4-2v.1c.1.1.2.1.3 0 .1 0 .1-.1.1-.2s0-.1-.1-.1c-.2.1-.3.2-.3.2M49 31.2c.1 0 .2 0 .2-.1s0-.1-.1-.2-.1-.1-.2 0c-.1 0-.1.1-.1.1.1.1.1.2.2.2m.2 0zm-11.8 3c0-.1 0-.1-.1-.1s-.2 0-.3.2c0 .1 0 .1.1.1.2 0 .3-.1.3-.2m-1 .3c0 .1 0 .1.1.1.2 0 .3-.1.3-.2s0-.1-.1-.1c-.2 0-.3.1-.3.2m-1.3-.1c-.1 0-.2 0-.3.2 0 .1 0 .1.1.1.2 0 .3-.1.3-.2s-.1-.1-.1-.1m8.9-2.3c-.1.1-.1.2-.1.3 0 0 0 .1.1.1s.1 0 .1-.1c.1-.1 0-.2 0-.3H44m-.2-1.7c.1 0 .1-.1.1-.1 0-.1 0-.2-.1-.3h-.1-.1c-.1.1-.1.2 0 .3.1 0 .2.1.2.1m5.8 0c.1 0 .1-.1.1-.2s0-.1-.1-.1-.2 0-.2.1c.1.1.1.2.2.2m.3 6.1c.1 0 .2-.1.2-.2s-.1-.2-.1-.2c-.1 0-.2.1-.2.2-.1.1 0 .2.1.2m-12 4.5c-.1 0-.1.1-.1.2s.1.1.2.1.1-.1.2-.1v-.1l-.1-.1h-.2m8.1-4.2c-.1 0-.1 0 0 0-.2 0-.2 0-.3.1v.2h.1c.1 0 .2 0 .3-.1 0-.1-.1-.2-.1-.2m.1 2.3s-.1 0 0 0c-.1 0-.1 0 0 0l-.1.1c0 .1.1.1.1.1.1 0 .1 0 .2-.1v-.1-.1l-.1-.1c0 .2-.1.2-.1.2m1.7-4c-.1 0-.2.1-.2.2s.1.1.2.1.2-.1.2-.2c-.1 0-.1-.1-.2-.1M38 37.3h.2v-.1-.1c-.1 0-.1-.1-.2-.1h-.1v.1c0 .2.1.2.1.2m7.8-2.9s-.1 0 0 0c-.1.1-.1.1-.1.2s0 .1.1.1.2 0 .2-.1 0-.1-.2-.2M54.9 33.4s.1.1.2.1c.1-.1.2-.2.1-.3l-.1-.1c0 .1-.1.2-.2.2s-.1.1 0 .1m-9.2-.1c.1 0 .1-.1 0 0 .1-.1.1-.1.1-.2h-.1c-.1 0-.2 0-.2.1-.1.1-.1.1-.1.3.1-.1.2-.2.3-.2m1 3s0-.1-.1-.2h-.1c-.1.1-.2.1-.1.3 0 .1.1.1.1.1.2 0 .2-.1.2-.2m3.4-.6c-.1 0-.2.1-.2.2v.1c.1.1.2.1.3 0l.1-.1c0-.2-.1-.2-.2-.2m-3.9.9v.2s0 .1.1.1h.1c.1-.1.1-.2-.1-.3 0-.1-.1-.1-.1 0m-2.3-1.1c0-.1-.1-.2-.1-.2-.1 0-.2.1-.2.2s.1.2.2.2c0 0 .1-.1.1-.2m-2.4-1.6v-.1c0-.1 0-.2-.1-.2l-.1-.1h-.1c-.1.1-.1.3 0 .4h.3m4.6-.2c-.1.1-.1.2-.1.2 0 .1.1.1.2.1s.1-.1.1-.2v-.1c-.1-.1-.2-.1-.2 0m-1.3.4s0-.1 0 0c-.1-.1-.1 0-.1 0-.1.1-.1.1-.1.2s0 .1.1.1.2 0 .2-.1l-.1-.2c.1.1.1 0 0 0m-1.9-1c0-.1 0-.1-.1-.1h-.1c-.1.1-.1.1-.1.2s0 .1.1.1.2 0 .2-.1v-.1m1.7 2.2c.1 0 .1 0 .1-.1V35c0-.1-.1-.1-.2-.1-.1.1-.1.1-.1.2.1.2.1.2.2.2M42.2 32c.1 0 .1 0 .1-.1v-.1-.1c0-.1-.1-.1-.2-.1-.1.1-.1.1-.1.2.1.2.1.2.2.2m1.6 6.1c-.1 0-.1.1 0 0 0 .2.1.2.2.2l.1-.1V38c-.2 0-.3 0-.3.1m3.4.1c.1 0 .1-.1.1-.2s-.1-.1-.2-.1-.1 0-.1.1 0 .1.1.2h.1m-2.6-7.3c.1 0 .1-.1.1-.1 0-.1-.1-.2-.2-.2h-.1v.2c0 .1.1.1.2.1m6.3 3c.1 0 .2-.1.3-.2-.2-.1-.3 0-.4.1 0 0 0 .1.1.1"/>
    <path d="M51.3 33.7zm-13.2.5c.2 0 .3-.1.3-.2s-.1-.1-.1-.1c-.1 0-.2.1-.2.2-.1-.1-.1 0 0 .1-.1-.1-.1-.1 0 0m-.9.8c-.1 0-.2.1-.2.2v.1h.1c.2 0 .3-.1.3-.2-.1-.1-.1-.1-.2-.1m1.6.3h.2c.1-.1.1-.1.1-.2S39 35 39 35c-.1 0-.1.1-.2.2-.1 0-.1 0 0 .1m.2.8v.1h.2c.1-.1.1-.1.1-.2s-.1-.1-.1-.1c-.1 0-.2.1-.2.2m-3-3.3c.1-.1.1-.1.1-.2s-.1-.1-.1-.1c-.1 0-.1.1-.2.2v.1h.2M55.7 35zm-14.1 1.2s.1-.1 0-.1c0-.1-.1-.1-.1-.2h-.1s-.1 0-.1.1V36.3c.2-.1.3 0 .3-.1m12-4.5s0 .1 0 0c.1.1.1.1.2.1.1-.1.1-.2.1-.3h-.1c-.1-.1-.2 0-.2.2 0-.1-.1 0 0 0m-9.9-.1c.1 0 .2-.1.2-.2s-.1-.1-.1-.1c-.1 0-.2.1-.2.2 0 0 0 .1.1.1m4.3-.1c.1 0 .1 0 .1-.1s-.1-.2-.2-.2-.1.1-.1.1c0 .1.1.2.2.2m-1.2 4.2c0-.1-.1-.1-.1-.2-.1 0-.1.1-.1.1 0 .1.1.1.1.2l.1-.1m-7-.3c-.1 0-.1.1-.1.2s0 .1.1.1.1-.1.1-.1v-.1c0-.1-.1-.1-.1-.1m.2-4h.2c.1 0 .1-.1.1-.1 0-.1 0-.2-.1-.3 0-.1-.1-.1-.2-.1s-.1.1-.1.1v.2c.1.1.1.2.1.2m.8 1.7h.1c.1-.1.1-.1.1-.2v-.2s0-.1-.1-.1-.1 0-.1.1-.1.2-.1.3c0 .1.1.1.1.1m.2 1.3l.1-.1c.1-.1 0-.2-.2-.2h-.1s-.1 0-.1.1 0 .2.1.3c.1 0 .2 0 .2-.1m-.2-2.5c0-.1-.1-.2-.1-.2-.1 0-.2.1-.2.1 0 .1.1.2.2.2s.1 0 .1-.1m.4 3.4c0 .1 0 .1.1.1s.1-.1.1-.1v-.1h-.2v.1m3.3 1.4h.1l.1-.1v-.2c-.1 0-.1 0-.2.1v.2c0-.1 0-.1 0 0m-5.6-3c.1 0 .2-.1.2-.2v-.1s-.1-.1-.2 0c-.1 0-.1.1-.1.2s.1.1.1.1m-.7-1.9c.1 0 .2 0 .2-.1s0-.2-.1-.2-.2.1-.2.2c-.1 0 0 .1.1.1m.3 2.7c.1 0 .2-.1.2-.2 0 0 0-.1-.1-.1s-.2.1-.1.3c-.1-.1-.1 0 0 0m10-.5v.1c.1.1.1 0 .2 0s.1-.1.1-.2c0 0 0-.1-.1-.1l-.2.2m-12.2-2.9c.1 0 .1 0 .2-.1s0-.1 0-.2h-.2c-.1.1-.2.2 0 .3-.1 0-.1 0 0 0m10.5 3.2h.2c.1 0 .1-.1.1-.2-.1 0-.1-.1-.2-.1h-.1c-.1 0-.1 0-.1.1s.1.1.1.2m2.3-.5c.1.1.1.1.2.1.1-.1.1-.3 0-.4h-.1-.1v.3m-14.5 3.3s-.1 0 0 0c-.1 0-.1.1-.2.1 0 .1 0 .2.1.2s.2-.1.2-.1 0-.1-.1-.2m12-2.4c.1 0 .1-.1.1-.2 0 0 0-.1-.1-.1s-.2 0-.2.1v.1c0 .1.1.1.2.1m-2.9-.8c0-.1 0-.2-.1-.2h-.1c-.1 0-.1.1-.1.2l.1.1c.1.1.1 0 .2-.1m-9.9-.5c.1 0 .2 0 .2-.1s0-.1-.1-.2c-.1 0-.2.1-.2.2s0 .1.1.1m4.8-.6v-.1h-.1c-.1 0-.1.1-.1.2s0 .1.1.1c0 0 0-.1.1-.2 0 .1 0 .1 0 0m4.5 5.5zm0 0h.2c.1 0 .1-.1.1-.1 0-.1-.1-.2-.1-.1-.1 0-.2 0-.2.2m.1-5.9c0 .1 0 .2.1.3h.1v-.1-.2c0-.1-.1-.1-.2 0 0-.1 0-.1 0 0m6.4-1.5s.1-.1 0-.2l-.1-.1c-.1 0-.2.1-.2.2v.1h.3m-5.2 6.4c-.2-.1-.3 0-.3.1.1.2.3.1.3-.1m1.3.4c.1 0 .2-.1.1-.2 0-.1 0-.1-.1-.1s-.2 0-.2.1.1.2.2.2m-5.3-.4v.1c.1.1.3 0 .3-.2 0-.1-.1-.1-.1-.1l-.2.2m-1-.9s-.1.1 0 .2c.1 0 .2 0 .2-.1v-.1-.1c-.1 0-.2.1-.2.1m6.8-3.6c-.1 0-.1.1-.1.1v.1h.2v-.1c0-.1 0-.1-.1-.1m1.3-.9c0 .1.1.1.1.1.1 0 .2-.1.2-.2s-.1-.1-.2-.1c0 0-.1.1-.1.2m14.2-.8c0-.1 0-.1-.1-.1s-.1 0-.1.1c-.1.1-.1.1 0 .2h.1c.1 0 .1-.1.1-.2m-9.5 2.7s.1 0 0 0c.2-.1.2-.2.2-.3l-.1-.1c-.1 0-.1 0-.1.1V33.8m-1.9-3.1c.1 0 .1-.1.1-.1 0-.1-.1-.2-.2-.2s-.1.1-.1.1c.1.2.1.2.2.2m-4.2 5.4c0 .1.1.1.2.1s.1-.1.1-.2-.1-.1-.1-.1c-.2 0-.3.1-.2.2m-5.6.4c-.1 0-.1.1-.1.1 0 .1.1.2.1.1.1 0 .1-.1.1-.2h-.1m8.5-2v-.2c0-.1-.1-.1-.1-.1l-.1.1v.2h.2c-.1 0 0 0 0 0m-2.2-3.1c0-.1 0-.2-.1-.2h-.1c-.1 0-.1.1-.1.2v.1c.2 0 .3 0 .3-.1m4.9-.3c.1.1.3 0 .3-.1s-.1-.1-.1-.1c-.1 0-.1.1-.2.1v.1m-6.4 4c0-.1-.1-.2-.2-.2 0 .1-.1.1-.1.2s.1.2.1.1c.2 0 .2 0 .2-.1m5.1-3.3c0-.1 0-.1-.1-.1s-.1 0-.2.1c0 .1 0 .1.1.1.2 0 .2 0 .2-.1M47 37.7s.1 0 .1-.1v-.1c0-.1-.1-.1-.1 0l-.1.1v.1h.1m1-5.1c0 .1 0 .1.1.1s.2-.1.2-.1c0-.1 0-.1-.1-.1-.1-.1-.2 0-.2.1m-10.2 3.1c-.1-.1-.3 0-.2.1v.1h.1c.1 0 .1-.1.1-.2m7.4-1.5c.1 0 .1-.1.1-.2s-.1-.1-.1-.1c-.2.1-.2.1-.2.2s.1.1.2.1m2.5-1.8s-.1.1 0 .2c.1 0 .2 0 .2-.2v-.1c-.1 0-.2 0-.2.1M43.9 31h.1l.1-.1-.1-.1c-.1 0-.1.1-.1.2m1.1-.7l.1-.1-.1-.1c-.1 0-.1.1-.1.2h.1m2.7.5l-.1-.1-.1.1s0 .1.1.1c.1.1.1.1.1-.1m.7.1c.1 0 .2 0 .2-.1s0-.1-.1-.1-.1 0-.1.1c-.1.1 0 .1 0 .1m-7.9-.5c-.2-.1-.3.1-.2.2h.1c.1 0 .2-.1.1-.2m-.2 7.5c0 .1.1.1.1.1h.1l.1-.1s0-.1-.1-.1c0 0-.1 0-.2.1.1-.1 0 0 0 0m-.8-1.8v.1c.1 0 .2 0 .2-.1V36l-.2.1c.1-.1 0 0 0 0m.5-3.9l-.1.1.1.1c.1 0 .2 0 .2-.1v-.1c0-.1-.1-.1-.2 0m2.5-.1c-.1.1-.1.1 0 0v.1c.1 0 .2 0 .2-.1V32s-.1 0-.2.1m.2 2.1s-.1 0 0 0l-.1.1.1.1c.1 0 .2 0 .2-.1v-.1c-.1-.1-.1-.1-.2 0M54.8 32.1h.1c.1 0 .1-.1.1-.2-.1 0-.2 0-.2.1v.1m-9.9 3.8v.1c.1 0 .2-.1.2-.2l-.1-.1c0 .1-.1.2-.1.2m-1.5-1.1l-.1-.1c-.1 0-.1.1-.1.1 0 .1 0 .1.1.1 0 .1.1 0 .1-.1m-4.9 1.1c-.1.1-.2.1-.2.3.1 0 .2-.1.2-.2v-.1c.1 0 .1 0 0 0m-4.9-.3s0-.1 0 0c-.1.1-.2.1-.2.3.1 0 .2-.1.2-.2.1-.1.1-.1 0-.1.1 0 .1-.1 0 0m8.8.1c-.1 0-.1 0-.1.1v.2s0 .1.1.1c0 0 .1 0 .1-.1v-.1s0-.1-.1-.2c.1.1.1 0 0 0m10.4-2.2s0-.1.1-.1v-.1s-.1-.1-.1 0-.1.1 0 .2c-.1 0-.1 0 0 0 0 .1 0 .1 0 0m-13.1 3.8c-.2-.1-.3 0-.3.1 0 0 0 .1.1.1s.2 0 .2-.2m10.9-.5s0-.1 0 0c-.1-.1-.1-.1-.2-.1s-.1.1-.1.2v.1c.2 0 .2 0 .3-.2 0 .1 0 .1 0 0m1.5-.3zm-9.7-5.9c.1 0 .1-.1.1-.2s-.1-.1-.1-.1c-.1 0-.1.1-.1.2s.1.1.1.1m5.8-.2c0-.1-.1-.1-.1-.1l-.1.1v.1h.1c.1 0 .1 0 .1-.1m-.9 1.2c.1 0 .2 0 .2-.1v-.1h-.2v.1c-.1.1-.1.1 0 .1m14 0c0 .1 0 .1.1.1s.2 0 .2-.1-.1-.1-.2-.1l-.1.1M49 34.7c-.1 0-.2.1-.2.2s.1.1.1.1h.1v-.3m-1 0c0 .1.1.1.1.1.1 0 .1 0 .1-.1s-.1-.1-.1-.1l-.1.1m.8-2.3c.1 0 .1 0 .1-.1s-.1-.1-.1-.1c-.1 0-.1 0-.1.1 0 0 0 .1.1.1m-1.7.9c.1-.1.1-.1.1-.2l-.1-.1-.1.1c-.1.1 0 .2.1.2m-5.3 1c-.1 0-.1.1 0 .2h.1c.1 0 .2-.1.2-.2v-.1c-.2 0-.3 0-.3.1m8.3-.9c.1 0 .1-.1.1-.1 0-.1 0-.1-.1-.1s-.1.1-.1.1c0 .1 0 .1.1.1m-.4 1c.1 0 .2-.1.2-.1h-.1c-.2-.1-.2 0-.1.1m-3.3-1c.1 0 .2 0 .2-.1s-.1-.1-.1-.1c-.1 0-.1.1-.1.1-.1.1-.1.1 0 .1m4.4 3.8s.1 0 0 0c.1 0 .2-.2.1-.3h-.1c0 .1-.1.2 0 .3m-6.6-.2c0 .1 0 .1 0 0 .1.1.2.1.2.1s.1-.1 0-.1l-.1-.1-.1.1m4.3-3.9c0 .1 0 .1.1.1s.2-.1.1-.1c0-.1 0-.1-.1-.1s-.1.1-.1.1m2.4 3.4s0-.1 0 0c-.1-.1-.2 0-.2.1.1.1.2 0 .2-.1m-7.8-4.8c0 .1.1.1.1.1.1 0 .1-.1.1-.1 0-.1-.1-.1-.1-.1-.1-.1-.1 0-.1.1m-9.6 4.9c-.1 0-.1.1-.1.2h.1s.1 0 0-.2c.1.1 0 0 0 0m12.1-1.4c-.1-.1-.2 0-.2.1v.1h.1c.1 0 .1-.1.1-.2m-12.8-.3v-.1-.1h-.1v.1s0 .1.1.1m14.3-2.1c0-.1-.1-.1 0 0-.2-.1-.2 0-.2 0 0 .1 0 .1.1.1l.1-.1m-3.5-1.9c0-.1 0-.1 0 0v-.2h-.1v.2h.1m16.3-.3s.1 0 .1-.1-.1-.1-.1-.1c-.1 0-.1 0-.1.1 0 0 0 .1.1.1m-22.8 5.7c0-.1 0-.1 0 0-.1-.1-.2 0-.2 0v.1c.1 0 .2 0 .2-.1m10.3.2c.1 0 .1-.1.1-.1l-.1-.1c-.1 0-.1 0-.1.1l.1.1m-9.6.4c-.2-.1-.2 0-.2.1 0 0 0 .1.1.1 0 0 .1-.1.1-.2m7.6.5c.1 0 .1-.1.1-.2 0 0 0-.1-.1-.1-.1.1-.1.1 0 .3-.1-.1-.1 0 0 0m-.4-.6c-.1-.1-.2 0-.2 0v.1c.1.1.2 0 .2-.1m.9-4.2s0-.1 0 0c-.2-.1-.2 0-.2 0s0 .1.1.1.1 0 .1-.1m-8.2 1.3c-.1 0-.2 0-.1.1h.1v-.1m6.9-2.1c-.1 0-.1 0-.1.1s0 .1.1.1.1 0 .1-.1c0 0 0-.1-.1-.1m.7 4.2c-.1 0-.1.1 0 0-.1.1 0 .2 0 .2V36c0 .1 0 0 0 0m4.7-3.7s.1.1 0 0c.1 0 .2 0 .2-.1 0 0 0-.1-.1-.1 0 .1-.1.2-.1.2m.9 1.9c0-.1 0-.1 0 0h-.1.1m3.8-2.9l.3.1c.1 0 .1-.1.2-.2s.1-.3.3-.5v-.1s-.1-.1-.2 0l-.3.3c0 .1-.1.1-.2.2-.2 0-.2.1-.1.2 0-.1 0 0 0 0M53.3 44.5s.1 0 0 0c.1 0 .1 0 0 0 .1 0 .1 0 0 0m-3.9 34zm-2.2-4.7h.2c.1 0 .1-.1.1-.2s0-.1-.1-.2h-.1-.1v.1c-.1.2 0 .2 0 .3m-5.2-32c0 .1.1.1.1 0H42.4c0-.2 0-.3.2-.4v-.2V40.9c-.2-.1-.2-.1-.3 0 0 0 0 .1-.1.1 0 .1-.1.2-.2.2s-.2.1-.1.2v.2c0 .1 0 .2.1.2m-.8.8zM41.8 42.1s-.1-.1 0 0c-.2-.1-.3 0-.5.1-.1.1-.1.2-.1.3v.1c.1 0 .2 0 .3-.1.1-.1.2-.3.3-.4m12 33.3c-.1 0-.2.1-.2.2s.1.1.2.1.2-.1.2-.2c-.1 0-.1-.1-.2-.1M24.6 46.8c.4.6.4 1.3.2 1.9-.2.6-.8 1-1.4 1.2-.6.2-1.3.2-1.9-.2.5.6 1.3.9 2.1.7.8-.2 1.4-.9 1.7-1.6.2-.8.1-1.6-.4-2.2-.5-.6-1.2-.9-2-.9.7.2 1.3.5 1.7 1.1M20.7 49c0 .1 0 .1 0 0 .1.2.1.3.2.3 0 .1.1.1.1 0v-.1c-.3-.7-.4-1.5-.1-2.2.2-.5.6-1 1.2-1.2.1 0 .1 0 .1-.1h-.1c-.6.2-1.1.6-1.3 1.2-.5.8-.4 1.5-.1 2.1"/>
    <path d="M23.8 47.1c.2.3.3.8.1 1.2-.2.4-.5.6-.8.7-.4.1-.8.1-1.2-.1.3.4.8.5 1.3.4.5-.1.9-.5 1-1 .1-.5.1-1-.2-1.4-.3-.4-.7-.6-1.2-.6.4.3.8.5 1 .8m-2.4.2c-.2.4-.2.8 0 1.2 0 .1.1.1.1.2h.1c-.2-.4-.2-.9-.1-1.3.1-.3.4-.6.7-.8h-.1c-.2.1-.5.3-.7.7"/>
    <path d="M22.4 48.4c-.2-.2-.3-.5-.2-.8-.2.1-.2.2-.2.4.1.2.1.3.4.4.1.2.2.3.4.3s.4-.1.5-.2c.3-.3.3-.7 0-1-.1-.1-.3-.2-.5-.3-.2 0-.3 0-.5.1.3-.2.6-.1.8.2.2.2.2.6 0 .8-.1.2-.5.2-.7.1m1.1 32.8c.8-.2 1.4-.9 1.7-1.6.2-.6.1-1.2-.1-1.8 0-.1-.1-.1-.1-.2 0 0 0-.1-.1-.1 0 0 0-.1-.1-.1-.5-.6-1.2-.9-2-.9.7 0 1.4.4 1.7 1 0 0 0 .1.1.1 0 .1.1.1.1.2.2.5.2 1 0 1.5-.2.6-.8 1-1.4 1.2-.6.2-1.3.2-1.9-.2.5.8 1.3 1.1 2.1.9"/>
    <path d="M23.2 80.1c.5-.1.9-.5 1-1 .1-.3.1-.6 0-1 0-.1 0-.1-.1-.2v-.1s0-.1-.1-.1c-.3-.4-.7-.6-1.2-.5.4 0 .8.2 1 .6v.2c.1.3.1.7 0 1-.1.4-.5.6-.8.7-.4.1-.8.1-1.2-.1.4.4.9.6 1.4.5"/>
    <path d="M22.1 78.9c.1.1.1.2.2.2.3.2.7.2 1 0 .2-.2.2-.5.2-.7 0-.1-.1-.1-.1-.2v-.1l-.1-.1c-.1-.1-.2-.1-.3-.2-.2 0-.3 0-.5.1.2-.1.5-.1.6 0l.1.1c0 .1.1.1.1.2.1.2 0 .4-.1.5-.2.2-.6.3-.8.1-.1 0-.1-.1-.1-.2s-.1-.1-.1-.2v-.1-.1-.1c0-.1 0-.1.1-.2-.1.1-.1.2-.1.2V78.4c-.2.4-.1.5-.1.5M42.5 4.3c.6.1 1.2.1 1.7.1h1.7s.1 0 .1-.1-.1-.1-.1-.1c-.6-.1-1.2 0-1.7 0-.6 0-1.1 0-1.7.1 0-.2-.1-.2 0 0-.1-.1 0 0 0 0m5.2 3c0 .1 0 .1 0 0 0 .1 0 .1 0 0 .7.2 1.3.2 1.8.2H51.1c.1 0 .1 0 .1-.1s0-.1-.1-.1c-.6-.1-1.2 0-1.7 0s-1.1 0-1.7.1v-.1m4.1 4.6c-.5 0-1.1 0-1.7.1-.1 0-.1 0-.1.1s0 .1.1.1c.6 0 1.1.1 1.7.1.5 0 3 0 3.5-.1.1 0 .2 0 .2-.1s-.1-.1-.2-.1c-.5-.1-3-.1-3.5-.1m-4.2-6H48.8c.1 0 .2 0 .2-.1s-.2-.1-.2-.1h-1.2c-.1 0-.1.1-.1.1s0 .1.1.1m3.1 4.5c-.1 0-.1.1-.1.1 0 .1 0 .1.1.1H51.9c.1 0 .2 0 .2-.1s-.2-.1-.2-.1c-.4-.1-.8-.1-1.2 0m-4.4-4.5h.5c.1 0 .2 0 .2-.1s-.2-.1-.2-.1h-.5s-.1 0-.1.1c0 0 0 .1.1.1m3 6.1h-.5l-.1.1c0 .1 0 .1.1.1h.5c.1 0 .2 0 .2-.1s-.2-.1-.2-.1m-3.5 1.7c0 .1 0 .1.1.1h.5c.1 0 .2 0 .2-.1s-.2-.1-.2-.1h-.5c-.1 0-.1 0-.1.1"/>
  </g>
</svg>
