<svg xmlns="http://www.w3.org/2000/svg" width="17" height="17" viewBox="0 0 17 17">
    <g fill="none" fill-rule="evenodd" stroke="#D09046" transform="translate(1 1)">
        <circle cx="7.5" cy="7.5" r="7.5"/>
        <path fill-rule="nonzero" d="M5.104 4.006a.243.243 0 0 0-.146.01c-.522.204-.852.951-.929 1.466-.242 1.67 1.075 3.116 2.285 4.067 1.074.845 3.137 2.233 4.356.894.155-.166.34-.408.33-.65-.03-.409-.407-.7-.697-.923-.223-.165-.688-.621-.978-.612-.262.01-.426.282-.59.447l-.291.291c-.049.049-.668-.36-.736-.408A4.574 4.574 0 0 1 6.43 7.375c-.048-.068-.445-.66-.407-.709 0 0 .34-.369.436-.514.203-.31.358-.554.126-.922a2.17 2.17 0 0 0-.31-.36c-.203-.194-.407-.398-.639-.563-.126-.097-.339-.272-.532-.3z"/>
    </g>
</svg>
