<svg xmlns="http://www.w3.org/2000/svg" width="121" height="41" viewBox="0 0 121 41">
    <g fill="#D09046" fill-rule="evenodd">
        <path d="M18.114 12.578c-.587 0-1.047-.199-1.377-.592-.332-.395-.533-.795-.606-1.201h-.075c-.17.312-.35.598-.532.86a6.066 6.066 0 0 1-.716.826v3.725c0 .334.06.656.182.966.124.31.259.501.405.574.196-.407.55-.944 1.066-1.613.318-.502.656-1.074 1.01-1.718.355-.645.568-1.254.643-1.827zm-2.61-5.7c0-.62-.2-1.163-.604-1.63-.404-.465-.938-.697-1.599-.697-.295 0-.49.036-.589.107.32.071.557.25.717.538.16.286.252.585.277.895 0 .24-.014.394-.038.466.147-.072.288-.173.424-.305l.385-.375c.097.238.22.5.367.787.146.287.329.514.55.682-.145.214-.262.56-.348 1.039-.086.476-.153.86-.202 1.147.244-.407.417-.843.515-1.31.098-.465.145-.912.145-1.343zm-3.966 11.753h-.882l-.147.359h1.177l-.148-.359zm.404.932h-1.654l-.22.322h2.094l-.22-.322zM9.996 28.02H12.2v-.358H9.996v.358zm0-.896H12.2v-.359H9.996v.36zm0-.895H12.2v-.359H9.996v.359zm0-.933H12.2v-.322H9.996v.322zm0-.894H12.2v-.323H9.996v.323zm0-.897H12.2v-.358H9.996v.358zm0-.894H12.2v-.36H9.996v.36zm0-.897H12.2v-.359H9.996v.359zm0-.931H12.2v-.325H9.996v.325zm2.204 7.81H9.958l-.074.32h2.388l-.072-.32zm.146.897H9.774l-.074.321h2.72l-.074-.321zm4.481-22.286c0-1.147-.336-2.097-1.01-2.85-.672-.753-1.597-1.128-2.774-1.128-.417 0-.827.071-1.23.215a3.756 3.756 0 0 0-1.066.574 2.912 2.912 0 0 0-.751.877A2.31 2.31 0 0 0 9.7 6.056c0 .597.178 1.069.533 1.415.354.346.839.52 1.453.52.267-.146.55-.324.844-.538.293-.217.575-.431.845-.645.071-.238.11-.477.11-.717 0-.381-.11-.692-.33-.932-.223-.238-.515-.38-.883-.43.244-.263.613-.394 1.103-.394.685 0 1.243.257 1.671.77.43.515.643 1.106.643 1.774 0 1.027-.22 1.947-.662 2.759a6.438 6.438 0 0 1-1.8 2.08v.321c.857-.524 1.525-1.282 2.003-2.274.476-.992.716-1.953.716-2.886 0-.836-.264-1.558-.788-2.167-.528-.61-1.231-.913-2.115-.913a3.16 3.16 0 0 0-1.653.464c-.514.313-.771.754-.771 1.327 0 .048.008.108.018.179.013.071.044.119.092.143.05-.287.17-.544.367-.77a.972.972 0 0 1 .773-.341c.268 0 .477.096.624.288.147.191.22.406.22.644 0 .407-.135.788-.404 1.146-.27.357-.623.538-1.066.538-.415 0-.734-.125-.955-.377-.22-.25-.33-.577-.33-.984 0-.789.324-1.416.972-1.881.65-.468 1.355-.7 2.113-.7 1.03 0 1.832.33 2.406.986.576.657.865 1.464.865 2.418 0 .526-.074 1.07-.22 1.631a6.748 6.748 0 0 1-1.597 2.92 4.067 4.067 0 0 1-1.27.931v.79a4.323 4.323 0 0 0 1.47-.987c.44-.441.822-.95 1.138-1.522.32-.573.564-1.158.736-1.756.17-.597.256-1.159.256-1.683zM12.64 30.384H9.442l-.146.357h3.491l-.147-.357zm.366.894H9.003l-.22.36h4.444l-.22-.36zm5.33-24.4c0-.857-.141-1.575-.425-2.149-.281-.572-.642-1.031-1.084-1.379a4.052 4.052 0 0 0-1.45-.734 5.793 5.793 0 0 0-1.525-.216c-.81 0-1.561.156-2.26.466a5.49 5.49 0 0 0-1.835 1.326c-.53.573-.95 1.273-1.268 2.096-.319.825-.48 1.75-.48 2.777 0 .12.02.24.057.358.036.12.067.215.091.288a18.832 18.832 0 0 0 3.159-1.47c-.635-.119-1.107-.37-1.413-.752-.306-.382-.461-.86-.461-1.433 0-.454.105-.872.315-1.255a3.04 3.04 0 0 1 .824-.966c.345-.264.73-.478 1.158-.645.43-.167.863-.252 1.304-.252 1.274 0 2.272.412 2.995 1.237.723.823 1.084 1.834 1.084 3.028 0 .524-.073 1.038-.22 1.54a8.448 8.448 0 0 1-.588 1.468h.147c.464 0 .82-.112 1.066-.34.242-.225.427-.514.55-.859a4.09 4.09 0 0 0 .22-1.093c.025-.382.038-.727.038-1.04zm-3.784 16.626a3.438 3.438 0 0 1-.294-.86 4.137 4.137 0 0 1-.11-.896c0-.524.078-1.128.236-1.808.16-.68.448-1.344.865-1.99-.466-.309-.697-.894-.697-1.754v-3.512a2.829 2.829 0 0 1-.625.43c-.27.144-.503.239-.7.286v1.864c0 .214.014.483.036.806.026.323.086.633.183.93.1.301.24.556.424.773.184.214.46.321.828.321v.072c0 .239-.104.448-.314.627-.208.18-.471.268-.789.268-.44 0-.79-.143-1.048-.43a1.459 1.459 0 0 1-.385-1.002c0-.145.03-.287.092-.431.061-.142.092-.286.092-.43 0-.071-.025-.106-.074-.106-.048 0-.11.047-.183.143a1.094 1.094 0 0 0-.147.41 2.422 2.422 0 0 0-.037.341c0 .383.116.764.349 1.148.232.382.557.609.973.68v8.17c0 1.359.29 2.484.865 3.367.574.884 1.597 1.325 3.066 1.325h.074v.288H4.924v-.288h.11c1.445 0 2.468-.447 3.068-1.344.6-.894.9-2.011.9-3.347v-8.17c.366-.072.656-.299.864-.681.207-.384.313-.765.313-1.148 0-.024-.007-.173-.019-.446-.013-.276-.092-.413-.239-.413-.05 0-.074.047-.074.143 0 .049.014.155.037.322.024.167.037.299.037.394 0 .407-.141.76-.422 1.058a1.38 1.38 0 0 1-1.047.447c-.319 0-.626-.084-.919-.25a.986.986 0 0 1-.515-.752c.048.024.11.035.184.035h.221c.343 0 .624-.072.844-.214.222-.144.38-.324.478-.538.097-.215.167-.46.201-.735.039-.274.057-.554.057-.842v-3.69c0-.287-.057-.632-.165-1.04-.112-.405-.314-.692-.607-.859a13.741 13.741 0 0 0 3.251-1.416 18.596 18.596 0 0 0 2.848-2.096v.074c-.465.62-.76 1.372-.884 2.256a23.743 23.743 0 0 0-.219 2.436c.27-.143.528-.377.772-.7.245-.321.442-.59.587-.806.026-.405.074-.852.148-1.343.074-.49.21-.89.404-1.201a2.378 2.378 0 0 1-.404-.536 12.838 12.838 0 0 1-.33-.61c-.539.478-1.06.91-1.562 1.29-.504.382-1.016.729-1.543 1.038a15.1 15.1 0 0 1-1.652.844c-.577.25-1.22.495-1.932.734a1.8 1.8 0 0 1 .737.86c.146.358.22.729.22 1.11v3.62c0 .262-.006.514-.018.752a2.143 2.143 0 0 1-.147.68c-.087.216-.216.389-.387.52s-.43.198-.77.198c-.198 0-.44-.037-.735-.107.123.524.342.935.661 1.234.318.3.734.448 1.248.448h.148v8.1c0 1.407-.283 2.495-.846 3.259-.564.765-1.58 1.147-3.049 1.147h-.11v.858l1.028.967h12.86v-.429l-.992-1.396c-.712-.074-1.266-.246-1.67-.52a2.519 2.519 0 0 1-.903-1.057 4.435 4.435 0 0 1-.367-1.433 18.816 18.816 0 0 1-.071-1.72v-3.727zM27.63 11.108c-.466-.05-.773-.21-.92-.483a3.616 3.616 0 0 1-.33-.951c-.784-3.056-2.229-5.399-4.334-7.022C19.939 1.027 17.28.215 14.073.215c-.417 0-.84.024-1.268.072-.43.048-.803.072-1.12.072H.259v.286C.87.717 1.5.825 2.15.968c.65.142 1.286.34 1.912.592.623.25 1.206.537 1.743.86.54.322.98.71 1.323 1.164-.465.573-.845 1.277-1.138 2.114-.295.836-.442 1.623-.442 2.364 0 1.1.222 2.078.663 2.938.44.86 1.174 1.528 2.204 2.007v-.251a3.36 3.36 0 0 1-1.176-.789 4.444 4.444 0 0 1-.79-1.146 5.268 5.268 0 0 1-.441-1.362 7.813 7.813 0 0 1-.129-1.397c0-.74.129-1.476.386-2.204A7.536 7.536 0 0 1 7.312 3.87c0-.047.025-.096.073-.144.049-.048.098-.108.148-.179a.859.859 0 0 0-.184-.357 3.613 3.613 0 0 0-.257-.288c.147-.167.368-.352.662-.555a2.9 2.9 0 0 1 .807-.412c-.735 0-1.322.24-1.763.717a4.879 4.879 0 0 0-.644-.5c-.28-.193-.52-.312-.715-.36.195-.12.482-.22.863-.305.379-.084.703-.148.974-.197a2.49 2.49 0 0 0-.699-.107c-.246 0-.526.03-.845.09-.319.06-.587.16-.808.304a8.374 8.374 0 0 0-1.194-.52C3.4.95 2.976.85 2.462.753V.645h9.224c.267 0 .652-.03 1.156-.09.501-.059.913-.089 1.231-.089 1.494 0 2.915.222 4.262.663 1.348.442 2.535 1.19 3.564 2.24a10.692 10.692 0 0 1 1.525 2.167c.427.8.766 1.619 1.01 2.455.048.192.103.417.165.68.062.263.142.514.238.752.098.24.234.437.406.592.17.155.378.257.624.305 0 .382-.124.71-.368.985-.245.275-.576.413-.993.413-.905 0-1.358-.431-1.358-1.292v-.106c.047.048.146.07.294.07.27 0 .403-.142.403-.429 0-.263-.133-.396-.403-.396-.22 0-.384.103-.496.307-.111.202-.166.4-.166.59 0 .359.105.686.313.986.207.3.47.496.79.591a4.191 4.191 0 0 1-.552 1.614c-.293.5-.655.949-1.084 1.342-.429.394-.899.752-1.414 1.075a11.37 11.37 0 0 1-1.507.805c-.49.215-.98.444-1.47.681a6.82 6.82 0 0 0-1.34.86 4.35 4.35 0 0 0-.992 1.166c-.258.442-.386.96-.386 1.559 0 .715.183 1.336.55 1.862.368.525.956.788 1.766.788.684 0 1.213-.24 1.58-.717.366-.477.549-1.025.549-1.647 0-.503-.146-.97-.44-1.399-.294-.429-.735-.644-1.322-.644-.443 0-.816.15-1.122.447a1.474 1.474 0 0 0-.459 1.093c0 .145.037.282.11.413.074.131.136.234.185.303l.036.073a1.809 1.809 0 0 1-.036-.43.97.97 0 0 1 .127-.501c.086-.145.24-.216.46-.216.22 0 .373.107.458.322.087.216.13.419.13.61a.866.866 0 0 1-.183.555c-.124.156-.308.233-.552.233-.319 0-.556-.142-.715-.43a1.746 1.746 0 0 1-.24-.86c0-.478.16-.906.477-1.29.32-.383.747-.573 1.287-.573.662 0 1.167.233 1.524.698.355.466.533.998.533 1.596 0 .67-.216 1.285-.642 1.844-.43.562-1.011.843-1.745.843-.883 0-1.539-.305-1.966-.914a3.48 3.48 0 0 1-.644-2.06c0-.813.196-1.582.589-2.31.391-.73.827-1.447 1.304-2.152a31.67 31.67 0 0 0 1.323-2.13 5.27 5.27 0 0 0 .678-2.294c.588-.095 1.035-.358 1.341-.789.307-.43.46-.918.46-1.468 0-.31-.146-.465-.44-.465-.27 0-.405.13-.405.392 0 .265.147.396.44.396-.024.453-.238.836-.642 1.145-.404.311-.825.467-1.268.467-.391 0-.735-.101-1.029-.305-.293-.203-.465-.495-.514-.879h.11c.514 0 .92-.135 1.213-.411.294-.274.5-.614.624-1.02a5.99 5.99 0 0 0 .238-1.274c.038-.44.056-.829.056-1.164a8.38 8.38 0 0 0-.312-2.31 5.792 5.792 0 0 0-.955-1.935A4.69 4.69 0 0 0 16.02 1.29c-.661-.334-1.434-.502-2.314-.502-.956 0-1.875.216-2.757.646-.881.43-1.67.99-2.369 1.683-.699.693-1.25 1.48-1.652 2.365a6.473 6.473 0 0 0-.609 2.722c0 .79.147 1.59.443 2.402.292.812.844 1.396 1.653 1.755v-.286c0-.405-.105-.788-.313-1.147a2.672 2.672 0 0 0-.863-.896l.697-.25a.836.836 0 0 1-.11-.323 2.58 2.58 0 0 1-.036-.43c0-1.003.159-1.928.477-2.777.319-.847.741-1.577 1.268-2.186a5.462 5.462 0 0 1 1.893-1.414 5.7 5.7 0 0 1 2.387-.5c.515 0 1.06.07 1.634.213a4.23 4.23 0 0 1 1.564.752c.465.358.843.837 1.138 1.434.295.597.44 1.374.44 2.328 0 .357-.011.747-.036 1.164a4.005 4.005 0 0 1-.238 1.165c-.136.357-.35.658-.645.897-.294.238-.684.357-1.175.357h-.147l-.036.108c.123.572.367 1.01.735 1.307.367.3.807.448 1.322.448 0 .312-.054.645-.165 1.004-.11.358-.256.717-.44 1.076-.186.358-.374.704-.57 1.038-.196.335-.392.634-.59.895a19.247 19.247 0 0 0-1.54 2.508c-.443.86-.663 1.827-.663 2.902 0 .98.324 1.804.973 2.473.65.67 1.49 1.004 2.518 1.004 1.053 0 1.868-.388 2.443-1.165.575-.778.864-1.631.864-2.562 0-.574-.129-1.146-.386-1.72a2.287 2.287 0 0 0-1.267-1.218v-.036a11.78 11.78 0 0 0 2.02-.751c.71-.334 1.36-.74 1.947-1.22a7.375 7.375 0 0 0 1.488-1.613 4.569 4.569 0 0 0 .754-1.97c.072.024.183.037.33.037.563 0 .96-.173 1.194-.52.233-.348.35-.758.35-1.236v-.143zM14.808 27.231c0 .622.024 1.188.074 1.701.048.514.176.962.384 1.344.21.384.502.706.883.97.378.261.925.416 1.635.464l1.103 1.54v.788H5.512l-1.101-1.04V31.71h.072c1.47 0 2.492-.36 3.066-1.077.576-.716.866-1.742.866-3.078v-7.85h-.11c-.637 0-1.109-.22-1.415-.66a3.095 3.095 0 0 1-.533-1.524c.074.023.22.054.441.09.22.035.368.052.44.052.588 0 .932-.202 1.029-.607.098-.407.148-.85.148-1.326v-2.472c-1.078-.479-1.868-1.177-2.37-2.097-.502-.919-.753-1.953-.753-3.1 0-.715.14-1.486.422-2.31.282-.823.643-1.523 1.084-2.096a5.968 5.968 0 0 0-1.434-1.201 9.247 9.247 0 0 0-1.744-.806 13.88 13.88 0 0 0-1.874-.502A18.36 18.36 0 0 0 0 .896V.108h11.686c.316 0 .69-.019 1.119-.053A14.9 14.9 0 0 1 14.073 0c3.38 0 6.111.812 8.192 2.437 2.084 1.623 3.529 4.013 4.337 7.165.074.406.19.718.35.932.158.214.481.358.971.431v.429c0 .525-.159.967-.475 1.325-.32.36-.81.539-1.471.539h-.037a4.963 4.963 0 0 1-.736 1.915 6.504 6.504 0 0 1-1.34 1.489c-.526.428-1.114.81-1.762 1.145-.65.335-1.282.598-1.893.789v.035c.441.264.758.682.955 1.254.195.572.294 1.111.294 1.613 0 .478-.074.961-.22 1.45-.148.49-.375.92-.68 1.292-.307.37-.68.669-1.121.895-.44.227-.955.34-1.543.34a4.046 4.046 0 0 1-1.727-.376c-.539-.25-.994-.651-1.359-1.2v3.332z"/>
        <path d="M35.794 23.244h.955l-.147-.286h-.66l-.148.286zm-.476 2.345h1.869v-.284h-1.87v.284zm0-.783h1.869v-.283h-1.87v.283zm0-.782h1.832v-.282h-1.832v.282zm-.108 2.346h1.94v-.284h-1.904l-.036.284zm-.074.782h1.905l.074-.284h-1.943l-.036.284zm-.148.783h1.832l.11-.286h-1.867l-.075.286zm-.218.781h1.757l.11-.285h-1.794l-.073.285zm-.368.782h1.614l.22-.285H34.55l-.148.285zm-.512.78h1.466l.293-.283h-1.502l-.257.284zm-.88.785h1.32l.366-.287h-1.319l-.367.287zm.843-7.25c-.391-.071-.685-.232-.88-.48a3.05 3.05 0 0 1-.475-.908c.683-.306 1.08-.721 1.19-1.242a8.21 8.21 0 0 0 .165-1.706c0-.286-.012-.623-.036-1.014a4.094 4.094 0 0 0-.22-1.102 2.412 2.412 0 0 0-.532-.87c-.233-.235-.555-.355-.97-.355-.856 0-1.448.332-1.778.995-.33.663-.495 1.659-.495 2.985 0 .568.06 1.138.183 1.707.121.568.465.97 1.027 1.207-.049.759-.44 1.233-1.174 1.422 0 .475.006 1.036.021 1.687.01.653.071 1.275.181 1.866.11.592.28 1.102.514 1.529.231.426.555.64.97.64.537 0 .96-.173 1.265-.516.304-.345.537-.787.696-1.333a8.37 8.37 0 0 0 .294-1.883c.035-.711.054-1.423.054-2.133v-.497zm.22.462c0 .662-.012 1.355-.038 2.077a9.055 9.055 0 0 1-.273 1.99c-.16.605-.409 1.103-.752 1.493-.343.391-.83.586-1.467.586-.536 0-.932-.253-1.19-.763-.256-.51-.44-1.107-.548-1.795-.111-.687-.171-1.374-.185-2.06-.01-.687-.016-1.197-.016-1.528.292-.049.554-.173.787-.373.23-.204.372-.445.421-.73-.587-.283-.94-.722-1.063-1.314a8.657 8.657 0 0 1-.183-1.742c0-1.326.19-2.363.567-3.11.38-.745 1.034-1.118 1.961-1.118.44 0 .794.124 1.063.373.269.249.469.557.605.923.135.369.22.758.256 1.174.037.414.055.788.055 1.119 0 .591-.055 1.172-.166 1.74-.108.57-.481 1.009-1.115 1.315.193.663.621 1.031 1.28 1.102v.641zm-4.69 6.501h-1.32l.367.287h1.319l-.366-.287zm-.77-.78h-1.502l.293.283h1.467l-.257-.284zm7.255-7.89c0-.214-.012-.39-.035-.533-.026-.142-.087-.213-.184-.213-.072 0-.111.095-.111.284 0 .095.006.19.02.285.012.095.019.165.019.212 0 .38-.13.665-.386.854a1.369 1.369 0 0 1-.825.284c-.27 0-.513-.048-.733-.142a1.027 1.027 0 0 1-.512-.497c.292-.143.518-.337.678-.588.157-.247.28-.52.365-.817.087-.295.135-.599.147-.906.01-.308.018-.592.018-.852 0-1.352-.226-2.427-.679-3.235-.45-.804-1.203-1.208-2.251-1.208-1.051 0-1.803.409-2.254 1.227-.454.817-.678 1.888-.678 3.216 0 .189.005.432.017.728.013.296.061.604.148.924.084.32.213.616.384.89.17.27.404.478.695.621-.269.425-.695.64-1.281.64-.342 0-.629-.096-.862-.285-.233-.19-.348-.473-.348-.854 0-.047.008-.123.02-.23.012-.106.017-.207.017-.302 0-.166-.037-.249-.11-.249-.099 0-.154.07-.164.213-.013.144-.02.32-.02.533 0 .332.092.664.277.996.182.33.579.51 1.19.532v.711c0 .76.031 1.522.092 2.292.06.771.2 1.463.421 2.08.22.615.526 1.118.915 1.509.391.392.916.585 1.577.585.708 0 1.257-.213 1.65-.637.388-.428.677-.961.86-1.6.183-.64.289-1.32.312-2.044.024-.723.035-1.38.035-1.973v-.923c.562 0 .965-.165 1.21-.497.244-.331.366-.675.366-1.03zm-7.657 7.107h-1.686l.219.285h1.613l-.146-.285zm-.294-.782h-1.796l.11.285h1.758l-.072-.285zm-1.1-5.473h-.66l-.145.286h.951l-.145-.286zm.88 4.691h-1.87l.112.286h1.831l-.073-.286zm-.11-.78h-1.942l.073.283h1.906l-.036-.284zm-.075-.783h-1.904v.284h1.942l-.038-.284zm-1.904-2.061h1.832v-.283h-1.832v.283zm-.037 1.564h1.869v-.284H25.57v.284zm0-.783h1.869v-.283H25.57v.283zm14.072-2.166c-.097.212-.288.372-.568.48-.28.106-.556.16-.823.16-.76 0-1.137-.38-1.137-1.139 0-.047.006-.123.018-.23.012-.106.017-.207.017-.302 0-.166-.035-.249-.11-.249-.097 0-.153.07-.164.213-.013.144-.017.32-.017.533 0 .166.004.338.017.516a.944.944 0 0 0 .165.48c.096.142.245.266.44.373.196.106.463.16.805.16.026.119.044.248.056.39a5.1 5.1 0 0 1 .019.427c0 1.444-.19 2.659-.57 3.643-.377.982-.884 1.776-1.52 2.38a5.728 5.728 0 0 1-2.216 1.314 8.431 8.431 0 0 1-2.62.41c-1.025 0-1.966-.155-2.821-.462a5.783 5.783 0 0 1-2.217-1.421c-.624-.641-1.108-1.445-1.448-2.418-.343-.97-.512-2.119-.512-3.446v-.428a1 1 0 0 1 .072-.39c.66-.022 1.069-.202 1.228-.532.157-.332.237-.664.237-.996 0-.214-.01-.39-.035-.533-.025-.142-.086-.213-.184-.213-.074 0-.11.106-.11.32 0 .094.006.183.018.267.011.083.018.147.018.194 0 .38-.115.665-.348.854-.233.189-.53.284-.896.284a1.78 1.78 0 0 1-.753-.16 1.207 1.207 0 0 1-.53-.444.885.885 0 0 0 .422-.25c.108-.117.212-.236.31-.355.096-.14.19-.348.274-.62.085-.273.159-.557.221-.853.06-.296.115-.58.165-.854.05-.273.097-.492.147-.658.146-.591.36-1.213.64-1.864a6.156 6.156 0 0 1 1.192-1.795c.511-.545 1.166-.99 1.96-1.333.793-.343 1.776-.515 2.95-.515 1.173 0 2.143.166 2.912.497.771.332 1.399.76 1.889 1.28a5.806 5.806 0 0 1 1.135 1.758c.269.653.5 1.296.696 1.937.048.167.103.385.166.658.059.272.128.556.2.852.073.297.146.582.22.853.074.272.16.48.258.623.072.142.164.267.273.371.11.108.263.185.459.233zm.953.39c-.219-.072-.404-.249-.55-.533a4.988 4.988 0 0 1-.366-.96c-.1-.354-.178-.71-.24-1.066a4.452 4.452 0 0 0-.201-.816c-.635-1.943-1.576-3.472-2.821-4.586-1.246-1.111-2.907-1.668-4.983-1.668-1.246 0-2.284.177-3.115.532-.832.357-1.502.812-2.016 1.368a6.044 6.044 0 0 0-1.173 1.83 17.55 17.55 0 0 0-.658 1.92c-.049.166-.099.379-.148.639-.048.26-.11.543-.182.853-.099.45-.232.853-.403 1.207-.172.356-.477.618-.918.782.123.286.287.528.496.73.207.2.52.325.935.372-.049.141-.073.416-.073.818 0 1.207.164 2.34.495 3.392.327 1.056.823 1.967 1.482 2.737.66.771 1.49 1.374 2.494 1.813 1 .438 2.173.657 3.516.657.954 0 1.868-.136 2.749-.408a6.112 6.112 0 0 0 2.345-1.351c.683-.627 1.235-1.451 1.65-2.47.414-1.018.621-2.261.621-3.732 0-.284-.036-.567-.11-.852.831-.07 1.308-.437 1.43-1.1l-.256-.108zm.513-.035c-.098.806-.563 1.28-1.393 1.421a3.461 3.461 0 0 1 .073.674c0 1.494-.213 2.761-.64 3.804-.43 1.042-1.002 1.888-1.724 2.54a6.471 6.471 0 0 1-2.454 1.405 9.418 9.418 0 0 1-2.804.425c-1.368 0-2.563-.224-3.591-.675-1.026-.45-1.88-1.065-2.564-1.847-.685-.782-1.198-1.705-1.54-2.772-.344-1.067-.513-2.227-.513-3.483 0-.356.012-.568.038-.64-.418-.093-.734-.266-.954-.514a3.183 3.183 0 0 1-.55-.908c.488-.188.812-.436.971-.745.16-.308.3-.698.422-1.172.049-.307.105-.6.163-.873.062-.27.117-.49.166-.656.172-.616.398-1.267.679-1.955a6.27 6.27 0 0 1 1.21-1.884c.524-.568 1.214-1.04 2.069-1.421.856-.38 1.942-.568 3.262-.568 2.102 0 3.805.552 5.11 1.653 1.308 1.102 2.292 2.696 2.951 4.778.05.167.104.422.165.764.06.345.141.688.238 1.032.097.344.207.658.332.941.121.284.28.462.475.533l.403.143z"/>
        <path d="M45.283 22.662h-.664l-.15.298h.961l-.147-.298zm-1.255 6.798h1.883v-.297h-1.883v.297zm0-.813h1.883v-.297h-1.883v.297zm0-.812h1.883v-.297h-1.883v.297zm0-.814h1.883v-.295h-1.883v.295zm0-.812h1.883v-.296h-1.883v.296zm0-.812h1.883v-.295h-1.883v.295zm0-.814h1.883v-.294h-1.883v.294zm0-.812h1.883v-.294h-1.883v.294zm1.883 6.205h-1.883l-.037.295h1.958l-.038-.295zm.147.812h-2.177l-.113.298h2.439l-.149-.298zm-4.432 1.183v-.481h.185c.542 0 .911-.221 1.107-.665.198-.443.296-.959.296-1.55v-5.798c.466-.05.801-.235.998-.555.197-.32.295-.652.295-.998 0-.54-.074-.813-.22-.813-.1 0-.148.112-.148.333 0 .05.005.124.018.222.012.098.019.186.019.258 0 .394-.13.69-.389.887-.258.198-.511.295-.756.295-.272 0-.499-.062-.683-.184-.187-.122-.278-.332-.278-.629.344 0 .623-.097.832-.295.209-.198.312-.603.312-1.219v-8.975a38.6 38.6 0 0 0-.036-1.698 7.762 7.762 0 0 0-.24-1.625 5.782 5.782 0 0 0-.59-1.44 3.268 3.268 0 0 0-1.091-1.11v-.073h6.574c-.492.542-.794 1.257-.904 2.143a20.688 20.688 0 0 0-.166 2.584v10.12c0 .642.116 1.066.35 1.276.234.209.5.312.794.312 0 .543-.357.813-1.07.813-.296 0-.55-.093-.757-.276-.209-.185-.314-.487-.314-.906 0-.049.005-.128.017-.239.013-.111.019-.216.019-.313 0-.174-.036-.26-.11-.26-.124 0-.185.271-.185.812 0 .346.086.666.259.96.172.296.504.48.997.555v5.836c0 .294.018.578.055.849.037.27.111.504.221.7.112.2.271.359.481.482.209.123.485.184.83.184v.48h-6.722zm7.794.481l-.85-1.183h-.148a.477.477 0 0 1-.406-.203c-.1-.136-.147-.486-.147-1.053v-6.02c.272 0 .529-.098.776-.295.245-.198.382-.467.405-.814-.344-.073-.628-.288-.848-.647-.222-.356-.333-.816-.333-1.384v-9.676c0-.394.006-.794.019-1.201.012-.406.054-.793.128-1.162.075-.37.177-.708.316-1.016a1.95 1.95 0 0 1 .57-.758 5.004 5.004 0 0 1-.442-.665c-.171-.296-.283-.54-.331-.739h-7.61v.185c.566.247 1.015.572 1.348.978.332.408.578.876.739 1.405.158.53.264 1.102.312 1.718.052.616.075 1.242.075 1.882v9.049c0 .568-.14.924-.424 1.07-.283.15-.536.224-.758.224 0 .37.104.677.314.922.208.247.499.382.868.408v5.798c0 .615-.099 1.102-.295 1.458-.197.358-.542.536-1.033.536h-.26v.738l.813 1.034h7.202v-.589zm-7.313.812l-.924-1.145v-1.033h.443c.763 0 1.145-.604 1.145-1.811V23.66c-.493-.073-.816-.281-.977-.628a2.584 2.584 0 0 1-.241-1.108c.097 0 .215-.006.351-.019.134-.01.264-.048.388-.11a.89.89 0 0 0 .332-.313c.098-.148.147-.358.147-.63v-9.048a24.3 24.3 0 0 0-.073-1.92 7.198 7.198 0 0 0-.332-1.697 4.059 4.059 0 0 0-.74-1.35c-.32-.38-.75-.67-1.293-.868v-.554h7.943c.021.1.073.227.146.388.076.162.154.327.24.499s.172.333.26.48c.084.148.164.258.24.333a1.367 1.367 0 0 0-.61.683 4.89 4.89 0 0 0-.314 1.034 7.521 7.521 0 0 0-.13 1.182 41.49 41.49 0 0 0-.017 1.163v9.64c0 .566.111 1.01.33 1.33.224.32.505.515.851.59 0 .32-.08.628-.24.923-.161.296-.474.468-.94.518v5.835c0 .469.024.763.072.887.049.124.149.186.296.186h.222l.959 1.29v.888h-7.534z"/>
        <path d="M63.226 22.81h-.655l-.145.29h.946l-.146-.29zm.764 7.93h-1.927l.144.29h1.93l-.147-.29zm-.146-.792H61.99v.288h1.89l-.036-.288zm-1.854-.504h1.854v-.29H61.99v.29zm0-.793h1.854v-.29H61.99v.29zm0-.793h1.854v-.29H61.99v.29zm0-.794h1.854v-.288H61.99v.288zm0-.793h1.854v-.289H61.99v.29zm0-.792h1.854v-.288H61.99v.288zm0-.794h1.854v-.288H61.99v.288zm0-.793h1.854v-.287H61.99v.287zm-5.781 6.848h-1.782l.33.29h1.78l-.328-.29zm-.69-.792h-1.892l.22.288h1.927l-.254-.288zm-.438-.794h-1.89l.146.29h1.892l-.148-.29zm-1.307-6.344h-.655l-.146.29h.946l-.145-.29zm1.052 5.551h-1.925l.072.29h1.928l-.075-.29zm-.217-.792h-1.89l.037.29h1.925l-.072-.29zm-.145-.793h-1.856l.038.287h1.855l-.037-.287zm-1.89-.505h1.853v-.289h-1.853v.29zm0-.792h1.853v-.288h-1.853v.288zm0-.794h1.853v-.288h-1.853v.288zm0-.793h1.853v-.287h-1.853v.287zm10.107 8.003c-.34 0-.637-.097-.89-.289a2.64 2.64 0 0 1-.637-.685c-.315.312-.763.601-1.345.866-.583.264-1.369.397-2.363.397-1.964 0-3.454-.632-4.473-1.894-1.017-1.261-1.526-3.25-1.526-5.965 0-.288.035-.565.11-.83.314 0 .562-.053.744-.16.181-.11.321-.235.419-.38a.992.992 0 0 0 .164-.486c.012-.18.017-.355.017-.523 0-.217-.012-.395-.036-.541-.023-.144-.085-.216-.181-.216-.076 0-.11.084-.11.253 0 .096.006.198.019.306.01.108.015.186.015.234 0 .768-.374 1.153-1.126 1.153-.265 0-.478-.072-.634-.217a.998.998 0 0 1-.31-.468c.412-.096.708-.294.89-.594.184-.3.274-.762.274-1.388v-1.082c0-.552-.014-1.105-.037-1.658a7.314 7.314 0 0 0-.237-1.585 5.568 5.568 0 0 0-.58-1.407 3.177 3.177 0 0 0-1.074-1.081v-.072h6.473c-.51.553-.813 1.255-.91 2.11a21.906 21.906 0 0 0-.146 2.503V20.9c0 .626.103 1.027.31 1.207.205.181.49.295.854.343a.915.915 0 0 1-.402.505c-.192.12-.423.18-.689.18-.267 0-.52-.096-.763-.287-.242-.193-.364-.48-.364-.866 0-.048.004-.113.018-.198.013-.085.018-.175.018-.27 0-.218-.036-.325-.109-.325-.097 0-.158.072-.18.216a3.202 3.202 0 0 0-.037.54c0 .338.114.674.344 1.01.231.336.66.518 1.29.54a5.29 5.29 0 0 0-.035.614v.684c0 .602.03 1.25.091 1.947a8.19 8.19 0 0 0 .4 1.947c.205.6.503 1.1.892 1.495.385.398.895.594 1.525.594.608 0 1.085-.161 1.437-.486a3.27 3.27 0 0 0 .819-1.226 6.15 6.15 0 0 0 .38-1.658c.06-.611.091-1.207.091-1.784 0-.408-.004-.798-.018-1.17-.012-.373-.018-.692-.018-.956.557 0 .933-.167 1.127-.504.193-.337.292-.685.292-1.046 0-.408-.076-.613-.218-.613-.099 0-.147.096-.147.288 0 .096.006.17.02.216.011.048.019.097.019.145 0 .385-.106.673-.313.866a1.052 1.052 0 0 1-.744.287c-.559 0-.91-.24-1.054-.72.388-.096.679-.296.872-.595.195-.301.29-.75.29-1.352v-1.082c0-.552-.01-1.105-.035-1.658a8.267 8.267 0 0 0-.218-1.585 4.836 4.836 0 0 0-.565-1.388c-.252-.422-.624-.787-1.106-1.1v-.072h6.433c-.485.553-.776 1.255-.871 2.11a21.744 21.744 0 0 0-.146 2.503V20.9c0 .626.114 1.04.343 1.245.232.204.493.305.783.305 0 .266-.09.463-.272.594-.182.136-.406.199-.673.199-.24 0-.498-.095-.763-.288-.266-.192-.4-.481-.4-.866 0-.047.005-.113.02-.198.01-.082.015-.174.015-.27 0-.216-.035-.325-.107-.325-.146 0-.218.266-.218.793 0 .338.09.65.272.937.181.29.514.47 1 .542v5.659c0 .29.017.572.053.847.037.277.11.51.22.702.108.195.266.35.472.47.207.12.477.18.817.18v.469h-3.562zm4.58.47l-.835-1.119h-.11c-.194 0-.334-.067-.419-.198-.083-.133-.125-.489-.125-1.064V24.11c.265 0 .52-.096.763-.288.242-.193.377-.456.4-.795-.34-.07-.618-.28-.836-.631-.22-.348-.327-.797-.327-1.351v-2.306c0-.362.003-.745.017-1.155.013-.407.05-.798.108-1.172.062-.37.158-.707.292-1.008.133-.299.321-.523.563-.667a4.086 4.086 0 0 1-.418-.65 5.811 5.811 0 0 1-.344-.72h-7.416v.182c.555.24.998.557 1.325.954.327.397.57.853.728 1.37.157.516.255 1.076.29 1.675.038.602.055 1.215.055 1.839v1.082c0 .553-.127.98-.38 1.28-.256.299-.565.487-.93.559.05.263.17.516.365.756.194.242.46.385.799.433 0 .264.006.583.019.955.013.373.018.763.018 1.17 0 .555-.024 1.108-.072 1.66a6.076 6.076 0 0 1-.327 1.531c-.17.469-.413.848-.727 1.136-.317.288-.728.432-1.238.432-.435 0-.781-.18-1.036-.539-.254-.36-.448-.807-.58-1.334a9.242 9.242 0 0 1-.256-1.695c-.035-.6-.055-1.14-.055-1.621v-1.045c.315-.05.529-.176.637-.38.109-.205.176-.461.2-.774-.75-.169-1.128-.817-1.128-1.948v-2.306c0-.745.05-1.502.147-2.272.096-.768.387-1.345.871-1.73a4.887 4.887 0 0 1-.435-.65c-.169-.287-.278-.527-.327-.72h-7.49v.182c.558.24 1 .557 1.326.954.33.397.569.853.728 1.37.157.516.26 1.076.308 1.675.05.602.073 1.215.073 1.839v1.082c0 .601-.122 1.04-.362 1.316-.243.276-.536.45-.872.523.047.215.139.456.272.72.132.264.405.42.817.469-.047.193-.08.33-.091.414-.01.085-.017.223-.017.415 0 1.225.108 2.374.327 3.441.217 1.071.594 1.996 1.128 2.776a5.521 5.521 0 0 0 2.125 1.84c.885.444 1.994.666 3.327.666.802 0 1.514-.114 2.145-.342.63-.229 1.078-.45 1.346-.666.217.263.491.48.817.65.327.166.71.25 1.146.25h3.671v-.575zm-3.924.792c-.22 0-.512-.073-.873-.218-.365-.143-.644-.347-.837-.612-.268.193-.705.397-1.31.612-.605.218-1.334.325-2.181.325-1.356 0-2.496-.227-3.417-.684-.921-.458-1.654-1.081-2.2-1.874-.544-.794-.934-1.73-1.163-2.813-.232-1.081-.345-2.258-.345-3.532 0-.168.006-.288.017-.361.013-.071.03-.167.055-.288-.411-.095-.703-.307-.872-.63a3.038 3.038 0 0 1-.326-.955c.338-.049.652-.187.943-.417.292-.226.436-.64.436-1.242v-1.082c0-.648-.025-1.272-.071-1.874a6.91 6.91 0 0 0-.329-1.658 3.96 3.96 0 0 0-.727-1.316c-.315-.372-.738-.656-1.272-.846v-.541h7.816c.074.193.206.474.402.846.193.374.35.631.472.775-.267.17-.472.403-.619.703-.145.301-.255.63-.326.991-.073.36-.117.74-.128 1.137-.012.396-.018.773-.018 1.135v2.306c0 .554.115.98.344 1.282.232.299.516.475.854.522a6.44 6.44 0 0 1-.18.954c-.073.252-.28.427-.618.523v.937c0 .457.018.968.054 1.533.036.564.109 1.093.22 1.585.109.492.271.908.489 1.243.219.339.509.506.872.506.463 0 .837-.14 1.128-.416.29-.274.51-.63.654-1.062a6.34 6.34 0 0 0 .29-1.443c.049-.528.074-1.045.074-1.55 0-.408-.006-.78-.018-1.117a23.952 23.952 0 0 1-.017-.902c-.414-.071-.717-.264-.91-.576a2.487 2.487 0 0 1-.364-.936c.34-.049.66-.211.964-.487.303-.277.454-.668.454-1.172v-1.082c0-.648-.032-1.272-.09-1.874a7.55 7.55 0 0 0-.347-1.658 3.976 3.976 0 0 0-.725-1.316 2.938 2.938 0 0 0-1.238-.846v-.541h7.818c.047.193.174.474.38.846.207.374.37.631.491.775a1.357 1.357 0 0 0-.599.667c-.133.3-.236.637-.31 1.01a6.946 6.946 0 0 0-.127 1.154c-.01.396-.017.773-.017 1.135v2.271c0 .553.11.985.327 1.298.218.312.496.503.836.575 0 .313-.08.614-.236.902-.158.289-.468.457-.927.505v5.695c0 .482.024.773.07.883.05.11.148.164.294.164h.181l.946 1.259v.867h-4.144zM82.272 36.812h1.864v-.286h-1.864v.286zm-.036.501l-.181.287h1.751l.11-.287h-1.68zm1.826-1.575h-2.41l.366.285h2.08l-.036-.285zm-1.644-12.605h-.656l-.145.288h.948l-.147-.288zm.401.79h-1.46l-.144.284h1.715l-.11-.285zM81.724 38.1l-.546.287h1.716l.439-.287h-1.609zm-.619-13.105h1.825v-.286h-1.825v.286zm-.072.503l-.037.285h1.75l.073-.285h-1.786zm-.183.786l-.11.287h1.716l.109-.287H80.85zm-.257.788l-.144.286h1.569l.182-.286h-1.607zm-.51.788l-.254.287h1.349l.292-.287h-1.387zm.22 11.029l-.767.286h1.57l.584-.286h-1.387zm-1.022-10.242l-.439.288h1.131l.476-.288H79.28zm.292-4.618c-.415-.073-.731-.234-.95-.484a2.232 2.232 0 0 1-.473-.912c.339-.144.601-.305.783-.484.183-.179.316-.381.402-.609.084-.227.134-.465.145-.716.012-.251.019-.507.019-.77 0-.239-.019-.572-.054-1.003a5.149 5.149 0 0 0-.256-1.235 3.61 3.61 0 0 0-.547-1.04 1.123 1.123 0 0 0-.931-.445c-.413 0-.754.118-1.022.358-.27.238-.488.554-.657.949a4.895 4.895 0 0 0-.348 1.36c-.06.514-.09 1.044-.09 1.593 0 .479.06.971.184 1.486.118.513.484.89 1.093 1.127a1 1 0 0 1-.365.807c-.244.203-.534.34-.875.412 0 .262.012.59.034.985.025.393.094.775.204 1.144.109.37.284.687.528.95.243.263.597.393 1.059.393.511 0 .906-.107 1.186-.322.28-.215.492-.482.64-.805.144-.323.229-.68.254-1.074.023-.395.037-.771.037-1.13v-.535zm.256-.179c0 .43-.007.893-.02 1.397-.011.5-.08.966-.2 1.395-.121.43-.354.789-.693 1.074-.343.286-.84.431-1.497.431-.511 0-.913-.15-1.206-.449a2.522 2.522 0 0 1-.619-1.056 5.435 5.435 0 0 1-.219-1.29 19.944 19.944 0 0 1-.037-1.145c.316-.047.59-.148.821-.304a.937.937 0 0 0 .42-.626 1.77 1.77 0 0 1-.694-.483 2.173 2.173 0 0 1-.384-.68 2.76 2.76 0 0 1-.144-.77 16.66 16.66 0 0 1-.02-.753c0-.55.038-1.091.11-1.63.073-.536.203-1.02.383-1.449.183-.43.427-.776.73-1.04.304-.261.688-.392 1.151-.392.462 0 .826.154 1.095.465.268.311.475.675.62 1.093.147.418.237.853.273 1.306.037.453.057.823.057 1.11 0 .502-.057 1.008-.166 1.522-.11.514-.469.901-1.076 1.163.097.264.254.501.474.717.218.215.5.346.84.394zm4.014 11.1H74.17l1.168.287h8.614l-.109-.287zm-10.038-6.303l.475.288h1.133l-.44-.288h-1.168zm7.156 8.272c0-.144-.167-.238-.496-.288a7.561 7.561 0 0 0-1.075-.07c-.316 0-.61.006-.876.02-.269.01-.452.016-.547.016-.293 0-.621-.006-.985-.017a18.549 18.549 0 0 1-1.097-.073 27.885 27.885 0 0 1-1.076-.125 5.546 5.546 0 0 1-.968-.215 1.54 1.54 0 0 0-.108.538c0 .285.145.506.437.661a3.9 3.9 0 0 0 1.021.358 6.48 6.48 0 0 0 1.19.143c.398.013.695.018.892.018.17 0 .457-.012.859-.035.399-.025.814-.072 1.238-.144a5.223 5.223 0 0 0 1.116-.303c.315-.132.475-.294.475-.484zm.254 0c0 .262-.163.47-.494.627-.329.155-.71.279-1.148.377-.44.094-.877.154-1.314.177-.438.024-.767.035-.986.035-.341 0-.73-.011-1.17-.035a6.814 6.814 0 0 1-1.238-.177 2.923 2.923 0 0 1-.987-.43.917.917 0 0 1-.401-.788c0-.263.073-.527.22-.79.267.097.583.169.948.217.365.046.748.09 1.15.124.4.036.79.058 1.167.072.378.012.712.018 1.005.018.122 0 .303-.006.547-.018.243-.014.5-.019.767-.019.486 0 .93.037 1.332.109.4.072.602.238.602.501zm-8.432-9.06l.293.288h1.35l-.256-.287h-1.387zm8.76-5.656c0-.453-.073-.68-.218-.68-.099 0-.147.095-.147.285 0 .074.006.144.019.215.012.073.018.133.018.18 0 .335-.098.627-.292.876-.195.253-.499.377-.912.377-.56 0-.95-.216-1.169-.644.292-.12.525-.28.694-.484.17-.202.293-.43.364-.68.073-.251.116-.513.128-.789.014-.273.02-.542.02-.805 0-.645-.045-1.26-.13-1.844a5.15 5.15 0 0 0-.456-1.54c-.22-.44-.51-.799-.875-1.074-.366-.274-.827-.412-1.388-.412-.582 0-1.065.143-1.44.43a2.96 2.96 0 0 0-.894 1.128 5.9 5.9 0 0 0-.475 1.576 10.696 10.696 0 0 0-.128 2.416 3.018 3.018 0 0 0 .512 1.54c.157.238.381.419.673.538a.876.876 0 0 1-.548.465c-.242.07-.499.107-.765.107-.269 0-.548-.13-.839-.393-.292-.264-.438-.562-.438-.895 0-.049.005-.114.018-.199.013-.081.018-.172.018-.268 0-.142-.05-.214-.146-.214-.122 0-.184.227-.184.68 0 .143.025.311.074.5a1.502 1.502 0 0 0 .766.967c.22.122.5.18.84.18v.465c0 .384.025.83.073 1.343.05.514.162.998.346 1.45.183.455.47.841.858 1.164.39.323.925.483 1.608.483.728 0 1.29-.137 1.678-.411.39-.274.674-.62.857-1.04a4.12 4.12 0 0 0 .328-1.377c.037-.501.056-.977.056-1.432v-.537c.339 0 .607-.059.803-.179.193-.12.347-.263.456-.43.11-.168.176-.347.2-.538.025-.19.037-.356.037-.5zm-8.833 7.232l-.29.287h1.057l.181-.287h-.948zm1.06 9.454H72.27l.512.286h1.57l-.583-.286zm7.992-2.041c0-.336-.178-.592-.529-.77a4.392 4.392 0 0 0-1.26-.394 10.15 10.15 0 0 0-1.533-.143 57.99 57.99 0 0 0-1.35-.018h-1.003c-.403 0-.82-.018-1.261-.054a9.716 9.716 0 0 1-1.24-.18c-.39-.084-.707-.196-.949-.34a2.803 2.803 0 0 0-.273.538 1.81 1.81 0 0 0-.127.68c0 .524.163.937.492 1.236.327.298.73.52 1.205.661a6.77 6.77 0 0 0 1.533.27c.546.035 1.05.053 1.515.053.316 0 .748-.01 1.294-.036a9.69 9.69 0 0 0 1.588-.197c.51-.107.956-.262 1.333-.465s.565-.483.565-.841zm1.388-2.685H72.053l.402.285H83.55l-.4-.285zm-11.097-7.09l.184.285h1.568l-.147-.286h-1.605zm-.364-.79l.109.288h1.716l-.11-.287h-1.715zm0-2.862h.948l-.145-.288h-.658l-.145.288zm-.256 2.077l.075.285h1.75l-.037-.285h-1.788zm-.11-.503h1.825v-.286h-1.825v.286zm0-.788h1.716l-.146-.285h-1.46l-.11.285zm0 6.016l-.254.286h1.934l.145-.286h-1.825zm10.401 3.151H70.957l.184.287h11.315l-.732-.287zM72.527 38.1h-1.605l.365.287h1.677l-.437-.287zm-1.386-3.15l-.22.287h1.17l.18-.287h-1.13zm7.736-2.364H70.63l.11.287h9.709l-1.572-.287zM72.82 31.01h-2.08l-.11.289h2.19v-.289zm.22.789h-2.481v.286h2.811l-.33-.286zm-1.132 5.514h-1.495l.146.287h1.495l-.146-.287zm-1.313-1.575l-.182.285h1.35l.072-.285h-1.24zm-.293 1.074h1.424v-.286H70.3v.286zm15.293-22.845c0 .5-.09.907-.273 1.217-.182.311-.493.465-.933.465-.388 0-.68-.135-.876-.41a1.544 1.544 0 0 1-.29-.915c0-.142.013-.308.036-.5.025-.191.075-.345.146-.465-.244.12-.419.321-.529.608-.11.286-.164.598-.164.931 0 .549.074 1.254.22 2.113.193.357.363.704.51 1.038.146.335.279.668.402 1.002.048.144.095.364.145.662.048.3.11.616.183.95.073.335.146.65.217.95.076.297.149.507.22.625.097.12.202.227.312.323.108.095.26.166.456.214-.097.144-.263.282-.493.411-.234.133-.519.198-.859.198-.413 0-.723-.113-.93-.34a1.199 1.199 0 0 1-.31-.84c0-.048.006-.114.018-.199a1.92 1.92 0 0 0 .017-.268c0-.143-.048-.214-.144-.214-.122 0-.184.227-.184.68 0 .144.025.303.074.483.049.177.134.346.254.5.123.157.28.287.475.395.196.107.451.161.768.161-.124 1.146-.409 2.107-.859 2.884-.449.775-.997 1.407-1.642 1.896a5.94 5.94 0 0 1-2.135 1.039 9.203 9.203 0 0 1-2.336.303c-.802 0-1.57-.117-2.3-.357-.194.072-.445.221-.747.448-.305.227-.457.542-.457.95 0 .285.152.506.457.661a3.78 3.78 0 0 0 1.057.34c.401.072.815.113 1.242.125.425.013.772.018 1.042.018.631 0 1.379.03 2.245.088.862.06 1.683.228 2.46.503.78.275 1.443.686 1.992 1.236.546.549.82 1.3.82 2.256 0 .668-.207 1.24-.62 1.718-.414.478-.975.866-1.679 1.164-.706.297-1.53.519-2.465.66-.936.146-1.93.218-2.974.218a29.92 29.92 0 0 1-2.5-.109 10.134 10.134 0 0 1-2.372-.466c-.719-.237-1.309-.572-1.77-1.001-.464-.43-.694-.99-.694-1.685 0-.547.151-.99.456-1.324.304-.334.553-.596.749-.787a3.752 3.752 0 0 1-.93-.967c-.257-.382-.383-.907-.383-1.575 0-.478.12-.896.363-1.253.244-.359.542-.668.895-.931a5.634 5.634 0 0 1 1.094-.644 6.98 6.98 0 0 1 .968-.359 5.545 5.545 0 0 1-1.879-1.898c-.475-.787-.761-1.813-.86-3.08.294 0 .53-.059.715-.178.182-.12.315-.27.4-.449.086-.177.14-.363.165-.553.022-.192.035-.36.035-.502a3.23 3.23 0 0 0-.035-.502c-.025-.142-.088-.214-.184-.214-.097 0-.146.085-.146.25 0 .072.005.15.017.232.016.085.02.15.02.199 0 .333-.084.637-.255.913-.172.273-.438.412-.803.412-.268 0-.51-.031-.73-.09-.219-.06-.39-.22-.511-.484.168-.048.327-.161.474-.34.145-.179.244-.328.292-.448.146-.31.267-.715.364-1.218.099-.5.17-.906.22-1.216.121-.669.335-1.35.639-2.042a6.951 6.951 0 0 1 1.242-1.898c.521-.572 1.19-1.038 2.005-1.395.817-.358 1.794-.538 2.94-.538 1.02 0 1.885.15 2.592.448.705.298 1.3.65 1.787 1.055 0-.071-.006-.189-.018-.357a6.611 6.611 0 0 1-.02-.5c0-.29.044-.568.13-.842.085-.275.218-.525.401-.753.183-.226.42-.412.71-.554a2.294 2.294 0 0 1 1.022-.214c.512 0 .943.172 1.298.519.351.346.528.817.528 1.413zm1.058.716a2.796 2.796 0 0 0-.911-2.112 2.944 2.944 0 0 0-1.973-.753c-.826 0-1.452.27-1.879.807a2.883 2.883 0 0 0-.639 1.842v.18a9.078 9.078 0 0 0-1.824-.824c-.658-.215-1.41-.32-2.263-.32-1.24 0-2.294.19-3.157.572-.865.38-1.57.872-2.116 1.468a6.243 6.243 0 0 0-1.241 1.97 9.306 9.306 0 0 0-.567 2.075c-.048.264-.098.556-.146.877a5.3 5.3 0 0 1-.236.95c-.11.31-.256.585-.439.823-.182.24-.419.407-.712.501.121.264.3.496.53.699.232.203.553.328.966.376.073 1.17.299 2.155.677 2.954.376.8.88 1.486 1.515 2.059-.27.096-.565.232-.895.41-.327.181-.634.396-.913.646-.28.251-.511.55-.694.896a2.534 2.534 0 0 0-.273 1.199c0 .646.115 1.168.347 1.575.23.406.517.752.858 1.038a5.53 5.53 0 0 0-.73.807c-.269.345-.4.756-.4 1.233 0 .861.308 1.565.93 2.114.62.548 1.373.972 2.262 1.272.89.298 1.818.501 2.791.608.974.107 1.814.16 2.52.16.973 0 1.94-.077 2.901-.231.962-.156 1.825-.394 2.591-.717.766-.322 1.388-.747 1.86-1.27.475-.525.714-1.159.714-1.898 0-1.075-.3-1.934-.895-2.579a5.89 5.89 0 0 0-2.208-1.485 10.27 10.27 0 0 0-2.847-.662 29.764 29.764 0 0 0-2.772-.144h-.476a10.489 10.489 0 0 1-1.205-.07 1.434 1.434 0 0 1-.437-.109c-.244-.096-.367-.238-.367-.43 0-.118.048-.244.148-.377.096-.13.206-.232.328-.304.414.12.832.198 1.26.234.424.036.845.053 1.258.053.827 0 1.673-.137 2.537-.41a7.26 7.26 0 0 0 2.316-1.22 6.409 6.409 0 0 0 1.68-2.021c.438-.812.658-1.768.658-2.866v-.107c.827-.048 1.301-.358 1.423-.932l-.256-.036c-.22-.071-.42-.291-.603-.662a6.676 6.676 0 0 1-.455-1.235A33.574 33.574 0 0 1 84.864 20c-.097-.418-.17-.709-.22-.877l-.29-.787a4.727 4.727 0 0 0-.33-.717c-.05-.334-.09-.644-.127-.93a6.218 6.218 0 0 1-.054-.753c.121.12.28.24.474.358.195.12.463.179.802.179.56 0 .956-.18 1.186-.537.232-.358.347-.775.347-1.253zm.22 0c0 .478-.122.936-.365 1.38-.242.44-.707.66-1.388.66-.242 0-.437-.029-.582-.088a1.594 1.594 0 0 1-.401-.233c.022.19.04.38.054.573.01.192.042.382.09.573.123.239.232.484.328.733.097.251.195.52.294.807.047.142.114.418.198.823.085.406.19.83.313 1.271.12.441.26.841.418 1.198.158.36.336.563.53.61l.437.143c-.048.336-.177.604-.382.806-.206.204-.555.34-1.04.412 0 1.123-.22 2.1-.657 2.936a6.312 6.312 0 0 1-1.716 2.077 7.725 7.725 0 0 1-2.39 1.253c-.89.287-1.795.429-2.72.429-.803 0-1.617-.094-2.446-.285-.17.167-.256.31-.256.429 0 .144.075.227.222.251.266.048.62.077 1.057.088.438.013.742.019.914.019.875 0 1.835.054 2.883.162 1.045.107 2.018.334 2.919.68.898.345 1.654.859 2.262 1.539.608.682.912 1.594.912 2.74 0 .81-.242 1.49-.729 2.041-.488.548-1.124.996-1.915 1.342a10.33 10.33 0 0 1-2.664.733c-.988.145-1.992.215-3.013.215-.803 0-1.716-.06-2.737-.178a12.722 12.722 0 0 1-2.866-.662c-.888-.323-1.637-.764-2.244-1.325-.608-.562-.912-1.295-.912-2.204 0-.453.109-.84.327-1.162.22-.322.45-.604.694-.842a3.684 3.684 0 0 1-.802-1.074c-.219-.43-.328-.955-.328-1.575 0-.43.086-.825.254-1.182.17-.358.384-.673.64-.95.254-.273.54-.501.857-.68.316-.178.608-.316.876-.41a5.622 5.622 0 0 1-1.405-1.952c-.328-.752-.528-1.677-.603-2.775-.414-.073-.754-.238-1.021-.502a1.767 1.767 0 0 1-.513-.894 1.24 1.24 0 0 0 .713-.467c.183-.237.328-.506.438-.804.11-.3.189-.615.237-.95.05-.333.097-.632.146-.894.097-.669.298-1.373.603-2.114a6.627 6.627 0 0 1 1.313-2.022c.572-.61 1.301-1.11 2.193-1.505.885-.393 1.975-.59 3.264-.59.78 0 1.485.084 2.118.25a8.197 8.197 0 0 1 1.752.68c0-.285.053-.577.164-.876.11-.3.273-.579.493-.842a2.54 2.54 0 0 1 .84-.645c.339-.165.753-.25 1.238-.25.39 0 .769.065 1.134.196.364.132.692.322.985.574.292.251.53.572.71.967.182.393.275.841.275 1.342zM100.52 30.564h-1.95l.146.286h1.95l-.147-.286zm-.186-.781h-1.877v.283h1.913l-.036-.283zm-1.877-.498h1.877V29h-1.877v.285zm0-.781h1.877v-.286h-1.877v.286zm0-.782h1.877v-.285h-1.877v.285zm0-.784h1.877v-.283h-1.877v.283zm0-.78h1.877v-.285h-1.877v.284zm0-.782h1.877v-.283h-1.877v.283zm0-.783h1.877v-.283h-1.877v.283zm1.509-1.064h-1.509v.283h1.804l-.295-.283zm-.44-.784h-1.069v.286h1.216l-.147-.286zm-2.43.713c-.268.189-.593.379-.973.568-.381.188-.75.392-1.104.604a5.784 5.784 0 0 0-.921.674c-.257.238-.385.498-.385.782 0 .285.111.456.33.516.22.06.443.101.663.125 0 .354-.043.716-.127 1.083-.087.37-.338.61-.755.729 0 .119.03.279.09.48.061.202.155.396.277.587.122.19.276.349.46.478.184.13.423.196.717.196.417 0 .809-.177 1.179-.533.366-.357.549-.937.549-1.743v-4.546zm.258 4.546c0 .878-.208 1.512-.624 1.902-.418.392-.872.587-1.362.587-.32 0-.588-.07-.809-.213a1.904 1.904 0 0 1-.55-.533 2.477 2.477 0 0 1-.335-.693 2.432 2.432 0 0 1-.107-.658c.392-.095.634-.284.735-.568.097-.284.145-.605.145-.96a1.974 1.974 0 0 1-.696-.178c-.197-.094-.296-.295-.296-.604 0-.354.148-.669.442-.941a6.048 6.048 0 0 1 1.047-.763c.407-.238.834-.469 1.29-.693a8.126 8.126 0 0 0 1.12-.658v4.973zm.26-7.212a2.582 2.582 0 0 1-.995 1.173c-.466.308-.956.598-1.472.87-.515.274-1.017.568-1.505.888-.495.32-.874.742-1.144 1.262a1.097 1.097 0 0 0-.126.408 3.45 3.45 0 0 0-.02.372c0 .334.098.577.294.73.197.154.429.256.7.303v.106c0 .286-.089.522-.258.712a.853.853 0 0 1-.661.283 1.18 1.18 0 0 1-.682-.214c-.208-.141-.312-.414-.312-.816v-.142c.048.046.123.071.22.071.172 0 .257-.095.257-.285 0-.214-.1-.32-.293-.32-.32 0-.478.225-.478.676 0 .332.103.657.311.977.209.32.534.48.977.48.048.757.336 1.368.863 1.83a2.73 2.73 0 0 0 1.857.694c.785 0 1.393-.251 1.82-.747.429-.497.646-1.196.646-2.099v-7.212zm-5.078 9.772h-2.098l.296.286h2.17l-.368-.286zm-2.575-2.842h.92v-.285h-.92v.285zm2.207 2.06H89.85l.221.284h2.246l-.148-.283zm-.33-.782h-2.32l.075.285h2.354l-.11-.285zm-.662-.782H89.74l-.222.286h1.949l-.292-.286zm8.46 3.483c-.393 0-.717-.083-.976-.249-.256-.165-.484-.45-.681-.853-.391.547-.95.942-1.672 1.192-.725.247-1.54.374-2.447.374-1.447 0-2.649-.334-3.603-.996-.958-.663-1.536-1.624-1.731-2.878.492-.049.816-.238.975-.57.158-.331.24-.722.24-1.171 0-.262-.123-.393-.367-.393-.199 0-.296.107-.296.32 0 .19.112.309.331.356-.026.213-.116.443-.275.693-.16.25-.413.373-.754.373-.197 0-.418-.07-.663-.214-.245-.141-.368-.425-.368-.852h.148c.318 0 .563-.089.734-.267.172-.177.32-.403.443-.675a9.85 9.85 0 0 0 .332-.853c.096-.296.232-.563.403-.799.467-.64 1.092-1.179 1.877-1.616a23.636 23.636 0 0 1 2.409-1.174c.822-.343 1.585-.68 2.299-1.013.71-.332 1.25-.71 1.62-1.137v-1.136c0-1.185-.35-2.003-1.05-2.454-.7-.45-1.563-.674-2.594-.674a6.12 6.12 0 0 0-1.415.178 6.48 6.48 0 0 0-1.398.496 3.431 3.431 0 0 0-1.049.782 1.53 1.53 0 0 0-.404 1.032c0 .047.007.107.017.177.014.071.042.13.093.178.049-.355.221-.68.514-.978a1.498 1.498 0 0 1 1.105-.443c.392 0 .685.118.883.354.195.238.294.511.294.82 0 .496-.16.97-.48 1.419-.32.45-.833.675-1.543.675-.614 0-1.068-.16-1.362-.479-.293-.32-.44-.716-.44-1.19 0-.64.158-1.232.478-1.779a4.886 4.886 0 0 1 1.304-1.438 6.187 6.187 0 0 1 1.95-.96 8.23 8.23 0 0 1 2.372-.337c1.887 0 3.405.427 4.543 1.279 1.142.854 1.712 2.146 1.712 3.874v2.346c0 .592.097.988.295 1.19.195.2.477.314.845.338 0 .213-.093.397-.276.55-.184.156-.435.231-.754.231-.294 0-.554-.094-.773-.284-.22-.188-.33-.474-.33-.854 0-.046.006-.122.018-.23.012-.107.019-.206.019-.303 0-.188-.038-.283-.112-.283-.073 0-.124.076-.146.23a3.58 3.58 0 0 0-.037.552c0 .355.085.674.257.959.172.284.502.462.994.534v5.614c0 .285.019.557.055.818.037.26.134.485.294.675.158.19.393.343.698.46.308.12.731.179 1.27.179v.284h-3.825zm4.856.64l-.811-1.137h-.182c-.37 0-.67-.065-.903-.195-.233-.13-.349-.469-.349-1.014v-5.792c.319 0 .596-.094.828-.285.234-.189.348-.45.348-.781-.342-.07-.625-.29-.845-.659-.221-.365-.331-.799-.331-1.295v-1.565c0-1.918-.631-3.445-1.895-4.583-1.262-1.138-3.084-1.706-5.463-1.706-.906 0-1.746.118-2.517.355-.773.238-1.45.569-2.025.995-.577.426-1.03.93-1.361 1.512a3.71 3.71 0 0 0-.497 1.864c0 .286.05.58.147.889.1.307.263.586.498.835.232.249.533.45.901.605.367.153.808.23 1.323.23.76 0 1.373-.207 1.842-.622.462-.413.697-.894.697-1.44 0-.356-.097-.721-.294-1.1-.197-.38-.54-.641-1.031-.782.123-.12.405-.261.847-.426.44-.166.931-.249 1.47-.249.712 0 1.3.225 1.768.675.466.45.697 1.02.697 1.704v.818c-.343.38-.864.724-1.562 1.03-.699.31-1.455.64-2.263.996-.808.355-1.612.758-2.41 1.209-.796.45-1.44 1.007-1.93 1.67a3.102 3.102 0 0 0-.443.799c-.098.273-.206.562-.33.87-.147.333-.294.551-.44.658-.15.107-.358.16-.627.16h-.221v.249c0 .521.135.894.405 1.119.27.227.516.339.736.339.097.687.33 1.32.698 1.9a5.538 5.538 0 0 0 1.417 1.51 6.71 6.71 0 0 0 1.988.995 7.96 7.96 0 0 0 2.408.355c.32 0 .662-.017 1.029-.053a7.355 7.355 0 0 0 1.104-.195 4.93 4.93 0 0 0 1.03-.391c.319-.166.589-.367.81-.603.195.33.447.568.752.71.307.142.645.212 1.014.212h3.973v-.39zm-4.047.605c-.343 0-.657-.06-.94-.179a1.901 1.901 0 0 1-.752-.602c-.221.212-.497.39-.829.531-.33.143-.68.255-1.047.338a9.219 9.219 0 0 1-1.104.178c-.368.035-.7.052-.993.052-1.865 0-3.39-.448-4.58-1.349-1.19-.9-1.907-2.038-2.151-3.411-.272-.048-.535-.209-.791-.481-.257-.271-.386-.669-.386-1.19v-.462h.367c.196 0 .361-.036.496-.107.134-.071.277-.26.425-.568.121-.332.238-.64.348-.924a3.41 3.41 0 0 1 .498-.854c.343-.473.77-.893 1.286-1.261a13.834 13.834 0 0 1 1.672-1.013 21.358 21.358 0 0 1 1.841-.834 36 36 0 0 0 1.784-.765 6.59 6.59 0 0 0 .828-.443c.28-.18.509-.362.679-.552v-.676c0-.614-.225-1.13-.679-1.545-.454-.415-.964-.622-1.528-.622-.417 0-.778.047-1.084.143a5.219 5.219 0 0 0-.754.284c.44.19.735.456.882.799.148.344.22.717.22 1.12 0 .616-.245 1.154-.734 1.617-.49.462-1.178.693-2.06.693-1.102 0-1.9-.285-2.392-.854a2.91 2.91 0 0 1-.736-1.954c0-.71.172-1.368.515-1.972a4.775 4.775 0 0 1 1.417-1.545c.601-.428 1.305-.765 2.115-1.013.81-.25 1.68-.374 2.611-.374 2.527 0 4.426.563 5.704 1.688 1.275 1.125 1.912 2.718 1.912 4.779v1.565c0 .496.104.907.313 1.226.208.32.483.503.827.55v.213c0 .308-.093.582-.276.818-.184.237-.47.38-.864.428v5.577c0 .452.08.735.24.855.16.117.41.176.754.176h.293l.92 1.208v.712h-4.267zM109.077 22.973h-.692l-.155.289h.997l-.15-.289zm-1.307 6.598h1.958v-.288h-1.958v.288zm0-.789h1.958v-.288h-1.958v.288zm0-.788h1.958v-.288h-1.958v.288zm0-.79h1.958v-.286h-1.958v.286zm0-.789h1.958v-.287h-1.958v.287zm0-.788h1.958v-.286h-1.958v.286zm0-.79h1.958v-.285h-1.958v.286zm0-.788h1.958v-.285h-1.958v.285zm1.958 6.024h-1.958l-.039.286h2.034l-.037-.286zm.152.788h-2.262l-.115.288h2.53l-.153-.288zm9.626-12.261c0 .765-.213 1.356-.633 1.775-.423.418-.965.627-1.628.627-.717 0-1.32-.257-1.805-.77a2.552 2.552 0 0 1-.729-1.813c0-.404.128-.756.385-1.055.254-.3.599-.45 1.035-.45.538 0 .971.186 1.303.557.332.37.537.782.614 1.236a.835.835 0 0 0 .153-.501c0-.765-.326-1.398-.977-1.9-.654-.503-1.593-.752-2.819-.752-1.126 0-2.04.34-2.742 1.02-.704.681-1.056 1.632-1.056 2.85v1.65c0 .623.109 1.034.328 1.238.216.202.503.303.86.303 0 .288-.107.492-.324.61a1.538 1.538 0 0 1-.748.179c-.333 0-.607-.09-.823-.268-.22-.18-.328-.473-.328-.88 0-.047.008-.124.02-.231.014-.109.02-.21.02-.304 0-.169-.04-.253-.117-.253-.153 0-.227.263-.227.788 0 .336.092.647.285.932.193.288.544.467 1.054.539v5.665c0 .285.019.56.06.824.038.263.113.49.23.68.115.193.279.348.498.468.216.119.503.178.861.178v.466h-6.978v-.466h.19c.563 0 .949-.215 1.152-.646.205-.43.307-.93.307-1.504v-5.665c.51-.072.862-.251 1.054-.539.193-.285.288-.596.288-.932 0-.525-.076-.788-.23-.788-.102 0-.152.107-.152.323 0 .12.005.215.02.286.01.072.016.132.016.18 0 .406-.121.707-.363.897-.244.19-.544.287-.901.287-.281 0-.506-.067-.672-.198-.166-.131-.249-.34-.249-.628.281 0 .55-.082.807-.25.253-.168.382-.55.382-1.148v-1.65c0-.548-.013-1.098-.04-1.648a7.863 7.863 0 0 0-.228-1.577 4.695 4.695 0 0 0-.614-1.399 3.438 3.438 0 0 0-1.15-1.075v-.072h6.328v.072c-.13.143-.25.31-.365.503-.116.19-.21.38-.288.572.308-.31.81-.61 1.515-.896a5.997 5.997 0 0 1 2.28-.43c.844 0 1.588.126 2.226.377a4.44 4.44 0 0 1 1.61 1.056c.435.455.76.982.978 1.579.216.597.327 1.254.327 1.97zm1.227.68c0-.93-.167-1.76-.5-2.49a5.615 5.615 0 0 0-1.36-1.865 5.816 5.816 0 0 0-2.013-1.164 7.522 7.522 0 0 0-2.455-.394c-.436 0-.907.053-1.42.16a7.858 7.858 0 0 0-1.302.377l-.155-.323h-7.4v.18c.585.239 1.054.554 1.4.95.344.394.6.848.767 1.362.166.513.273 1.07.325 1.666.05.599.078 1.208.078 1.828v1.65c0 .551-.142.896-.423 1.04-.282.144-.55.216-.807.216 0 .812.41 1.242 1.23 1.29v5.629c0 .621-.104 1.098-.309 1.434-.204.334-.56.501-1.074.501h-.267v.646l.765 1.075h7.557v-.572l-.882-1.149h-.156a.5.5 0 0 1-.419-.196c-.104-.132-.154-.473-.154-1.022v-5.844c.306 0 .581-.101.825-.305a.999.999 0 0 0 .364-.806 1.452 1.452 0 0 1-.844-.54c-.23-.285-.345-.716-.345-1.289V19.89c0-1.026.217-1.827.652-2.402.433-.573 1.074-.86 1.918-.86.433 0 .844.06 1.226.18-.281.048-.55.227-.804.538-.257.31-.385.68-.385 1.11 0 .502.097.968.288 1.4.19.43.448.806.766 1.129.32.322.698.572 1.133.751.432.18.88.27 1.34.27.895 0 1.591-.247 2.093-.735.496-.49.747-1.152.747-1.99zm.267 0c0 .861-.255 1.574-.766 2.134-.512.564-1.29.842-2.34.842-.511 0-.995-.095-1.456-.285a3.706 3.706 0 0 1-1.21-.808 4.055 4.055 0 0 1-.823-1.2 3.6 3.6 0 0 1-.307-1.507c0-.62.256-1.134.766-1.541a1.59 1.59 0 0 0-.535-.071c-.767 0-1.344.274-1.728.824-.382.551-.574 1.29-.574 2.222v1.435c0 .55.12.95.363 1.2.244.252.518.413.825.485 0 .31-.07.616-.21.915-.142.3-.466.47-.978.519v5.665c0 .454.02.74.058.86.04.12.134.18.288.18h.306l.959 1.253v.862H105.7l-.882-1.147v-.968h.46c.767 0 1.15-.586 1.15-1.757v-5.45c-.51-.072-.844-.27-.997-.59a2.437 2.437 0 0 1-.229-1.059c.101 0 .224-.007.363-.019a.926.926 0 0 0 .73-.447c.09-.143.134-.347.134-.61v-1.65c0-.644-.026-1.265-.078-1.863a6.513 6.513 0 0 0-.345-1.65 4.089 4.089 0 0 0-.746-1.307c-.32-.371-.762-.653-1.324-.843v-.537h7.823l.114.25a6.32 6.32 0 0 1 1.075-.323 6.83 6.83 0 0 1 1.457-.143c.92 0 1.777.137 2.567.412.794.275 1.49.67 2.092 1.184a5.426 5.426 0 0 1 1.418 1.917c.346.765.518 1.638.518 2.616z"/>
    </g>
</svg>
