<svg xmlns="http://www.w3.org/2000/svg" width="401" height="180" viewBox="0 0 401 180">
    <g fill="#231F20" fill-rule="evenodd">
        <path d="M15.948 166.849a3.77 3.77 0 0 1-.516-1.625 2.923 2.923 0 0 1 .165-1.216c.062-.169.146-.334.242-.495-.004.426.006.867.042 1.35a373.947 373.947 0 0 0 .067 1.986zm52.56-3.29l-.084.685-.125 1.042-.034.279c-.001.013.004.025.002.038 0 .014-.007.026-.007.04 0 .102-.013.204-.02.305-.026.36-.096.715-.21 1.066a5.253 5.253 0 0 1-.253.638 6.49 6.49 0 0 1-.695 1.13c-.134.179-.282.355-.438.53-.352.391-.752.773-1.21 1.145-.256.21-.531.415-.82.617-.538.378-1.13.743-1.772 1.093-.396.217-.804.43-1.238.635-.767.365-1.594.71-2.466 1.035-.71.265-1.452.517-2.227.752a46.475 46.475 0 0 1-3.154.838c-1.826.42-3.77.765-5.805 1.018a67.4 67.4 0 0 1-8.272.504c-2.77 0-5.433-.157-7.947-.445a56.22 56.22 0 0 1-6.34-1.084c-8.274-1.933-13.85-5.536-14.293-9.844l-.003-.006v-.005l-.976-8.07c.316.425.686.841 1.102 1.247-.064.344-.11.688-.141 1.023l-.012.127c-.03.428.001.86.032 1.278.01.139.02.276.028.414l.042.935c.047 1.036.104 2.325.17 3.172.001.031.014.06.038.081.023.02.05.03.08.03h.009a.12.12 0 0 0 .106-.105v-.004c.066-.849.123-2.138.17-3.174l.042-.934c.008-.139.017-.276.028-.415.03-.418.062-.85.032-1.28l-.012-.134c-.016-.167-.038-.337-.059-.506.53.458 1.126.9 1.776 1.327a11.1 11.1 0 0 0-.161 1.11l-.011.127c-.03.428.002.861.032 1.28.01.138.02.275.028.412l.044.943c.044 1.034.1 2.321.167 3.164a.119.119 0 0 0 .115.112l.01-.001a.117.117 0 0 0 .109-.109c.067-.851.123-2.147.17-3.187l.042-.92c.008-.139.018-.276.027-.414.032-.419.063-.852.034-1.283l-.013-.133c-.025-.255-.05-.514-.09-.777.592.364 1.231.714 1.907 1.051-.028.168-.05.34-.068.514-.546.414-1.003.88-1.33 1.387-.619.956-.721 2.14-.283 3.25.592 1.502 2.133 2.49 3.24 3.103 2.248 1.243 4.93 2.227 8.438 3.098 2.032.503 3.868.836 5.615 1.023l.022.003.075.009c1.002.104 1.987.158 2.928.163h.041c.216 0 .431-.018.648-.029.26-.012.521-.017.774-.034.467-.03.949-.062 1.426-.062.05-.008.09-.053.098-.114a.125.125 0 0 0-.111-.132 57.324 57.324 0 0 0-2.19-.22c-.253-.022-.51-.046-.762-.067-1-.083-2.035-.168-3.043-.296-.339-.043-.691-.116-1.04-.173h.006a.124.124 0 0 0 .113-.113c.076-.812.142-2.098.199-3.232l.031-.61c.239.03.478.06.731.083.297.03.612.056.934.08.012.22.024.454.035.706l.02.358.013.234c.049.943.105 1.965.17 2.627.004.065.06.115.126.115l.011-.001a.125.125 0 0 0 .11-.113c.065-.661.12-1.647.17-2.604.003-.096.009-.192.014-.287l.015-.286.037-.707c.51.022 1.034.027 1.552-.006.039-.003.072-.011.11-.014l.035.681.014.282.02.387c.024.45.05.902.078 1.334l.024.376c.021.294.042.567.064.79.006.066.06.115.126.115h.011a.126.126 0 0 0 .112-.112c.022-.224.042-.494.063-.78l.025-.404a125.53 125.53 0 0 0 .098-1.723l.012-.234.042-.8c.077-.014.163-.016.237-.03a.061.061 0 0 0 .051-.057.062.062 0 0 0-.044-.062c-.032-.009-.065-.014-.098-.02a6.652 6.652 0 0 1-.134-.028c.004-.074.008-.16.013-.228.006-.1.017-.2.026-.302l.01-.113c.035-.394.068-.803.04-1.21-.002-.022 0-.043-.002-.065l-.017-.138-.01-.067c-.025-.201-.05-.405-.085-.61.56.04 1.122.074 1.685.101-.03.162-.049.323-.07.483-.01.077-.024.156-.033.232l-.01.087-.006.044c-.038.419 0 .841.038 1.25l.002.018c.012.133.025.266.034.398.004.047.007.109.01.16.018.311.036.671.058 1.071l.004.081c.01.165.018.331.025.5.023.406.045.81.07 1.197a51.134 51.134 0 0 0 .097 1.317.12.12 0 0 0 .044.083c.022.02.052.03.083.03h.011a.126.126 0 0 0 .112-.112 36.64 36.64 0 0 0 .1-1.334 154.609 154.609 0 0 0 .094-1.693c0-.022.002-.046.004-.069l.056-1.063.01-.167c.011-.133.021-.266.035-.4l.002-.021c.037-.407.076-.829.038-1.249l-.004-.026-.013-.11c-.01-.079-.023-.158-.035-.237-.019-.146-.036-.292-.062-.44.559.023 1.117.043 1.675.054-.02.122-.035.24-.05.36-.014.092-.03.186-.04.277l-.016.12-.002.018c-.037.412 0 .826.038 1.227l.003.026c.012.134.026.268.035.4l.01.183.055 1.016.004.067.031.59c.019.367.04.731.061 1.082l.045.677c.019.252.038.486.057.685a.127.127 0 0 0 .124.111h.008a.126.126 0 0 0 .117-.113c.02-.197.04-.427.057-.676a138.69 138.69 0 0 0 .107-1.757l.032-.607c0-.01 0-.02.002-.03.02-.387.038-.736.056-1.04l.01-.186a19.234 19.234 0 0 1 .038-.431c.04-.4.076-.813.04-1.226v-.001l-.018-.134c-.013-.097-.028-.194-.042-.29-.016-.115-.03-.228-.05-.343.558.003 1.115.006 1.673-.002-.02.11-.031.216-.047.324-.016.109-.034.22-.048.327l-.017.136c-.036.404 0 .809.037 1.202l.004.04c.011.133.025.265.035.396a130.065 130.065 0 0 1 .067 1.226v.008l.036.656c.019.34.037.68.057 1.007.016.268.034.524.051.76.017.223.034.432.052.611a.125.125 0 0 0 .126.113h.012a.126.126 0 0 0 .111-.108l.001-.003a48.555 48.555 0 0 0 .104-1.38 198.786 198.786 0 0 0 .094-1.664v-.001c.018-.39.038-.74.055-1.041l.012-.183c.01-.134.022-.268.034-.403l.003-.038c.037-.388.072-.788.038-1.19v-.011l-.018-.133c-.013-.11-.033-.223-.048-.334-.017-.112-.03-.224-.05-.337.52-.011 1.04-.022 1.558-.044l-.045.29-.012.079-.008.056c-.017.15-.011.298-.008.446.006.268.026.536.056.796l.04.376.003.021.04.604c.012.199.027.408.04.63l.026.396.047.714c.022.325.046.637.07.936.025.312.051.597.079.845l.015.147a.132.132 0 0 0 .132.116l.015-.001a.134.134 0 0 0 .117-.115v-.001l.014-.141c.027-.25.054-.541.08-.857.023-.295.046-.602.067-.923l.05-.728c.007-.13.015-.262.024-.388l.04-.632c.015-.22.028-.425.042-.6l.003-.027c.01-.124.025-.248.04-.372.028-.256.048-.52.054-.785.003-.154.009-.307-.007-.46l-.01-.064-.011-.068c-.016-.114-.035-.23-.054-.345.475-.026.95-.052 1.424-.089l-.027.18-.02.128c-.007.061 0 .122-.003.183-.01.183-.011.365.002.546.012.173.03.346.049.516.015.132.03.264.042.395l.016.226.042.632.022.365.042.64c.018.262.035.512.054.767.02.29.04.581.062.843-.16.015-.32.03-.48.048-.137.016-.276.034-.413.042-.078.005-.163.004-.251.003l-.12-.001c-.214 0-.438.014-.592.116a.06.06 0 0 0-.031.057c.002.022.014.04.037.052.411.205 1.113.28 1.906.245.007.076.015.165.024.233a.126.126 0 0 0 .049.089c.022.02.052.03.083.03 0 0 .01 0 .015-.002a.132.132 0 0 0 .116-.115c.01-.074.017-.171.026-.255a9.663 9.663 0 0 0 2.024-.378c.022.24.044.462.067.653.002.036.021.067.049.09.016.013.036.016.057.02.01.002.016.009.026.009l.017-.001c.005-.001.01-.006.015-.008a.13.13 0 0 0 .1-.108c.026-.22.052-.486.075-.769.001-.008.001-.017.003-.024.479-.18.901-.396 1.208-.654.016-.013.018-.04.013-.06a.06.06 0 0 0-.046-.04c-.211-.038-.415.047-.612.13-.067.027-.129.053-.193.076-.108.039-.224.056-.334.088l.028-.4c.02-.259.036-.516.054-.782l.043-.665.021-.342c.015-.234.029-.45.043-.644.003-.07.01-.15.014-.214.011-.132.027-.264.041-.397.018-.155.032-.316.046-.475.016-.2.017-.405.005-.61-.002-.059.004-.118-.002-.178l-.02-.133a13.41 13.41 0 0 0-.08-.487c.479-.061.957-.124 1.436-.196-.005.025-.01.052-.013.076l-.021.138c-.028.257-.017.514.003.77a16.631 16.631 0 0 0 .061.633l.027.267c.017.225.034.5.053.791l.027.422.015.234c.02.336.043.674.065 1.012.019.27.037.526.057.778.025.326.051.624.08.887.006.066.013.146.02.207a.132.132 0 0 0 .133.115l.015-.001a.132.132 0 0 0 .117-.115v-.001l.02-.203c.028-.263.053-.563.08-.89.019-.251.038-.508.056-.776l.066-1.015.014-.207.028-.447c.018-.291.037-.566.052-.79l.027-.26.014-.144c.02-.167.035-.337.048-.507a4.303 4.303 0 0 0 0-.764l-.02-.134a6.765 6.765 0 0 0-.035-.229v-.007c.454-.076.907-.157 1.36-.244l-.001.015c-.01.084-.002.167-.004.25-.011.35.015.698.053 1.036l.005.064c.014.114.027.228.035.34l.024.338.055.87a115.883 115.883 0 0 1 .051.815c.022.348.046.692.07 1.022a53.36 53.36 0 0 0 .117 1.324.13.13 0 0 0 .05.088c.024.02.053.03.082.03h.015a.134.134 0 0 0 .119-.117 43.783 43.783 0 0 0 .117-1.324c.023-.335.048-.68.07-1.025l.04-.633.011-.18.055-.866c.008-.117.015-.24.023-.34.01-.116.022-.23.036-.346l.007-.067c.036-.33.06-.673.051-1.016-.003-.09.005-.177-.005-.266l-.02-.136c-.003-.029-.009-.057-.013-.086.143-.03.283-.064.424-.095.286-.064.572-.127.858-.194-.007.047-.015.096-.02.14-.003.015 0 .03-.003.044-.02.203-.022.406-.01.607.014.221.041.44.069.655.017.139.035.276.048.413v.002c.017.199.035.435.053.686l.038.534.038.521.046.62c.028.36.057.706.087 1.036.024.274.051.524.078.754.01.09.02.191.03.271.003.016.017.026.022.039-.492.214-1.007.42-1.537.622a54.037 54.037 0 0 1-4.63 1.485.125.125 0 0 0-.091.144c0 .005.006.008.006.012.017.051.06.089.118.09l.017-.002c.165-.025.321-.055.484-.081a41.16 41.16 0 0 0 3.944-.838 30.647 30.647 0 0 0 4.05-1.39c.01.03.022.06.048.08a.16.16 0 0 0 .09.03.146.146 0 0 0 .146-.127c.004-.036.01-.083.016-.119.174-.078.349-.159.523-.24.082-.038.165-.074.246-.113.37-.184.742-.38 1.109-.586l.106-.055.007.056c.025.234.05.458.076.655.002.013.015.02.02.032.01.025.016.052.039.069.026.02.058.032.092.032l.021-.001c.057-.009.096-.051.116-.102.004-.01.013-.018.015-.03.026-.196.051-.42.077-.651.011-.118.024-.233.037-.358a9.605 9.605 0 0 0 1.022-.735c.206-.17.398-.368.59-.563.084-.087.18-.159.26-.25l.04.25c.016.114.032.235.05.332a.157.157 0 0 0 .182.124.156.156 0 0 0 .125-.125v-.001c.018-.096.034-.217.051-.327a25.7 25.7 0 0 0 .131-1.01l.053-.094c.108-.188.219-.414.315-.667.12-.315.207-.67.223-1.043a2.453 2.453 0 0 0-.062-.678c-.02-.085-.037-.172-.067-.259a2.581 2.581 0 0 0-.148-.322c.017-.118.034-.235.053-.351.009-.05.014-.1.021-.15.033-.195.051-.392.057-.59.004-.143.011-.286-.016-.429a4.768 4.768 0 0 0-.226-.864l-.018-.06c.129-.064.255-.137.383-.204.203-.106.406-.21.605-.322 0 .102.01.203.02.305.01.104.02.207.037.31.015.092.027.185.044.276.031.169.063.342.081.513l.05.46c.02.194.043.402.065.623a98.945 98.945 0 0 0 .109 1.066c.024.227.047.452.073.675.042.372.087.727.133 1.05.032.224.064.438.099.622.003.014.017.021.023.035.013.025.021.053.047.07a.158.158 0 0 0 .121.026.16.16 0 0 0 .114-.098c.005-.012.014-.02.017-.032.036-.183.069-.397.1-.621.047-.324.09-.68.133-1.054.026-.222.05-.446.073-.673.034-.311.065-.622.095-.924.004-.043.01-.081.013-.125l.068-.66.048-.44c.018-.17.05-.344.081-.513l.04-.231c.022-.134.041-.268.052-.403.017-.204.016-.41-.023-.615a6.009 6.009 0 0 0-.142-.609 14.151 14.151 0 0 0 2.226-1.866l-.37 3.043-.06.496-.136 1.127zm-52.078-.794c.123-.12.256-.24.403-.354.011-.01.026-.016.038-.025.47.214.963.42 1.467.62-.132.794-.162 1.655-.077 2.673.012.298.025.67.038 1.072.027.76.058 1.66.092 2.373-.779-.468-1.516-1.032-2.062-1.717.021-.55.04-1.12.057-1.629l.031-.91c.06-.778.06-1.464.013-2.103zm11.172 4.83a31.555 31.555 0 0 1-.584-.248 15.37 15.37 0 0 1-.918-.428c.013-.244.019-.49-.001-.736l-.014-.123c-.03-.27-.065-.544-.116-.82.586.122 1.181.238 1.788.345-.07.32-.112.64-.15.95l-.018.14c-.027.308-.011.616.013.92zm3.24.965l.017-.208c.038-.43.078-.874.04-1.316l-.017-.134a12.54 12.54 0 0 0-.113-.813c.58.081 1.163.15 1.745.216-.068.314-.11.627-.146.933l-.016.141c-.039.436.002.875.04 1.298l.012.13.002.046-.257-.046c-.46-.079-.898-.161-1.307-.247zm-.833-.211c.001.008.001.017.003.025-.14-.033-.283-.065-.42-.1a12.76 12.76 0 0 1-1.113-.346c.038-.41.075-.832.038-1.255l-.016-.138c-.033-.272-.07-.551-.124-.83.58.103 1.162.196 1.746.283-.063.305-.101.609-.136.906l-.017.145c-.038.439.002.883.04 1.31zm-9.227 1.96a21.715 21.715 0 0 1-2.121-1.028c.038-.735.071-1.707.099-2.527l.037-1.071c.08-.95.065-1.764-.045-2.513.629.24 1.284.471 1.958.69-.125.788-.15 1.644-.066 2.65l.04 1.188a271.671 271.671 0 0 0 .05 1.477c.015.408.031.8.048 1.134zm2.377.98a63.303 63.303 0 0 1-2.099-.86l-.025-.01c.018-.356.037-.785.053-1.237l.01-.272c.014-.402.028-.814.04-1.21l.041-1.185c.078-.95.064-1.765-.041-2.516.628.198 1.28.382 1.945.56-.08.36-.132.72-.168 1.07l-.012.119c-.03.403.001.81.032 1.201l.029.389c.015.324.035.747.054 1.205l.015.337.014.338c.034.752.07 1.505.112 2.07zm2.393.801c.002.03.017.057.041.078a46.19 46.19 0 0 1-2.175-.778c.043-.57.083-1.368.118-2.164l.016-.352c.004-.11.01-.222.013-.33.02-.46.039-.882.056-1.205l.027-.39c.031-.392.063-.798.032-1.203l-.013-.126a9.87 9.87 0 0 0-.139-.942c.613.157 1.241.304 1.88.443-.065.313-.112.625-.147.93l-.014.135c-.006.068 0 .136-.003.205-.489-.366-.898-.823-1.051-1.423-.005-.02-.017-.04-.068-.045-.022.002-.047.022-.052.05-.135.805.074 1.537.613 2.114.17.183.378.347.61.506l.019.228c.014.285.033.646.05 1.033l.01.188.01.21c.05 1.022.102 2.133.167 2.838zm4.524-2.776l.035.716c.057 1.134.122 2.42.199 3.23a.128.128 0 0 0 .044.086.12.12 0 0 0 .074.026c-.334-.056-.661-.097-.996-.166a33.651 33.651 0 0 1-3.71-.995c-.012-.004-.024-.009-.037-.012a.119.119 0 0 0 .108-.11c.064-.703.119-1.81.168-2.83l.011-.228c.002-.064.006-.12.009-.181.014-.303.027-.584.04-.83.485.25 1.043.48 1.664.692l.005.123c.008.138.017.293.024.444l.017.328c.058 1.107.122 2.362.198 3.144a.127.127 0 0 0 .123.114h.012a.123.123 0 0 0 .114-.114c.077-.795.145-2.12.2-3.186l.015-.28.017-.342c.493.143 1.026.26 1.598.358.023.003.043.009.068.013zm4.732-.223l.006.1c-.114-.014-.229-.03-.34-.042-.197-.021-.402-.042-.602-.071-.232-.032-.44-.066-.659-.099l.016-.177.01-.125c.04-.423.08-.862.04-1.3l-.016-.139c-.034-.283-.071-.57-.128-.86.572.06 1.146.11 1.72.156-.046.246-.076.49-.105.73l-.018.14c-.038.43.002.862.041 1.28l.01.11c.01.1.018.2.025.297zm14.154-2.37l-.02.13c-.006.062 0 .123-.002.185-.01.197-.01.394.006.59.012.163.027.326.046.486.014.131.03.264.041.394l.015.221c.014.194.028.408.042.64l.022.34c.013.218.028.442.043.665.017.266.035.522.053.783l.038.526c-.323.064-.649.115-.971.16l-.19.028c-.253.035-.512.049-.771.077.022-.25.04-.524.06-.795.018-.26.036-.514.053-.78.014-.208.029-.42.04-.624l.026-.376c.014-.23.029-.441.043-.634l.014-.221c.012-.133.028-.266.042-.399.02-.165.035-.334.049-.503.014-.187.012-.376.001-.566-.002-.059.004-.118-.002-.178l-.02-.136c-.013-.084-.028-.168-.04-.253.48-.044.96-.088 1.441-.143-.022.129-.04.256-.06.382zm8.215 4.413c-.14.064-.263.135-.403.197l.021-.194c.027-.228.052-.477.078-.747a83.064 83.064 0 0 0 .133-1.655l.037-.525.038-.535c.018-.25.036-.486.053-.685l.001-.002c.012-.138.031-.275.047-.414.028-.21.054-.425.07-.641a3.66 3.66 0 0 0-.012-.635v-.03a10.151 10.151 0 0 0-.064-.419c.099-.025.199-.046.298-.072.331-.09.66-.183.989-.28a6.47 6.47 0 0 0-.146.735c-.003.019 0 .036-.002.055-.028.22-.026.44-.006.658.015.182.039.363.063.541.024.166.05.334.063.5a.01.01 0 0 1 .001.005c.02.199.038.434.06.683l.044.55c.013.17.028.346.044.52l.049.6c.032.354.063.704.096 1.034l-.048.024a29.76 29.76 0 0 1-1.504.732zm3.84-2.25c-.198.155-.403.305-.61.455-.321.233-.653.46-1.003.672l-.09.048c.024-.233.043-.476.064-.717l.05-.594.044-.524a74.644 74.644 0 0 1 .102-1.232v-.006c.017-.166.041-.334.066-.5.023-.173.046-.35.062-.527.02-.228.024-.456-.006-.685-.002-.015.001-.028-.002-.041a5.921 5.921 0 0 0-.237-1.04c.107-.033.213-.072.32-.106.298-.097.595-.192.89-.297l-.007.053c-.013.09-.003.18-.008.27a6.6 6.6 0 0 0 .062 1.161l.003.04c.027.2.053.408.07.612.001.01.001.023.003.034l.08 1.033c.004.07.01.135.015.207.012.15.025.312.035.47l.085 1.085.011.13zm1.997-4.847l.022.136c.01.057.019.115.03.172.026.157.054.32.072.48.015.134.03.291.046.451.022.213.044.439.066.682l.01.087.043.452a3.47 3.47 0 0 1-.336.498c-.015.019-.028.038-.045.058-.171.209-.359.413-.556.615-.178.181-.362.36-.553.536l.04-.535c.01-.153.024-.312.035-.458l.015-.217c.03-.377.055-.731.08-1.034l.004-.034c.017-.203.042-.406.068-.61l.004-.04c.048-.367.078-.743.064-1.12-.003-.103.007-.207-.008-.311-.008-.063-.022-.134-.031-.2-.018-.122-.034-.242-.059-.37.351-.14.699-.288 1.046-.442-.028.117-.05.233-.069.341-.011.07-.016.14-.02.209a3.66 3.66 0 0 0-.437-.164h-.012c-.037 0-.088.012-.113.05-.04.055-.028.133.021.168.075.065.138.13.204.197a4.8 4.8 0 0 1 .37.403zM8.42 143.423l-2.25-18.594c4.817 3.41 19.52 5.225 33.511 5.225 3.372 0 6.784-.107 10.09-.315.138-.006.277-.009.415-.016 5.066-.322 10.138-.853 15.126-1.988.323-.074.646-.146.968-.225.11-.027.221-.05.333-.077.06-.016.12-.036.18-.052l.146-.037c1.156-.1 2.478.013 3.385.803.22.19.403.416.558.67a58.01 58.01 0 0 1-4.006.881.157.157 0 0 0-.133.175.16.16 0 0 0 .16.126h.02c1.449-.178 2.83-.39 4.221-.644.134.349.222.745.267 1.182-1.901.493-3.672.889-5.362 1.194-.086.015-.144.092-.132.171.011.075.08.13.159.13.006 0 .015 0 .021-.002a74.664 74.664 0 0 0 5.295-.863c-.06.529-.124 1.086-.193 1.659-2.276.568-4.351 1.006-6.318 1.324a.158.158 0 0 0-.137.17.16.16 0 0 0 .16.13h.018a72.623 72.623 0 0 0 6.192-.924c-.062.501-.128 1.017-.197 1.541a64.96 64.96 0 0 1-1.43.35h-.002c-2.434.581-4.626 1.012-6.703 1.318-.087.013-.147.086-.138.164a.158.158 0 0 0 .162.137h.014a75.328 75.328 0 0 0 7.991-1.17c-.062.458-.127.922-.194 1.39a77.9 77.9 0 0 1-3.668.915c-2.439.555-4.638.963-6.72 1.248-.086.012-.148.084-.141.167a.16.16 0 0 0 .16.135l.014-.001c3.314-.26 6.745-.79 10.22-1.547-.063.422-.128.847-.195 1.273a83.515 83.515 0 0 1-5.883 1.545c-2.441.555-4.64.964-6.72 1.248-.087.012-.149.084-.141.164a.159.159 0 0 0 .161.138h.012c4.087-.323 8.252-1.02 12.4-2.039-.074.451-.15.903-.23 1.353-.574.2-1.128.384-1.692.554a83.548 83.548 0 0 1-6.55 1.736c-2.44.556-4.64.964-6.72 1.248-.088.012-.15.084-.143.167a.16.16 0 0 0 .16.135h.015c4.479-.354 9.053-1.135 13.595-2.324.388-.097.748-.196 1.113-.294-.087.47-.178.936-.27 1.397a54.937 54.937 0 0 1-3.063 1.052 84.318 84.318 0 0 1-6.55 1.735c-2.441.556-4.639.964-6.72 1.248-.088.012-.15.088-.14.161.001.04.02.075.05.101.03.026.07.04.11.04h.012c4.48-.353 9.054-1.135 13.596-2.323.86-.216 1.663-.436 2.422-.661a66.72 66.72 0 0 1-.292 1.284l-.095.035c-1.381.52-2.812 1.057-4.263 1.497a84.346 84.346 0 0 1-6.55 1.735c-2.44.556-4.638.964-6.721 1.248-.085.013-.146.082-.14.165.007.078.078.138.16.138l.014-.001c4.48-.353 9.054-1.135 13.595-2.323a53.533 53.533 0 0 0 3.641-1.043c-.087.331-.176.654-.267.972l-.016.005v.001c-.685.244-1.363.5-2.043.755-1.38.52-2.807 1.055-4.258 1.495a84.123 84.123 0 0 1-6.549 1.735c-2.441.556-4.64.964-6.722 1.248-.085.011-.148.084-.14.164.007.08.078.139.16.139l.014-.001c4.48-.354 9.055-1.136 13.595-2.323 2.152-.541 3.925-1.087 5.487-1.69-.108.328-.22.646-.333.952-.594.234-1.193.464-1.796.672v.001c-.683.244-1.36.499-2.039.754-1.381.518-2.81 1.055-4.263 1.496a83.871 83.871 0 0 1-6.55 1.736c-2.441.556-4.639.963-6.72 1.247-.088.013-.15.087-.138.162 0 .04.02.075.05.101.03.026.068.04.108.04h.013c4.479-.354 9.053-1.135 13.596-2.324 2.64-.663 4.715-1.334 6.53-2.111.201-.09.39-.182.586-.273-.192.407-.391.767-.595 1.093a58.419 58.419 0 0 1-3.164 1.226c-.683.245-1.362.5-2.042.756-1.381.518-2.807 1.054-4.258 1.494a84.257 84.257 0 0 1-6.55 1.736c-2.44.555-4.639.963-6.72 1.248-.086.012-.149.083-.14.163.005.08.077.14.16.14l.012-.002c4.481-.353 9.055-1.134 13.595-2.322 2.644-.665 4.718-1.336 6.53-2.113.382-.169.735-.343 1.094-.516a41.465 41.465 0 0 1-2.212 2.2c-.443.16-.885.326-1.332.47-.688.234-1.37.474-2.054.718-1.391.492-2.829 1.001-4.289 1.414a83.793 83.793 0 0 1-6.582 1.612c-2.447.51-4.653.876-6.742 1.121-.087.01-.15.082-.143.16.005.08.076.142.161.142h.007c4.487-.269 9.075-.964 13.64-2.066 1.788-.414 3.315-.837 4.682-1.294a44.708 44.708 0 0 1-3.279 2.38 52.55 52.55 0 0 1-2.248.597.138.138 0 0 0-.109.001c-.015.008-.02.022-.032.032-2.325.56-4.694.969-7.083 1.25-.009.003-.02-.002-.028.003l-.003.001c-2.42.285-4.862.44-7.301.487-4.183.054-8.39-.207-12.524-.906-3.67-.675-6.95-1.634-9.66-2.809.336-.2.676-.386 1.016-.563.094-.049.138-.095.133-.141a.067.067 0 0 0-.028-.048.197.197 0 0 0-.104-.024.447.447 0 0 0-.125.019c-.478.15-.931.337-1.356.55-.054-.024-.105-.05-.16-.074-.451-.321-.904-.64-1.35-.97-1.169-.868-2.29-1.813-3.145-3.004-1.727-2.407-1.95-5.344-2.635-8.136-.496-2.03-.95-4.071-1.382-6.117zm42.128-23.152c2.192.219 4.212.495 6.174.844 2.349.418 4.22.848 5.886 1.352.321.097.672.208 1.104.349l.334.108c.796.257 1.618.523 2.383.891.385.185.75.401 1.11.627-.713.84-1.964 1.644-4.008 2.327-1.744.336-3.504.61-5.271.84-2.706.366-5.43.62-8.16.81-.532.04-1.068.064-1.604.099-2.773.148-5.72.229-8.815.229-13.189 0-23.73-1.469-29.36-3.335 1.485-.655 3.102-1.257 5.056-1.867.79-.247 1.613-.447 2.409-.642.202-.048.404-.098.605-.147a137.722 137.722 0 0 1 8.932-1.892c.8-.141 1.648-.284 2.668-.451a.104.104 0 0 0 .087-.112.115.115 0 0 0-.034-.073.141.141 0 0 0-.08-.024c-4.067.327-7.395.765-10.475 1.376l-.216.042c-1.793.343-3.647.698-5.399 1.284-1.466.508-3.09 1.18-4.429 2.197-1.153-.432-2.05-.882-2.659-1.337a12.84 12.84 0 0 1 1.282-.593l.356-.143c1.798-.728 3.657-1.48 5.573-1.955.801-.2 1.623-.362 2.418-.52l.568-.113a249.83 249.83 0 0 1 4.073-.786c.7-.125 1.332-.233 1.931-.328l1.219-.195c1.177-.19 2.393-.385 3.593-.555 1.682-.236 3.44-.46 5.37-.682 1.278-.148 2.578-.284 3.835-.416l.23-.025c.056-.006.096-.053.096-.114-.005-.054-.051-.095-.113-.095h-.002l-.553.03c-2.496.144-5.08.292-7.614.523a144.96 144.96 0 0 0-8.143.982l-.5.081c-.475.077-.952.15-1.427.223-1.527.234-3.105.475-4.632.842a32.77 32.77 0 0 0-5.66 1.916c-.314.14-.596.279-.858.424a9.446 9.446 0 0 0-1.535 1.06 1.787 1.787 0 0 1-.375-.578l-.06-.5c.176-1.16 2.751-3.03 9.586-4.686 6.712-1.628 15.32-2.524 24.237-2.524 8.92 0 17.528.896 24.24 2.524.668.162 1.284.326 1.872.492.396.347 1.049.977 1.596 1.766-2.283-.687-4.529-1.12-6.484-1.443-.052-.008-.105-.02-.157-.03-.109-.024-.221-.049-.322-.049a113.219 113.219 0 0 0-7.673-.862c-2.602-.196-5.193-.28-7.696-.362a.106.106 0 0 0-.105.098.105.105 0 0 0 .098.112c5.985.476 10.82 1.081 15.213 1.904a60.82 60.82 0 0 1 7.873 2.06c.219.642.276 1.329.066 2.016-.526-.26-1.06-.494-1.576-.715l-.343-.147c-1.778-.755-3.73-1.075-5.618-1.385l-.43-.07a64.485 64.485 0 0 0-5.88-.717c-1.203-.088-2.497-.17-3.797-.17a.106.106 0 0 0-.106.099.106.106 0 0 0 .096.111zM1.624 87.278c.85.642 2.005 1.235 3.423 1.777.065 1.705.21 3.412.356 5.07l.042.472c.155 1.618.39 3.25.62 4.829.073.514.148 1.028.22 1.542l1.79 12.72a.169.169 0 0 0 .163.14h.02a.17.17 0 0 0 .153-.184l-1.268-12.779c-.054-.527-.103-1.054-.154-1.582-.15-1.577-.307-3.21-.537-4.807l-.076-.497c-.236-1.555-.498-3.15-.811-4.732.666.24 1.382.469 2.146.688.002 1.152.082 2.303.164 3.42l.027.364c.094 1.108.27 2.221.437 3.298l.164 1.062c.416 2.901.858 5.826 1.311 8.688a.168.168 0 0 0 .166.146h.014a.168.168 0 0 0 .154-.183 628.595 628.595 0 0 0-.787-8.753c-.034-.36-.064-.72-.093-1.077-.092-1.085-.188-2.205-.359-3.303l-.059-.36a51.318 51.318 0 0 0-.62-3.158c2.123.58 4.568 1.085 7.25 1.51-.082.605-.1 1.207-.114 1.793l-.005.204c-.001.63.074 1.26.148 1.87.024.197.047.393.068.588.16 1.61.343 3.255.548 4.89.01.083.082.146.165.146a.17.17 0 0 0 .17-.167 189.28 189.28 0 0 0-.019-4.916v-.595c.004-.615.008-1.25-.067-1.877l-.026-.191c-.078-.544-.157-1.102-.291-1.656 6.971 1.065 15.405 1.617 23.623 1.617 6.285 0 12.692-.323 18.479-.95-.225.79-.343 1.592-.451 2.372l-.03.217c-.086.699-.093 1.412-.1 2.1-.003.226-.005.452-.01.677-.056 1.848-.09 3.713-.105 5.54 0 .084.065.156.15.168l.014.001a.17.17 0 0 0 .173-.147c.232-1.837.444-3.69.632-5.504.024-.227.052-.455.08-.683.084-.68.17-1.383.18-2.088l-.003-.226c-.006-.806-.015-1.638-.142-2.47.958-.107 1.896-.223 2.814-.346-.246 1.314-.416 2.642-.578 3.934l-.053.422c-.145 1.282-.216 2.589-.285 3.853-.022.42-.045.839-.07 1.259l-.598 10.219a.167.167 0 0 0 .15.173l.018.002a.17.17 0 0 0 .168-.15l1.124-10.173c.046-.423.095-.847.144-1.27.143-1.252.291-2.547.361-3.83l.02-.441c.06-1.33.114-2.698.086-4.063.76-.106 1.504-.217 2.232-.334-.138.417-.226.837-.31 1.249l-.03.15c-.086.482-.093.976-.101 1.452-.003.157-.006.316-.011.472a123.082 123.082 0 0 0-.103 3.83c0 .082.06.152.138.166.01.002.02.004.03.004a.172.172 0 0 0 .167-.139c.233-1.276.444-2.546.63-3.776.023-.148.05-.297.076-.444.086-.477.174-.97.184-1.471l-.002-.166c-.005-.463-.013-.94-.088-1.424a74.148 74.148 0 0 0 4.82-.957c-.206.806-.353 1.622-.498 2.416l-.053.291c-.146.889-.218 1.798-.287 2.677-.022.287-.045.574-.07.86-.22 2.358-.423 4.737-.6 7.07a.17.17 0 0 0 .267.15.203.203 0 0 0 .067-.11c.396-2.334.775-4.691 1.124-7.005.045-.28.093-.562.138-.844.147-.872.298-1.775.371-2.677l.018-.293c.057-.875.111-1.773.094-2.678a40.586 40.586 0 0 0 3.384-.986c-.51 2.933-.92 5.912-1.31 8.802l-.107.801a470.797 470.797 0 0 0-1.1 10.235l-.893 8.942c-6.218-2.595-17.759-4.422-30.345-4.422-15.88 0-30.099 2.905-34.056 6.598l-4-33.052zm-.314-2.6c.05-3.338 15.34-8.37 38.37-8.37 23.032 0 38.323 5.032 38.373 8.37l-.028.231c-.632 3.392-16.195 7.079-38.345 7.079-22.148 0-37.71-3.687-38.342-7.079l-.028-.23zm72.428 35.652c-.725-.678-1.797-1.328-3.161-1.94l1.201-9.078c.455-3.41.875-6.85 1.248-10.222l.081-.846c.28-2.949.564-5.993.731-9.01 1.636-.59 2.958-1.243 3.9-1.956l-4 33.052zm33.58 41.733l-21.592-.171c-3.576-.04-7.216-.056-10.798-.05l-.823.011c-1.343.016-2.712.036-4.081.058l.615-5.086c.015-.076.044-.27.081-.544l.093-.688c.045-.351.099-.77.158-1.246.397-3.142 1.078-8.795 1.755-14.453l.29-2.418a1198.374 1198.374 0 0 1 .36-3.03c.75-6.307 1.36-11.487 1.36-11.487a2.04 2.04 0 0 0 .095-.582c0-.034-.01-.069-.011-.104l4.497-37.162c.009-.048.012-.096.017-.144l.023-.193c.002-.006-.002-.013-.002-.02.002-.02.008-.038.008-.058 0-.714-.326-1.402-.935-2.057C74.168 78.049 56.104 75 39.68 75 20.913 75 0 78.983 0 84.696c0 .02.005.039.006.058l-.002.02.02.155.004.038c.006.048.009.096.017.144l4.497 37.162c-.002.035-.011.07-.011.104v.001c0 .026.005.053.007.08.009.169.039.336.087.501l5.172 42.75.001.01.001.003c.43 4.106 4.634 7.574 11.195 9.815a222.01 222.01 0 0 0-5.336.224.149.149 0 0 0-.14.14.147.147 0 0 0 .138.153c2.676.149 5.375.237 8.058.302l.31.082a47.45 47.45 0 0 0 2.324.54c3.971.823 8.478 1.28 13.332 1.28a75 75 0 0 0 2.623-.05h.002c-.865.03-1.738.05-2.625.05-4.854 0-9.361-.457-13.332-1.28-4.409.09-8.947.194-13.42.488a.156.156 0 0 0-.145.147.157.157 0 0 0 .145.166c4.695.31 9.466.407 14.08.503l1.242.025c1.093.017 2.415.024 3.87.024 4.483 0 8.133-.065 11.672-.114l.726-.01.603-.008.706-.009c6.97-.072 11.708-.16 17.194-.26 2.57-.046 5.318-.097 8.558-.151a.157.157 0 0 0 0-.313c-3.25-.054-6.005-.105-8.582-.152-2.891-.053-5.583-.103-8.496-.148a39.313 39.313 0 0 0 3.385-.84l18.102-.272c.08 0 .145-.067.145-.142a.146.146 0 0 0-.142-.15l-15.751-.238a25.63 25.63 0 0 0 2.351-1.041l8.208-.154a.136.136 0 0 0 .134-.132.136.136 0 0 0-.134-.142l-7.169-.134c.62-.358 1.211-.75 1.776-1.167l11.216-.145a.133.133 0 0 0 .096-.223.138.138 0 0 0-.096-.042l-10.52-.135c.445-.368.877-.75 1.277-1.163l15.368-.157c.07 0 .127-.058.127-.128a.129.129 0 0 0-.125-.127l-14.868-.152c.327-.376.639-.766.923-1.179l31.307-.134a.122.122 0 0 0 0-.244l-31.088-.135c.08-.256.185-.632.287-1.146 1.401-.006 2.806-.01 4.2-.02l27.173-.171a.122.122 0 0 0 .002-.244l-27.175-.172c-1.355-.008-2.726-.011-4.088-.018.03-.187.06-.386.087-.6v-.001l.006-.04c.013-.108.02-.192.018-.257.004-.06.012-.12.015-.179.004-.076.015-.153.015-.23l.051-.42.128-1.048c2.645-.002 5.304-.018 7.93-.05l20.044-.171c.063 0 .116-.05.12-.122a.123.123 0 0 0-.12-.123l-20.043-.172a702.488 702.488 0 0 0-7.848-.045l.132-1.103c1.392.023 2.782.043 4.146.059l.826.01 1.816.002c2.99 0 6.004-.017 8.981-.05l21.592-.17a.124.124 0 0 0 .122-.123.122.122 0 0 0-.122-.123zm-96.322 10.232c-.58-.053-1.176-.04-1.672-.042-.496.003-1.08.012-1.657.064a.097.097 0 0 0-.09.097c0 .051.039.093.09.097a19.99 19.99 0 0 0 1.658.064c.494-.002 1.077.004 1.659-.049.05-.004.116-.034.112-.114-.002-.085-.05-.112-.1-.117m48.438 7.063c-4.92-.112-9.917-.205-14.854-.275-.608-.01-1.213-.022-1.82-.036-1.838-.04-3.736-.08-5.612-.042l-.602.018c-2.239.063-4.554.13-6.83.335a.138.138 0 0 0-.125.125.136.136 0 0 0 .03.1c.025.028.058.045.095.048 2.276.207 4.591.273 6.83.336l.604.017c.53.011 1.065.016 1.6.016 1.345 0 2.692-.03 4.008-.058.607-.013 1.214-.026 1.821-.036 4.938-.07 9.935-.163 14.855-.274a.14.14 0 0 0 .134-.137.138.138 0 0 0-.134-.137m46.89-13.62a.122.122 0 0 0 0-.244l-31.228-.172c-1.817-.014-3.65-.02-5.481-.03l-.051.42c0 .078-.012.153-.016.23 1.852-.008 3.704-.018 5.548-.033l31.229-.171zm-30.918-6.992a.116.116 0 0 0 .03.09c.018.02.058.04.084.041 2.141.13 4.315.17 6.42.21l.53.01a329.388 329.388 0 0 0 6.947-.05l13.89-.17a.123.123 0 1 0 0-.245l-13.89-.17c-2.307-.041-4.644-.057-6.949-.05l-.529.01c-2.104.04-4.279.082-6.419.21a.124.124 0 0 0-.114.114m34.472 1.602l-19.623-.172c-3.25-.04-6.551-.056-9.813-.049l-.749.01c-2.972.04-6.044.081-9.067.21-.062.003-.113.053-.118.122 0 .066.052.12.118.123 3.023.13 6.095.17 9.067.21l.75.01a657.52 657.52 0 0 0 9.813-.049l19.622-.17a.124.124 0 0 0 .122-.123.122.122 0 0 0-.122-.122m-28.973 12.01c-.58-.053-1.176-.04-1.672-.043-.496.003-1.08.013-1.657.065a.098.098 0 0 0-.09.097c0 .05.04.093.09.097a20.01 20.01 0 0 0 1.658.065c.494-.003 1.077.003 1.659-.05.05-.005.116-.034.112-.114-.002-.085-.05-.112-.1-.117m18.97-8.57c-.042.005-.083.01-.124.019-.07.013-.127.069-.127.1 0 .05.047.093.126.1.259.028.52.047.78.04.138-.003.284-.003.42-.018.083-.009.22-.036.217-.125-.002-.087-.186-.124-.237-.13a4.934 4.934 0 0 0-1.055.014m4.21-4.926c.26.027.522.046.782.04.136-.003.283-.005.419-.02.083-.009.22-.035.218-.124-.003-.087-.187-.125-.238-.13a4.933 4.933 0 0 0-1.179.033c-.07.013-.127.07-.127.1 0 .05.047.094.125.101m-5.45 4.925c-.069.004-.137.003-.203.024-.037.012-.108.05-.108.095 0 .051.047.098.126.102.264.015.35.009.481.005.085-.003.225-.02.222-.108-.003-.088-.189-.106-.24-.11a1.717 1.717 0 0 0-.278-.008M2.671 84.897c.255.391.603.623.946.838.343.217.705.39 1.067.559.728.328 1.474.594 2.226.84 1.508.485 3.04.87 4.581 1.205 3.083.672 6.203 1.146 9.333 1.497 6.262.71 12.562.996 18.858 1.016 6.294-.018 12.595-.298 18.857-1.004 3.131-.355 6.251-.82 9.34-1.47 1.544-.328 3.079-.703 4.59-1.185a22.2 22.2 0 0 0 2.236-.838 9.28 9.28 0 0 0 1.077-.561c.347-.218.7-.448.97-.86l.006-.009a.238.238 0 0 0-.012-.277c-.573-.73-1.302-1.078-2.011-1.465a22.44 22.44 0 0 0-2.2-.963c-1.49-.571-3.014-1.029-4.55-1.44-3.074-.81-6.197-1.401-9.338-1.85-6.286-.868-12.634-1.192-18.967-1.138 6.333.059 12.668.497 18.917 1.475 3.123.486 6.229 1.101 9.273 1.937 1.52.424 3.028.893 4.49 1.47.729.29 1.45.602 2.139.963.61.328 1.256.703 1.673 1.171-.175.193-.423.37-.676.52a9.017 9.017 0 0 1-1.017.516c-.706.308-1.443.56-2.186.793a48.714 48.714 0 0 1-4.538 1.151c-3.065.636-6.17 1.088-9.286 1.43-6.234.683-12.514.941-18.787.938-6.276.006-12.554-.248-18.789-.927-3.117-.344-6.223-.788-9.293-1.403-1.534-.311-3.058-.671-4.55-1.13a21.6 21.6 0 0 1-2.194-.791 8.913 8.913 0 0 1-1.025-.519c-.28-.164-.55-.358-.736-.583.382-.456.97-.81 1.527-1.125a21.343 21.343 0 0 1 1.917-.91c1.308-.55 2.657-1.008 4.02-1.422 2.729-.82 5.517-1.445 8.326-1.956-2.82.441-5.626.996-8.385 1.751a41.813 41.813 0 0 0-4.082 1.331c-.668.263-1.33.546-1.968.888-.63.353-1.28.687-1.773 1.327a.177.177 0 0 0-.009.205l.003.005zm44.544 34.893a48.112 48.112 0 0 0-2.15-.138 44.202 44.202 0 0 0-2.152-.028c-.67.005-1.34.07-2.005.127-.095.008-.146.025-.147.092-.001.073.073.103.134.114.097.016.199.018.296.022.12.007.238.01.356.016a32.63 32.63 0 0 0 1.358.018h.119c.476-.004.954 0 1.431.006.236.003.473.006.71.007.475.003.95 0 1.425.013.207.005.418.022.624.011.106-.005.17-.04.167-.12-.006-.113-.07-.133-.166-.14m19.738-8.509a.17.17 0 0 0 .21-.114c.233-.784.444-1.576.632-2.351.024-.097.052-.193.08-.289.084-.296.173-.602.183-.929l-.002-.096c-.004-.38-.01-.773-.155-1.19a.226.226 0 0 0-.062-.082.173.173 0 0 0-.242.035c-.266.354-.39.727-.509 1.088l-.033.097c-.087.308-.096.626-.105.933-.003.1-.004.201-.01.3a47.449 47.449 0 0 0-.108 2.428.167.167 0 0 0 .121.17M396.628 38.3c-1.575-3.86-4.66-7.329-8.692-9.767-.003 0-.004-.002-.007-.003-.079-.04-.179-.012-.218.06a.16.16 0 0 0-.02.124c.009.042.038.08.07.1 1.693 1.166 3.27 2.643 4.686 4.39 1.407 1.722 2.458 3.57 3.127 5.495.65 1.798.912 3.812.798 6.164.016.945-.104 1.87-.281 2.8a13.554 13.554 0 0 1-1.205 1.474c.531-1.623.669-3.507.432-5.92-.451-3.951-2.502-7.672-5.623-10.208l-.01-.006a.17.17 0 0 0-.225.033.16.16 0 0 0 .02.226c1.349 1.276 2.49 2.877 3.3 4.632.862 1.84 1.339 3.664 1.416 5.421.056 1.792-.16 3.659-.642 5.56-.074.547-.242 1.06-.418 1.603l-.09.28c-.37.276-.756.532-1.149.776.018-.043.042-.083.06-.127.732-1.57 1.089-3.448 1.123-5.912-.006-3.976-1.628-7.903-4.447-10.773l-.006-.007a.174.174 0 0 0-.231.007c-.063.065-.061.17-.004.227 1.197 1.418 2.151 3.136 2.762 4.972.65 1.924.92 3.791.8 5.548-.145 1.785-.567 3.615-1.258 5.45-.136.536-.36 1.027-.597 1.547a.773.773 0 0 1-.029.065c-.467.223-.946.43-1.431.618.078-.157.163-.312.235-.472.76-1.685 1.045-3.52 1.208-4.932.253-2.594.112-6.388-1.988-9.728l-.005-.01a.174.174 0 0 0-.225-.04.166.166 0 0 0-.071.107.155.155 0 0 0 .018.112c1.658 3.343 1.543 6.96 1.155 9.404-.305 1.575-.838 3.108-1.354 4.591a23.263 23.263 0 0 1-.544 1.511c-.663.208-1.334.394-2.012.551.325-.53.638-1.09.929-1.709.658-1.387.927-2.884 1.165-4.426.428-3.34.051-6.422-1.09-8.916 0-.004-.003-.006-.005-.01-.043-.074-.142-.108-.215-.07-.083.039-.118.135-.085.208.822 2.499.919 5.392.287 8.592-.335 1.377-.818 2.727-1.283 4.032l-.032.088c-.225.727-.496 1.417-.783 2.149l-.125.322c-.53.1-1.069.171-1.606.246.448-.665.863-1.396 1.249-2.215.658-1.387.927-2.884 1.166-4.426.427-3.34.05-6.422-1.091-8.916l-.005-.01c-.042-.074-.142-.108-.216-.07-.082.039-.117.135-.084.208.821 2.499.918 5.392.287 8.592-.335 1.377-.817 2.727-1.283 4.032l-.032.088c-.225.727-.497 1.417-.783 2.149-.092.236-.186.477-.278.718-.551.063-1.104.101-1.66.14a16.343 16.343 0 0 0 1.456-2.505c.658-1.387.926-2.884 1.166-4.426.427-3.337.05-6.42-1.09-8.916-.001-.004-.004-.006-.006-.01-.044-.074-.142-.108-.216-.07-.083.039-.118.135-.085.208.823 2.499.92 5.392.288 8.592-.335 1.377-.817 2.727-1.283 4.032l-.032.088c-.226.727-.497 1.417-.782 2.149-.12.302-.239.609-.357.92-.549.025-1.1.03-1.648.032a16.13 16.13 0 0 0 1.522-2.599c.658-1.387.926-2.884 1.165-4.426.426-3.337.05-6.42-1.09-8.916 0-.004-.003-.006-.005-.01-.044-.074-.141-.108-.215-.07a.163.163 0 0 0-.087.094.15.15 0 0 0 .001.114c.823 2.5.918 5.392.286 8.592-.335 1.377-.816 2.727-1.282 4.032l-.032.088c-.224.727-.495 1.417-.782 2.148-.123.314-.248.633-.37.958-.531-.01-1.062-.038-1.591-.066a16.207 16.207 0 0 0 1.478-2.538c.659-1.389.937-2.947 1.165-4.426.428-3.338.051-6.421-1.09-8.916 0-.003-.002-.004-.003-.007a.168.168 0 0 0-.217-.074.167.167 0 0 0-.086.095.145.145 0 0 0 .001.114c.822 2.5.919 5.392.287 8.592-.336 1.377-.816 2.727-1.284 4.032l-.03.088c-.225.727-.497 1.417-.784 2.148-.11.278-.22.563-.328.85l-1.513-.125c.49-.707.942-1.486 1.359-2.37.658-1.39.937-2.948 1.166-4.427.427-3.338.05-6.421-1.09-8.916 0-.004-.004-.006-.006-.01a.17.17 0 0 0-.215-.07.167.167 0 0 0-.086.094.16.16 0 0 0 0 .114c.822 2.5.92 5.392.287 8.592-.336 1.385-.821 2.74-1.29 4.053l-.024.067c-.226.728-.497 1.42-.785 2.153l-.249.644-1.45-.12c.437-.655.84-1.374 1.22-2.175.657-1.389.935-2.947 1.165-4.426.427-3.338.05-6.421-1.091-8.916l-.005-.01a.17.17 0 0 0-.216-.07.157.157 0 0 0-.084.094.15.15 0 0 0 0 .114c.822 2.5.917 5.392.286 8.592-.336 1.385-.821 2.74-1.29 4.053l-.024.067c-.225.728-.498 1.42-.784 2.153-.058.144-.114.295-.172.442l-1.399-.116a17.29 17.29 0 0 0 1.09-1.977c.658-1.389.936-2.947 1.166-4.426.427-3.338.05-6.421-1.091-8.916-.001-.004-.004-.006-.006-.01-.046-.076-.14-.107-.214-.07a.166.166 0 0 0-.086.094.154.154 0 0 0 0 .114c.823 2.5.918 5.392.288 8.592-.337 1.385-.823 2.74-1.292 4.053l-.023.067c-.226.728-.497 1.42-.784 2.153l-.094.24-1.358-.112c.34-.55.667-1.134.97-1.779.659-1.389.937-2.947 1.168-4.426.426-3.338.049-6.421-1.092-8.916-.001-.004-.004-.006-.006-.01a.169.169 0 0 0-.215-.07.167.167 0 0 0-.086.094.15.15 0 0 0 .001.114c.823 2.5.919 5.392.288 8.592-.338 1.385-.822 2.74-1.292 4.053l-.024.067c-.225.728-.496 1.42-.785 2.153-.004.012-.008.026-.014.038l-.592-.049-.725-.06c.297-.493.583-1.011.852-1.58.658-1.389.936-2.947 1.166-4.426.427-3.338.05-6.421-1.09-8.916l-.006-.01a.17.17 0 0 0-.216-.07.164.164 0 0 0-.086.094.154.154 0 0 0 .001.114c.823 2.498.918 5.39.286 8.592-.336 1.385-.821 2.74-1.29 4.053l-.024.067a28.743 28.743 0 0 1-.722 1.99l-1.275-.105c.254-.437.5-.89.733-1.383.658-1.389.936-2.947 1.165-4.426.427-3.338.051-6.421-1.09-8.916l-.006-.01a.17.17 0 0 0-.214-.07.161.161 0 0 0-.086.094.145.145 0 0 0 0 .114c.823 2.498.918 5.39.286 8.592-.336 1.385-.821 2.74-1.29 4.053l-.024.067c-.187.604-.41 1.188-.644 1.788l-1.233-.102c.211-.376.417-.768.612-1.184.66-1.392.937-2.948 1.165-4.426.428-3.337.052-6.42-1.09-8.916a.03.03 0 0 0-.005-.01c-.046-.076-.141-.107-.215-.07a.169.169 0 0 0-.086.094.15.15 0 0 0 .002.114c.82 2.5.917 5.392.286 8.592-.337 1.385-.822 2.74-1.29 4.053l-.025.067a24.835 24.835 0 0 1-.566 1.586l-1.202-.1c.173-.315.34-.64.502-.984.66-1.39.937-2.948 1.167-4.426.428-3.337.05-6.42-1.091-8.916a.028.028 0 0 0-.004-.01.172.172 0 0 0-.219-.07c-.082.04-.116.139-.083.208.822 2.5.918 5.392.288 8.592-.337 1.385-.822 2.74-1.291 4.053l-.024.067c-.146.468-.313.925-.488 1.384l-1.178-.097c.135-.257.271-.511.4-.785.66-1.39.938-2.948 1.167-4.426.426-3.337.05-6.42-1.09-8.916-.001-.004-.004-.006-.006-.01a.172.172 0 0 0-.218-.07c-.082.04-.116.139-.083.208.823 2.5.918 5.392.287 8.592-.337 1.385-.821 2.74-1.29 4.053l-.024.067c-.124.4-.264.79-.41 1.182l-1.154-.095c.1-.194.202-.38.298-.585.66-1.39.937-2.948 1.166-4.426.427-3.337.051-6.42-1.09-8.916 0-.004-.004-.006-.005-.01a.17.17 0 0 0-.216-.07.165.165 0 0 0-.084.208c.822 2.5.917 5.392.285 8.592-.336 1.385-.82 2.74-1.29 4.053l-.023.067c-.103.331-.219.656-.336.98l-1.127-.093c.066-.13.135-.25.197-.385.66-1.39.937-2.948 1.165-4.426.429-3.337.052-6.42-1.09-8.916 0-.004-.003-.006-.005-.01a.17.17 0 0 0-.215-.07.169.169 0 0 0-.086.093.152.152 0 0 0 .002.115c.821 2.5.917 5.392.286 8.592-.337 1.385-.821 2.74-1.29 4.053l-.025.067c-.082.264-.174.52-.267.778l-1.093-.091c.031-.063.064-.12.095-.185.66-1.39.937-2.948 1.166-4.426.428-3.337.05-6.42-1.09-8.916l-.005-.01a.172.172 0 0 0-.217-.07.17.17 0 0 0-.086.093.172.172 0 0 0 .002.115c.821 2.5.918 5.392.287 8.592-.336 1.385-.822 2.74-1.29 4.053l-.025.067c-.06.195-.13.384-.197.575l-1.062-.088c.655-1.387.932-2.939 1.16-4.41.428-3.338.05-6.421-1.09-8.917-.001-.004-.004-.006-.006-.01a.17.17 0 0 0-.216-.07.165.165 0 0 0-.084.208c.822 2.5.918 5.392.287 8.592-.337 1.385-.822 2.74-1.291 4.053l-.024.067c-.04.126-.086.248-.128.373l-1.05-.088c.59-1.336.86-2.805 1.079-4.209.427-3.337.05-6.42-1.09-8.916-.001-.004-.004-.006-.006-.01a.17.17 0 0 0-.215-.07.164.164 0 0 0-.087.093.152.152 0 0 0 .002.115c.822 2.5.917 5.392.288 8.592-.338 1.385-.823 2.74-1.293 4.053l-.023.067c-.019.058-.04.113-.058.17l-1.04-.086c.53-1.282.792-2.674.998-4.008.43-3.337.051-6.42-1.09-8.916 0-.004-.004-.006-.005-.01a.17.17 0 0 0-.215-.07.167.167 0 0 0-.087.093.156.156 0 0 0 .002.115c.822 2.5.918 5.392.286 8.592-.337 1.385-.821 2.74-1.29 4.053l-.013.034-1.03-.084c.477-1.227.724-2.543.92-3.807.427-3.337.051-6.42-1.09-8.916l-.006-.01a.172.172 0 0 0-.216-.07.165.165 0 0 0-.084.208c.82 2.5.917 5.392.286 8.592-.323 1.326-.78 2.626-1.232 3.886l-1.02-.085c.426-1.169.653-2.41.838-3.605.428-3.337.052-6.42-1.09-8.916l-.005-.01a.172.172 0 0 0-.217-.07.16.16 0 0 0-.084.093.152.152 0 0 0 .002.115c.82 2.5.916 5.392.285 8.592-.305 1.255-.732 2.486-1.159 3.683l-1.01-.083c.376-1.11.581-2.279.755-3.404.428-3.337.052-6.42-1.09-8.916a.03.03 0 0 0-.005-.01c-.044-.074-.142-.108-.216-.07a.162.162 0 0 0-.086.093.152.152 0 0 0 .001.115c.822 2.5.918 5.392.288 8.592-.289 1.185-.686 2.347-1.09 3.48l-1.019-.084c.336-1.048.53-2.143.695-3.2.426-3.337.05-6.42-1.092-8.916 0-.004-.003-.006-.004-.01-.045-.074-.143-.108-.217-.07-.082.039-.118.135-.085.208.823 2.499.919 5.392.288 8.592-.27 1.115-.638 2.209-1.016 3.278l-1.034-.085c.298-.986.483-2.007.636-2.997.427-3.337.051-6.42-1.09-8.916 0-.004-.004-.006-.005-.01-.044-.074-.142-.108-.217-.07-.082.039-.118.135-.085.208.824 2.499.919 5.392.287 8.592-.253 1.044-.591 2.071-.944 3.076l-1.046-.086c.26-.924.434-1.872.577-2.794.427-3.337.051-6.42-1.091-8.916 0-.004-.003-.006-.005-.01-.043-.074-.14-.108-.215-.07-.083.039-.118.135-.085.208.822 2.499.917 5.392.286 8.592-.236.974-.548 1.932-.873 2.874l-.942-.079-.117-.01c.229-.858.387-1.735.518-2.589.429-3.337.05-6.42-1.09-8.916 0-.004-.004-.006-.005-.01-.043-.074-.141-.108-.216-.07-.083.039-.117.135-.084.208.821 2.499.918 5.392.287 8.592-.22.904-.505 1.795-.807 2.67l-1.067-.087c.195-.778.333-1.575.46-2.387.427-3.337.05-6.42-1.091-8.916 0-.004-.003-.006-.005-.01-.042-.074-.141-.108-.216-.07-.083.039-.119.135-.085.208.822 2.499.919 5.392.288 8.592a29.26 29.26 0 0 1-.738 2.468l-1.084-.09c.168-.712.293-1.44.407-2.182.428-3.337.051-6.42-1.09-8.916 0-.004-.003-.006-.005-.01-.044-.074-.142-.108-.216-.07-.083.039-.119.135-.085.208.823 2.499.918 5.392.288 8.592-.187.765-.42 1.52-.67 2.265l-1.11-.091a29.44 29.44 0 0 0 .364-1.978c.427-3.34.051-6.422-1.089-8.916 0-.004-.004-.006-.005-.01-.044-.074-.142-.108-.215-.07-.083.039-.119.135-.086.208.822 2.499.918 5.392.287 8.592a27.47 27.47 0 0 1-.599 2.064l-1.136-.095c.123-.583.228-1.172.321-1.773.427-3.34.05-6.422-1.09-8.916l-.006-.01c-.043-.074-.141-.108-.215-.07-.082.039-.118.135-.085.208.821 2.499.918 5.392.287 8.592a26.181 26.181 0 0 1-.536 1.86l-1.157-.095c.104-.517.197-1.039.279-1.569.427-3.34.05-6.422-1.09-8.916l-.005-.01c-.044-.074-.142-.108-.217-.07-.083.039-.118.135-.085.208.822 2.499.92 5.392.288 8.592-.136.557-.299 1.11-.472 1.657l-1.178-.097c.086-.45.164-.904.236-1.364.427-3.337.05-6.42-1.09-8.916a.03.03 0 0 0-.005-.01c-.044-.074-.141-.108-.217-.07-.082.039-.119.135-.085.208.823 2.499.918 5.392.288 8.592-.119.489-.26.973-.41 1.454l-1.198-.099c.07-.383.133-.77.193-1.159.427-3.337.05-6.42-1.09-8.916 0-.004-.003-.006-.004-.01-.045-.074-.142-.108-.217-.07-.082.039-.118.135-.085.208.823 2.499.919 5.392.288 8.592-.102.42-.222.837-.347 1.252l-1.225-.102c.055-.316.108-.633.158-.954.427-3.337.05-6.42-1.09-8.916-.002-.004-.005-.006-.006-.01-.043-.074-.14-.108-.216-.07a.167.167 0 0 0-.086.094.154.154 0 0 0 0 .114c.823 2.5.92 5.392.288 8.592-.086.35-.182.7-.283 1.048l-1.255-.104c.042-.25.086-.5.125-.748.426-3.338.05-6.421-1.091-8.916a.17.17 0 0 0-.221-.081.164.164 0 0 0-.086.095.154.154 0 0 0 0 .114c.823 2.5.92 5.392.287 8.592-.069.283-.146.564-.227.844l-1.277-.105c.03-.18.064-.364.09-.543.428-3.338.052-6.421-1.09-8.916l-.005-.01a.166.166 0 1 0-.3.137c.822 2.5.918 5.393.286 8.593-.052.214-.113.427-.172.64l-1.297-.106c.018-.112.039-.226.056-.338.427-3.338.05-6.421-1.091-8.916l-.005-.01c-.045-.076-.142-.107-.215-.07a.169.169 0 0 0-.087.094c-.015.042-.013.087.002.114.822 2.5.919 5.392.287 8.592-.036.146-.08.291-.118.437l-1.318-.109c.006-.043.016-.088.022-.132.427-3.338.05-6.421-1.092-8.916 0-.004-.002-.006-.003-.01-.047-.076-.143-.107-.216-.07a.166.166 0 0 0-.087.094.16.16 0 0 0 .001.114c.823 2.5.92 5.392.287 8.592-.02.077-.043.155-.063.233l-1.343-.11c.412-3.31.035-6.366-1.098-8.843 0-.004-.004-.006-.006-.01-.046-.076-.142-.107-.214-.07a.161.161 0 0 0-.086.094.15.15 0 0 0 0 .114c.823 2.5.919 5.392.286 8.592l-.007.03-1.378-.114c.372-3.229-.01-6.211-1.119-8.636 0-.004-.003-.006-.005-.01a.17.17 0 0 0-.215-.07.164.164 0 0 0-.085.094.145.145 0 0 0 0 .114c.807 2.453.91 5.287.317 8.417l-1.125-.093c.07-.78.362-4.289.362-8.038a95.394 95.394 0 0 0-.373-8.141c0-.27-.047-.527-.114-.776l82.066-6.321 3.313-.238 5.253-.374a44.867 44.867 0 0 1 5.169.12c3.433.28 6.847.996 9.944 2.391 3.077 1.391 5.813 3.584 7.33 6.532 1.528 2.924 1.839 6.45 1.267 9.718-.025.144-.066.284-.098.426-.096.46-.218.91-.365 1.351.108-1.924-.282-3.981-1.146-5.994zM281.852 48.933c-.049.029-.1.051-.152.076-.608.287-1.376.318-1.963-.12l-.027-.034c-.026-.028-.052-.056-.075-.088a1.621 1.621 0 0 1-.289-.595 1.75 1.75 0 0 1-.032-.199l.048-.714c.069-1.087.14-2.399.19-3.84.064-1.33.113-2.726.113-3.813 0-1.086-.05-2.482-.114-3.81a124.132 124.132 0 0 0-.235-4.526 1.88 1.88 0 0 1 .04-.23c.021-.077.04-.154.07-.225a1.664 1.664 0 0 1 .291-.46 1.69 1.69 0 0 1 .722-.492c.176-.062.363-.103.56-.103.115 0 .227.013.334.033.178.037.341.106.494.194a1.734 1.734 0 0 1 .724.806c.096.222.154.469.155.734a94.75 94.75 0 0 1 .37 8.08c0 .257-.002.514-.004.769 0 .115-.003.227-.004.341l-.005.331-.013.55-.02.719c-.013.343-.025.68-.039 1.004a105.199 105.199 0 0 1-.271 4.215l-.018.212c0 .041-.01.08-.012.12a1.307 1.307 0 0 1-.241.542 1.55 1.55 0 0 1-.176.206c-.121.12-.262.228-.42.317zm-3.544-8.092l-.02.382-.018.374-.02.386a481.81 481.81 0 0 1-.085 1.59 203.772 203.772 0 0 1-.233 3.569c-.024.316-.048.622-.074.915l-.019.217-.032.357-.007.078c-.015.149-.028.294-.043.433a32.043 32.043 0 0 1-.128 1.056 9.42 9.42 0 0 1-.11.632c-.309 1.37-2.313 2.124-3.675 1.223a2.358 2.358 0 0 1-.855-1.787l.028-.4.057-.866c.004-.068.01-.145.013-.217.01-.14.018-.282.027-.435l.004-.07.024-.366.012-.217.025-.422.03-.522c.064-1.145.13-2.442.18-3.712.009-.199.016-.395.023-.591l.015-.434c.028-.869.044-1.694.044-2.408 0-1.548-.08-3.616-.175-5.516-.037-.746-.077-1.464-.116-2.116l-.026-.457c-.005-.073-.01-.147-.013-.217l-.017-.277-.01-.158-.01-.16-.017-.276-.014-.218a151.44 151.44 0 0 0-.082-1.22 2.424 2.424 0 0 1 2.42-2.421c1.333 0 2.418 1.086 2.42 2.484.002.011.03.299.068.786l.019.217c.005.079.013.164.019.25l.014.185.014.185c.005.082.011.161.019.25l.015.217.011.175a128.215 128.215 0 0 1 .24 4.606c.039 1.168.066 2.413.066 3.681 0 .415-.004.826-.008 1.235zm-6.552 7.202c-.014.044-.036.087-.056.13-.01.021-.016.043-.027.063a1.571 1.571 0 0 1-.32.413 1.982 1.982 0 0 1-.255.2c-.62.415-1.525.548-2.203.076a1.692 1.692 0 0 1-.208-.263 1.591 1.591 0 0 1-.128-.228 1.647 1.647 0 0 1-.117-.446l-.007-.06c-.003-.045-.013-.089-.013-.135l.016-.242.015-.218c.016-.246.038-.57.062-.969a176.215 176.215 0 0 0 .14-2.465c.074-1.47.137-3.075.137-4.293 0-1.482-.093-3.54-.186-5.216a221.427 221.427 0 0 0-.169-2.728l-.013-.197c0-.036.007-.07.01-.105.002-.046.007-.092.014-.136.006-.046.011-.092.021-.137a1.661 1.661 0 0 1 .226-.538 1.702 1.702 0 0 1 1.43-.789c.504 0 .952.224 1.264.581a1.633 1.633 0 0 1 .304.48c.02.048.03.1.046.15.016.048.033.097.045.148.02.09.03.186.036.282.003.042.012.082.013.126l.008.091.034.403c.04.663.08 1.394.117 2.153.093 1.879.174 3.911.174 5.432 0 1.968-.133 4.794-.26 7.039l-.032.575-.032.373c-.006.085-.012.145-.013.155v.008l-.013.054c-.019.087-.04.166-.06.233zm-4.589-8.723c.12.367.22.746.31 1.13-.036 1.861-.17 4.273-.264 5.807l-1.024-.085c.09-2.589-.324-4.976-1.24-6.98l-.005-.01a.171.171 0 0 0-.216-.07.162.162 0 0 0-.086.093.152.152 0 0 0 .001.115c.662 2.015.844 4.29.563 6.77l-1.532-.125c.06-2.51-.357-4.822-1.249-6.773 0-.004-.003-.006-.005-.01a.172.172 0 0 0-.216-.07.169.169 0 0 0-.086.093.167.167 0 0 0 .002.115c.644 1.96.836 4.163.587 6.564l-1.548-.127c.034-2.43-.388-4.667-1.257-6.565 0-.004-.003-.006-.005-.01a.172.172 0 0 0-.216-.07.164.164 0 0 0-.085.093.152.152 0 0 0 .002.115c.625 1.904.826 4.037.61 6.359l-1.57-.13c.007-2.35-.416-4.514-1.26-6.357 0-.004-.002-.006-.004-.01a.17.17 0 0 0-.216-.07.165.165 0 0 0-.085.093.157.157 0 0 0 0 .115c.607 1.847.816 3.91.63 6.151l-1.593-.13c-.018-2.269-.438-4.36-1.254-6.149l-.005-.01a.17.17 0 0 0-.216-.07.17.17 0 0 0-.087.093.161.161 0 0 0 .002.115c.59 1.79.798 3.783.643 5.945l-1.611-.133c-.042-2.187-.457-4.207-1.249-5.94 0-.004-.004-.006-.005-.01-.044-.074-.142-.108-.216-.07a.167.167 0 0 0-.087.093.167.167 0 0 0 .002.115c.57 1.732.782 3.656.655 5.737l-1.628-.135c-.064-2.105-.477-4.052-1.244-5.73 0-.004-.004-.006-.006-.01-.043-.074-.14-.108-.215-.07-.082.039-.12.135-.085.208.551 1.674.768 3.529.667 5.53l-1.644-.136c-.086-2.027-.499-3.9-1.24-5.522-.001-.004-.004-.006-.006-.01-.043-.074-.141-.108-.216-.07-.082.039-.117.135-.084.208.531 1.616.755 3.4.679 5.323l-1.661-.137c-.105-1.948-.52-3.747-1.235-5.314l-.006-.01c-.042-.074-.141-.108-.216-.07-.082.039-.118.135-.085.208.513 1.558.743 3.271.691 5.116l-1.239-.103a5.93 5.93 0 0 1-.464-.199c-.136-1.804-.534-3.476-1.205-4.942 0-.004-.002-.006-.004-.01-.045-.074-.143-.108-.217-.07-.083.039-.119.135-.086.208.44 1.335.665 2.785.69 4.333-1.183-.863-1.505-1.99-1.489-2.99.005-.335.047-.655.107-.946l.163-.37a86.583 86.583 0 0 0 2.212-5.555l23.534-1.812c.035.521.093 1.43.151 2.492.085 1.528.169 3.35.183 4.75l-.012-.03-.005-.01a.17.17 0 0 0-.216-.07.16.16 0 0 0-.086.093.147.147 0 0 0 .002.115zM148.642 10.044l-.005.001a.157.157 0 0 0-.147.17c.008.087.088.152.161.143 1.32-.02 2.49-.04 3.586-.056 3.221-.053 5.765-.095 9.602-.125 5.21.044 10.41.218 15.457.518 11.198.653 21.23 1.845 30.67 3.64 5.31 1.011 10.34 2.26 14.955 3.711 2.684.865 5.035 1.743 7.188 2.685 1.738.76 3.218 1.508 4.519 2.288.758.457 1.457.923 2.11 1.41.926.644 1.814 1.471 2.71 2.528.698.884 1.147 1.84 1.344 2.788-.014.05-.033.1-.048.15-.205.16-.413.318-.625.474-.067-.221-.126-.443-.215-.656-.521-1.296-1.464-2.344-2.32-3.202l-.716-.663c-.162-.14-.332-.268-.501-.398a30.602 30.602 0 0 1-.257-.201c-.415-.343-.865-.642-1.302-.93l-.281-.187a31.676 31.676 0 0 0-1.904-1.113c-1.442-.78-3.054-1.524-4.947-2.281a77.904 77.904 0 0 0-7.201-2.446c-4.396-1.253-9.098-2.292-14.801-3.273-9.357-1.57-19.203-2.551-30.1-3-4.441-.161-9.713-.307-15.122-.174l-15.105.51h-.008a.157.157 0 0 0-.14.163.152.152 0 0 0 .158.141l15.102-.334c5.402-.072 10.656.135 15.086.347 10.859.541 20.663 1.605 29.972 3.25 5.574 1.02 10.37 2.135 14.658 3.407a77.044 77.044 0 0 1 7.099 2.416c1.065.427 2.038.849 2.94 1.274 1.39.657 2.61 1.321 3.728 2.032 1.933 1.237 4.048 2.804 5.071 5.045.122.278.219.561.293.848-.319.218-.64.432-.965.642-1.122-2.443-3.216-4.088-5.139-5.372-1.758-1.134-3.765-2.156-6.27-3.195-.159-.066-.313-.132-.476-.198a74.702 74.702 0 0 0-7.103-2.44c-4.211-1.224-8.852-2.262-14.608-3.267-9.14-1.564-18.861-2.555-29.718-3.03-5.556-.22-10.44-.292-14.932-.22l-9.304.31h-.004a.155.155 0 0 0-.143.168c.01.084.091.146.156.138l9.3-.136c4.476-.02 9.355.11 14.897.394 10.817.568 20.495 1.639 29.589 3.276 5.706 1.063 10.302 2.145 14.462 3.404 1.655.479 3.26 1.026 4.836 1.601.726.266 1.462.525 2.165.807 2.664 1.084 4.75 2.133 6.562 3.302 1.61 1.031 3.861 2.667 4.908 4.98l-.66.408c-1.18-1.848-2.938-3.2-4.58-4.296-1.866-1.196-4.006-2.264-6.73-3.363a75.38 75.38 0 0 0-5.224-1.838c-.618-.194-1.235-.404-1.854-.582-4.246-1.223-8.871-2.252-14.556-3.24-9.154-1.55-18.838-2.529-29.607-2.987-5.81-.22-10.536-.283-14.876-.197l-14.86.49h-.006a.155.155 0 0 0-.142.164c.004.04.023.078.055.104a.152.152 0 0 0 .104.037l14.854-.316c4.328-.036 9.045.083 14.84.372 10.733.55 20.376 1.61 29.48 3.235 4.946.915 9.077 1.854 12.85 2.92.527.15 1.048.301 1.562.455 2.35.676 4.696 1.48 6.976 2.39 2.66 1.073 4.739 2.113 6.547 3.272 1.467.938 3.194 2.198 4.323 3.892-.185.11-.37.223-.554.332l-.788.476c-.476-.72-1.084-1.42-1.866-2.114-1.073-.988-2.26-1.756-3.279-2.377-2.045-1.211-4.346-2.28-7.24-3.364-2.3-.85-4.781-1.619-7.584-2.35-.819-.216-1.657-.41-2.49-.612a123.43 123.43 0 0 0-5.234-1.153c-9.436-1.862-19.707-3.043-31.404-3.61a704.29 704.29 0 0 1-2.04-.097c-2.897-.146-5.927-.201-9.536-.18a199.7 199.7 0 0 1-2.377-.002c-2.432-.01-4.947-.021-7.395.223h-.001l-.032.003a.109.109 0 0 0-.097.116c.003.058.047.106.11.102a33.26 33.26 0 0 1 1.227-.004c.276 0 .55.004.824.002l.664-.005c2.944-.023 5.991-.046 8.98.067 2.963.112 6.32.239 9.64.427 11.655.663 21.879 1.924 31.254 3.855.386.079.768.173 1.152.256 2.193.474 4.376.993 6.496 1.576 2.765.753 5.207 1.537 7.467 2.398 2.829 1.062 5.073 2.106 7.06 3.283.916.559 2.097 1.32 3.105 2.253a9.756 9.756 0 0 1 1.658 1.863c-.283.17-.568.332-.854.494-.362-.428-.764-.85-1.236-1.263-.334-.328-.706-.607-1.067-.877a20.969 20.969 0 0 1-.516-.394c-.16-.104-.318-.21-.476-.315-.39-.26-.794-.53-1.206-.767-2.033-1.197-4.318-2.256-7.196-3.33-2.321-.852-4.785-1.613-7.535-2.327a121.583 121.583 0 0 0-7.673-1.747c-1.54-.303-3.11-.58-4.696-.847-8.103-1.36-16.815-2.26-26.491-2.72-10.572-.465-21.124-.354-31.372.33a.147.147 0 0 0-.103.051.154.154 0 0 0-.039.107c.002.04.02.078.05.106.031.028.087.044.111.04 10.24-.569 20.776-.562 31.32.019 7.55.422 14.503 1.108 21.039 2.067 3.44.506 6.772 1.082 10 1.744 5.981 1.253 10.75 2.584 15.014 4.19 2.81 1.05 5.041 2.083 7.018 3.251.389.222.766.475 1.131.72.16.107.32.214.473.313.164.13.331.256.5.382.336.251.683.51.985.81.376.328.7.665.999 1.003-.43.233-.866.452-1.302.672a14.93 14.93 0 0 0-1.876-1.73c-1.732-1.3-3.787-2.447-6.466-3.607-2.116-.906-4.378-1.719-6.919-2.487-4.226-1.255-8.898-2.314-14.285-3.239-5.063-.863-10.321-1.529-15.851-2.022a255.26 255.26 0 0 0-13.232-.825c-5.21-.175-9.99-.21-14.611-.104-4.547.109-9.318.342-14.588.711a.151.151 0 0 0-.138.16c.002.023.02.04.032.058.028.046.072.081.125.078.49-.028.956-.05 1.438-.078 4.692-.261 9.018-.421 13.14-.475 4.614-.056 9.383.03 14.578.26 1.387.062 2.753.135 4.102.215 8.96.536 17.131 1.473 24.86 2.856 5.338.972 9.963 2.07 14.143 3.357 2.502.759 4.731 1.56 6.81 2.452 2.601 1.125 4.588 2.234 6.255 3.489.62.471 1.134.924 1.578 1.378-.365.174-.733.34-1.102.506-.358-.33-.742-.662-1.186-1.003-1.722-1.281-3.762-2.407-6.419-3.545-2.072-.88-4.315-1.678-6.859-2.443-4.162-1.227-8.791-2.267-14.15-3.181-8.885-1.499-18.31-2.407-28.811-2.776-5.209-.166-9.941-.191-14.47-.078-4.532.116-9.258.354-14.447.726a.143.143 0 0 0-.1.05.145.145 0 0 0-.037.105c.002.04.018.076.048.103a.15.15 0 0 0 .1.038h.005a311.72 311.72 0 0 1 14.44-.572c4.501-.065 9.223.012 14.438.234 10.48.456 19.864 1.437 28.688 3 5.307.96 9.891 2.04 14.012 3.302 2.536.767 4.746 1.557 6.753 2.41 2.578 1.105 4.553 2.196 6.209 3.428.289.217.554.428.802.638a54.75 54.75 0 0 1-1.616.662c-1.698-1.333-3.611-2.312-5.452-3.17-1.995-.907-4.232-1.748-6.844-2.573-4.199-1.275-8.837-2.344-14.181-3.268-9.008-1.534-18.46-2.444-28.902-2.782-9.92-.297-19.679-.06-29.01.705a.15.15 0 0 0-.136.16c.008.08.089.14.158.136 9.325-.663 19.068-.794 28.965-.39 10.407.42 19.82 1.403 28.778 3.002 5.298.974 9.887 2.08 14.032 3.387 2.572.813 4.771 1.641 6.725 2.53 1.53.713 3.224 1.576 4.748 2.68-.668.247-1.34.483-2.017.706-1.241-.799-2.546-1.462-3.818-2.064-1.966-.91-4.176-1.754-6.758-2.582-4.113-1.27-8.7-2.344-14.021-3.28-8.905-1.534-18.258-2.438-28.596-2.762-9.841-.285-19.497-.028-28.698.767a.15.15 0 0 0-.136.158.143.143 0 0 0 .16.137c9.192-.693 18.833-.845 28.653-.453 10.301.409 19.614 1.385 28.467 2.985 5.273.984 9.81 2.095 13.871 3.396 2.54.816 4.713 1.647 6.638 2.539.956.453 1.98.966 2.984 1.56-.76.225-1.526.428-2.292.632a59.93 59.93 0 0 0-3.449-1.504c-4.297-1.693-9.111-3.115-14.715-4.343-9.376-2.04-19.312-3.255-30.375-3.711-10.486-.404-20.772-.093-30.571.923a.14.14 0 0 0-.097.055.176.176 0 0 0-.03.101.146.146 0 0 0 .05.098.226.226 0 0 0 .106.033c9.787-.927 20.054-1.143 30.517-.645 11.023.531 20.912 1.807 30.231 3.902 5.55 1.268 10.309 2.717 14.547 4.43.847.34 1.64.682 2.408 1.028-.854.213-1.713.408-2.572.598a62.98 62.98 0 0 0-2.853-1.148c-4.195-1.52-8.846-2.794-14.218-3.895-9.058-1.829-18.615-2.906-29.218-3.292-9.013-.306-9.992-.263-17.598.08l-2.152.098h-.006a.144.144 0 0 0-.128.155.144.144 0 0 0 .05.098.193.193 0 0 0 .1.033c1.128-.026 2.129-.05 3.031-.073 6.819-.169 8.048-.2 16.68.175 10.564.46 20.077 1.6 29.084 3.485 5.32 1.14 9.918 2.445 14.06 3.988.551.206 1.08.414 1.602.624-.782.16-1.564.32-2.351.463a59.819 59.819 0 0 0-2.37-.874c-4.055-1.358-8.545-2.48-13.731-3.433-8.585-1.564-17.778-2.456-28.101-2.729-9.297-.205-12.882-.151-22.243.651h-.002a.145.145 0 0 0-.128.156.14.14 0 0 0 .052.098.202.202 0 0 0 .103.032c9.152-.617 12.68-.676 22.202-.37 10.287.347 19.437 1.304 27.975 2.924 5.136.995 9.578 2.149 13.578 3.53.304.103.588.21.88.317-1.272.215-2.55.417-3.829.608-3.724-1.163-7.789-2.133-12.392-2.955-8.42-1.505-17.417-2.348-27.498-2.581-9.453-.192-18.73.222-27.576 1.23h-.001a.144.144 0 0 0-.074.253.203.203 0 0 0 .106.032c8.84-.916 18.1-1.237 27.53-.948 10.045.307 19 1.215 27.373 2.777 3.832.722 7.283 1.544 10.475 2.493-1.428.202-2.86.397-4.292.587-3.512-1.037-7.381-1.868-12.178-2.612-7.808-1.174-15.922-1.758-24.808-1.787-8.65-.016-17.005.521-24.801 1.601a.144.144 0 0 0-.123.161c.01.08.091.132.161.124 7.791-.99 16.116-1.435 24.76-1.32 8.852.103 16.929.753 24.69 1.987 3.873.643 7.125 1.338 10.074 2.149l-3.76.54c-2.038-.44-4.238-.84-6.677-1.217-7.8-1.17-15.924-1.751-24.838-1.778h-.318c-8.568 0-16.813.544-24.514 1.618a.137.137 0 0 0-.093.055.193.193 0 0 0-.03.107c.01.079.095.133.162.123 7.792-.997 16.127-1.446 24.789-1.336 8.883.1 16.97.748 24.721 1.978 1.554.257 3.002.524 4.38.801a279.91 279.91 0 0 0-4.918.777c-3.02-.574-6.285-1.017-10.046-1.366-4.246-.386-8.597-.59-13.302-.626-8.458-.016-10.73-.022-19.682 1.109-.002 0-.005 0-.008.002a.145.145 0 0 0-.113.166.146.146 0 0 0 .06.093c.02.014.063.025.099.023 8.956-.925 11.08-.934 19.638-.827 4.687.072 9.02.31 13.243.728 2.92.294 5.53.644 7.96 1.064a80.951 80.951 0 0 0-13.388 3.708c-4.393 1.708-8.41 4.174-12.195 6.844-1.854 1.305-3.66 2.66-5.458 4.018-5.856-.247-11.048-.761-15.833-1.574-3.234-.555-5.81-1.162-8.11-1.91-1.274-.422-2.275-.827-3.154-1.268.206-.76.347-1.541.365-2.36.209-9.024-12.233-11.556-16.05-12.118-.722-.105-1.406-.222-2.095-.337l-.21-.034.02-.008c1.039-.427 2.149-.854 3.371-1.288a.144.144 0 0 0 .017-.264.196.196 0 0 0-.11-.009 71.801 71.801 0 0 0-3.97 1.41l-.089.034a95.43 95.43 0 0 1-3.195-.624c.07-.038.142-.074.212-.11 1.15-.604 2.308-1.135 4.002-1.741l.763-.268c.531-.19 1.067-.372 1.603-.552.264-.09.531-.178.796-.27.532-.182 1.062-.371 1.597-.544.233-.074.476-.141.702-.232.116-.046.195-.111.164-.19-.044-.105-.155-.107-.263-.078a68.87 68.87 0 0 0-4.855 1.533c-.747.267-1.487.552-2.21.866-.019.008-.028.02-.042.03a31.365 31.365 0 0 0-2.929 1.286l-.233.116a82.948 82.948 0 0 1-3.185-.765c.092-.05.194-.101.288-.152.286-.154.567-.307.875-.462 2.436-1.234 6.167-2.613 11.085-4.1a.145.145 0 0 0 .096-.175.143.143 0 0 0-.176-.1c-2.724.745-7.81 2.238-11.254 3.865-.52.25-1 .496-1.46.744-.1.055-.192.11-.29.165a71.322 71.322 0 0 1-2.364-.694c.079-.06.151-.12.231-.178 1.02-.75 2.203-1.467 3.664-2.211 3.442-1.756 7.14-2.971 9.976-3.834a.144.144 0 0 0 .098-.176.146.146 0 0 0-.178-.1c-2.875.794-6.628 1.922-10.148 3.601-1.697.825-3.035 1.625-4.186 2.484-.073.055-.149.108-.22.163a57.715 57.715 0 0 1-1.974-.68c.052-.049.101-.098.157-.148.371-.335.783-.67 1.238-1.001 1.263-.917 2.759-1.767 4.706-2.672 3.577-1.678 7.376-2.84 10.286-3.664a.147.147 0 0 0 .103-.178.145.145 0 0 0-.066-.092.141.141 0 0 0-.112-.016c-2.95.745-6.803 1.805-10.46 3.395-2.007.881-3.56 1.719-4.877 2.635-.62.432-1.157.865-1.635 1.306-.05.046-.102.09-.15.137a50.69 50.69 0 0 1-1.337-.533c.03-.036.062-.071.093-.106.6-.682 1.341-1.346 2.238-2.003 1.365-.995 2.969-1.909 5.047-2.877 3.35-1.576 5.577-2.398 9.53-3.52a.148.148 0 1 0 .036-.27.142.142 0 0 0-.112-.016c-3.787.967-6.086 1.665-9.705 3.25-2.138.945-3.797 1.848-5.219 2.84-1.066.754-1.92 1.508-2.6 2.293l-.076.092a45.697 45.697 0 0 1-1.42-.644l.021-.035c.75-1.117 1.88-2.174 3.49-3.265 1.5-1.017 3.25-1.951 5.346-2.856 3.216-1.416 6.787-2.616 11.582-3.89.08-.02.128-.1.109-.183a.154.154 0 0 0-.183-.111c-4.851 1.14-8.48 2.246-11.762 3.582-2.156.877-3.962 1.794-5.524 2.804-1.28.833-2.81 1.968-3.886 3.562-.37-.184-.74-.367-1.085-.55.771-1.448 2.094-2.784 4.15-4.176 1.605-1.082 3.464-2.073 5.686-3.029.732-.296 1.334-.543 1.853-.755 2.29-.938 2.98-1.22 6.3-2.272a.152.152 0 0 0-.081-.294c-4.244 1.177-4.244 1.177-8.324 2.718-2.283.929-4.202 1.903-5.866 2.978-1.52.99-3.37 2.38-4.504 4.39-.41-.231-.803-.462-1.179-.693.517-1.167 1.437-2.315 2.754-3.427 3.083-2.54 6.838-4.165 10.105-5.42a82.678 82.678 0 0 1 5.655-1.93 112.23 112.23 0 0 1 5.442-1.5.152.152 0 0 0-.067-.296 107.7 107.7 0 0 0-7.131 1.796 81.047 81.047 0 0 0-4.126 1.317c-3.354 1.206-7.221 2.783-10.458 5.326-1.433 1.149-2.445 2.328-3.065 3.57a24.806 24.806 0 0 1-.657-.444c.01-.036.014-.075.026-.11.449-1.548 1.6-3.07 3.422-4.523 3.016-2.338 6.53-3.91 9.704-5.136.317-.121.632-.244.941-.36 3.304-1.24 6.992-2.345 11.608-3.476.08-.021.13-.1.113-.178a.153.153 0 0 0-.064-.098c-.035-.022-.076-.03-.117-.022-4.665 1.004-8.403 2.008-11.76 3.16-.854.299-1.74.621-2.642.974-2.785 1.09-5.727 2.475-8.342 4.414-1.982 1.504-3.193 3.003-3.806 4.69-.329-.248-.64-.494-.933-.737.488-1.584 1.646-3.143 3.464-4.635 1.885-1.513 3.975-2.719 6.07-3.732 1.761-.85 3.524-1.565 5.174-2.189 4.044-1.53 5.967-2.168 10.115-3.185.08-.02.13-.1.114-.18a.156.156 0 0 0-.182-.118c-4.306.934-6.322 1.497-10.27 2.868-2.125.757-4.437 1.656-6.709 2.804-1.682.85-3.343 1.835-4.885 3.018-1.87 1.468-3.108 2.98-3.76 4.596-.07-.065-.15-.132-.219-.195-.09-.085-.168-.167-.255-.251.007-.073.002-.146.012-.22.13-1.016.607-2.068 1.416-3.126 1.294-1.638 3.019-2.9 4.495-3.822.417-.26.817-.498 1.18-.704 1.925-1.092 4.065-2.082 6.734-3.113 4.154-1.599 8.698-2.951 14.298-4.256a.16.16 0 0 0 .12-.184.155.155 0 0 0-.067-.099.15.15 0 0 0-.12-.023c-5.656 1.166-10.255 2.408-14.474 3.908-2.724.993-4.917 1.956-6.9 3.031-.74.406-1.56.883-2.392 1.44-1.27.853-2.565 1.9-3.645 3.21-.8.995-1.316 2.007-1.575 3.016-.08-.088-.168-.178-.244-.265a5.186 5.186 0 0 1 .008-1.054c.127-1.063.614-2.161 1.443-3.266.466-.595.988-1.138 1.533-1.64 1.462-1.348 3.102-2.368 4.34-3.08 1.985-1.134 4.204-2.164 6.984-3.242 4.706-1.817 13.083-3.957 18.828-5.237a.16.16 0 0 0 .118-.184.157.157 0 0 0-.183-.124c-6.03 1.087-14.38 3.235-19.008 4.891-2.835 1.04-5.106 2.045-7.149 3.161-1.622.897-3.61 2.114-5.296 3.814-.325.33-.644.669-.942 1.036-.946 1.197-1.516 2.42-1.713 3.635-.086-.118-.165-.232-.245-.346a5.79 5.79 0 0 0-.008-.374l-.004-.147c0-1.276.502-2.55 1.464-3.804 3.062-3.988 10.835-7.77 22.351-10.75 15.612-4.036 36.38-6.26 58.48-6.26 13.768 0 27.017.864 38.827 2.49 8.04 1.45 19.333 3.914 28.07 7.5a108.813 108.813 0 0 0-3.44-1.17c-4.761-1.454-9.743-2.641-15.229-3.631-9.559-1.74-19.714-2.866-31.044-3.443A311.488 311.488 0 0 0 162.6 7.4c-6.008.079-17.052.403-22.85.966a.16.16 0 0 0-.147.166c.006.086.088.156.167.147 6.396-.385 17.706-.769 22.83-.773 5.252.054 10.493.238 15.573.547 11.287.677 21.396 1.892 30.9 3.714 5.432 1.045 10.359 2.28 15.061 3.775a73.418 73.418 0 0 1 7.235 2.726c2.77 1.223 4.885 2.418 6.657 3.759.26.188.514.387.763.593.37.31.722.647 1.06.999.715 1.086 1.14 2.228 1.216 3.427a8.72 8.72 0 0 0-.744-1.171c-.937-1.154-1.88-2.065-2.881-2.788-.222-.164-.456-.31-.682-.467-4.275-2.97-9.181-4.703-13.49-6.086-4.738-1.43-9.685-2.596-15.123-3.567-9.495-1.714-19.574-2.816-30.814-3.368a310.2 310.2 0 0 0-15.494-.326c-3.243.065-5.629.14-8.155.22-1.52.048-3.124.1-5.041.152zm84.545 32.998c-1.598.83-3.252 1.688-4.904 2.48a131.705 131.705 0 0 1-7.099 3.094c-.77.32-1.565.627-2.332.922-.426.164-.851.328-1.274.494l-3.651 1.314a.108.108 0 0 0-.067.136l.025.083a.11.11 0 0 0 .136.071l3.716-1.151c.432-.148.867-.293 1.3-.439.784-.262 1.592-.533 2.382-.82a133.02 133.02 0 0 0 7.242-2.87c1.836-.799 3.636-1.596 5.368-2.486a22.43 22.43 0 0 1-.673 1.502l-.231.44-.046.023c-1.74.895-3.537 1.82-5.334 2.671-2.804 1.288-5.153 2.293-7.394 3.162-2.731 1.102-5.473 2.061-7.556 2.774a.109.109 0 0 0-.07.135l.027.084a.107.107 0 0 0 .102.076c.012 0 .021 0 .031-.004 2.117-.624 4.906-1.466 7.695-2.453 2.282-.801 4.677-1.735 7.537-2.938a124.097 124.097 0 0 0 4.08-1.829c-.3.536-.613 1.08-.937 1.633a143.45 143.45 0 0 1-4.208 2.058c-2.966 1.337-5.434 2.37-7.768 3.248-2.87 1.127-5.751 2.1-7.942 2.824a.108.108 0 0 0-.07.134l.024.084a.11.11 0 0 0 .104.078.1.1 0 0 0 .03-.005c2.223-.632 5.15-1.488 8.079-2.5 2.374-.813 4.887-1.774 7.91-3.024.932-.396 1.886-.811 2.842-1.238-.46.746-.945 1.504-1.45 2.27-.883.428-1.764.855-2.651 1.258-3.171 1.393-5.793 2.458-8.254 3.354-.89.352-1.81.67-2.702.978-.498.173-.997.345-1.492.524-.907.307-1.835.602-2.73.887-.507.161-1.01.323-1.517.486a.11.11 0 0 0-.07.134l.024.084c.012.048.057.079.104.079.01 0 .02-.002.03-.004.503-.142 1.009-.282 1.514-.422.915-.252 1.862-.514 2.792-.788.503-.16 1.009-.313 1.515-.466a66.766 66.766 0 0 0 2.752-.877c2.501-.827 5.168-1.822 8.394-3.128.17-.07.346-.147.52-.219a9.15 9.15 0 0 0-.42.62c-.236.386-.44.789-.628 1.2-.236.107-.47.218-.707.323-3.38 1.45-6.153 2.544-8.73 3.448-.943.362-1.917.685-2.861.997-.527.176-1.055.351-1.577.532a151.506 151.506 0 0 1-2.896.901c-.533.161-1.065.323-1.597.488a.109.109 0 0 0-.071.133l.005.02.018.064a.106.106 0 0 0 .132.076l.495-.131c.37-.1.743-.198 1.114-.296.461-.122.934-.254 1.404-.38.515-.138 1.025-.271 1.537-.416.533-.163 1.067-.32 1.603-.475.957-.279 1.947-.567 2.906-.895 2.517-.804 5.226-1.786 8.487-3.072a86.606 86.606 0 0 1-2.1 2.63 153.28 153.28 0 0 1-5.778 2.246c-.635.23-1.255.448-1.86.656-.204.07-.418.148-.622.216-.756.279-1.528.53-2.293.774-.255.081-.51.165-.762.244-.337.106-.673.215-1.009.324-.225.072-.45.141-.672.215-1.026.317-2.077.618-3.092.908-.568.162-1.135.325-1.702.491a.106.106 0 0 0-.075.13l.02.086a.111.111 0 0 0 .134.079c.57-.146 1.145-.289 1.718-.432 1.027-.256 2.088-.52 3.131-.802.565-.165 1.133-.322 1.7-.48l.609-.172a65.87 65.87 0 0 0 2.09-.62c.135-.042.272-.08.407-.125.846-.259 1.724-.544 2.627-.847a143.727 143.727 0 0 0 4.267-1.51c-.255.297-.53.592-.794.89-.178.199-.356.399-.538.6-.23.255-.448.511-.685.767-.192.074-.369.14-.556.21-.628.24-1.237.468-1.825.684-1.061.388-2.075.748-3.052 1.077-.383.127-.759.25-1.133.37-.126.04-.254.085-.379.125-1.082.383-2.2.716-3.284 1.038-.597.178-1.194.357-1.788.542-1.093.318-2.213.617-3.295.907-.613.164-1.225.327-1.836.495a.108.108 0 0 0-.077.129l.019.085a.11.11 0 0 0 .049.068.102.102 0 0 0 .057.017c.009 0 .017-.001.026-.003.61-.146 1.222-.289 1.832-.431 1.101-.256 2.238-.52 3.354-.805.6-.167 1.204-.325 1.807-.484 1.099-.288 2.234-.586 3.333-.935.746-.217 1.505-.45 2.283-.698a122.417 122.417 0 0 0 3.191-1.06c-.187.195-.383.388-.572.581l-.504.508c-.387.385-.78.77-1.18 1.152-.146.141-.29.282-.438.422-.1.096-.196.191-.298.286a125.495 125.495 0 0 1-4.33 1.42c-.164.05-.325.105-.492.155-1.167.393-2.377.73-3.546 1.055l-.285.08c-.51.142-1.02.285-1.524.433l-.1.028c-1.182.32-2.39.618-3.56.905-.466.115-.932.231-1.397.348-.189.046-.376.092-.563.14a.11.11 0 0 0-.08.128l.018.086a.112.112 0 0 0 .048.069.107.107 0 0 0 .082.014 263.86 263.86 0 0 1 2.1-.454c1.142-.245 2.317-.497 3.472-.772.615-.16 1.23-.312 1.847-.463l.084-.022c.608-.149 1.227-.302 1.845-.462a48.685 48.685 0 0 0 1.746-.487c.859-.236 1.697-.49 2.534-.744.246-.074.5-.143.742-.218-.082.075-.17.15-.253.224-.448.398-.903.795-1.364 1.19-.222.19-.45.377-.677.565-.23.194-.457.39-.692.581-.583.182-1.178.354-1.77.527-.305.09-.604.185-.912.27-.407.131-.822.246-1.236.364-.863.246-1.729.48-2.578.7-.468.12-.932.245-1.397.368-.213.058-.428.112-.64.17-.69.174-1.388.339-2.083.498-.583.135-1.165.266-1.736.394-.7.159-1.402.316-2.102.48a.11.11 0 0 0-.082.127l.013.062.004.024a.11.11 0 0 0 .128.086l.545-.109c.522-.104 1.045-.208 1.569-.31a166.21 166.21 0 0 0 3.627-.738c.077-.016.153-.03.23-.048.681-.166 1.366-.323 2.052-.48.212-.048.43-.1.644-.15a61.54 61.54 0 0 0 3.22-.808c.3-.077.601-.16.902-.24.047-.014.095-.026.141-.038l-.051.038c-.46.356-.943.703-1.415 1.055-.297.22-.586.442-.888.66-.154.112-.297.228-.452.338-.453.25-.925.489-1.386.734-.392.209-.777.422-1.18.625-.064.033-.124.068-.19.101-.925.242-1.855.47-2.768.683-.41.096-.83.2-1.25.3-.32.076-.635.148-.952.227-.637.145-1.284.281-1.927.413-.75.155-1.498.305-2.233.45-.763.152-1.527.303-2.288.46-.046.01-.073.05-.08.097 0 .01-.007.018-.005.028l.015.086c.004.029.02.054.045.071a.104.104 0 0 0 .08.018c.389-.07.777-.134 1.164-.201l1.135-.198c1.376-.234 2.8-.478 4.197-.755l.277-.058c.647-.143 1.303-.28 1.94-.412l.226-.047c-.34.157-.696.304-1.042.457-.792.35-1.598.69-2.42 1.021a84.54 84.54 0 0 1-1.937.758c-.831.31-1.676.613-2.537.904a85.57 85.57 0 0 1-2.488.803c-.12.021-.239.044-.358.064-.562.1-1.124.198-1.686.301a.109.109 0 0 0-.088.122l.012.087c.002.017.016.029.026.043-.301.084-.616.158-.92.239-1.312.35-2.655.673-4.03.974a102.215 102.215 0 0 1-11.323 1.803c-2.346.24-4.77.407-7.274.5a122.79 122.79 0 0 1-4.612.095c-.203 0-.398-.007-.6-.008-8.686-.042-16.468-.978-23.44-2.566l.333-.866c1.804.237 3.537.434 5.134.603a182 182 0 0 0 19.663 1.077c1.437 0 2.869-.018 4.294-.053.059-.001.107-.05.106-.11v-.087a.11.11 0 0 0-.11-.108 198.2 198.2 0 0 1-23.844-1.628c-1.616-.21-3.24-.452-4.855-.705l.484-1.257c1.985.254 3.85.455 5.47.62 6.24.642 12.488.966 18.652.966 2.187 0 4.364-.042 6.525-.123.055-.002.094-.046.1-.099 0-.004.004-.007.004-.012l-.002-.087a.109.109 0 0 0-.108-.107h-.001a181.09 181.09 0 0 1-4.9-.044 197.114 197.114 0 0 1-20.167-1.405 188.031 188.031 0 0 1-5.184-.723l.61-1.588c1.748.215 3.627.416 5.703.615 5.879.571 11.766.858 17.587.858a173.3 173.3 0 0 0 8.828-.224.108.108 0 0 0 .103-.112l-.004-.088a.108.108 0 0 0-.108-.104c-8.624.192-17.478-.225-26.311-1.24-1.8-.21-3.607-.46-5.408-.723l.484-1.26c1.81.215 3.74.415 5.833.605a181.72 181.72 0 0 0 16.698.773c3.273 0 6.522-.103 9.745-.284.327-.018.66-.025.986-.045a.109.109 0 0 0 .102-.114l-.005-.088a.107.107 0 0 0-.108-.103h-.004c-4.31.148-8.678.14-13.074-.018-4.73-.17-9.49-.51-14.248-1.032-1.842-.204-3.691-.451-5.535-.712l.442-1.154.168-.442c1.808.205 3.725.395 5.792.572 5.294.464 10.587.696 15.835.696 4.222 0 8.415-.15 12.554-.45a.109.109 0 0 0 .101-.116l-.005-.088c-.005-.06-.045-.111-.114-.101-9.258.425-18.775.139-28.284-.852a187.645 187.645 0 0 1-5.491-.671l.13-.343.345-.9.014-.034c1.796.197 3.693.377 5.73.543 5.047.423 10.09.634 15.095.634 4.75 0 9.464-.19 14.112-.57a.11.11 0 0 0 .101-.117l-.007-.087c-.004-.059-.06-.11-.114-.101-9.522.53-19.315.306-29.102-.669-1.84-.187-3.663-.411-5.497-.654.009-.058.006-.118.006-.178a71.473 71.473 0 0 0 2.086-1.283c1.342.13 2.738.25 4.202.364 4.775.379 9.545.568 14.285.568 5.322 0 10.605-.24 15.802-.716a.11.11 0 0 0 .1-.117l-.007-.087a.11.11 0 0 0-.109-.101h-.006c-9.806.653-19.894.499-29.986-.46-.983-.094-1.967-.205-2.95-.318.613-.407 1.222-.82 1.824-1.237.59.048 1.183.095 1.793.14 4.545.343 9.086.514 13.598.514 5.808 0 11.57-.284 17.233-.852a.107.107 0 0 0 .097-.118l-.007-.087a.109.109 0 0 0-.11-.1c-10.05.76-20.39.67-30.735-.27-.227-.02-.454-.045-.68-.067a190.07 190.07 0 0 0 2.289-1.642c3.999.267 7.992.407 11.964.407 6.28 0 12.505-.333 18.618-.998a.109.109 0 0 0 .096-.119l-.01-.087a.106.106 0 0 0-.107-.098h-.01c-9.62.813-19.512.831-29.435.076.63-.463 1.263-.924 1.891-1.387 3.008.151 6.01.229 9.002.229 6.694 0 13.333-.378 19.842-1.135a.107.107 0 0 0 .095-.12l-.01-.085a.115.115 0 0 0-.117-.098c-9.065.838-18.37.972-27.718.41a205.33 205.33 0 0 1 2.497-1.793 171.955 171.955 0 0 0 26.618-1.203.108.108 0 0 0 .093-.121l-.01-.087c-.008-.058-.05-.102-.119-.095-8.34.841-16.881 1.079-25.48.729.144-.1.285-.206.43-.305.617-.424 1.24-.838 1.866-1.247.699.009 1.398.033 2.096.033 7.516 0 14.964-.478 22.248-1.431a.11.11 0 0 0 .094-.12l-.01-.088c-.008-.058-.048-.102-.12-.095-7.584.818-15.339 1.132-23.152.96.977-.613 1.968-1.2 2.973-1.757 7.207-.08 14.349-.583 21.337-1.545a.108.108 0 0 0 .094-.121l-.01-.086a.11.11 0 0 0-.122-.094 177.796 177.796 0 0 1-19.982 1.139 43.82 43.82 0 0 1 3.955-1.8c5.8-.24 11.542-.76 17.186-1.575a.11.11 0 0 0 .092-.123l-.011-.087c-.008-.058-.063-.103-.121-.092-4.994.609-10.063.989-15.171 1.166a82.35 82.35 0 0 1 11.85-3.103c3.93-.72 7.925-1.31 11.907-1.897 9.098-.84 17.33-.356 26.45-2.963-1.774.76-3.717 1.532-6.244 2.482a.109.109 0 0 0-.064.137l.027.083a.11.11 0 0 0 .136.069c1.84-.59 4.266-1.386 6.71-2.301a128.227 128.227 0 0 0 9.75-4.151c.715-.041 1.158.169 1.402.543-.398.209-.797.415-1.195.626-1.406.739-2.86 1.504-4.312 2.214a129.168 129.168 0 0 1-6.721 2.994c-1.947.824-4.064 1.647-6.867 2.671a.11.11 0 0 0-.066.136l.028.083a.112.112 0 0 0 .104.075.1.1 0 0 0 .032-.005c1.925-.602 4.459-1.413 7.007-2.352 2.076-.762 4.321-1.669 6.865-2.771 1.924-.85 3.688-1.65 5.372-2.54a5.726 5.726 0 0 1-.197 1.24c-.453.232-.905.466-1.357.7zm-3.897 21.574a12.275 12.275 0 0 0 .83 1.576c.126.203.253.405.392.604l.054.068a14.146 14.146 0 0 0 1.34 1.62c.35.368.715.72 1.092 1.051.257.226.52.446.786.657.503.395 1.023.755 1.547 1.095a25.856 25.856 0 0 0 4.323 2.236c1.705.689 3.167 1.084 3.974 1.225.14.024.282.035.423.045l.621.003c1.039-.077 2.051-.534 2.914-1.315.077-.07.157-.136.232-.211.05-.051.086-.108.133-.16.379-.414.692-.862.982-1.307l.024-.034c.095-.143.19-.275.283-.413.265-.386.533-.754.864-1.047.089-.078.191-.14.29-.208.282-.198.596-.355.937-.469.898-.298 1.944-.297 2.905.015.28.092.555.2.813.345.045.025.082.056.124.084.422.271.713.631 1.036 1.048.068.088.143.179.213.268.1.125.21.248.322.373.082.091.159.183.252.272a6.26 6.26 0 0 0 1.655 1.13c.197.093.396.178.6.252a6.142 6.142 0 0 0 1.85.37c.833.029 1.571.459 1.966 1.078.06.091.105.187.148.285.065.15.117.305.14.468.08.56-.29 1.216-.918 1.76-.029.024-.06.047-.09.07-.145.12-.303.23-.47.333-.154.092-.306.183-.47.256-.047.023-.1.044-.15.065-.078.032-.155.062-.24.1-.086.034-.171.074-.256.11-.07.028-.14.051-.208.088-.1.047-.196.11-.292.168-.498.3-.937.736-1.235 1.202-.366.56-.586 1.106-.842 1.575-.566 1.05-.997 1.975-1.8 2.377-.132.074-.284.122-.434.174.932-1.958 1.73-3.662 1.94-4.169.112-.272-.08-.373-.224-.114-.278.499-1.3 2.368-2.436 4.455-.35.047-.716.059-1.09.035.878-1.847 1.613-3.42 1.813-3.904.111-.272-.08-.374-.224-.115-.254.46-1.142 2.08-2.167 3.962-.015-.001-.031-.001-.046-.004a6.422 6.422 0 0 1-.975-.231c.814-1.717 1.484-3.154 1.674-3.612.112-.272-.08-.374-.224-.115-.238.427-1.02 1.855-1.949 3.56a11.015 11.015 0 0 1-.892-.392c.707-1.497 1.27-2.711 1.442-3.124.112-.273-.08-.374-.224-.115a598.82 598.82 0 0 0-1.652 3.019c-.053-.029-.106-.052-.157-.08-.225-.123-.451-.258-.676-.387.646-1.37 1.155-2.465 1.314-2.853.113-.272-.08-.373-.224-.114a654.53 654.53 0 0 0-1.498 2.733c-.276-.16-.556-.319-.835-.484.589-1.25 1.049-2.24 1.197-2.604.113-.272-.079-.373-.223-.115-.185.333-.706 1.283-1.364 2.49-.218-.127-.432-.255-.652-.381-.07-.04-.143-.078-.213-.119.54-1.15.957-2.051 1.098-2.394.018-.045.018-.077.022-.11.019-.177-.125-.221-.246-.005l-.003.005c-.176.317-.649 1.18-1.256 2.291-.3-.167-.596-.337-.9-.499.355-.755.644-1.378.827-1.787.067-.15.12-.274.156-.36l.003-.006c.111-.272-.08-.373-.224-.114-.017.028-.045.082-.066.119a390.93 390.93 0 0 0-1.068 1.948c-.333-.177-.662-.354-.985-.528a245.769 245.769 0 0 0 .66-1.426c.129-.28.23-.51.285-.641.112-.273-.08-.374-.224-.115l-.417.755c-.06.112-.134.245-.205.375l-.466.852c-.374-.196-.735-.411-1.104-.616l.109-.23.179-.387c.26-.56.452-.986.54-1.197a.34.34 0 0 0 .025-.132c.005-.153-.122-.181-.235 0-.005.008-.01.01-.015.018-.118.212-.38.688-.72 1.31-.07.126-.137.252-.213.39l-.018.033-.06-.033c-.235-.131-.472-.26-.706-.394l-.096-.053c.247-.53.447-.963.58-1.266.056-.124.103-.232.134-.306.015-.036.012-.06.018-.089.032-.194-.117-.25-.242-.025a.283.283 0 0 0-.014.024c-.05.092-.128.23-.218.397l-.592 1.078c-.334-.197-.66-.402-.991-.604.078-.167.149-.32.216-.469.07-.147.13-.282.189-.407.14-.309.248-.551.306-.693.112-.271-.08-.373-.223-.115l-.444.807-.225.41-.145.265-.424-.263c-.2-.123-.4-.244-.597-.369a66.807 66.807 0 0 0 .602-1.321l.076-.175c.11-.271-.08-.373-.224-.115-.04.07-.097.173-.16.29-.15.27-.358.65-.616 1.122-.124-.08-.252-.155-.377-.234-.193-.13-.384-.266-.576-.399l.223-.483.217-.478c.068-.153.126-.285.162-.371.112-.272-.08-.374-.225-.114l-.267.484-.263.481-.15.273c-.127-.09-.252-.181-.38-.27-.223-.16-.447-.318-.67-.48l.004-.01c.236-.508.415-.906.497-1.104a.34.34 0 0 0 .024-.125c.01-.161-.123-.194-.24 0-.003.006-.006.006-.008.011-.1.178-.301.545-.562 1.02a53.036 53.036 0 0 1-.905-.686l.153-.337c.093-.208.173-.384.219-.496l.01-.021c.111-.273-.08-.374-.225-.115h-.001a5.152 5.152 0 0 1-.074.135l-.275.5-.07.127-.155-.127c-.21-.167-.42-.335-.625-.506-.043-.034-.086-.067-.128-.102.106-.233.194-.431.242-.548.112-.272-.08-.374-.224-.114l-.253.458c-.307-.263-.614-.525-.911-.798l.023-.052.056-.129c.112-.271-.08-.373-.224-.114l-.057.101c-.164-.153-.32-.313-.481-.47-.178-.172-.361-.341-.534-.518.017-.04.043-.096.055-.126.112-.272-.08-.374-.223-.115l-.021.035c-.108-.115-.21-.234-.318-.349-.182-.197-.368-.392-.542-.595l.033-.076c.016-.036.034-.076.043-.1.112-.272-.08-.374-.224-.114l-.034.06c-.241-.289-.47-.586-.695-.886-.053-.07-.113-.136-.163-.207.012-.028.032-.07.041-.094.106-.258-.06-.352-.2-.143-.054-.076-.104-.156-.157-.234-.175-.25-.352-.498-.509-.757-.037-.061-.07-.124-.105-.185a12.828 12.828 0 0 1-1.042-2.26c-.12-.351-.225-.704-.307-1.06-.038-.172-.07-.344-.1-.516a8.552 8.552 0 0 1-.129-1.844v-.009c.003-.058.01-.115.015-.173.01-.18.023-.36.045-.539.018-.134.044-.266.068-.4.01-.062.02-.122.033-.182.008-.046.013-.09.023-.134a7.864 7.864 0 0 1 .246-.882l.014-.04c.014-.037.03-.074.043-.112l.052-.137c.04-.105.074-.21.117-.31.072-.177.16-.348.246-.52-.02.155-.046.313-.06.467-.006.06-.012.12-.015.18l-.002.046c-.003.04-.002.079-.005.118-.003.043-.002.084-.005.127-.012.205-.02.41-.023.613-.001.043-.005.088-.005.133 0 .22.009.436.018.653.003.059.008.116.01.174a12.633 12.633 0 0 0 1.034 4.355zm14.563 8.843c.151.027.296.035.44.04h-.002a2.927 2.927 0 0 1-.438-.04zm4.496-3.115c-.169.235-.33.472-.484.708-.067.102-.134.197-.201.297l-9.739-.05c.38.198.757.386 1.127.554l8.287-.041c-.029.036-.059.067-.086.103-.117.15-.232.301-.363.434-.228.23-.572.518-1.001.751-.4.216-.877.378-1.417.397h-.097.095a3.2 3.2 0 0 0 1.418-.397l-3.577-.019a24.868 24.868 0 0 1-4.386-1.781 22.692 22.692 0 0 1-1.92-1.12c1.234-.008 2.472-.012 3.7-.022l8.817-.048c-.06.079-.116.156-.173.234zm-9.48-1.902l12.15-.078c-.659.205-1.274.519-1.78.965-.104.093-.198.192-.292.29l-9.242-.049c-1.53-.011-3.073-.016-4.613-.024-.438-.322-.87-.66-1.284-1.026-.014-.014-.028-.029-.043-.042 1.706-.008 3.41-.02 5.103-.036zm-29.805 11.38c-1.75-.01-3.892-.021-6.224-.03a70.9 70.9 0 0 0 2.073-1.04l12.187-.018 21.988-.084c.793.468 1.592.92 2.399 1.36l-32.423-.188zm15.506-5.105l-12.796-.03a70.234 70.234 0 0 0 1.533-1.048h.31c4.502 0 9.04-.016 13.527-.05l4.722-.025c.468.408.946.805 1.433 1.186l-8.73-.033zm-16.518 2.316l9.265-.014 19.028-.072c.425.286.852.568 1.28.844.246.149.496.289.743.437l-21.268-.081-11.009-.016a71.326 71.326 0 0 0 1.96-1.098zm26.669-1.212c.322.232.65.455.975.68l-18.38-.069-8.254-.013c.583-.354 1.166-.71 1.746-1.085l13.762-.03 9.414-.038c.246.185.488.375.737.555zm-4.093-3.393c.21.205.432.397.65.595L227.143 73c-4.275-.032-8.598-.043-12.904-.046.473-.348.947-.694 1.417-1.058.831.008 1.661.014 2.492.025l2.806.002c3.053 0 6.112-.01 9.166-.024.17.175.334.358.507.528zm-12.577-2.283c1.866.018 3.734.035 5.603.062l2.645.002c.77 0 1.54-.003 2.31-.004.292.358.586.714.894 1.052-3.787-.016-7.583-.025-11.355-.02-.563.008-1.127.012-1.69.017.422-.337.847-.664 1.266-1.015l-.05.023c.051-.04.102-.079.152-.12l.225.003zm2.325-2.084c-.139.117-.27.24-.41.355l1.109.014c1.535.018 3.069.035 4.604.061l1.66.002c.236.353.48.697.733 1.032-1.475-.001-2.954-.005-4.42-.004-1.7.025-3.401.04-5.102.057.11-.088.226-.175.335-.263.063-.051.123-.103.187-.154.277-.227.55-.454.821-.682l.074-.063c.138-.115.27-.238.409-.355zm1.413-1.226c.904.012 1.806.02 2.71.037h1.901c.16.322.332.63.51.935h-1.232c-1.534.026-3.068.043-4.603.06-.16.003-.324.006-.484.007.402-.344.808-.684 1.198-1.039zm3.917-1.607c.114.325.234.646.37.96-.526 0-1.054-.003-1.579-.002-.676.013-1.354.02-2.031.028l.113-.105c.312-.288.612-.577.915-.867l2.212-.014zm-1.528-.644c.134-.133.267-.268.401-.4.208-.207.421-.414.624-.62h.027c.072.348.166.689.265 1.028l-1.317-.008zm-87.235 13.033l-.034.096-.043.113-.566 1.535-.038.103-.038.106-.238.643-.037.098-.04.111-.443 1.199-.04.106-.036.102-.24.648-.035.097-.042.113-.236.64-.075.202-.037.104-.129.348c-.045.12-.09.24-.134.363-.028.072-.055.146-.082.22l-.24.647c-.984-.299-1.731-.523-2.031-.612-.284-.084-.35.124-.08.239.293.125 1.021.402 1.97.756-.132.352-.263.704-.392 1.055-.976-.296-1.717-.52-2.013-.607-.286-.084-.35.123-.08.239.29.124 1.011.4 1.95.75-.127.35-.258.7-.388 1.05-1.028-.312-1.811-.549-2.12-.64-.284-.083-.349.123-.08.24.302.128 1.064.419 2.056.788l-.389 1.05c-1.02-.31-1.795-.545-2.103-.635-.283-.084-.35.123-.08.238.3.128 1.057.417 2.04.784-.129.348-.258.698-.389 1.047a463.478 463.478 0 0 0-2.153-.651v.001c-.284-.084-.35.123-.08.239.305.13 1.08.425 2.087.8-.128.344-.258.687-.387 1.03-1.197-.364-2.12-.643-2.462-.744-.284-.083-.35.124-.08.239.335.144 1.231.483 2.39.913-.13.34-.257.681-.385 1.022-1.247-.38-2.215-.672-2.566-.776-.284-.083-.35.123-.08.24.345.146 1.284.502 2.491.95-.129.337-.262.676-.39 1.014-1.28-.389-2.273-.689-2.63-.795-.285-.083-.351.123-.08.24.35.15 1.315.514 2.549.972-.122.315-.243.63-.366.944-1.26-.383-2.24-.68-2.594-.784-.285-.084-.35.122-.08.238.346.15 1.298.509 2.514.96-.123.316-.242.631-.366.946-1.243-.378-2.208-.67-2.558-.773-.285-.083-.352.124-.08.24.343.147 1.286.503 2.492.95-.104.31-.195.635-.265.98-1.282-.391-2.28-.692-2.638-.799v.001c-.286-.084-.35.123-.08.239.358.154 1.364.534 2.643 1.007-.017.137-.036.273-.044.417-.022.258.001.537.044.817a537.289 537.289 0 0 0-3.084-.934v.001c-.284-.084-.35.123-.08.239.418.178 1.702.66 3.286 1.244.126.41.318.809.58 1.14.052.067.113.12.17.183a796.854 796.854 0 0 0-3.744-1.134c-.285-.084-.35.124-.08.24.568.242 2.731 1.045 5.086 1.904.146.086.287.165.418.234.5.265.96.58 1.335.942.17.163.318.335.445.512-3.044-.934-6.387-1.95-7.114-2.165-.284-.083-.35.124-.08.24.772.33 4.492 1.693 7.632 2.83.079.289.107.59.077.9-3.218-.99-7.072-2.16-7.859-2.393-.283-.084-.35.124-.079.239.784.336 4.61 1.737 7.78 2.885a4.99 4.99 0 0 1-.33.756c-3.13-.962-6.702-2.046-7.456-2.27v.001c-.283-.084-.35.123-.079.239.727.31 4.072 1.54 7.083 2.632a3.064 3.064 0 0 1-.751.517l-.011.003a1344.67 1344.67 0 0 0-8.538-2.602c-.284-.083-.35.124-.08.24.754.322 4.323 1.63 7.415 2.751-.562.126-1.16.205-1.77.247a1214.13 1214.13 0 0 0-6.99-2.128c-.284-.083-.35.124-.08.24.573.245 2.774 1.06 5.154 1.93-.743-.01-1.495-.032-2.271-.05a14.21 14.21 0 0 0-1.016.014 379.562 379.562 0 0 0-2.397-.724c-.284-.084-.35.123-.08.239.248.106.801.319 1.538.595-.046.009-.093.013-.14.023a5.115 5.115 0 0 0-1.5.545 299.7 299.7 0 0 0-1.437-.433c-.285-.083-.35.123-.08.24.195.082.598.239 1.115.435-.05.032-.105.062-.153.096-.322.228-.61.445-.888.653l-1.193-.36c-.284-.082-.35.124-.08.24.172.074.501.203.93.365-.104.076-.207.156-.313.226-.296.198-.594.379-.893.546l-.945-.284c-.285-.083-.35.123-.08.238.128.056.354.145.627.25-.086.043-.172.096-.259.134a5.917 5.917 0 0 1-1.64.462c-.562.072-1.237.12-1.625.018-.419-.11-.723-.371-.934-.832-.213-.451-.305-1.031-.341-1.615-.013-.304-.012-.581-.008-.915.004-.188-.013-.384-.02-.575-.003-.084-.005-.17-.01-.25-.006-.073 0-.142-.01-.216a4.621 4.621 0 0 0-.062-.424c-.005-.027-.008-.057-.014-.083a4.278 4.278 0 0 0-.107-.405 3.785 3.785 0 0 0-.249-.649l-.03-.066a3.888 3.888 0 0 0-.282-.454l-.011-.021-.015-.017c-.48-.664-1.198-1.26-2.263-1.916-1.54-.95-2.171-2.078-.554-4.773 1.404-2.346 5.65-2.346 7.931-2.346 2.766 0 4.236-1.573 5.114-2.513.115-.124.223-.239.324-.34.506-.506 3.858-6.657 6.983-12.491l.103-.191.194-.363.204-.382c.044-.08.087-.163.13-.244l.097-.18.053-.1.054-.1.321-.603a5.3 5.3 0 0 1 .055-.1l.054-.102.624-1.173c.02-.034.037-.07.056-.103l.053-.1.327-.615.053-.102.055-.1.788-1.486.059-.11.049-.093a173.787 173.787 0 0 0 .387-.732l.054-.1c.221-.419.426-.804.614-1.162.02-.037.042-.076.06-.112l.049-.091.336-.639.054-.1.054-.103.295-.56.15-.073.376-.181 1.04-.504.177-.086.174-.084 1.09-.528.18-.087.17-.08.88-.427-.082.222-.005.016-.106.288-.038.102-.04.107-.234.638-.026.074-.009.023-.042.112-.568 1.545-.039.105-.038.105-.237.643-.036.098-.041.111-.318.866-.126.343-.039.105-.038.104-.239.646zm-7.8 4.052c-.122-.04-.245-.082-.368-.124.13.028.259.056.392.083a1.564 1.564 0 0 0-.023.041zm-4.314-22.903c.372-.771.704-1.56.955-2.38.87.451 1.864.867 3.117 1.307 2.313.795 4.901 1.45 8.147 2.062 4.549.833 9.47 1.399 14.985 1.73-.62.469-1.24.937-1.86 1.401a162.72 162.72 0 0 1-9.913-.96c-4.387-.588-9.925-1.474-15.431-3.16zm12.626 5.308c-3.997-.536-8.95-1.321-13.966-2.731.085-.157.163-.31.249-.47.32-.593.642-1.194.946-1.805 5.522 1.787 11.09 2.762 15.499 3.419 2.979.42 6.036.76 9.147 1.019-.669.494-1.335.99-2.01 1.473l-.068.048c-3.334-.226-6.61-.54-9.797-.953zm-1.285 2.036c-3.935-.527-8.796-1.294-13.73-2.662.265-.596.564-1.188.881-1.787 5.04 1.505 10.03 2.374 14.058 2.974 2.932.413 5.94.747 9.001 1.004a98.39 98.39 0 0 1-1.918 1.313 162.961 162.961 0 0 1-8.292-.842zm2.728 2.597c-6.385-.656-12.096-1.566-17.34-2.757.175-.705.419-1.434.731-2.173 4.954 1.458 9.845 2.304 13.804 2.894 2.444.344 4.948.62 7.483.857-.687.444-1.38.877-2.08 1.294l-.2.096c-.8-.071-1.609-.13-2.398-.21zm-8.91 4.662c-1.468.233-2.933.298-4.33.1-1.45-.203-2.55-.725-3.293-1.543 2.415.525 4.953 1.002 7.622 1.443zm-8.14-2.148c-.367-.652-.571-1.46-.616-2.369 4.6 1.03 9.565 1.858 15.025 2.505l-1.465.71c-.98.362-1.999.683-3.033.938a154.205 154.205 0 0 1-9.857-1.701c-.018-.029-.038-.054-.054-.083zm18.065-1.68l-.02.056-2.675 1.295c-.118-.012-.24-.02-.358-.032-5.696-.584-10.853-1.374-15.625-2.381 0-.687.083-1.421.252-2.193 5.242 1.26 10.956 2.246 17.351 2.984.473.054.962.092 1.44.14l-.37.18c.006-.024.008-.053.015-.073.016-.047-.008.02-.01.024zm-36.098-29.31c.087-.043.179-.09.267-.132l-.254.136-.214.115-.027-.006.228-.112zm19.725 39.376c-15.527-6.359-25.768-16.125-32.306-24.88-7.306-9.785-11.114-19.652-12.956-25.748 3.69 4.714 12.185 10.984 31.73 13.857 1.978.29 6.447 1.141 9.985 3.213l-.814-.151a.11.11 0 0 0-.126.08l-.02.086a.109.109 0 0 0 .076.13c.634.178 1.274.352 1.92.521.968.68 1.828 1.467 2.492 2.382-1.442-.265-2.888-.535-4.342-.809-.053-.01-.114.026-.126.082l-.02.085a.11.11 0 0 0 .076.13c1.583.445 3.216.866 4.897 1.27.343.605.6 1.26.757 1.969a850.9 850.9 0 0 1-5.584-1.032.11.11 0 0 0-.126.082l-.02.085a.11.11 0 0 0 .076.13 131.87 131.87 0 0 0 5.779 1.485c.04.341.063.69.055 1.055-.004.207-.028.408-.047.61-1.972-.356-3.89-.714-5.719-1.055a.11.11 0 0 0-.124.082l-.02.084a.11.11 0 0 0 .076.131c1.823.516 3.713 1.003 5.684 1.465-.122.65-.31 1.284-.55 1.908-1.69-.306-3.372-.615-5.033-.925l-.033-.005a.106.106 0 0 0-.124.082l-.02.085a.11.11 0 0 0 .076.13c1.565.445 3.188.866 4.869 1.272a25.875 25.875 0 0 1-.757 1.567c-1.18-.215-2.354-.433-3.518-.648l-.526-.097a.106.106 0 0 0-.124.082l-.02.084a.11.11 0 0 0 .076.131c1.234.351 2.505.69 3.815 1.017l-.335.624c-.23.428-.464.863-.69 1.302l-1.703-.312-1.019-.188a.108.108 0 0 0-.124.082l-.02.085a.11.11 0 0 0 .076.13c.83.238 1.682.468 2.55.695-.19.382-.38.765-.546 1.153-.08.19-.143.374-.215.562l-.18-.033-1.54-.282c-.06-.009-.113.025-.125.08l-.02.087a.11.11 0 0 0 .076.13c.535.153 1.076.304 1.622.453a14.62 14.62 0 0 0-.595 2.164l-.959-.175a.106.106 0 0 0-.124.082l-.02.085a.11.11 0 0 0 .075.13c.313.09.633.18.951.268-.11.685-.148 1.338-.13 1.963l-.752-.136a.108.108 0 0 0-.124.082l-.02.085a.11.11 0 0 0 .075.13c.272.08.55.156.827.234.066.913.288 1.736.641 2.46l-1.399-.25a.11.11 0 0 0-.124.08l-.02.086a.11.11 0 0 0 .075.13c.577.17 1.168.335 1.764.499.928 1.454 2.47 2.35 4.605 2.65.643.091 1.298.134 1.958.134 1.25 0 2.522-.151 3.787-.413.418.082.832.163 1.264.243.105.02.215.038.32.056l-.624 1.18-.012-.003c-3.127-.481-6.296-1.051-9.361-1.603-1.21-.218-2.42-.436-3.632-.649-.051-.012-.112.027-.124.082l-.02.085a.108.108 0 0 0 .075.13c3.614 1.069 7.61 2.013 12.541 2.963l-.803 1.509a409.248 409.248 0 0 1-7.515-1.293c-1.384-.247-2.768-.496-4.154-.736a.106.106 0 0 0-.124.082l-.02.085a.11.11 0 0 0 .074.13c3.274.979 6.777 1.826 11.217 2.714l-.645 1.208a450.618 450.618 0 0 1-5.941-1.026l-.198-.035zm37.489-77.894c19.668 0 38.018 1.81 52.543 4.793 13.777 3.06 29.319 8.3 30.63 16.513a7.2 7.2 0 0 1 .051 1.794 8.038 8.038 0 0 0-.855-1.794c-6.637-10.507-40.435-18.275-82.368-18.275-41.935 0-75.732 7.768-82.37 18.275-.504.799-.85 1.612-1.032 2.44-.468-.953-.693-1.696-.79-2.116-.03-.147-.048-.252-.061-.324h-.005l-.004-.029.001-.014c.096-11.53 38.642-21.263 84.26-21.263zM398.443 32.02c-.766-1.45-1.795-2.711-2.974-3.805a17.615 17.615 0 0 0-1.195-1.01 19.215 19.215 0 0 0-3.997-2.362 28.661 28.661 0 0 0-5.15-1.657 33.736 33.736 0 0 0-2.648-.48 40.363 40.363 0 0 0-4.015-.354c-2.683-.105-5.367.03-7.973.296-.434.043-.867.091-1.296.142l-3.264.269-82.727 6.372a2.985 2.985 0 0 0-2.204-.978c-.584 0-1.118.18-1.578.475-.094.06-.189.117-.275.185l-.012-.122a3.73 3.73 0 0 0-3.725-3.728 3.671 3.671 0 0 0-2.584 1.058 3.738 3.738 0 0 0-.725 1.02c-.022.048-.055.09-.076.137-.194.438-.309.92-.326 1.43a2.975 2.975 0 0 0-1.573-.455c-1.37 0-2.515.926-2.877 2.207l-17.043 1.314-6.119.47a80.609 80.609 0 0 0 1.619-5.37c.23-.88.408-1.632.543-2.236a8.262 8.262 0 0 0 .33-1.647l.013-.07c-.001-.017.003-.032.004-.048h-.002a.044.044 0 0 1 .001-.033c.001-.007.004-.013.004-.02 0-9.115-19.418-16.81-48.157-20.418a256.212 256.212 0 0 0-5.738-.652c-3.901-.4-7.95-.727-12.125-.976a338.329 338.329 0 0 0-34.886-.222 297.863 297.863 0 0 0-12.39.823 264.526 264.526 0 0 0-6.082.603c-1.148.127-2.281.26-3.401.4l-.445.056c-26.11 3.305-44.478 9.989-47.481 18.042a7.142 7.142 0 0 0-.189.579 6.515 6.515 0 0 0-.245 1.764c0 .023.01.042.013.062l-.01.001c.004.035.013.12.035.244.02.124.055.291.103.493.351 1.729 1.469 6.57 4.015 12.844a88.314 88.314 0 0 0 1.485 3.446c2.17 4.75 5.109 10.065 9.053 15.354 5.78 7.754 14.424 16.274 26.95 22.624a82.627 82.627 0 0 0 11.412 4.754 1087.987 1087.987 0 0 1-3.076 5.7c-.463.853-.902 1.654-1.3 2.374-.3.544-.578 1.044-.83 1.493l-.358.634a64.22 64.22 0 0 1-.584 1.009c-.246.412-.417.68-.5.776-.037.038-.08.085-.12.125-.076.08-.15.156-.233.246-.223.237-.47.497-.75.752-.373.34-.81.669-1.346.917-.565.26-1.24.43-2.065.43-2.193 0-6.016.005-8.169 1.925-.027.025-.059.045-.085.07a4.564 4.564 0 0 0-.586.681c-.072.1-.147.196-.212.303l-.059.1c-.33.56-.652 1.187-.856 1.849a5.669 5.669 0 0 0-.101.37c-.204.87-.173 1.78.335 2.642.331.562.866 1.103 1.67 1.6 1.018.625 1.626 1.135 1.988 1.73.032.055.076.105.104.161l.015.025.01.022a3.063 3.063 0 0 1 .24.727c.025.134.036.283.051.431.02.27.025.547.013.832v.037c-.005.15-.01.311-.013.476-.002.164-.002.332.004.495.033.69.11 1.407.424 2.13.238.615.796 1.206 1.469 1.505.118.051.23.113.352.144.39.11.84.14 1.158.13.34-.002.687-.02 1.036-.06.052-.006.106-.022.16-.028a7.5 7.5 0 0 0 1.898-.5 10.883 10.883 0 0 0 1.464-.763c.114-.07.234-.135.345-.206.122-.075.232-.157.35-.236.44-.3.862-.61 1.243-.861a3.88 3.88 0 0 1 1.037-.472c.14-.04.271-.093.422-.118.269-.047.546-.071.834-.08.29-.01.589-.004.9.01.626.024 1.268.058 1.918.08.652.023 1.313.035 1.98.013.387-.016.78-.044 1.177-.082.91-.088 1.835-.259 2.755-.662.056-.024.112-.036.168-.062.273-.125.542-.285.802-.468.393-.277.76-.613 1.047-1.034a6.78 6.78 0 0 0 .708-1.43c.012-.035.028-.067.04-.103.06-.181.11-.368.154-.565.034-.151.052-.308.07-.464.027-.243.041-.488.03-.737a4.421 4.421 0 0 0-.229-1.204c-.263-.78-.727-1.449-1.259-1.986a7.973 7.973 0 0 0-1.757-1.316c-.486-.271-.819-.506-1.065-.782-.035-.04-.075-.077-.107-.119-.054-.08-.1-.16-.14-.244a1.461 1.461 0 0 1-.139-.541c-.005-.1-.004-.209.005-.325.024-.34.135-.732.272-1.134.047-.134.084-.264.139-.4.465-1.128.906-2.272 1.357-3.408.65-1.632 1.302-3.26 1.935-4.902.69-1.788 1.378-3.578 2.068-5.361a99.815 99.815 0 0 0 7.116 1.338c1.123.173 2.25.342 3.41.482-.01.018-.024.035-.025.056a.163.163 0 0 0 .04.114c.027.03.067.049.109.05 1.04.05 2.086.086 3.131.124 3.421.31 6.99.483 10.735.483.526 0 1.032-.018 1.55-.024 1.72.094 4.645.17 8.413-.042.786.004 1.571.012 2.359.012 3.906 0 7.817-.044 11.638-.086 1.757-.02 3.514-.04 5.271-.055l43.096-.41a.157.157 0 0 0 0-.314l-43.096-.41c-1.761-.017-3.523-.036-5.286-.056l-2.759-.03a83.833 83.833 0 0 0 2.411-.482c1.78-.013 3.553-.03 5.304-.046 1.736-.016 3.47-.032 5.205-.046l42.622-.341a.147.147 0 0 0 0-.294l-42.622-.343c-1.735-.013-3.469-.029-5.205-.045l-.697-.007a84.808 84.808 0 0 0 2.382-.688l.818-.001 16.431-.074 25.462-.274a.135.135 0 0 0 .135-.137.134.134 0 0 0-.134-.136l-25.464-.275-14.307-.065c.747-.26 1.497-.533 2.252-.82l12.058-.047 29.525-.24a.133.133 0 0 0 0-.264l-29.526-.24-9.976-.038c.72-.3 1.444-.61 2.166-.937 2.942-.008 5.66-.02 7.798-.036l32.971-.19c.56.299 1.113.61 1.682.89.921.472 1.8.904 2.68 1.376.117.063.237.122.356.187.09.05.181.102.273.152.904.497 1.807 1.019 2.766 1.514 1.054.538 2.236 1.03 3.505 1.184a7.86 7.86 0 0 0 1.904.025 5.127 5.127 0 0 0 1.066-.23c.229-.073.453-.17.672-.283.064-.032.129-.06.19-.097a4.49 4.49 0 0 0 1.455-1.434c.36-.563.576-1.075.852-1.584.082-.166.155-.322.23-.482.097-.21.201-.404.296-.593.07-.14.14-.287.216-.407.162-.259.357-.462.572-.639.127-.105.252-.21.407-.288.099-.059.215-.1.324-.149.138-.06.297-.118.438-.19.038-.018.072-.043.11-.062.236-.115.456-.245.667-.385.02-.012.042-.02.06-.034.033-.023.06-.054.092-.076.24-.17.46-.352.658-.546.717-.704 1.155-1.545 1.163-2.363a2.276 2.276 0 0 0-.021-.349c-.015-.099-.047-.192-.07-.288-.023-.092-.037-.185-.067-.274-.452-1.362-1.782-2.336-3.365-2.39-.797-.029-1.628-.302-2.348-.729l10.45-.053a.122.122 0 1 0 0-.244l-10.958-.055-.037-.029c-.117-.092-.245-.175-.35-.277a4.572 4.572 0 0 1-.343-.372 13.28 13.28 0 0 1-.319-.402l-.203-.257a7.836 7.836 0 0 0-.349-.404 4.044 4.044 0 0 0-1.002-.81 5.877 5.877 0 0 0-1.269-.51l10.824-.07a.122.122 0 1 0 0-.244l-26.374-.172a1303.45 1303.45 0 0 0-5.797-.037l-.062-.06c-.28-.286-.547-.587-.802-.897 1.834-.009 3.663-.021 5.48-.038l23.162-.172a.12.12 0 0 0 .12-.115.123.123 0 0 0-.032-.09.151.151 0 0 0-.088-.039l-23.161-.172c-1.985-.018-3.987-.03-5.99-.038-.037-.052-.079-.098-.115-.151-.196-.28-.376-.565-.542-.855-.108-.185-.203-.375-.298-.565a10.87 10.87 0 0 1-.488-1.094c-.06-.16-.108-.323-.16-.484a11.41 11.41 0 0 1-.553-3.328c-.006-.329.001-.663.022-1 .32-.387.626-.773.933-1.158.316-.398.624-.793.925-1.189.233-.304.471-.61.695-.912.29-.39.562-.781.839-1.173a86.533 86.533 0 0 0 1.663-2.43 81.24 81.24 0 0 0 1.615-2.547c.41-.677.805-1.352 1.184-2.02l7.018.507 23.235 1.68c.326.462.786.81 1.31 1.03.356.15.737.251 1.145.251.232 0 .456-.034.671-.086.23-.053.449-.133.655-.236.081-.042.164-.081.242-.129a3.696 3.696 0 0 0 .248 1.254c.093.237.215.458.35.67.152.235.321.458.519.652.27.265.587.474.925.647a3.656 3.656 0 0 0 1.674.418 3.73 3.73 0 0 0 1.443-.29c.321-.136.609-.327.877-.541.472-.376.86-.852 1.102-1.405.189-.435.295-.91.296-1.406l.266.02.087.005a2.945 2.945 0 0 0 .788.328 2.866 2.866 0 0 0 1.33.038 3.04 3.04 0 0 0 .561-.172l38.813 2.807 42.044 3.04 8.073.584 2.436.177c3.583.212 7.196.024 10.744-.69.44-.09.882-.188 1.322-.297 2.86-.702 5.666-1.812 8.125-3.558.19-.135.383-.261.569-.404a15.406 15.406 0 0 0 3.754-4.124 15.421 15.421 0 0 0 1.47-3.313c.196-.63.365-1.268.472-1.915.31-1.835.337-3.681.119-5.516-.237-1.832-.783-3.647-1.658-5.297zM221.574 88.89a.137.137 0 0 0-.135-.138l-38.052-.273-9.514-.075-9.514-.004-1.44.017c-5.764.063-11.725.129-17.59.336a.137.137 0 1 0 0 .273c5.857.208 11.81.273 17.57.336l1.46.017 9.515-.003 47.565-.348a.137.137 0 0 0 .135-.138m2.215 1.894l-19.45-.17c-3.22-.041-6.495-.057-9.725-.05l-.74.01c-2.946.04-5.991.08-8.987.21-.066.003-.117.057-.117.115a.123.123 0 0 0 .03.089c.018.02.06.04.087.04 2.994.13 6.04.17 8.984.21l.744.01c.544.003 1.089.003 1.635.003 2.694 0 5.409-.016 8.09-.051l19.449-.172h.001a.122.122 0 0 0-.001-.244m44.467-15.895l-3.745-.015c.03.088.044.182.067.274l3.678-.015a.122.122 0 0 0 0-.244m-13.423-9.978a.123.123 0 0 0-.12-.123l-23.97-.161c.096.19.19.38.297.566l23.672-.16c.067 0 .12-.055.12-.122m-24.737-1.862c.052.16.1.324.16.484l19.125-.12a.12.12 0 0 0 .121-.115.118.118 0 0 0-.032-.09.158.158 0 0 0-.089-.04l-19.285-.12zm41.83 6.816a.124.124 0 0 0-.12-.122l-15.116-.08c.125.134.24.268.348.403l14.768-.078c.067-.001.12-.055.12-.123m-29.047 11.888c-.58-.053-1.174-.04-1.67-.043-.494.004-1.08.012-1.654.064a.1.1 0 0 0-.09.098c0 .05.039.093.09.097.576.052 1.16.061 1.655.064.493-.002 1.076.003 1.656-.049.05-.004.115-.034.113-.115-.003-.084-.05-.111-.1-.116m14.692-17.004c-.494.003-1.079.012-1.654.064a.1.1 0 0 0-.09.098c0 .051.039.094.09.097.575.052 1.16.062 1.655.065.494-.002 1.076.002 1.657-.05.05-.005.116-.034.113-.115-.003-.083-.05-.11-.101-.116-.58-.053-1.175-.04-1.67-.043m-29.311 26.04c-.58-.055-1.174-.041-1.67-.044a19.89 19.89 0 0 0-1.654.064.1.1 0 0 0-.09.098c0 .05.04.093.09.097.577.052 1.16.061 1.655.064.493-.002 1.076.003 1.656-.049.052-.006.116-.035.113-.115-.003-.084-.05-.111-.1-.116m37.888-22.75c-.042.004-.083.01-.125.018-.07.014-.127.07-.127.1 0 .051.047.094.126.102.26.027.52.045.78.039.137-.003.282-.005.419-.02.084-.008.22-.035.216-.123-.002-.087-.185-.125-.236-.13a4.917 4.917 0 0 0-1.053.013M141.249 14.698c-.112.02-.194.096-.188.185.003.055.043.096.094.125a.23.23 0 0 0 .114.037c.837.008 1.673-.063 2.505-.135.563-.05 1.126-.084 1.692-.12.279-.018.558-.035.837-.055.562-.038 1.122-.087 1.683-.112.245-.01.497-.008.739-.04.123-.018.216-.07.205-.179-.016-.149-.123-.191-.237-.193a53.272 53.272 0 0 0-5.086.19c-.79.068-1.58.162-2.358.297m6.155 4.025c.724.004 2.62-.095 2.862-.112.487-.034.97-.075 1.458-.097.211-.01.429-.008.639-.035.107-.014.187-.058.178-.146-.014-.121-.107-.155-.206-.156a49.073 49.073 0 0 0-2.202.035c-.734.027-2.072.117-2.747.23-.096.015-.167.077-.163.15.004.044.037.077.081.101.03.015.06.03.1.03m-4.542 15.211c.725-.014 2.618-.162 2.859-.186.485-.046.968-.099 1.454-.133.212-.015.43-.02.639-.052.106-.016.186-.062.174-.15-.016-.121-.11-.152-.208-.15-.734.012-1.468.044-2.202.09-.733.047-2.068.17-2.74.3-.096.019-.166.083-.16.156.005.044.04.075.084.098.03.014.062.028.1.027m-30.44-11.083c-.331.048-.66.113-.99.168-.395.067-.79.126-1.183.202-.721.14-2.029.431-2.678.645-.093.031-.155.103-.14.175.01.043.048.07.096.087.032.01.065.02.103.014.716-.106 2.575-.494 2.812-.547.475-.108.948-.222 1.425-.317.208-.043.423-.074.627-.133.08-.024.129-.068.142-.126.002-.015.017-.027.012-.046-.032-.117-.128-.137-.226-.122"/>
    </g>
</svg>
