<svg width="52" height="67" viewBox="0 0 52 67" xmlns="http://www.w3.org/2000/svg">
    <g  fill="#D19046" fill-rule="evenodd" >
        <path  d="M25.767 2.23c-13.08 0-23.725 14-23.725 31.212 0 17.208 10.644 31.21 23.725 31.21 13.082 0 23.724-14.002 23.724-31.21C49.49 16.23 38.85 2.23 25.768 2.23m0 62.823c-13.302 0-24.124-14.18-24.124-31.61 0-17.434 10.822-31.615 24.124-31.615S49.89 16.008 49.89 33.442c0 17.43-10.82 31.61-24.123 31.61"/>
        <path  d="M25.767 11.003c-6.844 0-14.472 9.214-14.472 22.438 0 13.223 7.628 22.437 14.472 22.437 6.846 0 14.47-9.214 14.47-22.436 0-13.223-7.624-22.437-14.47-22.437m0 45.277c-7.033 0-14.872-9.38-14.872-22.84 0-13.46 7.84-22.84 14.872-22.84 7.035 0 14.872 9.38 14.872 22.84 0 13.46-7.838 22.84-14.873 22.84"/>
        <path  d="M25.766 12.43c-6.125 0-12.978 8.985-12.978 21.012 0 12.022 6.853 21.006 12.978 21.006 6.128 0 12.98-8.984 12.98-21.006 0-12.027-6.852-21.01-12.98-21.01m0 42.72c-6.455 0-13.676-9.286-13.676-21.71 0-12.428 7.22-21.714 13.675-21.714 6.458 0 13.68 9.286 13.68 21.714 0 12.424-7.222 21.71-13.68 21.71M7.44 34.314c0 .65-.558 1.18-1.247 1.18-.688 0-1.245-.53-1.245-1.18 0-.65.557-1.178 1.245-1.178.69 0 1.247.528 1.247 1.178M46.322 34.314c0 .65-.557 1.18-1.246 1.18-.687 0-1.246-.53-1.246-1.18 0-.65.56-1.178 1.246-1.178.69 0 1.246.528 1.246 1.178"/>
        <path d="M32.96 30.1h1.113l-.17-.337h-.772l-.17.338zm-.556 2.78h2.183v-.333h-2.183v.334zm0-.92h2.183v-.333h-2.183v.332zm-.008-.922h2.14v-.332h-2.14v.332zm-.13 2.763h2.27v-.332h-2.225l-.044.333zm-.067.947h2.228l.084-.358h-2.27l-.043.357zm-.183.92h2.143l.127-.356h-2.183l-.087.358zm-.257.922h2.055l.128-.333h-2.097l-.086.332zm-.43.92h1.887l.254-.332h-1.965l-.174.33zm-.597.947h1.713l.343-.36h-1.757l-.3.36zm-1.028.92h1.542l.428-.357H30.13l-.425.358zm3.3-10.613c0-.25-.015-.464-.043-.633-.03-.17-.086-.25-.17-.25-.115 0-.174.14-.174.42 0 .113.008.213.022.295.016.085.02.155.02.21 0 .452-.148.787-.447 1.013-.3.226-.623.337-.962.337-.688 0-1.17-.253-1.456-.76.34-.166.61-.4.813-.694.2-.295.343-.618.428-.97.084-.35.135-.71.15-1.074.014-.367.02-.704.02-1.013 0-1.603-.27-2.883-.81-3.838-.542-.956-1.44-1.434-2.697-1.434-1.252 0-2.123.484-2.607 1.454-.484.968-.727 2.24-.727 3.814 0 1.01.057 1.845.172 2.506.112.658.498 1.073 1.156 1.242-.086.59-.483.884-1.195.884-.312 0-.625-.11-.935-.336-.315-.225-.47-.588-.47-1.095 0-.056.007-.133.026-.232.017-.1.024-.204.024-.318 0-.166-.056-.25-.17-.25-.172 0-.258.24-.258.714 0 .394.114.79.34 1.185.227.396.664.608 1.31.637v.38c0 .673.023 1.47.064 2.396.045.924.173 1.808.388 2.65.213.84.547 1.56 1.003 2.164.456.603 1.098.904 1.925.904.856 0 1.512-.278 1.967-.84.455-.56.796-1.254 1.026-2.082.23-.826.362-1.69.406-2.586.043-.896.064-1.68.064-2.355v-.63c.656 0 1.12-.195 1.392-.59.27-.395.408-.8.408-1.223zm-10.486 1h-.77l-.17.337h1.11l-.17-.337zm-1.46 17.012h2.16v-.336h-2.16v.336zm0-.927h2.16v-.337h-2.16v.336zm0-.927h2.16v-.336h-2.16v.336zm0-.926h2.16v-.336h-2.16v.337zm0-.926h2.16v-.337h-2.16v.338zm0-.903h2.16v-.36h-2.16v.36zm0-.917h2.16v-.337h-2.16v.337zm0-.96h2.16v-.335h-2.16v.336zm0-.912h2.16v-.358h-2.16v.358zm0-.92h2.16v-.36h-2.16v.36zm0-.95h2.16v-.33h-2.16v.33zm0-.92h2.16v-.33h-2.16v.33zm0-.92h2.16v-.357h-2.16v.358zm0-.92h2.16v-.36h-2.16v.36zm0-.947h2.16v-.332h-2.16v.333zm0-.92h2.16v-.333h-2.16v.333zm0-.92h2.16v-.333h-2.16v.332zm0-.922h2.16v-.332h-2.16v.332zm2.13 16.33h-2.14l-.042.335h2.27l-.087-.336zm.196.934H20.89l-.128.337h2.798l-.174-.338zm14.01-18.905c-.113.253-.307.45-.58.59-.27.14-.563.21-.876.21-.4 0-.742-.12-1.03-.357-.283-.24-.426-.583-.426-1.03 0-.058.01-.14.025-.253.018-.114.027-.226.027-.34 0-.223-.044-.336-.13-.336-.112 0-.185.084-.213.254-.027.17-.045.38-.045.63 0 .395.102.797.3 1.202.2.408.66.61 1.38.61.054.143.085.296.085.465v.507c0 1.713-.207 3.154-.622 4.32-.413 1.166-.96 2.107-1.646 2.823-.685.715-1.476 1.236-2.375 1.56-.898.323-1.83.485-2.802.485-.257 0-.57-.016-.942-.042-.37-.03-.763-.093-1.176-.193-.414-.1-.806-.256-1.177-.468-.37-.213-.684-.504-.942-.875v7.254c0 .334.016.658.042.968.03.31.108.59.236.843.13.254.317.45.56.59.242.143.56.213.96.213v.536h-7.8v-.537h.212c.628 0 1.058-.254 1.286-.76.23-.504.343-1.095.343-1.77V30.65c.58-.084.975-.296 1.19-.632.214-.336.323-.702.323-1.097 0-.614-.086-.923-.256-.923-.144 0-.215.11-.215.337 0 .085.013.19.038.315.027.126.04.216.04.27 0 .452-.15.79-.453 1.014-.3.225-.594.336-.88.336-.314 0-.578-.07-.793-.21-.215-.14-.322-.38-.322-.716.4 0 .723-.098.965-.294.242-.198.364-.65.364-1.35v-1.935c0-.646-.014-1.292-.044-1.937-.027-.647-.112-1.265-.257-1.853-.142-.59-.37-1.138-.684-1.642-.315-.507-.742-.927-1.286-1.264v-.085l7.072.003c-.14.224-.283.455-.423.69-.143.238-.242.468-.298.693.312-.39.83-.774 1.558-1.15.727-.375 1.544-.565 2.455-.565 1.367 0 2.476.197 3.33.59.853.395 1.544.9 2.07 1.52.526.616.933 1.31 1.22 2.084.285.77.54 1.534.77 2.293.057.197.12.456.194.78l.213.99c.07.337.15.667.233.99.086.323.185.57.302.737.198.363.5.617.9.757z"/>
        <path d="M25.767.902C12.053.902.897 15.5.897 33.44c0 17.942 11.156 32.54 24.87 32.54 13.713 0 24.87-14.598 24.87-32.54C50.636 15.5 39.48.9 25.766.9m0 65.98C11.56 66.88 0 51.878 0 33.438 0 15 11.56 0 25.767 0c14.208 0 25.767 15 25.767 33.44 0 18.44-11.56 33.44-25.767 33.44"/>
        <path d="M7.94 38.864c.638-.178.928-.44.867-.784-.047-.274-.24-.42-.58-.44-.13-.006-.392.026-.783.094-.34.06-.573.116-.694.168-.307.132-.438.33-.392.59.055.316.276.478.665.49.044-.003.35-.042.916-.118m-.145.738c-.424.075-.805.076-1.14.002-.538-.116-.867-.407-.988-.873-.028-.126-.02-.277.024-.453.043-.176.092-.256.145-.242l-1.554.273c-.183.08-.296.167-.337.258-.04.092-.08.182-.114.273l-.034.005-.273-1.566.02-.032c-.01.008.048.078.174.21.125.13.267.182.427.153l3.983-.7c.127-.022.245-.078.354-.17.13-.1.196-.214.197-.34l-.002-.01c.01-.007.027-.007.052 0 .242.253.383.393.42.422.176.15.403.296.683.44.027.02.028.04.003.062-.115.026-.338.062-.672.11-.01-.005-.013.008-.01.036 0-.005.052.047.156.158.105.11.17.245.2.403.074.438-.1.808-.524 1.11-.323.233-.72.39-1.187.472M8.725 42.595c.747-.22 1.058-.542.934-.97-.098-.334-.45-.412-1.058-.234-.07.022-.16.05-.273.082-.118.04-.195.066-.233.077-.558.164-.784.428-.678.79.114.393.55.478 1.305.255M5.33 44.687c-.02.012-.047.017-.082.015-.214-.153-.596-.275-1.147-.365l-.012-.043c.31-.344 1.22-.94 2.733-1.785-.013-.07-.024-.136-.03-.196-.015-.15 0-.265.04-.344l-1.603.47c-.128.04-.234.117-.316.237-.08.12-.118.25-.112.39l-.033.01-.47-1.62c-.005-.01 0-.014.01-.008s.017.005.02-.002c.067.066.13.132.19.194.14.125.305.16.493.104l3.986-1.172c.14-.042.235-.15.29-.327.013-.09.03-.178.045-.264.008-.008.025-.013.047-.013.198.195.345.33.442.406.202.157.45.29.746.4-.008.015-.003.032.014.052l-.668.196c.237.134.38.317.43.55.087.437-.043.82-.39 1.15-.264.25-.614.44-1.05.57-.745.22-1.34.162-1.78-.17-.563.306-.953.54-1.17.695-.507.358-.714.647-.622.867M10.815 45.187L6.782 46.84c-.15.06-.253.156-.31.288-.034.09-.058.24-.07.45l-.03.014-.664-1.637.018-.045-.017.026c0 .005.008.006.018 0 .01-.003.015-.008.013-.013.226.29.477.38.752.268l4.056-1.66c.14-.058.252-.15.337-.278.084-.128.113-.266.09-.415l.042-.028.647 1.595-.053.003c-.067-.152-.178-.242-.332-.272-.154-.03-.308-.013-.463.05M13.02 49.24c-.06-.04-.125-.082-.2-.123-.07-.04-.172-.052-.3-.03-.035.006-.66.208-1.876.607-1.195.39-1.914.624-2.154.707-.294.105-.398.346-.31.722-.017-.03-.032-.027-.042.012L7.09 49.17l.034-.028c.104.11.23.186.38.223.15.036.286.026.407-.033l3.575-2.598c.29-.217.385-.487.284-.808 0-.013.002-.03.012-.048.014-.02.032-.016.053.012.045.07.184.327.42.77.237.445.353.67.353.68-.016-.007-.027.003-.034.027-.223-.217-.47-.228-.742-.035l-3.277 2.37 5.086-1.762.03.035c-.396.448-.598.862-.605 1.242-.015-.005-.03.003-.044.024M12.035 53.12l2.228-2.025-.22-.29-2.524 1.605.515.71zm-.894 2.43l-.957-1.332.05-.003c.07.087.164.13.28.128.118-.002.22-.035.31-.102.055-.038.316-.28.78-.727l-.576-.807c-.52.294-.818.47-.896.526-.198.147-.238.37-.122.674l-.04.03-.958-1.33.033-.025c.22.206.457.233.714.08l3.862-2.335c.14-.103.22-.204.247-.303.025-.1.014-.242-.032-.428l.035-.025 1.564 2.15-.028.03c-.238-.19-.49-.22-.76-.088-.033.015-.466.415-1.302 1.2-.92.86-1.6 1.512-2.036 1.96-.113.12-.177.223-.188.313-.01.09.015.224.078.406-.024.024-.043.027-.057.01zM17.994 54.444l-.997.465-.013-.026c.223-.182.194-.41-.085-.68L16.7 54l-3.006 3.028c-.182.182-.277.36-.284.525.007.11.016.222.027.338l-.042.017-1.082-1.086.03-.03.366.034c.19-.007.355-.103.496-.288l3.012-3.02-.195-.208c-.18-.188-.395-.19-.646-.003l-.02-.044c.075-.158.22-.5.437-1.03h.036l2.157 2.165.007.044zM19.44 56.738c.026-.173.038-.28.038-.322-.006-.107-.052-.19-.14-.25l-.435-.304-1.068 1.535.008.005.835.58c.082.016.235.017.46.004l.022.014-.664.964-.02-.015c0-.055-.02-.132-.057-.234-.038-.1-.076-.165-.115-.192l-.852-.604-1.103 1.602c-.038-.02.096.078.4.29.253.175.496.208.73.097l.03.02c-.024.23-.068.568-.132 1.016l-.036.036L15.07 59.4l.052-.076c.117.048.24.048.364.002s.222-.12.292-.223l2.494-3.62c.15-.216.133-.468-.05-.752l.06-.07 2.287 1.593c-.176.15-.525.332-1.044.546l-.087-.062zM24.298 60.228c.25-1.31.13-2.01-.363-2.106-.103-.02-.213.003-.328.07-.115.067-.182.15-.2.25l-.777 4.066.234.045c.636.124 1.114-.65 1.434-2.325m.728.192c-.177.922-.4 1.587-.67 1.993-.427.643-1.047.888-1.857.732l-1.074-.216c-.006-.002-.006-.005 0-.01.295-.132.466-.316.51-.553l.813-4.25c.024-.133-.067-.263-.277-.39-.005-.006-.006-.014-.004-.025.407-.19.825-.5 1.255-.926.005.006.013.008.026.005-.066.383-.12.662-.16.837.207-.136.417-.185.63-.144.516.1.817.518.904 1.257.06.475.026 1.038-.098 1.69M27.18 58.37l.532 4.344c.02.163.086.288.197.376.078.058.216.12.414.186l.003.034-1.744.216-.04-.03.022.024c.006 0 .008-.007.007-.018-.002-.01-.006-.017-.01-.016.337-.143.488-.363.452-.66l-.536-4.37c-.018-.15-.078-.284-.177-.398-.1-.115-.225-.18-.375-.196l-.015-.05 1.7-.21-.01.053c-.163.025-.28.11-.348.25-.07.143-.093.297-.073.464M31.918 60.566c.158.402.17.79.04 1.163-.14.4-.42.676-.834.828-.06.024-.176.048-.347.074-.17.025-.31.06-.42.104-.126.05-.25.12-.372.21l-.068-.054c.083-.414.15-.92.2-1.52l.112-.028.092.308c.036.125.118.21.245.252.128.043.26.037.398-.017.208-.083.332-.244.37-.484.03-.198.003-.404-.08-.62-.14-.35-.415-.59-.828-.724-.376-.105-.753-.212-1.13-.323-.436-.184-.747-.51-.937-.98-.148-.36-.155-.7-.023-1.025.132-.324.39-.562.774-.714.12-.048.314-.09.58-.125.263-.036.457-.08.58-.137l.086.05c-.173.557-.27 1.02-.29 1.392l.016.012-.033-.014c-.06-.085-.125-.2-.196-.348-.022-.09-.087-.16-.197-.212-.11-.054-.228-.056-.353-.006-.17.068-.276.184-.32.35-.042.165-.03.33.035.497.12.304.38.514.788.63.73.22 1.108.332 1.13.342.447.214.772.587.98 1.116M33.248 54.704l.276 1.07-.027.01c-.138-.254-.365-.266-.68-.04l-.234.163 2.422 3.516c.146.212.3.338.462.375.108.014.22.024.334.034l.01.045-1.256.875-.024-.034.1-.358c.025-.19-.038-.37-.193-.543l-2.413-3.52-.238.153c-.216.144-.255.356-.12.637l-.045.012c-.14-.1-.45-.306-.928-.616l.007-.037 2.505-1.743h.043zM34.92 54.004l2.998 3.174c.113.118.24.18.38.184.1 0 .246-.033.445-.098l.022.024-1.273 1.217h-.05l.03.007c.005-.005.003-.01-.004-.02-.008-.007-.014-.01-.018-.005.186-.318.177-.585-.027-.8l-3.016-3.193c-.106-.11-.23-.182-.38-.214s-.288-.01-.418.068l-.04-.03 1.24-1.188.023.05c-.116.117-.16.254-.13.41.027.154.1.292.216.414M41.457 54.067c.053-.02.063-.01.034.027L39.6 56.45c-.002-.008-.015-.014-.04-.02.067-.288.008-.506-.175-.655l-3.492-2.834c-.222-.18-.45-.213-.686-.1l-.045-.024.955-1.19.052.044c-.147.253-.095.483.16.688l3.493 2.847.582-.726c-.58-.334-1.025-.626-1.334-.878-.443-.36-.827-.754-1.15-1.185-.002-.016.01-.028.04-.036.385.048.753.007 1.1-.122 0 .018.01.032.03.046-.023.295.19.623.633.983.182.148.458.31.826.49.413.19.716.287.907.29M43.77 50.404c.047-.026.06-.02.035.022l-1.55 2.595c-.003-.007-.017-.01-.042-.013.026-.295-.062-.503-.263-.625l-3.847-2.324c-.245-.148-.476-.15-.694-.004l-.048-.02.783-1.308.057.035c-.11.273-.026.493.252.66l3.85 2.337.48-.8c-.622-.25-1.103-.478-1.443-.683-.488-.296-.922-.634-1.302-1.015-.003-.017.008-.03.035-.042.39-.007.747-.098 1.074-.274.002.016.014.03.033.04.02.297.274.59.763.887.2.122.497.246.886.37.436.132.748.187.94.164M41.01 45.397c-.174.007-.282.013-.322.02-.103.027-.176.088-.22.185l-.215.487 1.698.77.005-.01.413-.932c0-.084-.026-.236-.083-.455l.01-.024 1.066.476-.01.024c-.052.01-.125.04-.217.097-.092.056-.147.106-.167.15l-.432.952 1.77.793c-.01.04.058-.11.21-.45.124-.282.11-.528-.04-.74l.014-.03c.23-.02.568-.04 1.018-.06l.042.03-1.126 2.538-.083-.038c.023-.124.002-.244-.067-.36-.07-.114-.16-.197-.27-.247L40 46.783c-.24-.107-.48-.044-.726.19l-.08-.046 1.13-2.555c.183.145.424.454.73.93l-.044.095zM42.97 42.056c-.742-.23-1.18-.134-1.31.29-.102.333.148.594.752.782.07.02.16.05.273.084.12.03.197.053.235.064.556.173.89.078 1-.283.12-.39-.196-.703-.95-.937m3.98.14c.023 0 .05.012.077.033.094.245.347.56.756.94l-.013.042c-.446.117-1.53.107-3.258-.027-.027.066-.054.126-.082.18-.07.133-.145.22-.223.265l1.596.495c.128.04.26.033.393-.02.134-.056.237-.143.31-.263l.03.01-.495 1.612c-.003.012-.007.012-.01 0-.007-.01-.014-.014-.02-.01-.02-.093-.036-.18-.05-.267-.05-.182-.168-.302-.354-.36l-3.97-1.234c-.138-.043-.278-.006-.42.11-.062.07-.122.134-.183.196-.01 0-.028-.004-.047-.016-.057-.272-.106-.467-.146-.585-.084-.243-.217-.493-.403-.75.016-.007.02-.023.017-.05l.665.207c-.125-.243-.145-.475-.06-.696.17-.412.488-.66.958-.743.36-.062.754-.026 1.188.108.743.23 1.206.608 1.39 1.13.64.056 1.092.08 1.36.07.62-.02.95-.145.994-.38M42.775 36.55c.167.332.438.604.815.817.39.23 1.012.613 1.864 1.154l1.625.3c.172.02.34-.035.5-.162.144-.112.205-.182.18-.21 0 .01.007.01.027 0 .018-.012.026-.01.024.01l-.298 1.65c-.01.046-.026.046-.052 0-.048-.358-.225-.565-.527-.62l-1.618-.297c-.698.084-1.68.21-2.952.38-.13.026-.252.076-.367.15-.14.09-.22.195-.237.318l-.05-.008.324-1.747c-.002.013 0 .015.006.01.013-.003.024 0 .033.007-.006.1.03.21.112.327.08.117.17.178.265.184l2.08-.178c0-.005-.608-.367-1.826-1.083-.157-.133-.517-.237-1.077-.316 0-.006.01-.016.022-.032.14-.052.282-.102.427-.147.303-.132.52-.302.656-.513.007-.01.015-.008.02.005.007.013.014.014.022.004M5.36 28.837c-.812-.096-1.244.076-1.296.518-.04.346.27.558.93.637.076.01.175.02.298.036l.255.02c.61.072.935-.08.98-.456.047-.405-.34-.657-1.167-.755m4.14-.564c.024-.003.053.003.086.02.146.225.468.49.967.793l-.006.044c-.438.193-1.562.375-3.372.548-.016.07-.03.133-.05.19-.046.145-.105.245-.177.302l1.745.206c.14.018.274-.013.402-.09.127-.078.217-.18.27-.313l.033.004-.196 1.676c0 .012-.006.013-.014.003-.008-.01-.015-.012-.02-.007-.038-.09-.073-.174-.105-.255-.087-.17-.232-.27-.437-.293l-4.343-.515c-.152-.017-.288.044-.413.184-.05.08-.1.153-.15.225-.012.004-.03.002-.053-.007-.11-.256-.2-.44-.264-.55-.134-.224-.322-.446-.562-.665.014-.01.016-.028.006-.053l.728.086c-.175-.217-.24-.443-.196-.676.093-.436.374-.736.844-.9.36-.126.775-.16 1.25-.104.81.096 1.364.385 1.658.868.67-.058 1.143-.116 1.416-.173.638-.126.955-.31.954-.547M7.267 24.434c-.468-.118-.912-.187-1.332-.208-.653-.036-1.013.08-1.08.35-.12.477.558.9 2.032 1.273 1.68.423 2.574.374 2.686-.147.085-.436-.683-.86-2.306-1.27m2.975 1.476c-.145.58-.657.89-1.535.93-.572.026-1.252-.06-2.04-.26-.656-.165-1.204-.388-1.644-.67-.676-.427-.95-.92-.823-1.48.128-.56.596-.87 1.406-.928.537-.035 1.143.035 1.814.21.34.093.685.19 1.03.29.59.19 1.034.415 1.334.674.422.35.575.762.458 1.233M8.457 20.236c-1.296-.52-2.037-.544-2.222-.077-.04.098-.035.21.013.34.048.126.12.21.22.248l4.03 1.613.087-.222c.24-.605-.47-1.24-2.128-1.902m.327-.682c.915.366 1.555.724 1.923 1.075.584.558.723 1.222.418 1.992l-.412 1.02c-.003.006-.006.004-.01-.003-.08-.32-.24-.528-.476-.623l-4.21-1.684c-.13-.052-.28.012-.447.194-.008.003-.018.003-.028 0-.123-.446-.363-.924-.724-1.438.008-.005.01-.013.01-.026.38.145.655.256.828.33-.104-.232-.116-.45-.035-.653.195-.488.678-.7 1.45-.634.497.04 1.07.19 1.714.448M8.236 16.287l4.026 2.206c.15.082.295.105.436.068.096-.028.23-.103.404-.224l.03.017-.84 1.552-.05.014.033-.004c.002-.005 0-.01-.01-.016s-.018-.006-.022 0c.077-.364-.022-.62-.296-.77l-4.05-2.22c-.138-.076-.287-.108-.444-.097-.157.012-.286.074-.388.187l-.05-.017.82-1.513.037.04c-.072.15-.07.295.012.436.08.142.197.256.352.34M12.296 14c-.39-.286-.774-.52-1.156-.697-.59-.28-.968-.31-1.13-.085-.29.396.18 1.046 1.403 1.95 1.398 1.027 2.245 1.32 2.544.88.242-.37-.31-1.054-1.66-2.048m2.202 2.492c-.352.483-.943.576-1.77.282-.54-.192-1.138-.53-1.794-1.012-.546-.403-.97-.818-1.272-1.245-.466-.653-.535-1.213-.207-1.684.327-.47.878-.578 1.65-.326.51.17 1.045.465 1.6.883.283.215.565.434.848.657.475.4.802.777.982 1.13.26.485.248.924-.038 1.315M18.052 12.41l.037.04-1.165 1.1-.037-.038c.016-.12.035-.24.054-.356.018-.155-.016-.26-.102-.318-.327-.227-1.368-.843-3.125-1.85l3.444 3.682c.013.06-.002.086-.047.08-.517-.258-.985-.3-1.403-.124-.003-.02-.013-.036-.03-.045.046-.098.044-.236-.006-.414-.048-.177-.135-.333-.26-.466l-3.033-3.216c-.188-.203-.426-.275-.71-.218l-.043-.032 1.138-1.077.037.04c.003.296.065.51.186.64-.004-.005.444.258 1.344.79.917.538 1.393.81 1.425.822l-1.864-1.994c-.226-.2-.45-.22-.673-.058-.012-.005-.022-.02-.03-.045.085-.178.14-.388.163-.63.03-.28.008-.53-.064-.756l.012-.037 3.232 3.442c.133.142.422.455.866.937.203.156.42.19.652.1M18.89 8.213c-.242-.42-.502-.788-.78-1.104-.43-.496-.766-.674-1.005-.534-.422.247-.25 1.03.513 2.35.87 1.505 1.53 2.116 1.98 1.833.37-.245.134-1.094-.707-2.547m1.028 3.17c-.513.3-1.092.15-1.734-.455-.42-.392-.832-.942-1.24-1.647-.34-.588-.565-1.14-.67-1.652-.17-.785-.01-1.328.48-1.627.486-.297 1.033-.176 1.64.367.4.36.773.845 1.117 1.452.174.31.345.624.516.942.275.558.426 1.035.45 1.43.045.55-.14.947-.558 1.19M23.864 4.107c-.055.05-.112.104-.17.166-.06.062-.094.162-.106.297-.004.037.03.73.104 2.08.067 1.326.11 2.123.128 2.392.026.328.23.503.616.525-.035.008-.035.023 0 .046l-2.162.49-.018-.042c.134-.072.24-.18.313-.32.073-.142.097-.282.072-.422l-1.59-4.383c-.133-.358-.37-.532-.705-.523-.013-.003-.027-.012-.042-.027-.017-.02-.008-.037.025-.05.08-.025.362-.092.85-.203.49-.11.737-.163.744-.16-.01.016-.002.03.018.043-.265.163-.34.41-.222.742l1.442 4.015L22.77 3.1l.04-.02c.33.533.68.857 1.042.975-.008.015-.004.032.012.052M30.186 8.298l.795-3.074-.342-.117-1.273 2.887.82.304zm.553 2.628l-1.532-.576.04-.033c.107.034.21.015.308-.056.098-.07.167-.16.21-.272.022-.067.112-.43.267-1.093l-.925-.352c-.282.564-.44.894-.475.988-.09.246-.003.464.26.656l-.02.05-1.53-.576.016-.042c.295.047.51-.072.646-.356l2.014-4.318c.063-.172.08-.308.047-.408-.033-.1-.12-.22-.258-.352l.015-.04 2.487.92-.008.044c-.305-.025-.535.1-.694.377-.017.032-.17.635-.455 1.81-.315 1.29-.538 2.258-.667 2.903-.032.172-.03.3.01.383.038.085.134.186.285.305-.01.035-.022.05-.044.04zM33.515 12.93l-.032.04-1.297-.94.032-.043c.12-.006.24-.01.358-.013.155-.012.252-.067.29-.162.16-.366.566-1.51 1.214-3.435l-2.942 4.097c-.055.026-.083.016-.087-.03.156-.56.108-1.028-.142-1.408.02-.007.032-.02.037-.038.105.026.24-.003.404-.085.163-.08.298-.196.406-.345l2.565-3.604c.163-.225.188-.474.077-.744l.024-.05 1.27.92-.032.045c-.29.06-.487.16-.59.305.004-.004-.17.488-.515 1.478-.353 1.007-.53 1.527-.533 1.562l1.59-2.218c.153-.263.13-.487-.07-.676.003-.013.016-.026.04-.038.188.05.404.064.644.04.28-.023.52-.092.727-.206l.04.007-2.748 3.842c-.114.16-.364.503-.752 1.032-.114.23-.107.452.025.665M37.937 12.767c1.033-.945 1.38-1.603 1.042-1.976-.072-.077-.175-.123-.31-.136-.134-.012-.242.017-.32.09l-3.207 2.934.16.178c.436.48 1.314.118 2.634-1.09m.467.595c-.728.666-1.33 1.088-1.805 1.267-.756.283-1.41.117-1.966-.495l-.73-.82c-.005-.005-.002-.007.005-.007.32.065.577.013.764-.158l3.35-3.067c.105-.095.113-.26.024-.49 0-.007.005-.016.013-.023.452.083.986.075 1.604-.025 0 .008.006.014.017.02-.296.278-.515.48-.658.603.253.008.454.093.6.255.353.39.33.92-.068 1.587-.253.432-.637.884-1.15 1.354M40.34 19.807c-.402.212-.802.276-1.198.19-.426-.088-.737-.332-.932-.73-.03-.058-.065-.17-.107-.34-.042-.168-.09-.305-.145-.41-.063-.12-.147-.236-.252-.348l.05-.078c.434.03.964.032 1.588.004l.038.11-.31.133c-.125.052-.204.146-.236.28-.034.135-.017.267.053.398.103.2.28.303.53.31.21.004.42-.05.633-.163.35-.185.573-.494.673-.928.073-.393.15-.788.228-1.185.15-.46.46-.818.926-1.07.357-.197.71-.25 1.057-.16.346.092.615.32.807.688.06.115.12.304.182.566.06.262.126.453.193.57l-.042.093c-.593-.103-1.08-.14-1.464-.11l-.012.016.012-.036c.082-.07.196-.15.342-.24.09-.035.156-.11.2-.228.046-.118.036-.237-.026-.357-.085-.163-.215-.255-.39-.276-.174-.022-.344.01-.51.1-.303.16-.496.452-.58.877-.157.766-.24 1.16-.248 1.185-.183.478-.536.856-1.062 1.135M43.033 22.34c.453-.166.86-.358 1.22-.58.56-.337.79-.636.697-.898-.167-.462-.964-.43-2.392.093-1.626.596-2.34 1.142-2.142 1.637.172.41 1.045.325 2.617-.252m-3.285.458c-.204-.56.047-1.107.75-1.636.458-.344 1.07-.656 1.833-.937.637-.233 1.216-.357 1.737-.372.798-.028 1.3.226 1.508.76.206.537-.01 1.056-.647 1.562-.425.332-.964.616-1.62.85-.333.115-.67.23-1.013.342-.594.174-1.088.238-1.48.194-.546-.05-.9-.305-1.067-.762M41.34 28.072l-.052.012-.348-1.568.05-.012c.096.076.188.152.278.23.124.092.23.117.324.072.362-.167 1.42-.754 3.174-1.762l-4.904 1.105c-.058-.018-.073-.045-.046-.082.485-.316.76-.7.822-1.15.02.008.038.007.053-.003.063.09.182.158.36.206.176.05.354.054.532.013l4.297-.986c.27-.06.45-.23.547-.506l.05-.02.343 1.535-.053.012c-.256-.15-.47-.204-.643-.165.005 0-.447.252-1.36.762-.93.518-1.406.79-1.43.813l2.655-.598c.285-.096.415-.28.39-.554.01-.008.03-.01.055-.003.108.164.26.318.455.46.225.17.452.28.68.33.01.01.017.022.026.032l-4.593 1.043c-.19.043-.604.133-1.242.27-.238.097-.378.27-.42.514M43.245 31.315c-.452.048-.846-.04-1.183-.266-.363-.243-.562-.585-.597-1.028-.007-.065.002-.183.025-.355.023-.173.028-.317.017-.435-.015-.135-.05-.274-.106-.418l.075-.05c.392.188.884.386 1.474.59l-.006.118-.337.01c-.135 0-.244.06-.323.172-.08.113-.113.243-.097.39.023.224.15.386.38.486.192.08.408.108.648.083.393-.042.714-.245.966-.61.214-.34.43-.678.65-1.018.31-.372.727-.59 1.254-.65.403-.05.75.032 1.038.246.29.214.456.527.5.94.013.13 0 .326-.04.593-.04.266-.05.467-.03.6l-.073.072c-.514-.315-.955-.53-1.322-.645l-.016.01.023-.03c.103-.035.24-.067.408-.097.094.002.185-.043.27-.136.085-.09.12-.206.107-.34-.02-.184-.107-.317-.26-.402-.154-.085-.326-.117-.513-.097-.34.036-.627.236-.86.6-.43.653-.65.99-.667 1.01-.345.375-.813.594-1.405.657"/>
    </g>
</svg>
