<svg xmlns="http://www.w3.org/2000/svg" width="145" height="24" viewBox="0 0 145 24">
    <g fill="#D09046" fill-rule="evenodd">
        <path d="M2.508 4.84h.536c.376 0 .803-.037 1.12-.317.34-.304.352-.694.352-.998V2.417c0-.353-.012-.658-.353-.974-.34-.316-.67-.329-1.035-.329h-.62V4.84zM3.31.847c.804 0 1.595.194 2.082.56.523.39.718.913.718 1.485 0 .499-.122.95-.572 1.364-.329.303-.889.572-1.4.693v.073c.341.05.682.171 1.083.439.597.4.963.912.963 1.996V8.273c0 .572.024.828.742.828h.45v.267h-.62c-.877 0-1.583-.011-1.924-.779-.122-.268-.134-.584-.134-.95v-.62c-.012-.657-.012-.999-.146-1.29-.268-.56-.792-.621-1.12-.621h-.925V9.1h1.095v.267H0v-.267h1.096V1.114H0V.847H3.31zM12.243 5.619c0 1.57.012 3.665 1.936 3.665s1.936-2.095 1.936-3.665V4.596c0-1.57-.012-3.664-1.936-3.664s-1.936 2.094-1.936 3.664V5.62zm5.576-.511c0 2.47-1.644 4.443-3.64 4.443-1.996 0-3.64-1.972-3.64-4.443 0-2.472 1.644-4.444 3.64-4.444 1.996 0 3.64 1.972 3.64 4.444zM24.171 9.1h1.254c.377 0 1.18-.073 1.644-1.046.23-.488.292-1.12.292-2.41V4.572c0-1.292-.05-1.937-.292-2.412-.28-.56-.89-1.047-1.644-1.047H24.17v7.987zM25.388.848c1.498 0 2.484.851 3.044 1.838.426.755.633 1.668.633 2.496 0 .998-.28 2.07-.913 2.885-.17.22-1.035 1.302-2.362 1.302h-4.127v-.267h1.096V1.114h-1.096V.847h3.725zM32.787 1.114V.847h3.603v.267h-1.095V9.1h1.095v.269h-3.603V9.1h1.095V1.114zM41.94 5.619c0 1.57.012 3.665 1.936 3.665 1.923 0 1.935-2.095 1.935-3.665V4.596c0-1.57-.012-3.664-1.935-3.664-1.924 0-1.936 2.094-1.936 3.664V5.62zm5.576-.511c0 2.47-1.644 4.443-3.64 4.443-1.997 0-3.64-1.972-3.64-4.443 0-2.472 1.643-4.444 3.64-4.444 1.996 0 3.64 1.972 3.64 4.444zM57.678 1.93c0-.207-.012-.39-.134-.56-.182-.243-.438-.256-.633-.256h-.329V.847h2.472v.267h-.305c-.194 0-.45.013-.633.256-.122.17-.133.353-.133.56v7.536h-.268l-5.223-7.45v6.27c0 .206.012.389.134.559.183.243.438.256.633.256h.329v.267h-2.472v-.267h.304c.196 0 .45-.013.633-.256.122-.17.135-.353.135-.56V1.614c-.158-.317-.524-.5-.828-.5h-.244V.847h2.41l4.08 5.819h.072V1.93zM64.358 5.619c0 1.57.013 3.665 1.936 3.665 1.924 0 1.936-2.095 1.936-3.665V4.596c0-1.57-.012-3.664-1.936-3.664-1.923 0-1.936 2.094-1.936 3.664V5.62zm5.576-.511c0 2.47-1.644 4.443-3.64 4.443-1.996 0-3.64-1.972-3.64-4.443 0-2.472 1.644-4.444 3.64-4.444 1.996 0 3.64 1.972 3.64 4.444zM72.804.847h3.433v.267h-1.06l1.973 5.893h.073l1.278-4.602c.098-.329.134-.487.134-.62 0-.317-.17-.67-.876-.67V.846h2.398v.267h-.049c-.292 0-.62.098-.852.293-.304.268-.39.67-.462.913l-2.01 7.231h-.243l-2.824-8.437h-.913V.847zM93.605 1.906c0-.719-.56-.974-1.047-.974-.34 0-1.144.17-1.144 1.303 0 .182.036.852.633 1.667.876-.377 1.558-1.217 1.558-1.996zm-3.092 4.662c0 1.875.973 2.41 1.655 2.41.622 0 1.279-.474 1.656-.875a33.035 33.035 0 0 1-1.522-1.949 47.042 47.042 0 0 1-1.06-1.534c-.523.512-.73 1.048-.73 1.948zm6.707 2.374c-.085.183-.328.609-1.07.609-.914 0-1.547-.536-2.144-1.23-1.022 1.133-1.813 1.23-2.507 1.23-.67 0-1.218-.048-1.765-.51-.39-.33-.829-.938-.829-1.888 0-.986.439-1.644.829-1.997.365-.341.985-.645 1.277-.767-.462-.693-.754-1.12-.754-1.85 0-.682.316-1.145.67-1.425.462-.365.998-.45 1.387-.45.658 0 1.096.158 1.352.39.206.182.365.487.365.864 0 .876-.78 1.74-1.887 2.203.657 1.023 1.619 2.375 2.41 3.25.207-.23.426-.498.62-.827.184-.304.318-.584.318-.876 0-.39-.256-.56-.67-.56h-.414V4.84h2.508v.268h-.121c-.293 0-.585.158-.804.475-.438.644-.39 1.095-1.278 2.02.256.329.633.78.937 1.047.256.232.56.45.974.45.304 0 .475-.133.584-.413l.012.255zM111.471 3.001c-.195-.499-.426-.913-.767-1.241-.45-.439-1.156-.828-1.9-.828-.997 0-1.484.718-1.484 1.4 0 1.168 1.022 1.351 2.495 1.778 1.084.303 2.57.815 2.57 2.495 0 .658-.184 1.315-.658 1.924-.67.852-1.46 1.022-2.033 1.022-.39 0-.877-.134-1.23-.28-.584-.243-.79-.438-1.047-.438-.183 0-.511.17-.657.535h-.244c.073-.267.098-.51.098-.985a15.7 15.7 0 0 0-.11-1.766h.243a4.6 4.6 0 0 0 .646 1.315c.596.816 1.473 1.339 2.35 1.339.608 0 1.034-.207 1.314-.548.305-.353.45-.864.45-1.29 0-.511-.158-.937-.754-1.29-.609-.366-1.132-.33-2.325-.792-.585-.23-1.741-.755-1.741-2.19 0-1.036.535-2.497 2.264-2.497.414 0 .913.134 1.352.39.17.097.34.231.547.231.256 0 .39-.134.463-.353h.243c-.036.158-.06.377-.06.548 0 .243.036.973.219 1.521h-.244zM117.956 5.619c0 1.57.013 3.665 1.936 3.665s1.936-2.095 1.936-3.665V4.596c0-1.57-.013-3.664-1.936-3.664s-1.936 2.094-1.936 3.664V5.62zm5.577-.511c0 2.47-1.645 4.443-3.641 4.443s-3.64-1.972-3.64-4.443c0-2.472 1.644-4.444 3.64-4.444 1.996 0 3.64 1.972 3.64 4.444zM133.695 1.93c0-.207-.012-.39-.134-.56-.183-.243-.438-.256-.634-.256h-.328V.847h2.472v.267h-.305c-.195 0-.45.013-.633.256-.122.17-.133.353-.133.56v7.536h-.269l-5.222-7.45v6.27c0 .206.012.389.133.559.183.243.439.256.634.256h.329v.267h-2.472v-.267h.304c.195 0 .45-.013.633-.256.122-.17.135-.353.135-.56V1.614c-.159-.317-.524-.5-.828-.5h-.244V.847h2.41l4.079 5.819h.073V1.93zM143.93 3.001c-.195-.499-.426-.913-.768-1.241-.45-.439-1.156-.828-1.899-.828-.998 0-1.485.718-1.485 1.4 0 1.168 1.023 1.351 2.496 1.778 1.084.303 2.569.815 2.569 2.495 0 .658-.183 1.315-.658 1.924-.67.852-1.46 1.022-2.033 1.022-.389 0-.876-.134-1.23-.28-.584-.243-.79-.438-1.047-.438-.182 0-.51.17-.657.535h-.243c.073-.267.097-.51.097-.985a15.7 15.7 0 0 0-.11-1.766h.244a4.6 4.6 0 0 0 .645 1.315c.597.816 1.473 1.339 2.35 1.339.608 0 1.035-.207 1.314-.548.305-.353.45-.864.45-1.29 0-.511-.158-.937-.754-1.29-.608-.366-1.132-.33-2.325-.792-.584-.23-1.74-.755-1.74-2.19 0-1.036.535-2.497 2.264-2.497.414 0 .912.134 1.351.39.17.097.34.231.548.231.255 0 .389-.134.462-.353h.244c-.037.158-.06.377-.06.548 0 .243.036.973.218 1.521h-.243zM36.977 13.83c-1 .903-1.749 2.245-2.53 3.267l-.286.364c.341.12.572.176.903.176 1.33 0 2.386-1.144 2.386-2.31 0-.649-.11-1.122-.473-1.496zm-8.513 3.62c.275.241.704.286 1.176.286.946 0 2.134-.408 2.981-1.046a.757.757 0 0 1-.12-.142l.175-.132.11.143c.529-.451.891-.99.891-1.562 0-.583-.418-.792-.957-.792-1.793 0-3.387 1.55-4.256 3.245zm-.155-.188c.925-1.715 2.553-3.277 4.411-3.277.672 0 1.177.275 1.177 1.012 0 .615-.385 1.209-.957 1.715.132.121.275.243.429.341.055-.077.11-.154.605-.791a13.159 13.159 0 0 1 2.772-2.629c-.704-.55-1.749-.76-2.684-.76-2.365 0-5.895 1.43-5.895 3.73 0 .285.054.494.142.66zm1.342 3.125c-.78-.309-1.617-.639-2.573-.639-.616 0-1.232.121-1.232.374.01.463.968.66 1.627.66.826 0 1.54-.142 2.178-.395zm8.15-7.15a3.778 3.778 0 0 0-.351.209c.67.429.98 1.023.98 1.88 0 1.694-1.838 2.607-3.29 2.607-.407 0-.715-.087-1.144-.275-.924 1.089-1.98 1.991-3.2 2.597.45.154 1.462.351 1.913.351 1.232 0 2.31-.34 3.157-.957v.298c-.814.571-2.057 1.055-3.465 1.055-.517 0-1.705-.21-2.221-.406l-.11-.044c-.792.296-1.661.45-2.619.45-.726 0-1.815-.264-1.826-.88 0-.461 1.046-.626 1.848-.626.804 0 1.552.076 2.838.571 1.189-.67 2.08-1.727 2.926-2.837a3.218 3.218 0 0 1-.462-.374c-.913.725-2.21 1.232-3.223 1.232-.428 0-.902-.067-1.275-.275-.056.143-.122.275-.166.407l-.197-.088.175-.44c-.286-.231-.484-.573-.484-1.1 0-2.442 4.037-3.939 6.512-3.939 1.056 0 2.222.199 3.102.661.154-.1.308-.187.473-.275l.11.198z"/>
        <path d="M35.864 19.65c.957-.836 1.781-1.816 2.75-2.762.319-.307.56-.417.814-.417.23 0 .385.286.385.67 0 .231-.056.506-.187.781.407-.44 1-1.066 1.408-1.429l.813.527-.109.121c-.43.496-1.265 1.21-1.265 1.826 0 .473.176.936.605.936.154 0 .396-.122.616-.254v.298c-.187.12-.44.187-.66.187-.671 0-1.189-.506-1.189-1.255 0-.583.297-.978.606-1.496-1.078 1.123-1.925 2.289-2.86 3.531h-1.2c2.234-2.75 2.245-2.76 2.245-2.76.088-.1.682-.836.682-1.21a.22.22 0 0 0-.055-.155c-.022-.021-.044-.021-.066-.021-.088 0-.242.098-.43.275-.967.934-1.847 1.979-2.903 2.904v-.298z"/>
        <path d="M47.016 14.579c.165 0 .33.165.33.319 0 .428-.517.846-.946.846-.176 0-.341-.197-.341-.352 0-.417.539-.813.957-.813zm-5.324 5.368v-.298c1.276-.902 2.684-2.024 3.542-3.09l1.397-.11-2.486 2.783c-.253.351-.627.736-.627 1.066 0 .264.1.462.319.462.22 0 .45-.077.913-.45.33-.265.803-.66.803-.66v.297s-.34.275-.671.538c-.484.396-.857.528-1.122.528-.495 0-.704-.384-.704-.737 0-.34.143-.945.484-1.606l-1.848 1.277z"/>
        <path d="M49.688 19.396c.792-.615 1.507-1.33 2.112-2.299a.627.627 0 0 0 .1-.308c0-.142-.089-.264-.265-.264-.396 0-.77.594-1.067 1.056-.22.341-.67 1.145-.88 1.815m.429-2.002c.253-.374.759-1.088 1.518-1.088.33 0 .484.209.484.483a.942.942 0 0 1-.12.419c-.66 1.067-1.475 1.836-2.399 2.519-.01.044-.01.088-.01.132 0 .197.098.384.351.384.319 0 .957-.418 1.177-.594v.298c-.264.208-.858.516-1.22.516-.386 0-.517-.253-.54-.55-.605.44-1.77 1.09-2.266 1.09-.44 0-.539-.374-.539-.825 0-.43.143-.947.32-1.32l-1.32 1.089v-.298c1.22-.89 2.177-1.903 3.112-3.08l1.496-.142s-2.21 2.507-2.21 2.496c-.297.352-1.013 1.2-1.013 1.607 0 .12.066.208.231.219.363 0 .815-.208 2.178-1.1 0-.737.33-1.584.77-2.255"/>
        <path d="M52.855 20.595c0 .132.043.21.165.21.44-.012 1.704-1.068 2.65-2.168.704-.813 1.078-1.583 1.078-1.913 0-.067-.033-.11-.099-.11-1.154 0-1.814.979-2.805 2.012-.34.363-.99 1.497-.99 1.97zm-1.738-.946l1.375-1.012c.363-.264.869-.692 1.154-.967.737-.715 1.859-1.32 2.86-1.32.22 0 .463.164.463.374 0 .175-.067.418-.21.715l.605-.815 1.397-.11-2.43 2.718c-.254.352-.628.736-.628 1.066 0 .264.099.462.32.462.22 0 .45-.077.912-.45.33-.264.803-.66.803-.66v.297s-.34.275-.67.538c-.485.396-.859.528-1.123.528-.494 0-.648-.275-.648-.627 0-.34.142-.747.252-1.012-.945 1.001-2.068 1.65-2.53 1.65-.428 0-.583-.33-.583-.758 0-.529.243-1.221.484-1.662l-1.803 1.343v-.298z"/>
        <path d="M59.552 16.966c.23-.01.682-.022.791-.022l2.277-2.794 1.09-.121-2.333 2.87 1.2-.043-.32.44-1.165-.045-1.155 1.354c-.286.33-.748 1-.748 1.451 0 .485.187.682.407.682.561 0 1.341-.572 2.002-1.1v.309c-.628.55-1.463 1.078-2.08 1.078-.363 0-.77-.375-.77-.969 0-.44.22-.946.342-1.32l-1.353 1.21v-.297a21.102 21.102 0 0 0 1.98-1.936l.407-.495-.737-.033.165-.22z"/>
        <path d="M63.412 19.561c1.287-.252 3.344-1.935 3.344-2.65 0-.187-.1-.265-.32-.265s-.78.353-1.022.562c-.43.373-1.628 1.407-2.002 2.353m3.619-2.618c0 1.365-2.376 2.706-3.696 2.86a1.343 1.343 0 0 0-.033.287c0 .297.099.681.55.681.649 0 1.65-.704 2.222-1.122v.287c-.572.418-1.485 1.077-2.244 1.077-.77 0-1.122-.714-1.122-1.265 0-.363.077-.693.198-.99l-1.31 1.189v-.298l1.387-1.242c.572-.66 1.694-1.42 2.123-1.629.352-.165.89-.352 1.33-.352.375 0 .595.198.595.517M79.942 13.38c-.682.902-1.155 2.255-1.804 3.3-.946 1.528-2.068 2.959-3.53 3.805.44.165.879.242 1.32.242 2.595 0 5.345-2.673 5.345-5.158 0-.935-.396-1.716-1.331-2.19zm-8.458 3.982c.395.33 1.023.451 1.804.451 1.473 0 2.881-.693 2.881-2.068 0-.528-.451-.76-1.121-.76-1.387 0-3.158.99-3.564 2.377zm2.353 3.167c-.847-.286-1.98-.582-3.025-.582-.34 0-1.22.077-1.22.55 0 .417 1.309.56 2.034.56.848 0 1.607-.187 2.211-.528zm6.6-7.688c-.12.099-.231.22-.341.352 1.276.616 1.87 1.683 1.87 2.849 0 2.772-2.706 5.038-5.599 5.038a5.404 5.404 0 0 1-2.09-.419c-.78.385-1.66.616-2.65.616-.815 0-2.255-.209-2.255-.78 0-.617.748-.946 1.485-.946 1.033.01 1.716.308 3.244.77 1.178-.792 1.991-2.135 2.838-3.532.76-1.265 1.628-2.463 2.728-3.541-.605-.242-1.386-.374-2.387-.374-2.75 0-6.247 1.397-6.247 3.365 0 .407.099.716.275.947.528-1.441 2.397-2.464 3.816-2.464.803 0 1.485.352 1.485 1.133 0 1.528-1.616 2.287-3.2 2.287-.694 0-1.42-.132-1.991-.417-.01.044-.01.077-.01.12 0 .925.912 1.265 1.814 1.265.308 0 .626-.044.913-.12l.066.22a3.88 3.88 0 0 1-.98.12c-1.012 0-2.034-.407-2.034-1.484 0-.077.01-.165.022-.242-.506-.32-.847-.77-.847-1.43 0-2.442 3.86-3.542 6.896-3.542 1.078 0 1.915.165 2.585.45l.462-.418.132.177zM86.187 14.579c.165 0 .33.165.33.319 0 .428-.517.846-.946.846-.175 0-.34-.197-.34-.352 0-.417.538-.813.956-.813zm-5.324 5.368v-.298c1.276-.902 2.684-2.024 3.542-3.09l1.397-.11-2.486 2.783c-.253.351-.627.736-.627 1.066 0 .264.1.462.32.462s.45-.077.912-.45c.33-.265.803-.66.803-.66v.297s-.34.275-.671.538c-.484.396-.857.528-1.122.528-.495 0-.704-.384-.704-.737 0-.34.143-.945.484-1.606l-1.848 1.277z"/>
        <path d="M84.724 19.947v-.309c.968-.945 2.398-2.32 3.585-3.475h.617a1.178 1.178 0 0 0-.275.758c0 .55.198 1.056.198 1.65 0 .87-.287 1.551-1.023 2.047.67-.165 1.353-.594 1.847-.969v.298c-.593.462-1.77 1.077-3.31 1.077-.87 0-1.068-.384-1.068-.802 0-.98 1.387-1.694 2.288-1.838v.22c-.715.099-1.825.946-1.825 1.793 0 .243.065.375.33.375 1.242 0 2.1-1.882 2.1-2.915 0-.264-.021-.463-.021-.66 0-.21.022-.419.12-.672-.517.506-2.342 2.245-3.563 3.422"/>
        <path d="M91.487 16.966c.231-.01.682-.022.792-.022l2.277-2.794 1.09-.121-2.333 2.87 1.199-.043-.319.44-1.166-.045-1.155 1.354c-.286.33-.748 1-.748 1.451 0 .485.187.682.407.682.562 0 1.342-.572 2.002-1.1v.309c-.627.55-1.462 1.078-2.079 1.078-.363 0-.77-.375-.77-.969 0-.44.22-.946.341-1.32l-1.353 1.21v-.297a21.102 21.102 0 0 0 1.98-1.936l.407-.495-.737-.033.165-.22z"/>
        <path d="M98.855 14.579c.166 0 .331.165.331.319 0 .428-.517.846-.946.846-.176 0-.341-.197-.341-.352 0-.417.539-.813.956-.813zm-5.323 5.368v-.298c1.276-.902 2.684-2.024 3.542-3.09l1.397-.11-2.486 2.783c-.253.351-.627.736-.627 1.066 0 .264.099.462.319.462s.45-.077.913-.45c.33-.265.803-.66.803-.66v.297s-.341.275-.671.538c-.484.396-.858.528-1.122.528-.495 0-.704-.384-.704-.737 0-.34.143-.945.484-1.606l-1.848 1.277z"/>
        <path d="M106.995 12.797l1.396-.11-5.708 6.544c-.21.242-.627.737-.627 1.067 0 .264.099.462.319.462s.45-.076.913-.45c.33-.264.803-.66.803-.66v.297s-.34.275-.671.538c-.484.396-.858.528-1.122.528-.495 0-.825-.395-.825-.747 0-.155 0-.375.088-.672-1.463 1.287-1.837 1.419-2.1 1.419-.496 0-.705-.384-.705-.736 0-.342.143-.947.484-1.606l-1.848 1.276v-.298c.858-.605 1.76-1.309 2.53-2.024.385-.351 3.949-4.476 4.235-4.828l1.397-.11-5.709 6.544c-.253.353-.627.737-.627 1.067 0 .264.1.462.32.462s.45-.076 2.21-1.639c.407-.825 4.575-5.433 5.247-6.324"/>
        <path d="M105.904 19.561c1.287-.252 3.344-1.935 3.344-2.65 0-.187-.1-.265-.319-.265-.22 0-.78.353-1.023.562-.43.373-1.628 1.407-2.002 2.353m3.619-2.618c0 1.365-2.376 2.706-3.696 2.86a1.343 1.343 0 0 0-.033.287c0 .297.1.681.55.681.649 0 1.65-.704 2.222-1.122v.287c-.572.418-1.485 1.077-2.244 1.077-.77 0-1.122-.714-1.122-1.265 0-.363.077-.693.198-.99l-1.309 1.189v-.298l1.386-1.242c.572-.66 1.694-1.42 2.123-1.629.352-.165.891-.352 1.331-.352.374 0 .594.198.594.517"/>
        <path d="M108.565 19.65c.957-.836 1.781-1.816 2.75-2.762.319-.307.56-.417.814-.417.23 0 .385.286.385.67 0 .231-.056.506-.187.781.407-.44 1-1.066 1.408-1.429l.813.527-.109.121c-.43.496-1.265 1.21-1.265 1.826 0 .473.176.936.605.936.154 0 .396-.122.616-.254v.298c-.187.12-.44.187-.66.187-.671 0-1.189-.506-1.189-1.255 0-.583.297-.978.606-1.496-1.078 1.123-1.925 2.289-2.86 3.531h-1.2c2.234-2.75 2.245-2.76 2.245-2.76.088-.1.682-.836.682-1.21a.22.22 0 0 0-.055-.155c-.022-.021-.044-.021-.066-.021-.088 0-.242.098-.43.275-.967.934-1.847 1.979-2.903 2.904v-.298z"/>
        <path d="M117.451 20.881c-1.21.254-2.574 1.353-2.574 2.134 0 .166.044.33.264.33a.95.95 0 0 0 .55-.208c.572-.506 1.045-1.189 1.628-2.057l.132-.199zm-3.058-1.232c1.2-.902 2.101-1.947 3.003-3.057l1.375-.166c-.32.386-2.541 2.839-2.695 3.158a.837.837 0 0 0-.088.363c0 .153.055.285.253.285.76 0 2.002-1.187 2.783-2.023.627-.671.935-1.122 1.254-1.584l.033-.056 1.364-.143c-.814.88-2.068 2.564-3.201 3.983.517-.21 1.155-.529 1.617-.76v.298c-.429.175-1.21.638-1.881.78-.89 1.1-1.595 1.958-2.332 2.574-.209.176-.528.308-.792.308-.32 0-.462-.252-.462-.583 0-.979 1.386-2.111 3.014-2.497.253-.429.528-.857.89-1.396-.835.726-1.66 1.364-2.386 1.364-.594 0-.847-.419-.847-.88 0-.155.033-.32.088-.484l-.99.814v-.298z"/>
    </g>
</svg>
