<svg xmlns="http://www.w3.org/2000/svg" width="118" height="145" viewBox="0 0 118 145">
    <g fill="#926C3E" fill-rule="evenodd">
        <path d="M51.846 27.626c.52-.3 1-.722 1.333-1.25.22-.34.357-.747.378-1.15.219.065.461.129.719.19-.096.353-.279.664-.482.995-.197.322-.558.722-.892.914a.343.343 0 0 0-.18.275c-.357.036-.714.086-1.071.128.065-.034.132-.064.195-.102zm.563-3.848v-3.202c.182-.124.357-.242.53-.355 1.298-.843 2.535-1.365 5.87-1.291 2.325.054 4.091.602 5.152 1.04v4.266a8.69 8.69 0 0 1-.42.137c-.006-.295-.02-.596-.042-.908l-.03-.39c-.021-.242-.04-.482-.064-.724l-.037-.407c-.02-.217-.035-.426-.053-.636-.016-.2-.034-.403-.045-.592-.015-.27-.203-.278-.217-.005h-.001c-.01.204-.03.428-.048.647-.017.216-.033.432-.054.657l-.035.388c-.025.262-.046.52-.069.782l-.03.362c-.025.335-.042.657-.051.97-.18.029-.36.056-.54.082a16.223 16.223 0 0 0-.038-.984l-.024-.315c-.022-.27-.042-.536-.067-.808l-.031-.326c-.021-.227-.04-.45-.059-.671-.022-.265-.045-.53-.06-.779-.015-.27-.202-.278-.217-.005-.014.258-.037.538-.06.82l-.062.694-.026.295a53.1 53.1 0 0 0-.096 1.133c-.026.366-.046.72-.052 1.054-.175.023-.35.041-.527.06.003-.342-.013-.707-.037-1.081l-.017-.227c-.024-.3-.046-.599-.074-.902l-.021-.23a62.894 62.894 0 0 1-.133-1.61.29.29 0 0 0-.05-.162c-.042-.055-.095-.056-.132.01a.347.347 0 0 0-.037.146c-.015.289-.04.599-.067.916l-.068.752-.018.193c-.029.32-.056.636-.08.95-.004.06-.01.12-.015.178-.028.384-.048.758-.052 1.106 0 .018.007.03.009.046-.182.017-.365.03-.549.044.007-.03.02-.056.02-.09.003-.35-.014-.727-.039-1.112l-.01-.125c-.022-.333-.05-.669-.081-1.009l-.011-.121c-.025-.265-.05-.528-.073-.788a30.72 30.72 0 0 1-.072-.935c-.001-.037-.013-.056-.02-.083-.042-.149-.142-.148-.18.009-.005.024-.015.038-.016.069-.017.298-.042.617-.07.943l-.075.822-.008.077c-.033.358-.063.714-.09 1.066 0 .022-.003.045-.005.068-.028.388-.05.768-.053 1.119 0 .056.012.103.028.147l-.134-.001c-.155-.001-.293-.011-.443-.015a.37.37 0 0 0 .028-.131c.01-.976-.122-2.125-.216-3.192a25.93 25.93 0 0 1-.069-.898c-.001-.025-.01-.037-.014-.057-.036-.182-.156-.185-.19 0-.004.02-.012.028-.013.052-.015.278-.04.577-.066.882-.09 1.062-.224 2.236-.235 3.213 0 .04.012.071.02.105-.194-.012-.369-.033-.552-.05.003-.019.012-.033.012-.055.01-1.012-.13-2.206-.225-3.306a27.382 27.382 0 0 1-.06-.784c-.003-.038-.013-.058-.021-.085-.041-.141-.134-.145-.175-.006-.008.027-.02.047-.022.086-.013.238-.034.496-.056.755-.09 1.086-.23 2.299-.242 3.31-.14-.018-.27-.039-.403-.06v-.04h-.124c-.002-1.041-.144-2.25-.234-3.353-.017-.205-.035-.413-.046-.607-.006-.093-.033-.142-.064-.172l-.082-.009c-.036.026-.067.076-.073.176-.008.178-.026.375-.04.565-.082 1.055-.218 2.243-.249 3.27-.19-.041-.372-.082-.543-.126-.023-1.062-.166-2.26-.245-3.338-.009-.121-.021-.249-.029-.366-.014-.27-.202-.278-.216-.005-.006.097-.017.208-.023.31-.068.999-.199 2.146-.252 3.18a9.952 9.952 0 0 1-1.105-.423zm-.753-3.852l-.003.004a17.16 17.16 0 0 1-2.17-.717c-1.464-.597-2.844-1.426-3.96-2.522-1.153-1.062-1.845-2.57-1.84-4.054.092-1.497.893-2.857 2.025-3.864 1.123-1.024 2.493-1.78 3.92-2.372 2.877-1.179 6.036-1.598 9.153-1.643 3.125.004 6.268.431 9.22 1.487 1.47.536 2.884 1.272 4.07 2.306 1.206 1.007 2.029 2.5 2.078 4.086-.044 1.586-.864 3.084-2.07 4.092-1.188 1.037-2.603 1.773-4.07 2.316-.772.28-1.558.515-2.352.714-.015-.014-.024-.034-.043-.045-.103-.067-2.592-1.649-6.783-1.745-4.17-.095-5.388.735-7.072 1.886l-.103.071zm-.21 1.445c-1.413-.505-2.79-1.06-4.102-1.752-.91-.44-1.803-.948-2.572-1.615a7.362 7.362 0 0 1-1.838-2.393c-.864-1.82-.844-3.94.056-5.678.86-1.773 2.403-3.166 4.073-4.35a.03.03 0 0 0 .01-.039.032.032 0 0 0-.042-.017c-1.876.836-3.645 2.178-4.653 4.1-1.01 1.915-.896 4.369.246 6.149.55.901 1.253 1.673 2.007 2.382.75.713 1.554 1.39 2.452 1.927 1.348.804 2.839 1.33 4.363 1.642v.837c-1.683-.59-3.322-1.248-4.864-2.103-.979-.5-1.937-1.077-2.757-1.824a8.327 8.327 0 0 1-1.958-2.64c-.91-1.996-.937-4.296-.04-6.244.85-1.98 2.457-3.575 4.235-4.915a.034.034 0 0 0 .01-.04.033.033 0 0 0-.043-.014c-2 .997-3.839 2.561-4.829 4.69-.987 2.12-.83 4.724.355 6.684.579.986 1.323 1.843 2.127 2.63.798.792 1.666 1.536 2.632 2.134.963.606 2.012 1.06 3.087 1.41.67.225 1.355.394 2.045.526v1.146c-3.268-.987-6.377-2.536-8.682-4.936-1.285-1.401-2.299-3.081-2.594-4.931-.349-1.837-.036-3.764.82-5.437.834-1.691 2.175-3.142 3.74-4.292 1.564-1.157 3.351-2.033 5.22-2.654 1.868-.637 3.831-.968 5.796-1.131 1.965-.195 3.95-.114 5.904.103.98.09 1.942.292 2.905.468.95.244 1.902.462 2.824.784 1.845.617 3.618 1.444 5.198 2.531 1.573 1.087 2.942 2.473 3.813 4.119.866 1.632 1.253 3.524.927 5.345-.289 1.825-1.232 3.506-2.508 4.898-1.278 1.398-2.898 2.504-4.637 3.356a25.325 25.325 0 0 1-4.338 1.635v-.808c2.286-.53 4.522-1.4 6.489-2.737 1.982-1.3 3.696-3.213 4.373-5.565.693-2.355.036-4.953-1.435-6.812-.69-.977-1.634-1.716-2.546-2.453-.971-.666-1.978-1.281-3.047-1.77a25.424 25.424 0 0 0-6.734-2.07c-4.658-.666-9.555-.25-13.868 1.644a.032.032 0 0 0-.017.039.03.03 0 0 0 .04.02c4.446-1.474 9.178-1.729 13.771-1.178 2.294.28 4.593.782 6.714 1.746 1.077.445 2.062 1.077 3.005 1.749.436.381.918.714 1.294 1.154l.592.632.511.693c.633.947 1.17 1.985 1.334 3.11.17 1.106.16 2.258-.194 3.328-.67 2.153-2.29 3.91-4.168 5.187-1.862 1.259-3.938 2.147-6.114 2.758v-.631c1.907-.454 3.783-1.12 5.465-2.177l.694-.443c.228-.154.438-.335.657-.501.451-.318.826-.732 1.22-1.12.725-.839 1.351-1.785 1.7-2.86.327-1.08.338-2.234.113-3.319-.251-1.09-.788-2.075-1.432-2.955-1.37-1.713-3.195-2.962-5.147-3.873-1.958-.903-4.04-1.564-6.184-1.9-4.286-.602-8.75-.197-12.763 1.388a.032.032 0 0 0-.018.039.032.032 0 0 0 .04.021c4.128-1.164 8.454-1.412 12.668-.923 2.104.25 4.216.699 6.164 1.576 1.958.838 3.724 2.171 4.956 3.878.578.878 1.01 1.84 1.216 2.853.17 1.022.12 2.055-.188 3.028-.336.969-.929 1.828-1.617 2.595-.733.73-1.523 1.418-2.428 1.956-1.57.979-3.315 1.68-5.116 2.191v-.645a17.374 17.374 0 0 0 2.471-.968c1.469-.709 2.866-1.606 3.994-2.785 1.139-1.148 1.94-2.69 1.97-4.317-.025-1.627-.823-3.175-1.964-4.325-1.127-1.18-2.525-2.079-3.993-2.794-2.953-1.456-6.269-1.987-9.53-2.042-3.27.015-6.57.553-9.598 1.886-1.509.659-2.951 1.537-4.143 2.728-1.214 1.15-2.034 2.83-2.017 4.547.08 1.728 1.01 3.26 2.203 4.357 1.197 1.118 2.629 1.922 4.102 2.578.693.3 1.4.568 2.117.807v.992zm11.165 6.075a7.71 7.71 0 0 1-.522-1.765c.108-.017.21-.035.312-.054.061.402.166.748.456 1.15.172.238.365.497.588.73-.277-.024-.555-.041-.834-.06zm-7.833-.007c-.302.02-.605.04-.908.065.19-.232.355-.49.501-.727.235-.382.325-.814.377-1.256.154.032.312.062.477.092a9.105 9.105 0 0 1-.447 1.826zm1.484-.086c-.2.008-.4.013-.6.023.016-.531.067-1.098.087-1.678.196.03.4.057.61.081a26.385 26.385 0 0 0-.097 1.574zm4.68-1.531c.174-.015.342-.034.504-.053.027.553.082 1.093.103 1.602-.176-.009-.352-.01-.527-.018a20.756 20.756 0 0 0-.08-1.531zm-1.318.08c.242-.009.474-.02.699-.033a25.136 25.136 0 0 0-.09 1.466c-.178-.005-.357-.01-.536-.013-.005-.452-.032-.93-.073-1.42zm-1.323.003c.124.002.244.007.37.008h.146l.178-.002c-.042.482-.071.95-.084 1.393h-.537a20.074 20.074 0 0 0-.073-1.399zm-1.328-.066c.226.018.46.033.702.045-.044.498-.076.982-.089 1.438-.178.003-.357.008-.536.013a20.617 20.617 0 0 0-.077-1.496zm-39.19 100.669C7.087 115.832 1.48 101.978.941 87.963a55.764 55.764 0 0 1-.028-2.229c.113-7.54 1.62-15.052 4.548-21.984 2.922-6.926 7.133-13.32 12.462-18.65a58.107 58.107 0 0 1 17.864-12.31 57.823 57.823 0 0 1 13.925-3.994h17.857c11.694 1.812 22.937 7.192 31.927 16.163.203.202.39.414.589.618 5.033 5.25 9.077 11.429 11.801 18.146 2.838 6.977 4.268 14.5 4.256 22.011a57.41 57.41 0 0 1-4.44 21.936c-2.897 6.92-7.13 13.283-12.448 18.595-5.31 5.324-11.68 9.557-18.609 12.485-6.932 2.932-14.452 4.458-22.005 4.573a57.523 57.523 0 0 1-6.528-.301c-12.963-1.446-24.97-7.174-34.329-16.514zm95.128-63.209c-2.878-6.823-7.093-13.058-12.284-18.316-.19-.194-.369-.397-.563-.59-8.956-8.938-20.116-14.354-31.75-16.283a35.103 35.103 0 0 0-1.003-.496c-.494-.247-.982-.472-1.427-.746a5.898 5.898 0 0 1-1.236-.907 3.685 3.685 0 0 1-.584-.743 9.044 9.044 0 0 0 1.374-.577l.029-.014c1.742-.338 3.467-.82 5.106-1.549 1.852-.827 3.618-1.93 5.078-3.41 1.463-1.468 2.557-3.384 2.934-5.485.375-2.098-.06-4.316-1.092-6.151-1.03-1.85-2.571-3.327-4.279-4.458-1.712-1.14-3.61-1.936-5.551-2.506-1.94-.588-3.951-.882-5.955-.997-1-.096-2.007-.06-3.007-.07-1 .063-2 .078-2.995.201-1.989.204-3.964.58-5.876 1.181-1.91.593-3.78 1.374-5.484 2.476-1.693 1.102-3.228 2.55-4.245 4.379-1.017 1.819-1.41 4.027-.98 6.091.36 2.09 1.535 3.937 2.974 5.39 2.621 2.498 5.985 3.928 9.418 4.595.04.07.098.13.17.172.046.028.586.335 1.607.658a3.39 3.39 0 0 1-.608.856c-.368.36-.775.685-1.245.937-.452.277-.946.5-1.448.736-.305.139-.617.277-.932.422a58.625 58.625 0 0 0-12.553 3.512c-.094.037-.191.068-.285.106a58.453 58.453 0 0 0-19.141 12.541c-5.44 5.422-9.883 11.89-12.775 19.019C1.397 70.384-.107 78.07.006 85.734c.02 2.3.2 4.589.498 6.861 1.481 12.61 7.04 24.827 16.712 34.48 9.687 9.666 22.168 15.53 35.625 16.842 1.923.215 3.859.336 5.8.355 7.68.114 15.39-1.365 22.53-4.254 7.154-2.875 13.67-7.28 19.136-12.701 5.45-5.441 9.87-11.94 12.787-19.073a58.84 58.84 0 0 0 4.407-22.51 57.933 57.933 0 0 0-4.59-22.435z"/>
        <path d="M18.698 125.597c-5.21-5.235-9.404-11.48-12.178-18.313a56.329 56.329 0 0 1-4.129-21.55c.063-7.35 1.52-14.684 4.354-21.457 2.829-6.77 6.942-13.012 12.139-18.22a56.227 56.227 0 0 1 18.212-12.222 56.687 56.687 0 0 1 21.545-4.337c7.381-.045 14.765 1.434 21.572 4.27a56.267 56.267 0 0 1 18.244 12.23c5.189 5.224 9.34 11.463 12.115 18.264 2.784 6.798 4.2 14.138 4.193 21.472a56.184 56.184 0 0 1-4.295 21.43 56.253 56.253 0 0 1-12.151 18.169c-5.187 5.195-11.414 9.328-18.19 12.166a56.569 56.569 0 0 1-21.488 4.373 56.913 56.913 0 0 1-21.59-4.129c-6.847-2.767-13.108-6.95-18.353-12.146m61.72 12.596c6.908-2.787 13.208-7.032 18.487-12.276 5.266-5.259 9.515-11.548 12.34-18.435a56.97 56.97 0 0 0 4.275-21.748 56.477 56.477 0 0 0-4.378-21.707c-2.86-6.854-7.104-13.117-12.374-18.34a56.645 56.645 0 0 0-18.434-12.21c-6.867-2.808-14.278-4.237-21.693-4.283A57.093 57.093 0 0 0 36.92 33.41c-6.88 2.799-13.187 6.99-18.465 12.22C13.19 50.866 8.91 57.125 6.102 64.011c-2.821 6.873-4.277 14.303-4.215 21.722a56.805 56.805 0 0 0 4.44 21.629 56.781 56.781 0 0 0 12.314 18.29c10.423 10.52 25.114 16.688 40 16.718a57.205 57.205 0 0 0 21.776-4.178"/>
        <path d="M19.823 124.473c-5.06-5.087-9.137-11.157-11.83-17.798a54.732 54.732 0 0 1-4.01-20.94c.063-7.142 1.48-14.268 4.233-20.85 2.75-6.577 6.744-12.643 11.794-17.704a54.673 54.673 0 0 1 17.695-11.878 55.12 55.12 0 0 1 20.936-4.217c7.173-.045 14.347 1.393 20.963 4.15A54.683 54.683 0 0 1 97.33 47.122c5.041 5.077 9.074 11.14 11.77 17.749 2.704 6.605 4.079 13.737 4.072 20.863a54.584 54.584 0 0 1-4.174 20.822 54.674 54.674 0 0 1-11.805 17.653c-5.042 5.047-11.092 9.062-17.674 11.821a54.965 54.965 0 0 1-20.88 4.253 55.29 55.29 0 0 1-20.98-4.008c-6.654-2.688-12.738-6.752-17.837-11.802m59.984 12.251c6.717-2.707 12.84-6.833 17.971-11.93 5.12-5.113 9.25-11.225 11.995-17.92a55.37 55.37 0 0 0 4.154-21.14 54.864 54.864 0 0 0-4.256-21.098 55.01 55.01 0 0 0-12.03-17.824 55.064 55.064 0 0 0-17.917-11.867c-6.675-2.728-13.876-4.117-21.083-4.162a55.471 55.471 0 0 0-21.112 4.095c-6.687 2.72-12.818 6.792-17.949 11.874-5.116 5.092-9.278 11.175-12.007 17.869-2.741 6.68-4.156 13.903-4.094 21.113.053 14.437 6.045 28.682 16.288 38.796 10.129 10.222 24.404 16.22 38.874 16.252a55.602 55.602 0 0 0 21.166-4.058"/>
        <path d="M20.962 123.337c-4.913-4.938-8.87-10.83-11.484-17.276A53.146 53.146 0 0 1 5.59 85.734c.064-6.931 1.44-13.847 4.112-20.234 2.669-6.383 6.544-12.272 11.445-17.183a53.065 53.065 0 0 1 17.173-11.53 53.49 53.49 0 0 1 20.32-4.096c6.962-.045 13.927 1.353 20.347 4.028a53.075 53.075 0 0 1 17.205 11.539c4.892 4.928 8.805 10.812 11.422 17.227 2.624 6.412 3.956 13.333 3.95 20.25a52.954 52.954 0 0 1-4.052 20.206 53.057 53.057 0 0 1-11.458 17.133c-4.891 4.898-10.763 8.794-17.15 11.473a53.362 53.362 0 0 1-20.264 4.131 53.668 53.668 0 0 1-20.365-3.887c-6.46-2.607-12.365-6.553-17.314-11.454m58.23 11.904c6.521-2.627 12.466-6.634 17.449-11.583 4.97-4.963 8.982-10.899 11.645-17.398a53.778 53.778 0 0 0 4.034-20.526 53.285 53.285 0 0 0-4.136-20.484 53.395 53.395 0 0 0-11.68-17.302 53.45 53.45 0 0 0-17.396-11.52c-6.48-2.647-13.47-3.994-20.467-4.04a53.864 53.864 0 0 0-20.496 3.973c-6.494 2.64-12.445 6.592-17.427 11.526-4.967 4.943-9.01 10.85-11.658 17.348-2.661 6.487-4.036 13.499-3.972 20.5.054 14.015 5.873 27.842 15.817 37.659 9.832 9.923 23.689 15.749 37.736 15.783a53.973 53.973 0 0 0 20.55-3.936"/>
        <path d="M58.64 82.608a3.133 3.133 0 0 1 3.132 3.126 3.133 3.133 0 0 1-6.264 0 3.133 3.133 0 0 1 3.132-3.126m0 6.813a3.695 3.695 0 0 0 3.694-3.687 3.695 3.695 0 0 0-7.388 0 3.695 3.695 0 0 0 3.694 3.687"/>
        <path d="M60.555 84.392c.407.627.48 1.441.196 2.1-.274.674-.89 1.124-1.536 1.34-.664.225-1.43.17-2.15-.2a.033.033 0 0 0-.035.004.033.033 0 0 0-.005.045c.507.667 1.48.977 2.358.77.9-.192 1.595-.95 1.851-1.784a2.694 2.694 0 0 0-.416-2.46 2.612 2.612 0 0 0-2.177-1.003.032.032 0 0 0 0 .064 2.418 2.418 0 0 1 1.914 1.124"/>
        <path d="M58.64 81.592a4.15 4.15 0 0 1 4.15 4.141 4.15 4.15 0 0 1-8.3 0 4.15 4.15 0 0 1 4.15-4.14zm-4.633 2.416a4.893 4.893 0 0 0-.319 1.725c0 .61.117 1.19.319 1.728l.136.33a4.977 4.977 0 0 0 2.432 2.429l.342.14a4.92 4.92 0 0 0 1.723.316c.607 0 1.187-.114 1.723-.315l.343-.141a4.978 4.978 0 0 0 2.431-2.427l.137-.334a4.89 4.89 0 0 0 .318-1.726c0-.606-.115-1.186-.317-1.723l-.139-.336a4.974 4.974 0 0 0-2.427-2.424l-.348-.145a4.928 4.928 0 0 0-1.72-.314c-.606 0-1.185.115-1.722.314l-.347.144a4.974 4.974 0 0 0-2.428 2.426l-.137.333z"/>
        <path d="M60.006 85.734a1.365 1.365 0 0 0-2.73 0 1.365 1.365 0 1 0 2.73 0M60.424 46.383h-.019l-3.071-5.409h-1.28v7.475h1.135v-5.62h.02l3.166 5.62h1.185v-7.475h-1.136zM96.634 88.187h.973v-3.41h2.406v2.478h.972v-2.479h2.167v3.21h.972v-4.354h-7.49zM89.587 59.06l.49-.49-3.093-3.086-.47.469 2.238 2.233-.008.008-3.506-.967-.528.527 3.092 3.087.469-.468-2.326-2.321.01-.01zM92.595 56.057l-.401-.4-1.412 1.408-.994-.992 1.025-1.023-.4-.4-1.026 1.023-.894-.893 1.327-1.325-.401-.4-1.8 1.797 3.091 3.087zM91.785 74.226l-.514-1.305 1.35-.53-.208-.526-1.35.529-.463-1.176 1.748-.685-.208-.527-2.37.93 1.599 4.062 2.48-.973-.206-.527zM97.469 72.607l-1.6-4.063-.617.242 1.159 2.94-.012.003-2.827-2.284-.696.273 1.6 4.062.617-.242-1.202-3.055.011-.004 2.923 2.38zM100.89 71.265l-.208-.527-1.857.728-.515-1.305 1.35-.53-.207-.526-1.35.528-.463-1.175 1.748-.685-.208-.527-2.37.93 1.598 4.062zM92.602 101.39l-1.83-.796.563-1.286 1.329.579.226-.52-1.329-.579.507-1.157 1.721.749.226-.52-2.334-1.015-1.747 4 2.443 1.064zM95.236 101.887c-.18.411-.584.505-.954.344-.444-.194-.595-.7-.43-1.191l-.71.052c-.14.753.221 1.333.917 1.636.846.367 1.533-.014 1.794-.61.626-1.435-1.473-1.852-1.089-2.732.149-.34.527-.463.862-.317.391.17.476.624.355 1.054l.657-.056c.154-.662-.155-1.22-.773-1.487-.676-.294-1.438-.081-1.743.619-.584 1.336 1.52 1.757 1.114 2.688M96.001 103.486l2.443 1.063.227-.52-1.83-.795.562-1.287 1.329.579.228-.52-1.33-.578.505-1.158 1.722.75.227-.52-2.336-1.015zM45.56 117.252c-1.187-.85-2.04 1.116-2.866.523-.365-.261-.373-.674-.138-1.002.282-.392.81-.434 1.257-.17l.097-.703c-.708-.295-1.35-.064-1.794.55-.537.749-.31 1.5.22 1.88 1.275.912 2.125-1.05 2.906-.49.302.216.343.611.13.907-.25.347-.71.334-1.108.125l-.08.653c.614.29 1.225.104 1.617-.442.43-.597.38-1.387-.24-1.831M43.648 119.913c-1.187-.85-2.04 1.116-2.867.523-.365-.26-.373-.673-.137-1.002.281-.392.81-.435 1.256-.17l.097-.703c-.708-.295-1.35-.064-1.793.551-.538.748-.31 1.5.22 1.878 1.275.912 2.124-1.049 2.906-.49.301.217.342.612.13.908-.25.347-.711.334-1.108.126l-.082.653c.616.288 1.227.103 1.619-.443.43-.597.38-1.386-.241-1.83M38.431 121.715l2.281 2.476-.006.009-3.068-1.383-.394.548 2.975 3.35.376-.523-2.296-2.465.007-.01 3.063 1.399.41-.57-2.3-2.46.006-.01 3.05 1.417.38-.53-4.09-1.796zM24.698 97.689l1.437 3.04.681-.172-.166-3.361.01-.003 1.415 3.046.632-.16-1.965-4.006-.655.165.145 3.362-.012.002-1.45-3.031-.656.165.108 4.475.626-.158-.16-3.362zM21.198 98.67c-.11-.435.15-.755.543-.854.469-.119.9.189 1.07.678l.53-.475c-.353-.68-.993-.918-1.728-.733-.895.226-1.205.946-1.046 1.577.385 1.518 2.301.566 2.537 1.496.09.36-.134.688-.487.777-.415.105-.76-.202-.928-.617l-.483.447c.282.617.869.868 1.522.703.715-.18 1.187-.813.998-1.553-.357-1.415-2.278-.462-2.528-1.446M18.684 98.105l.145 3.362-.011.002-1.452-3.03-.655.165.108 4.475.626-.158-.16-3.363.01-.002 1.437 3.04.68-.172-.166-3.36.01-.004 1.416 3.047.632-.16-1.965-4.007zM25.857 72.968l-.01-.005.789-3.266-.612-.284-2.744 3.54.585.272 2-2.711.009.005-.805 3.264.636.296 1.995-2.714.01.005-.826 3.254.591.274 1.007-4.346-.612-.283zM20.63 71.725l1.333-2.864.01.004.294 3.62.677.314 1.843-3.96-.6-.277-1.387 2.976-.01-.005-.292-3.754-.627-.29-1.843 3.958zM18.083 66.907l.01.005-.805 3.264.636.294 1.995-2.712.01.005-.827 3.254.592.275 1.007-4.347-.613-.284-2.012 2.699-.01-.005.789-3.266-.613-.283-2.745 3.54.587.272zM43.555 52.942l2.99-1.038.004.01-2.4 2.73.246.704 4.13-1.435-.217-.624-3.107 1.078-.003-.01 2.497-2.823-.226-.651-4.131 1.435zM42.203 49.065l2.99-1.038.003.01-2.4 2.729.247.705 4.13-1.435-.218-.625-3.105 1.079-.004-.01 2.498-2.823-.228-.652-4.13 1.435zM43.898 43.887l.003.01-2.909 1.694.231.662 3.34-.458.004.01-2.917 1.673.215.614 3.827-2.303-.222-.636-3.342.436-.004-.01 2.9-1.709-.223-.635-4.458.497.213.608zM71.308 120.69c1.46-.572.271-2.35 1.166-2.7.346-.135.7.046.834.385.157.396-.105.776-.496.996l.505.422c.578-.359.753-.97.508-1.596-.27-.685-.96-1.071-1.672-.793-1.361.533-.17 2.316-1.117 2.687-.418.164-.77-.054-.918-.43-.176-.45.074-.915.539-1.145l-.538-.465c-.633.435-.788 1.099-.51 1.804.337.856 1.092 1.073 1.699.836M72.508 123.739c1.46-.573.272-2.35 1.166-2.701.347-.135.7.046.834.385.157.396-.105.776-.496.996l.505.422c.578-.358.753-.97.507-1.596-.269-.685-.96-1.071-1.67-.793-1.362.533-.17 2.316-1.118 2.687-.418.164-.77-.054-.917-.43-.177-.45.073-.915.538-1.145l-.538-.464c-.633.434-.789 1.098-.511 1.803.337.856 1.093 1.073 1.7.836M71.644 124.81l.974 2.476.53-.207-.73-1.854 1.308-.513.53 1.347.528-.207-.53-1.348 1.178-.461.686 1.744.527-.208-.93-2.365zM71.358 50.99l2.852 1.37-.005.01-3.63.242-.324.673 3.94 1.894.289-.597-2.964-1.424.005-.01 3.766-.239.3-.622-3.942-1.893zM73.191 47.19l2.852 1.37-.005.01-3.63.243-.324.672 3.94 1.894.288-.597-2.964-1.423.006-.012 3.766-.238.3-.622-3.942-1.893zM77.636 46.731l-1.267-.608.63-1.304-.513-.246-.628 1.304-1.14-.548.814-1.688-.512-.246-1.104 2.291 3.94 1.893 1.156-2.396-.51-.246zM87.037 112.81c.263-.263.66-.24.919.019.302.3.214.753-.056 1.11l.632.188c.386-.56.302-1.191-.174-1.668-.522-.519-1.309-.599-1.85-.059-1.033 1.031.772 2.19.052 2.908-.318.318-.728.258-1.013-.027-.342-.342-.3-.869.036-1.266l-.68-.21c-.406.65-.283 1.321.253 1.857.653.65 1.432.547 1.893.087 1.109-1.107-.692-2.261-.012-2.94M86.607 116.997l1.885 1.881.4-.4-1.41-1.409.994-.991L89.5 117.1l.401-.401-1.025-1.023.894-.893 1.328 1.326.401-.401-1.8-1.798zM28.892 112.874c-.317-.318-.258-.726.028-1.011.342-.342.87-.298 1.268.035l.211-.678c-.652-.405-1.324-.282-1.86.253-.652.65-.55 1.429-.089 1.89 1.11 1.106 2.266-.691 2.946-.013.263.262.24.659-.02.917-.301.3-.755.214-1.113-.056l-.187.632c.562.384 1.193.3 1.67-.176.521-.52.601-1.306.06-1.845-1.033-1.032-2.194.77-2.914.052M26.444 113.675l1.849 2.812-.008.008-2.802-1.86-.478.475 2.39 3.789.456-.456-1.863-2.805.007-.008 2.795 1.876.496-.495-1.867-2.801.008-.008 2.778 1.893.46-.46-3.743-2.437zM28.849 58.432l2.237-2.233.009.008-.97 3.499.528.527 3.094-3.086-.47-.468L30.953 59l-.01-.009 1.02-3.626-.49-.487-3.092 3.086zM28.115 53.034l.008.008-1.88 2.79.496.494 2.807-1.864.007.008-1.896 2.773.462.46 2.44-3.737-.477-.476-2.819 1.846-.007-.008 1.865-2.798-.478-.476-3.795 2.385.456.455zM58.44 124.653c.828 0 1.415.692 1.492 1.576l1.079-.567c-.299-1.278-1.261-1.941-2.561-1.941-1.58 0-2.398 1.067-2.398 2.181 0 2.68 3.582 1.903 3.582 3.545 0 .635-.51 1.087-1.137 1.087-.731 0-1.174-.654-1.28-1.413l-.991.539c.211 1.143 1.078 1.805 2.233 1.805 1.262 0 2.31-.855 2.31-2.161 0-2.498-3.59-1.72-3.59-3.46 0-.768.568-1.19 1.261-1.19M21.284 86.874l-5.651-1.172v-.018l5.65-1.134v-1.153l-7.49-1.701v1.105l5.661 1.144v.018l-5.66 1.106v1.2l5.66 1.134v.02l-5.66 1.066v1.114l7.49-1.576z"/>
        <path d="M92.456 119.15a48.112 48.112 0 0 0 2.604-2.85l2.581 2.13a51.679 51.679 0 0 1-2.825 3.092l-2.36-2.371zm-1.323 5.738l-2.116-2.59a47.855 47.855 0 0 0 2.866-2.587l2.36 2.372a51.944 51.944 0 0 1-3.11 2.805zm-3.992 2.995l-1.853-2.787a47.795 47.795 0 0 0 3.103-2.298l2.119 2.595a50.817 50.817 0 0 1-3.37 2.49zm-4.27 2.592l-1.57-2.955a47.866 47.866 0 0 0 3.312-1.989l1.857 2.795a50.679 50.679 0 0 1-3.598 2.149zm-4.504 2.157l-1.273-3.093a47.33 47.33 0 0 0 3.493-1.654l1.574 2.963a50.467 50.467 0 0 1-3.794 1.784zm-4.698 1.701l-.961-3.197a47.162 47.162 0 0 0 3.64-1.303l1.274 3.099c-1.298.52-2.614.99-3.953 1.401zm-3.567.941l-.52-3.3a47.277 47.277 0 0 0 2.355-.619l.962 3.2c-.924.268-1.857.505-2.797.72zm-4.339-27.488l4.308 7.378c.016.028.04.043.062.062.013.011.022.026.035.034a.288.288 0 0 0 .146.044.273.273 0 0 0 .242-.147c.004-.006.008-.01.01-.015a.277.277 0 0 0 .019-.172c-.002-.006.003-.012.001-.018l-.029-.11.003-.001-.006-.012-4.444-16.892 18.168 13.797a.281.281 0 0 0 .368-.025.278.278 0 0 0 .08-.19c0-.021-.015-.04-.02-.062a.553.553 0 0 0-.026-.09c-.004-.009-.002-.018-.008-.026l-12.966-17.04 15.87 4.176a.275.275 0 0 0 .226-.037.273.273 0 0 0 .105-.126.28.28 0 0 0 .007-.183c-.002-.006-.001-.013-.004-.019a.273.273 0 0 0-.109-.134c-.005-.003-.006-.01-.01-.013l-15.224-8.873 22.623-3.066c.007 0 .01-.006.016-.008a.281.281 0 0 0 .153-.081c.004-.005.006-.011.01-.015a.278.278 0 0 0 .065-.173.276.276 0 0 0-.065-.173l-.01-.015a.274.274 0 0 0-.153-.082c-.005-.001-.008-.008-.015-.008l-21.24-2.9 14.179-8.245c.005-.004.006-.01.01-.013a.282.282 0 0 0 .112-.135c.001-.006.001-.012.003-.017a.275.275 0 0 0-.007-.185.272.272 0 0 0-.123-.134c-.006-.003-.01-.008-.017-.01a.28.28 0 0 0-.173-.018c-.006.001-.01-.004-.017-.002l-.25.066-.015-.04-.14.08-16.647 4.362 13.826-18.132c.007-.008.005-.018.008-.026a.46.46 0 0 0 .028-.091c.005-.021.019-.04.019-.061a.277.277 0 0 0-.079-.19.277.277 0 0 0-.19-.079c-.022 0-.042.015-.065.02a.47.47 0 0 0-.087.026c-.008.003-.018.002-.027.007L67.226 72.693l4.184-15.836c.001-.007-.003-.012-.002-.019a.277.277 0 0 0-.018-.171c-.002-.006-.007-.01-.01-.015a.275.275 0 0 0-.135-.126.276.276 0 0 0-.184-.006l-.016.003a.274.274 0 0 0-.136.11c-.004.005-.01.005-.013.01l-8.892 15.192-3.07-22.578c-.002-.006-.008-.01-.008-.016a.284.284 0 0 0-.083-.152l-.015-.01a.276.276 0 0 0-.173-.065.278.278 0 0 0-.172.065l-.016.01a.27.27 0 0 0-.081.152c-.001.006-.008.01-.01.016l-2.054 14.995-5.514-18.523c.512-.687.912-1.595.16-3.304-.238-.545-.887-1.524-1.569-2.492a46.966 46.966 0 0 1 14.081-.67l.004.002a46.55 46.55 0 0 1 4.519.69c.007.002.012.006.018.007.017.003.034.004.051.005 1.49.306 2.952.683 4.387 1.126l.01.006c.006.002.012.002.019.003 14.845 4.597 26.548 16.384 31.009 31.26v.009l.005.005a46.48 46.48 0 0 1 1.951 13.358c0 1.607-.08 3.197-.24 4.763l-.003.007c0 .002.002.005 0 .007a46.592 46.592 0 0 1-.689 4.513c0 .003-.003.005-.004.009v.012a46.038 46.038 0 0 1-1.13 4.425l-.002.001v.003c-4.85 15.698-17.785 27.88-33.928 31.707l-3.694-23.395zm3.064 27.774l-.642-3.266c.066-.013.131-.03.196-.043l.918 3.204c-.159.033-.314.073-.472.105zM49.053 60.739l3.508 6.132.744 4.113-4.252-10.245zm2.845 13.345l-3.61-13.727 5.487 13.224.404 2.236-2.281-1.733zm2.569 3.702c-.403.48-.8.962-1.188 1.407l-.028.034h-.001c-.057.066-.117.138-.174.202l-.007.008c-.02.024-.025.042-.037.062-.07.114-.044.192.045.176a.307.307 0 0 0 .142-.08c.032-.03.072-.06.105-.09l.01-.008c.07-.063.149-.13.224-.193l.033-.03c.245-.21.495-.422.76-.642l-.111.813-.004.027-.028.205-.007.049-.039.28-.012.085-.173.14c-.077.067-.15.137-.226.206l-.246-.246-.028-.027-.092-.093-.275-.274-.095-.094-.299-.3-.095-.093-.318-.318-.076-.076L37.312 64.03l-.17-.17.146.113 1.795 1.396-.051.06c-.18.2-.053.338.15.156.027-.024.058-.049.084-.073l.86.667c-.053.06-.107.126-.158.183-.18.201-.053.34.15.157.065-.058.143-.121.211-.181l.837.652c-.086.101-.176.21-.263.306-.18.202-.052.339.151.157.104-.093.225-.193.336-.29l.82.637c-.124.145-.25.295-.37.43-.18.202-.054.339.15.157.143-.128.306-.265.462-.398l.8.621c-.16.189-.321.38-.477.554-.18.2-.053.339.15.157h.001c.181-.164.384-.335.588-.507l.78.606c-.197.234-.393.465-.583.678-.18.201-.053.339.15.157.22-.199.464-.405.715-.615l.759.59c-.233.279-.463.55-.689.802-.18.201-.052.338.151.156v.001c.259-.232.546-.475.842-.723l.736.572c-.269.323-.534.64-.793.927-.18.202-.053.34.151.157.295-.264.629-.544.97-.828l.713.553c-.305.367-.606.727-.898 1.052-.18.202-.053.34.151.157a38.27 38.27 0 0 1 1.099-.935l.688.535c-.34.41-.678.815-1.002 1.177-.18.202-.053.34.15.157.369-.33.795-.684 1.228-1.042l.663.516c-.375.453-.748.904-1.105 1.304-.18.2-.053.338.15.156.406-.363.88-.753 1.356-1.148l.639.496c-.411.496-.819.993-1.209 1.429-.18.202-.054.339.15.157.442-.396.963-.823 1.484-1.255l.615.479c-.447.536-.89 1.08-1.313 1.553-.18.202-.054.339.15.157a44.73 44.73 0 0 1 1.322-1.12l.239-.199.051-.043.287.224.306.237-.185.22-.222.265-.22.266c-.269.323-.534.639-.792.927-.18.202-.054.339.15.157.234-.21.489-.428.756-.65.077-.065.16-.133.238-.2.08-.065.159-.13.238-.197.171-.14.337-.28.507-.422l.572.444c-.274.325-.547.652-.816.975-.075.09-.148.172-.223.26-.074.088-.148.173-.222.259-.088.101-.178.211-.265.308-.18.201-.053.339.15.157.06-.054.131-.112.194-.166.076-.067.157-.136.237-.204.08-.069.154-.135.236-.204.39-.327.796-.664 1.2-1.003l.301.234.045.249-.03.219zm-.044 17.678l.259-.196.471 3.463-7.171 12.255 6.441-15.522zm-3.388 2.568l2.502-1.896-5.816 14.013 3.314-12.117zm.49-4.821l.093-.094.3-.3.397-.394.35-.35.71-.71.354-.352c.074.067.146.136.222.201.066.057.134.112.202.167l.335 2.464.107.786-.632.479-2.685 2.035-.264.2-.363.275-.195.148-.17.128-14.359 10.882 15.598-15.565zm-2.76-3.573l.322.044-2.12 2.781-13.756 3.605 15.553-6.43zm-4.216-.575l3.111.424-14.042 5.806 10.931-6.23zm3.762-3.064H51.427c.003.1.007.2.014.3.007.088.013.177.024.265.012.116.034.23.053.346l.006.04a7.163 7.163 0 0 0 .197.859l.037.12c.044.139.097.274.15.41.161.414.36.807.592 1.18l.012.021.029.048-.04-.005-.018-.003-.33-.045-1.164-.16-.326-.044-.546-.074-.223-.03-.08-.011-.018-.003h-.004l-.314-.043-.788-.108-3.34-.456-.329-.045-.451-.061-.254-.035-.198-.027-17.864-2.439h22.057zm-3.365-.786c.016.27.203.278.218.006.031-.592.098-1.262.16-1.935l.774-.097c.063.696.136 1.393.171 2.026.016.27.203.278.218.006.029-.53.085-1.125.141-1.726.01-.104.02-.205.028-.309l.006-.066.36-.045.386-.047c.01.096.016.19.024.286.012.115.021.229.033.343l.03.344c.04.417.076.829.098 1.214.015.27.202.278.218.006.016-.314.043-.649.073-.994.008-.101.019-.206.028-.309l.029-.308.058-.656.72-.09c.036.424.074.848.113 1.266l.027.34c.01.116.018.228.026.34.01.135.024.276.032.405.014.27.202.278.216.006.005-.08.014-.172.02-.255.006-.102.014-.206.023-.311l.022-.312c.044-.506.094-1.03.138-1.555l.47-.058.223-.028.028.358c.056.625.116 1.246.159 1.834l.003.042v.002c.006.088.015.181.02.267v.01c.002.032.013.046.018.07.032.129.106.167.157.091a.318.318 0 0 0 .044-.155c.002-.044.006-.094.01-.138v-.012c.006-.096.016-.2.023-.299l.003-.04c.023-.32.05-.65.081-.99l.039-.414.035-.416.024-.29.666-.082.288-.036.597-.074a7.128 7.128 0 0 0-.612 1.652c-.002.008-.005.015-.006.023l-.012.048a6.112 6.112 0 0 0-.06.298l-.01.072a6.71 6.71 0 0 0-.044.284c-.005.034-.012.067-.015.102-.01.075-.016.151-.022.227-.008.1-.01.203-.015.304H27.942l.183-.022 2.258-.28.006.077c.015.27.202.278.217.006l.009-.112 1.079-.134.018.24c.015.27.202.278.218.006.004-.087.014-.187.02-.277l1.054-.13c.01.132.024.272.032.401.014.27.203.278.217.006.007-.14.022-.296.032-.443l1.03-.127c.015.189.033.384.044.564.016.27.203.278.218.006.01-.192.029-.403.044-.609l1.005-.124c.02.247.043.495.055.727.016.27.204.278.219.006.013-.244.035-.51.057-.774l.98-.122c.027.305.052.606.069.89.014.27.202.278.217.006.017-.296.041-.614.07-.94l.955-.118c.033.362.062.717.08 1.052.016.27.203.278.218.006h.001c.018-.347.048-.721.083-1.106l.926-.114c.038.417.074.829.096 1.214.016.27.204.278.218.006.022-.396.059-.83.099-1.271l.896-.112c.044.475.086.942.11 1.377.016.27.203.278.219.006.023-.445.068-.937.114-1.437l.864-.108c.05.53.1 1.055.128 1.54.014.27.202.277.217.005.026-.494.077-1.045.13-1.603l.834-.104c.055.585.111 1.167.142 1.701.015.27.202.278.217.006.03-.543.088-1.153.145-1.77l.804-.099c.06.64.124 1.28.157 1.863zm3.946-3.687l.196.258-3.47.47-12.28-7.158 15.554 6.43zM35.55 63.066l15.597 15.566.097.097.298.297.394.394.358.355.704.704.354.353c-.069.074-.138.147-.203.223a8.193 8.193 0 0 0-.166.2l-2.468.336-.789.106-.481-.632-2.028-2.666-.211-.277-.276-.362-.142-.187-.134-.176L35.55 63.066zm12.667 17.575l-13.844-5.723 11.956 3.24 1.888 2.483zm-9.766 24.512l-.073-.085.668-.856c.06.052.125.105.183.157.202.18.34.052.158-.15-.059-.065-.122-.142-.182-.21l.654-.837c.1.088.21.177.305.263.203.18.34.053.159-.15-.094-.104-.195-.225-.291-.336l.637-.817c.146.123.297.248.431.37.203.179.34.052.159-.151-.129-.143-.265-.305-.4-.462l.623-.797c.19.16.381.32.554.475.203.18.34.053.159-.15-.164-.182-.336-.384-.509-.588l.608-.777c.234.197.466.391.678.581.202.18.34.053.158-.15-.199-.22-.406-.463-.617-.713l.592-.758c.28.234.552.463.803.687.202.18.34.054.158-.15a31.683 31.683 0 0 1-.724-.84l.573-.735c.324.269.64.534.928.792.203.18.34.053.159-.15a33.603 33.603 0 0 1-.83-.97l.553-.71c.367.304.729.605 1.055.896.202.179.339.052.158-.15-.298-.331-.616-.71-.938-1.097l.535-.686c.411.338.818.675 1.181.998.202.18.339.053.158-.15a41.463 41.463 0 0 1-1.045-1.224l.517-.663c.453.375.906.747 1.306 1.103.202.18.339.053.157-.15-.364-.404-.756-.877-1.151-1.352l.497-.638c.497.41.995.817 1.432 1.207.203.18.34.053.158-.15-.397-.441-.825-.962-1.258-1.482l.48-.613c.536.447 1.082.888 1.556 1.311.203.18.34.053.158-.15-.356-.396-.737-.855-1.124-1.32l-.198-.238c-.014-.018-.03-.034-.043-.051l.222-.286.24-.305c.074.061.147.122.22.185.09.073.177.146.266.22l.266.22c.323.268.64.534.93.79.2.181.338.054.157-.149a31.17 31.17 0 0 1-.653-.755l-.198-.237c-.066-.08-.133-.158-.198-.238l-.424-.506.446-.571c.325.274.653.546.975.815.091.075.174.147.262.222l.258.22c.103.089.213.18.31.266.202.18.34.053.157-.15l-.167-.193-.204-.236c-.068-.08-.135-.154-.205-.237-.327-.388-.664-.794-1.005-1.197l.29-.372.413.056c.483.403.965.8 1.41 1.185.012.01.023.02.035.028.066.058.14.118.203.175l.008.007c.024.02.04.024.062.037.113.07.192.044.175-.046a.3.3 0 0 0-.08-.141c-.028-.032-.06-.071-.09-.104l-.007-.01c-.064-.071-.13-.15-.194-.225l-.028-.032c-.21-.243-.425-.494-.644-.758l.814.112.026.003.206.028.049.006.281.039.085.012c.047.057.092.115.14.172.067.078.137.151.207.226l-.247.247-.026.026-.096.096-.272.27-.093.094-.3.3-.096.095-.321.32-.074.073-14.914 14.885-.171.17.114-.146 1.399-1.79c.018.015.04.033.058.05.203.18.34.053.158-.15zm18.58-9.63l.34-.027.34-.027c.043-.002.086-.006.128-.01l.312 1.09c-.012-.002-.016-.006-.029-.007a32.151 32.151 0 0 1-.995-.073l-.31-.029-.307-.028-.659-.058-.089-.718c.424-.036.85-.076 1.268-.113zm-1.512-1.838l-.082-.665-.036-.287-.074-.596c.13.068.262.132.397.192a7.219 7.219 0 0 0 1.28.425l.048.012.016.004.05.17.02.078.01.029.008.034.074.255.146.51c-.241-.02-.484-.04-.735-.064l-.415-.038-.417-.035-.29-.024zm.44.615c.511-.046 1.017-.093 1.509-.133l.117.408.107.373.07.246-.207-.015c-.103-.008-.203-.013-.31-.022l-1.56-.138-.058-.469-.028-.222.36-.028zm2.163 3.563c-.53-.028-1.126-.085-1.729-.141l-.309-.028a1.597 1.597 0 0 0-.067-.006l-.044-.359-.048-.385.288-.025c.115-.01.229-.02.343-.032.116-.01.23-.02.344-.032.42-.038.831-.074 1.218-.096.038-.003.059-.014.087-.022l.017.065v1.086c-.03-.01-.054-.023-.1-.025zm0 1.32c-.592-.031-1.263-.097-1.938-.16l-.096-.772c.696-.063 1.395-.135 2.03-.171.046-.002.074-.015.104-.027v1.156c-.03-.01-.054-.023-.1-.025zm0 1.321c-.543-.029-1.154-.087-1.772-.145l-.1-.802c.642-.06 1.282-.123 1.868-.156.046-.003.074-.015.104-.027v1.155c-.03-.01-.054-.023-.1-.025zm0 1.321c-.494-.026-1.045-.078-1.605-.13l-.104-.832c.586-.055 1.17-.111 1.705-.142.046-.002.074-.015.104-.026v1.155c-.03-.01-.054-.023-.1-.025zm0 1.32a37.024 37.024 0 0 1-1.438-.113l-.108-.863c.53-.05 1.056-.1 1.542-.127.046-.002.074-.015.104-.026v1.155c-.03-.01-.054-.023-.1-.026zm0 1.321c-.396-.02-.83-.058-1.272-.098l-.112-.893c.475-.045.944-.088 1.38-.113.046-.002.074-.015.104-.025v1.155c-.03-.011-.054-.023-.1-.026zm0 1.321c-.346-.018-.722-.05-1.106-.084l-.116-.923c.42-.039.831-.075 1.218-.097.046-.002.074-.015.104-.026v1.155c-.03-.01-.054-.022-.1-.025zm0 1.32a27.89 27.89 0 0 1-.94-.068l-.119-.954a31.94 31.94 0 0 1 1.055-.08c.046-.004.074-.016.104-.027v1.155c-.03-.01-.054-.022-.1-.025zm0 1.322c-.243-.013-.509-.036-.774-.057l-.123-.978c.306-.028.607-.053.893-.07.046-.002.074-.015.104-.025v1.154c-.03-.01-.054-.022-.1-.024zm0 1.32c-.192-.01-.402-.028-.608-.045l-.126-1.002c.248-.021.497-.043.73-.056.046-.003.074-.016.104-.027v1.155c-.03-.01-.054-.022-.1-.024zm0 1.322c-.139-.008-.295-.023-.442-.033l-.128-1.028c.19-.015.385-.033.566-.043.046-.003.074-.016.104-.027v1.155c-.03-.01-.054-.022-.1-.024zm0 1.32c-.087-.005-.186-.015-.276-.02l-.13-1.053c.132-.01.272-.024.402-.03.046-.003.074-.015.104-.027v1.155c-.03-.01-.054-.023-.1-.025zm.1 1.512v1.502l-.182-1.47.078-.006c.046-.002.074-.015.104-.026zm-.1-.191c-.034-.003-.075-.007-.11-.008l-.135-1.078c.079-.004.164-.014.241-.018.046-.002.074-.015.104-.026v1.155c-.03-.01-.054-.023-.1-.025zm2.533-8.423l-1.63 11.885v-17.57l1.63 5.685zm2.202-29.285l-.259.196-.471-3.464 7.171-12.254-6.441 15.522zm3.395-2.574l-2.51 1.902 5.862-14.122-3.352 12.22zm-.497 4.827l-.102.102-.293.292-.395.395-.348.347-.712.71-.354.354c-.074-.068-.146-.137-.222-.202a7.893 7.893 0 0 0-.202-.165l-.335-2.465-.108-.786.633-.48 2.692-2.039.257-.196.363-.275.178-.135.185-.14 14.36-10.883-15.597 15.566zm2.76 3.573l-.323-.045 2.122-2.781L84.07 75.4l-15.554 6.43zm4.185.57l-3.081-.42 13.717-5.67-10.636 6.09zm-3.732 3.068h-3.115c-.004-.1-.006-.2-.014-.299-.008-.089-.014-.178-.024-.265-.013-.117-.033-.231-.053-.346l-.006-.04a7.196 7.196 0 0 0-.234-.98c-.044-.138-.098-.274-.15-.41a7.15 7.15 0 0 0-.592-1.18l-.013-.02a1.43 1.43 0 0 1-.028-.047l.04.005.017.002.33.045 1.165.16.326.043.545.076.224.03.079.01.018.003h.004l.315.044.788.107 3.312.452.356.049.452.06.227.032.225.031 17.863 2.438H68.969zm3.365.787c-.015-.27-.202-.277-.217-.006-.031.592-.098 1.262-.16 1.936l-.774.095c-.063-.695-.136-1.392-.172-2.025-.015-.27-.202-.277-.217-.006-.029.53-.086 1.124-.141 1.726-.01.104-.02.205-.028.308a1.9 1.9 0 0 0-.006.068l-.36.044-.386.048c-.01-.097-.016-.191-.025-.287-.01-.116-.02-.23-.032-.344-.01-.114-.02-.229-.032-.343a34.81 34.81 0 0 1-.096-1.214c-.016-.27-.203-.277-.218-.006-.016.313-.043.648-.073.994l-.03.308c-.008.103-.018.206-.027.308l-.058.657-.72.09c-.036-.424-.075-.848-.113-1.266l-.027-.34-.027-.34c-.01-.135-.024-.276-.03-.405-.016-.27-.204-.277-.218-.006-.004.08-.014.172-.02.255-.005.1-.014.206-.022.31-.009.106-.015.205-.023.312l-.138 1.555-.47.059-.222.028c-.01-.12-.018-.238-.03-.358-.055-.625-.115-1.247-.157-1.835l-.003-.043v-.002c-.006-.087-.015-.18-.02-.265l-.001-.01c-.002-.031-.013-.047-.018-.07-.03-.13-.104-.167-.156-.091a.299.299 0 0 0-.044.155c-.002.043-.007.093-.01.138v.012l-.023.295-.003.044c-.024.32-.05.649-.082.99l-.038.413-.036.417c-.009.098-.015.193-.023.29l-.667.082-.288.036-.596.073a6.91 6.91 0 0 0 .612-1.65l.006-.025.011-.047c.024-.098.042-.198.06-.299.005-.023.007-.047.011-.071.017-.095.031-.19.044-.284.005-.035.012-.068.015-.101a6.303 6.303 0 0 0 .036-.533H89.34l-.183.023-2.258.28-.006-.077c-.015-.27-.202-.277-.217-.006l-.009.112-1.08.133c-.004-.078-.013-.163-.017-.24-.016-.27-.203-.276-.218-.005-.004.088-.014.187-.02.277l-1.054.131c-.01-.134-.025-.274-.032-.402-.015-.27-.202-.277-.217-.006-.008.14-.022.296-.033.442l-1.03.129c-.015-.19-.033-.385-.043-.565-.015-.27-.203-.277-.217-.006-.01.192-.03.403-.046.608l-1.005.125c-.02-.247-.042-.495-.055-.727-.016-.27-.203-.277-.218-.006-.013.245-.035.509-.058.774l-.98.121a29.874 29.874 0 0 1-.068-.89c-.015-.27-.203-.276-.218-.005-.016.297-.04.614-.069.94l-.955.118a29.823 29.823 0 0 1-.08-1.052c-.017-.27-.204-.277-.22-.006-.018.346-.048.721-.083 1.106l-.925.114c-.039-.418-.075-.829-.097-1.214-.015-.27-.203-.277-.217-.006-.022.396-.059.829-.1 1.272l-.895.11a39.472 39.472 0 0 1-.111-1.376c-.016-.27-.203-.277-.218-.006-.024.445-.068.937-.114 1.437l-.865.108c-.05-.53-.099-1.055-.127-1.54-.015-.27-.202-.276-.217-.005-.026.494-.078 1.045-.13 1.603l-.835.104c-.055-.585-.111-1.167-.14-1.701-.016-.27-.204-.277-.218-.006-.03.543-.088 1.153-.146 1.769l-.804.1c-.059-.64-.123-1.28-.157-1.863zm-3.944 3.687l-.198-.258 3.471-.47 12.28 7.157-15.553-6.429zm.673.886l13.99 5.783-12.094-3.291-1.896-2.492zm-2.931 2.007l-.092-.092-.302-.301-.394-.394-.354-.352-.708-.707-.354-.354c.068-.073.137-.146.203-.222.056-.066.111-.133.165-.202l2.468-.334.79-.107.48.632 2.036 2.676.204.267.276.363.149.195.126.167 10.905 14.332-15.598-15.567zm2.138 17.997l-2.8-4.904-.47-2.977 3.27 7.88zm-3.643-10.244l-.678-4.292 1.434 1.089 3.61 13.725-4.366-10.522zm13.471 5.294c-.026.023-.058.049-.084.073l-.858-.668c.052-.059.105-.125.157-.182.18-.202.053-.34-.151-.157-.065.058-.141.122-.21.18l-.838-.65c.087-.102.176-.211.263-.307.18-.201.053-.34-.15-.157-.104.093-.225.194-.337.29l-.818-.637c.123-.144.248-.295.369-.43.18-.201.053-.34-.15-.157-.143.129-.306.265-.462.399l-.8-.622c.16-.19.32-.38.477-.554.18-.202.052-.339-.151-.157-.181.164-.385.334-.588.507l-.78-.606c.197-.235.392-.465.583-.678.18-.202.053-.339-.151-.157-.22.198-.463.405-.714.615l-.76-.59c.234-.279.464-.55.689-.802.18-.2.053-.339-.15-.157-.259.232-.546.475-.843.723l-.735-.572c.268-.323.533-.64.792-.928.18-.201.053-.339-.15-.157-.296.264-.629.545-.97.83l-.713-.554c.305-.366.606-.728.898-1.052.18-.202.052-.34-.151-.158-.332.298-.712.614-1.1.936l-.686-.535c.34-.409.676-.815 1-1.177.18-.202.054-.34-.15-.157-.369.33-.795.683-1.227 1.042l-.664-.516c.376-.453.748-.904 1.106-1.303.18-.201.053-.34-.151-.157-.405.363-.878.753-1.355 1.148l-.64-.497c.412-.494.819-.992 1.21-1.428.18-.202.053-.34-.15-.157-.443.395-.964.823-1.485 1.255l-.614-.478c.447-.536.889-1.081 1.314-1.554.18-.202.052-.34-.151-.158-.396.355-.857.736-1.322 1.121l-.239.199-.052.042-.286-.222-.306-.238c.061-.075.123-.146.185-.22l.22-.266c.076-.089.149-.178.222-.266.269-.322.534-.638.793-.926.18-.202.053-.339-.151-.157-.234.21-.49.427-.756.65-.077.066-.16.133-.239.199-.078.065-.159.13-.238.197l-.506.423-.474-.368-.026-.161c.25-.297.498-.596.744-.89.074-.09.148-.172.222-.26l.222-.26c.09-.101.179-.21.265-.307.18-.202.054-.339-.15-.157-.06.054-.13.111-.193.166l-.237.204c-.08.07-.155.135-.237.204l-.743.62-.165-1.047c.196-.236.388-.46.58-.679l.028-.033c.057-.067.117-.14.175-.203l.006-.009c.022-.023.025-.04.038-.062.069-.113.043-.191-.046-.174a.301.301 0 0 0-.141.079l-.106.09-.008.008c-.072.063-.151.13-.227.194a.95.95 0 0 1-.031.028c-.115.098-.222.193-.342.294l-.063-.4-.005-.031-.043-.272-.015-.093-.033-.21-.013-.078c-.002-.018-.012-.032-.017-.048l.144-.118c.077-.067.151-.137.226-.207l.247.247.027.026.096.096.272.271.094.094.3.3.095.094.32.321.074.072 14.914 14.885.172.171-.147-.114-1.795-1.395.05-.06c.18-.201.053-.338-.15-.156zm.73-39.567l.074.084-.67.857c-.058-.052-.124-.106-.181-.157-.203-.18-.34-.053-.158.15.059.065.122.142.182.21l-.653.837c-.102-.088-.211-.177-.307-.263-.203-.18-.34-.053-.158.15.094.104.194.224.29.336l-.637.816c-.146-.122-.296-.248-.431-.368-.202-.18-.34-.053-.158.15.13.142.264.305.399.462l-.622.797c-.19-.16-.381-.32-.554-.475-.203-.18-.34-.053-.159.15.163.182.336.384.508.587l-.607.778a27.01 27.01 0 0 1-.678-.582c-.203-.18-.34-.052-.159.15.199.221.406.464.617.714l-.59.757c-.281-.232-.553-.462-.804-.687-.203-.18-.34-.052-.159.151.232.257.476.544.725.84l-.574.734a35.83 35.83 0 0 1-.928-.79c-.202-.18-.34-.053-.158.15.265.294.546.627.83.969l-.554.71a38.292 38.292 0 0 1-1.054-.895c-.202-.18-.34-.053-.158.15.298.33.616.71.937 1.096l-.535.687c-.41-.34-.817-.676-1.18-1-.202-.18-.34-.052-.158.15.331.368.686.794 1.045 1.225l-.517.662c-.454-.375-.906-.747-1.305-1.102-.203-.181-.34-.054-.159.15.365.403.756.876 1.151 1.353l-.497.637c-.495-.41-.995-.818-1.431-1.207-.202-.18-.34-.053-.158.15.397.44.825.961 1.258 1.481l-.48.615c-.536-.447-1.082-.889-1.556-1.312-.202-.18-.34-.053-.158.15.356.395.737.856 1.124 1.32.067.08.13.158.198.238l.043.05-.223.287-.24.306c-.073-.062-.145-.124-.22-.185l-.265-.22-.266-.221c-.324-.268-.64-.534-.93-.79-.202-.181-.338-.054-.157.15a29.706 29.706 0 0 1 .851.992c.066.079.132.157.198.238l.424.505-.446.571c-.325-.275-.653-.547-.976-.815-.09-.075-.173-.148-.261-.221l-.26-.222c-.101-.088-.21-.178-.308-.265-.203-.18-.34-.053-.158.15.055.06.113.13.167.193.068.076.136.156.205.237.068.079.134.153.204.236.327.388.665.794 1.005 1.197l-.29.372-.413-.056c-.482-.403-.964-.8-1.41-1.185l-.034-.03h-.002c-.066-.057-.138-.116-.202-.173l-.008-.007c-.023-.02-.04-.024-.062-.037-.113-.07-.192-.043-.175.045.008.04.031.087.08.142l.09.104a.042.042 0 0 1 .007.01c.064.07.13.148.194.223l.03.034c.21.244.424.494.643.758l-.815-.111-.027-.004-.204-.028-.049-.007-.281-.038-.086-.011c-.046-.058-.091-.116-.14-.173-.066-.077-.137-.151-.206-.226l.247-.247.026-.027.098-.097.27-.269.092-.093.301-.3.096-.095.315-.314.079-.08L80.387 64.45l.171-.17-.114.146-1.399 1.791-.058-.051c-.203-.18-.34-.053-.159.15zM61.067 74.55l-.344.031a55.126 55.126 0 0 1-1.295.108l-.326-1.097c.02.004.03.013.055.014.531.028 1.127.084 1.73.14l.308.03.067.005.044.359.049.385c-.097.009-.191.015-.288.025zm-.817 1.396l-.342.028-.095.007-.08-.265-.227-.763c.214.014.422.028.646.047.102.01.207.02.31.028l.308.03.658.057.089.718c-.424.036-.85.076-1.267.113zm1.51 1.838l.083.665.035.287.075.595a7.205 7.205 0 0 0-1.297-.518l-.101-.34-.005-.015-.085-.288-.086-.287-.068-.226.327.03c.139.012.275.024.415.038.141.013.278.022.417.035l.29.024zm-.439-.614c-.377.033-.754.069-1.124.102l-.244-.82-.045-.15c.044.005.084.007.126.01.508.044 1.033.093 1.56.137l.059.47.027.223c-.12.01-.238.016-.359.028zm-2.164-19.413c.035.002.075.007.11.008l.135 1.077c-.078.006-.163.014-.24.018-.27.016-.278.203-.005.218.088.004.186.014.277.02l.13 1.053c-.133.01-.273.023-.402.03-.27.016-.278.203-.005.218.139.007.296.021.443.032l.129 1.028c-.191.015-.386.033-.567.043-.27.016-.278.202-.005.218.192.01.404.028.608.044l.127 1.003c-.249.021-.497.043-.73.056-.27.016-.278.202-.005.218.244.012.509.034.775.056l.122.979c-.305.027-.606.052-.892.068-.27.015-.278.202-.005.217.297.016.614.04.94.07l.12.952c-.363.033-.719.063-1.055.082-.27.015-.278.202-.005.217.347.018.722.049 1.107.083l.115.924c-.418.04-.83.074-1.217.096-.27.015-.278.203-.005.217.396.022.83.06 1.274.1l.11.893c-.475.044-.943.086-1.38.111-.269.015-.277.203-.004.217.445.024.938.068 1.44.114l.107.863c-.53.05-1.057.1-1.542.127-.27.015-.278.202-.005.217.494.027 1.046.077 1.606.13l.103.832c-.586.055-1.169.112-1.704.142-.27.015-.278.202-.005.217.543.029 1.154.087 1.772.144l.1.803c-.641.059-1.282.123-1.867.156-.27.015-.278.202-.005.217.593.032 1.264.098 1.939.16l.096.773c-.696.062-1.395.135-2.03.171-.05.003-.08.016-.113.028l-.114-.382V55.095l.025.185.28 2.253-.078.006c-.27.015-.278.202-.005.217zm-2.447 7.8l1.664-12.143v17.735l-1.664-5.591zm-1.664 14.865c.03-.018.06-.034.088-.053.04-.026.082-.05.123-.075l.148-.09c.063-.037.123-.077.187-.112.053-.028.11-.051.163-.078l.114-.055a6.413 6.413 0 0 1 1.002-.383c.15-.043.3-.085.454-.117.08-.017.162-.025.241-.039.119-.02.237-.04.357-.054.112-.013.226-.017.338-.024.127-.008.251-.019.38-.019.45 0 .89.047 1.315.136l.06.015c.027.006.055.016.083.022.126.029.248.06.37.095l.014.004c.099.03.194.065.29.099l.084.03a6.688 6.688 0 0 1 .896.405c.135.076.266.156.394.24.07.046.138.095.206.143.098.07.195.14.288.215.09.07.174.145.26.221.425.379.803.809 1.116 1.287.026.04.05.083.074.123.07.11.14.22.203.334.048.088.086.18.13.27a6.586 6.586 0 0 1 .505 1.46c.016.08.025.161.039.24.02.119.042.237.054.358.013.111.017.225.025.338.006.126.018.25.018.377 0 .45-.047.889-.136 1.312-.01.05-.026.096-.038.145-.03.13-.06.257-.098.382-.029.096-.063.188-.096.282a6.418 6.418 0 0 1-.441.986 5.883 5.883 0 0 1-.24.392c-.045.07-.093.138-.141.206-.07.098-.14.194-.216.288-.072.089-.147.174-.222.259a6.51 6.51 0 0 1-1.29 1.114c-.04.026-.083.049-.123.074-.111.07-.22.14-.335.202-.09.05-.186.09-.278.134a6.752 6.752 0 0 1-1 .383c-.077.022-.154.04-.231.06-.076.018-.149.04-.224.057-.08.016-.16.025-.241.038a5.27 5.27 0 0 1-.278.043c-.026.004-.053.01-.08.013-.11.012-.225.016-.338.023-.126.007-.251.02-.379.02-.45 0-.89-.049-1.315-.137-.049-.01-.096-.026-.144-.038a6.26 6.26 0 0 1-.384-.098c-.098-.03-.193-.065-.289-.099a6.442 6.442 0 0 1-.98-.436 6.517 6.517 0 0 1-.394-.24c-.07-.046-.138-.094-.207-.142a6.836 6.836 0 0 1-.287-.214c-.09-.072-.174-.147-.26-.222a6.405 6.405 0 0 1-1.116-1.288c-.026-.04-.05-.081-.074-.122-.07-.11-.14-.22-.204-.335-.048-.09-.089-.184-.133-.276a6.368 6.368 0 0 1-.383-1 6.056 6.056 0 0 1-.118-.454c-.017-.078-.025-.16-.04-.24-.02-.118-.04-.236-.054-.357-.012-.11-.017-.225-.023-.338-.008-.125-.02-.25-.02-.377 0-.45.048-.888.137-1.313.01-.049.026-.096.037-.145.03-.128.061-.256.099-.381.029-.098.065-.193.099-.289.057-.16.118-.32.187-.475a6.124 6.124 0 0 1 .633-1.102c.068-.098.14-.195.214-.288.072-.089.147-.173.223-.26.357-.399.758-.759 1.202-1.06zm3.594 52.032c-1.59 0-3.161-.081-4.711-.236l-.003-.001h-.004a46.77 46.77 0 0 1-4.53-.682l-.005-.002h-.006c-21.393-4.301-37.555-23.2-37.555-45.798 0-4.73.709-9.297 2.025-13.602.001-.005.006-.006.007-.011.002-.006 0-.012.002-.018 4.696-15.332 17.103-27.337 32.688-31.5-.009 1.093.007 2.242.086 3.063.158 1.65 1.378 2.386 2.198 2.609l3.36 18.562-4.983-8.534c-.003-.006-.01-.006-.013-.011a.28.28 0 0 0-.134-.11l-.02-.003a.282.282 0 0 0-.183.006.275.275 0 0 0-.135.125l-.01.016a.27.27 0 0 0-.018.172c.001.005-.004.011-.002.017l4.477 17.017-18.168-13.798c-.007-.006-.018-.005-.027-.008a.468.468 0 0 0-.088-.026c-.022-.005-.042-.02-.064-.02a.28.28 0 0 0-.19.078.278.278 0 0 0-.078.19c-.001.022.014.042.018.063.007.03.015.06.027.09.004.007.002.018.008.025l12.965 17.04-15.87-4.176c-.006-.001-.01.003-.016.002a.285.285 0 0 0-.173.017l-.019.012a.276.276 0 0 0-.122.132h-.001a.283.283 0 0 0-.007.184l.004.018c.02.055.059.1.11.134.005.004.005.011.01.015l15.223 8.873L22.09 85.44c-.006 0-.01.007-.015.008a.277.277 0 0 0-.153.082l-.01.016a.275.275 0 0 0-.065.172c0 .066.026.124.065.172.004.005.005.011.01.015.04.044.092.07.152.083.006 0 .01.007.015.008l21.24 2.9-14.179 8.245c-.004.003-.005.01-.01.013a.288.288 0 0 0-.11.135c-.003.006-.003.012-.005.017a.28.28 0 0 0 .007.184.285.285 0 0 0 .26.174.268.268 0 0 0 .07-.01l17.052-4.467-13.826 18.132c-.006.008-.004.017-.008.025a.52.52 0 0 0-.028.092c-.004.02-.018.04-.017.061a.278.278 0 0 0 .077.19.286.286 0 0 0 .37.025l17.073-12.939-4.185 15.838c-.001.006.004.012.003.018a.283.283 0 0 0 .017.171l.01.016c.03.053.075.1.135.125a.28.28 0 0 0 .253-.022c.014-.009.023-.024.035-.035.023-.02.047-.035.061-.06l8.893-15.192 2.946 21.673v.867a.401.401 0 0 0 .803 0v-.86l2.013-14.684 7.12 24.851a46.94 46.94 0 0 1-9.519.973zm5.247 3.852L63.571 133a47.305 47.305 0 0 0 3.824-.565l.642 3.27c-1.37.254-2.753.459-4.15.6zm-4.988.263l.01-3.32c1.3-.008 2.587-.074 3.862-.184l.316 3.31a52.234 52.234 0 0 1-4.188.194zm-.802-.007a52.246 52.246 0 0 1-4.188-.208l.335-3.309c1.274.117 2.562.183 3.862.197l-.01 3.32zm-4.986-.29a51.306 51.306 0 0 1-4.148-.614l.66-3.268c1.259.242 2.533.437 3.823.577l-.335 3.305zm-4.934-.773a50.723 50.723 0 0 1-4.069-1.018l.98-3.197c1.23.365 2.479.687 3.748.954l-.66 3.26zm-8.784-2.669l1.293-3.093c1.19.485 2.398.93 3.633 1.318l-.979 3.19a50.699 50.699 0 0 1-3.947-1.415zm-4.528-2.109l1.592-2.956c1.137.6 2.297 1.16 3.486 1.669l-1.29 3.084a50.16 50.16 0 0 1-3.788-1.797zm-4.295-2.547l1.873-2.784a47.856 47.856 0 0 0 3.305 1.999l-1.587 2.947a50.033 50.033 0 0 1-3.591-2.162zm-4.024-2.955l2.135-2.583c1 .809 2.03 1.58 3.095 2.308l-1.869 2.778a51.137 51.137 0 0 1-3.36-2.503zm-3.715-3.33l2.373-2.36a48.128 48.128 0 0 0 2.858 2.596l-2.13 2.579a52.002 52.002 0 0 1-3.1-2.816zm-3.373-3.676l2.588-2.112c.825.989 1.693 1.94 2.594 2.858l-2.372 2.358a51.175 51.175 0 0 1-2.81-3.104zm-3-3.985l2.778-1.845a47.492 47.492 0 0 0 2.306 3.095l-2.596 2.118a50.497 50.497 0 0 1-2.489-3.368zm-2.593-4.26l2.937-1.56a47.743 47.743 0 0 0 1.995 3.304l-2.791 1.853a50.109 50.109 0 0 1-2.14-3.596zm-2.16-4.494l3.066-1.26a47.44 47.44 0 0 0 1.663 3.482l-2.954 1.57a50.579 50.579 0 0 1-1.775-3.792zm-1.704-4.684l3.163-.951c.386 1.233.831 2.44 1.312 3.63l-3.083 1.268A50.505 50.505 0 0 1 10 100.789zm-1.237-4.827l3.235-.637c.261 1.268.585 2.513.945 3.742l-3.18.957a50.984 50.984 0 0 1-1-4.062zm-.759-4.925l3.282-.317c.135 1.29.332 2.56.569 3.817l-3.25.64a51.19 51.19 0 0 1-.6-4.14zm-.276-4.974l3.302.005a47.8 47.8 0 0 0 .188 3.854l-3.292.318a51.112 51.112 0 0 1-.198-4.177zm.209-4.978l3.292.329a47.733 47.733 0 0 0-.195 3.853l-3.303-.005a51.14 51.14 0 0 1 .206-4.177zm.692-4.934l3.25.65a47.03 47.03 0 0 0-.576 3.815l-3.282-.327c.149-1.385.346-2.766.608-4.138zm1.17-4.844l3.18.966a47.142 47.142 0 0 0-.95 3.74l-3.236-.646a50.969 50.969 0 0 1 1.007-4.06zm1.642-4.707l3.083 1.277a47.125 47.125 0 0 0-1.319 3.627l-3.162-.96a50.722 50.722 0 0 1 1.398-3.944zm2.1-4.523l2.953 1.578a47.294 47.294 0 0 0-1.67 3.48l-3.062-1.27a50.249 50.249 0 0 1 1.78-3.788zm2.539-4.294l2.788 1.862a47.727 47.727 0 0 0-2 3.3l-2.935-1.57a50.886 50.886 0 0 1 2.147-3.592zm2.952-4.023l2.592 2.127a47.51 47.51 0 0 0-2.312 3.091l-2.774-1.854a50.5 50.5 0 0 1 2.494-3.364zm3.333-3.711l2.366 2.364a47.817 47.817 0 0 0-2.598 2.854l-2.584-2.119a50.973 50.973 0 0 1 2.816-3.1zm3.673-3.377l2.123 2.585a47.873 47.873 0 0 0-2.861 2.591l-2.367-2.365a51.96 51.96 0 0 1 3.105-2.81zm3.985-3.007l1.86 2.783a47.345 47.345 0 0 0-3.098 2.304l-2.128-2.59a51.153 51.153 0 0 1 3.366-2.497zm4.26-2.602l1.58 2.95a47.552 47.552 0 0 0-3.308 1.994l-1.866-2.79a50.49 50.49 0 0 1 3.595-2.154zm4.5-2.17l1.28 3.087a47.607 47.607 0 0 0-3.488 1.663l-1.584-2.959a50.317 50.317 0 0 1 3.792-1.791zm4.692-1.714l.969 3.192a47.6 47.6 0 0 0-3.636 1.312l-1.283-3.096a50.4 50.4 0 0 1 3.95-1.408zm4.84-1.24l.649 3.262c-.026.006-.05.013-.076.018-.777-1.073-1.477-1.986-1.537-2.064a.4.4 0 0 0-.719.225c-.004.085-.05 1.119-.075 2.387-.45.12-.896.25-1.342.382l-.97-3.199a50.385 50.385 0 0 1 4.07-1.011zm4.936-.76l.326 3.306a47.243 47.243 0 0 0-3.823.571l-.652-3.27a51.38 51.38 0 0 1 4.15-.606zm4.987-.276v3.32c-1.3.011-2.587.077-3.86.19l-.327-3.308a52.228 52.228 0 0 1 4.187-.202zm.802 0c1.502.012 2.995.083 4.472.223l-.345 3.308a48.434 48.434 0 0 0-4.127-.211v-3.32zm5.27.311c1.395.154 2.779.357 4.147.622l-.67 3.267a46.947 46.947 0 0 0-3.822-.584l.344-3.305zm4.932.787a50.38 50.38 0 0 1 4.067 1.025l-.99 3.196a47.366 47.366 0 0 0-3.745-.96l.668-3.26zm8.778 2.688l-1.302 3.092a47.475 47.475 0 0 0-3.632-1.325l.988-3.187c1.335.421 2.652.89 3.946 1.42zm4.522 2.122l-1.6 2.953a47.657 47.657 0 0 0-3.485-1.674l1.3-3.082a50.469 50.469 0 0 1 3.785 1.803zm4.289 2.56l-1.884 2.78a47.666 47.666 0 0 0-3.301-2.005l1.596-2.943a50.831 50.831 0 0 1 3.589 2.167zm4.014 2.966l-2.142 2.58a48.396 48.396 0 0 0-3.09-2.316l1.875-2.772c1.146.79 2.271 1.62 3.357 2.508zm3.706 3.343l-2.38 2.352a47.856 47.856 0 0 0-2.853-2.6l2.137-2.574a51.747 51.747 0 0 1 3.096 2.822zm3.368 3.68l-2.599 2.108a48.064 48.064 0 0 0-2.589-2.862l2.38-2.351a52.172 52.172 0 0 1 2.808 3.105zm2.996 3.99l-2.795 1.845a47.578 47.578 0 0 0-2.301-3.099l2.604-2.111a51.297 51.297 0 0 1 2.492 3.364zm2.591 4.264l-2.967 1.564a47.442 47.442 0 0 0-1.985-3.31l2.801-1.849a50.87 50.87 0 0 1 2.151 3.595zm2.155 4.498l-3.104 1.267c-.501-1.19-1.058-2.35-1.651-3.489l2.97-1.567a50.563 50.563 0 0 1 1.785 3.789zm1.698 4.691l-3.208.956a46.953 46.953 0 0 0-1.299-3.635l3.106-1.267c.518 1.295.991 2.61 1.4 3.946zm1.223 4.835l-3.277.635a46.904 46.904 0 0 0-.934-3.744l3.208-.956a50.906 50.906 0 0 1 1.003 4.065zm.74 4.93l-3.313.312c-.131-1.29-.329-2.56-.562-3.819l3.276-.635a51.1 51.1 0 0 1 .6 4.143zm.256 4.979l-3.327-.015a47.809 47.809 0 0 0-.18-3.854l3.315-.312c.117 1.384.187 2.777.192 4.18zm-.223 4.98l-3.315-.34c.119-1.27.184-2.557.2-3.854l3.327.015a51.544 51.544 0 0 1-.212 4.178zm-.704 4.934l-3.274-.663c.243-1.255.44-2.527.58-3.814l3.312.339a50.645 50.645 0 0 1-.618 4.138zm-1.186 4.844l-3.203-.983c.367-1.227.69-2.473.958-3.738l3.269.662a51.142 51.142 0 0 1-1.024 4.06zm-1.66 4.704l-3.099-1.296a47.104 47.104 0 0 0 1.324-3.624l3.194.981a50.138 50.138 0 0 1-1.42 3.939zm-2.121 4.516l-2.96-1.594a47.763 47.763 0 0 0 1.675-3.477l3.088 1.292a49.95 49.95 0 0 1-1.803 3.779zm-2.558 4.283l-2.788-1.875a46.755 46.755 0 0 0 2.006-3.297l2.951 1.59a50.555 50.555 0 0 1-2.169 3.582zm-2.967 4.011l-2.586-2.134a48.166 48.166 0 0 0 2.317-3.087l2.779 1.869a50.772 50.772 0 0 1-2.51 3.352zm12.386-32.085c0-13.837-5.399-26.846-15.203-36.63-9.804-9.784-22.838-15.172-36.703-15.172-13.865 0-26.9 5.388-36.704 15.172-20.238 20.198-20.238 53.062 0 73.259 9.804 9.784 22.84 15.173 36.704 15.173 13.865 0 26.9-5.39 36.703-15.173 9.804-9.784 15.203-22.792 15.203-36.629z"/>
        <path d="M57.742 83.388c.082-.035.088-.054.083-.08-.006-.037-.04-.049-.123-.017-.623.24-1.18.7-1.486 1.298-.35.679-.295 1.537.037 2.212.015.032.031.063.048.094.051.094.109.182.166.271.04.064.075.063.103.044.029-.021.01-.054 0-.08-.293-.75-.413-1.61-.108-2.379.234-.588.69-1.114 1.28-1.363"/>
    </g>
</svg>
