<svg xmlns="http://www.w3.org/2000/svg" viewBox="0 0 95 95" width="95" height="95">
  <g fill="#926c3e">
    <path d="M86.1 33.7c-3.1 4.2-6.5 9-7.8 10.9l-3 4.5c-1.1 1.6-2.1 3.2-2.6 5.1-.5 1.8-.7 3.7-.8 5.6-.2 2.3-.2 4.5-.2 6.7v3.6c-.1 5.2.4 9 1 11.7h-1c-.1-.6-.2-1.1-.3-1.7l-.3-3c-.1-1-.1-2-.1-3 0 1-.1 2 0 3 0 1.6.2 3.1.4 4.7h-.8c.3 0 .6 0 .9.1.1.4.1.8.2 1.3.2.9.4 1.7.8 2.6-.6-.1-1.1-.2-1.7-.2-.5 0-1.1.1-1.6.2.6-1.2.7-2.5.9-3.8.2-1.4.3-2.9.3-4.3.1-2.9 0-5.8.1-8.7 0-2.9.1-5.8 0-8.7-.1-1.4-.1-2.9-.3-4.3-.2-1.2-.3-2.5-.9-3.7.1 0 .3.1.4.1.4.1.7.1 1.1.1.5 0 1.1-.1 1.6-.2-.6 1.5-.9 3-1.1 4.5-.2 1.7-.3 3.4-.4 5 0 1.7.1 3.4.1 5l.1 5 .1-5c0-1.7 0-3.4.1-5 .1-1.7.2-3.3.5-5 .3-1.6.6-3.3 1.3-4.8.1-.1 0-.3-.1-.4h-.2c-.7.2-1.3.2-2 .2-.3 0-.7 0-1-.1-.3 0-.6-.1-.9-.2-.1-.1-.3 0-.3.1v.2c.7 1.1.9 2.6 1.1 4 .2 1.4.3 2.9.4 4.3.2 2.9.2 5.8.2 8.7 0 2.9.1 5.8-.1 8.7-.1 1.4-.2 2.9-.4 4.3s-.4 2.9-1.2 4c-.1.1 0 .2.1.3h.2c.6-.2 1.3-.3 2-.3s1.3.1 2 .2c.1 0 .2 0 .3-.2v-.1C72.3 85 72 84 71.8 83c-.1-.4-.2-.8-.2-1.1.3 0 .7.1 1 .1.7 3.2 1.6 4.7 1.6 4.8.2.2.5.3.7.2.2-.1.3-.4.2-.7 0 0-.8-1.3-1.4-4.2.2 0 .4 0 .6.1 1.3.2 2.6.5 3.9.9 1.3.4 2.5.8 3.6 1.5.6.3 1.1.7 1.5 1.1.4.4.8.9.9 1.5.3 1.1-.5 2.2-1.5 2.9-1 .7-2.2 1.3-3.4 1.7-2.5.8-5.1 1.1-7.7 1.2-2.6.1-5.2-.1-7.8-.6-1.3-.3-2.5-.6-3.7-1.1-1.2-.5-2.3-1.2-3.1-2.1-.4-.5-.6-1-.6-1.6 0-.6.3-1.1.7-1.6.8-1 2-1.6 3.1-2.1 2.2-1 4.6-1.5 7-1.8-.7 2.9-1.4 4.3-1.4 4.3-.1.2-.1.6.2.7s.6.1.7-.2c.1-.2 2.9-5 2.6-16.7v-3.6c0-2.2 0-4.5-.2-6.7-.1-1.9-.3-3.7-.8-5.6-.5-1.9-1.5-3.5-2.6-5.1l-3-4.5c-1.3-1.9-4.8-6.7-7.9-10.8-1.4-1.8-2.7-3.7-4.1-5.5.4.2.9.3 1.3.5l4 5.1 10.2 14c1.1 1.6 2.5 2.4 4.1 2.4 1 0 2-.3 2.8-1 .3-.2.6-.5.9-.8l.1-.1c0-.1.1-.1.1-.2v-.1l.1-.1c.2-.3.4-.5.6-.8l3.3-4.5 6.6-8.9s0-.1.1-.1l3.7-4.8c.5-.2 1-.3 1.4-.5-1 1.2-2.5 3.2-3.9 5.2zM70.3 21.2c4.5 0 8.6.4 11.9.9-.1.1-.2.3-.3.5-.2.3-.3.6-.3 1-3.4-.6-7.5-1-11.5-1-9.2 0-19 1.9-19 4.7v.1c-1-.4-1.7-.8-2-1.2-.1-.2-.1-.3-.1-.4 0-1.9 8.9-4.6 21.3-4.6zm14.1 11.9c-.3.1-.6.2-.9.2l3-3.9c.4-.1.7-.3 1-.4h.1l-3.2 4.1zm-29.7-3.3c.6.9 1.7 2.3 2.8 3.9-.4-.1-.8-.2-1.1-.3L53 29.2c.5.2 1 .4 1.7.6zm31.7-7.9c.1.1.1.2.2.3.1.3.1.6 0 .9 0 .1-.1.1-.1.2l-.2-.3c-.1-.2-.3-.3-.4-.5-.2-.2-.3-.1-.2.1 0 .1.1.2.1.2.1.3.3.5.4.8-.1.2-.3.3-.4.5-.2-.3-.5-.6-.7-.9-.1-.2-.2-.1-.1.1.2.3.4.7.6 1-.1.1-.2.1-.3.2l-.1.1h-.1l-.2-.3c-.2-.2-.3-.4-.5-.6-.2-.2-.3-.1-.2.1.1.1.1.2.2.4l.3.6c-.3.1-.6.1-.8.1-.2-.3-.4-.5-.6-.8-.3-.2-.5-.1-.3.1.1.2.2.4.4.6-.1 0-.2-.1-.3-.1-.3-.1-.5-.3-.6-.6-.1-.1-.1-.3-.1-.4 0-.3.1-.6.2-.8.1-.2.3-.5.6-.7.2-.2.5-.4.8-.5.3-.1.6-.2.8-.2.2 0 .3-.1.5-.1.4.1.9.2 1.1.5zm1.5 6c-.4-.5-1-.9-1.5-1.2-.4-.2-.9-.4-1.4-.6l-.2-.1c-.6-.2-1.1-.4-1.7-.5.1 0 .1 0 .2.1h.6c.4 0 .8-.1 1.2-.2h.2c1.9.6 3 1.3 3 1.9-.1.2-.2.4-.4.6zm-7 6.1c.8-1.2 1.6-2.4 2.3-3.6.5-.1 1.1-.2 1.6-.4-.6.9-1.6 2.3-2.5 3.7-.5.1-.9.2-1.4.3zm-23.2-3.5c.5.9 1.3 2.2 2.1 3.7-.4-.1-.8-.1-1.3-.2l-2.6-3.8 1.8.3zm28-2.1c-.6-.6-1.4-1-2.1-1.3-.2-.1-.4-.2-.7-.2.1-.2.2-.5.2-.7.5.1.9.3 1.4.4.1 0 .2.1.3.1.6.2 1.2.4 1.7.8.2.2.5.4.7.6l-1.5.3zm-8.2 6h-.1c.5-1.1 1-2.3 1.5-3.4 1.1-.1 2.1-.3 3.2-.4-.6 1.1-1.2 2.4-1.7 3.4-1 .2-1.9.3-2.9.4zm-18.6 1.2l.9 1.2c-.3 0-.5-.1-.8-.1 0 0-.1 0-.1.1v.1c.3.1.6.1 1 .2.3.4.6.9.9 1.3-.2 0-.4-.1-.6-.1 0 0-.1 0-.1.1v.1c.2.1.5.1.7.2 1.7 2.3 3.2 4.3 3.5 4.8.2.3.4.1.2-.1-.3-.5-1.5-2.3-3-4.5.3.1.5.1.8.2.1.2.3.2.3 0 .3.1.7.1 1 .2.3 0 .6.1.8.1.2.4.3.7.4.9.2.5.5 1.1.9 1.7 0 0 .1.1.1 0l.1-.1v-.1c-.2-.6-.5-1.2-.7-1.7-.1-.2-.2-.5-.3-.7l2.7.3c.7 0 1.5.1 2.2.1.8.1 1.5.1 2.3.1h2.4l-.3.7c-.7.1-1.4.1-2 .2-1.5.1-3.1.2-4.6.2-.1 0-.1 0-.1.1v.1h.1c1.9.2 3.9.3 5.9.2h.5v.1c-.1.3.1.4.2.1 0-.1.1-.1.1-.2.7 0 1.4 0 2.2-.1l-.4.6c-.6 0-1.4.1-1.8.2-.7 0-1.3.1-2 .1-1.4.1-2.8 0-4.2.1-.1 0-.2 0-.2.1s0 .1.1.1c1.2.2 2.4.3 3.9.4H73.1c.6 0 1.3.1 1.9 0h.3l-.6.9c-.3 0-.6.1-.8.1-.6 0-1.1.1-1.7.1-1.2.1-2.5 0-3.7 0-.1 0-.1 0-.1.1 0 0 0 .1.1.1 1 .2 2.1.3 3.4.3h2.3l-.5.8c-.5.1-1 .1-1.5.1-.9 0-1.8-.1-2.7-.1h-.1v.1h.1l.2.1c.1 0 .2.1.3.1 1 .3 2.1.4 3.1.3l-.6.9h-.2c-.8 0-1.5-.1-2.3-.2h-.1v.1h.1c.2.1.3.1.5.2.6.2 1.1.3 1.7.3-.2.4-.5.7-.7 1.1h-1.2-.1v.1h.1c.1 0 .1 0 .2.1.1 0 .2.1.3.1.2 0 .3.1.5.1-.2.3-.4.5-.6.8-.6.1-1.2.1-1.8-.1-.4-.1-.8-.3-1.2-.5-.5-.4-.9-.8-1.2-1.3l-8.8-12.2c.5.1.8.1 1.2.2zm-.9-1.2l.7 1c-.3 0-.6-.1-.9-.2L57 34c.2.2.5.3 1 .4zm3.1-3.4c.5 1.2 1 2.4 1.5 3.5-.7-.1-1.4-.2-2-.2l-1.8-3.6c.7.1 1.5.2 2.3.3zm14.5 3.6c.4-1.1.9-2.3 1.3-3.3.4 0 .7-.1 1.1-.1-.5 1.1-.9 2.2-1.3 3.3-.4 0-.8 0-1.1.1zm-.6 5.1c.5 0 1.1-.1 1.6-.1.3 0 .6-.1 1-.1l-.4.7-2.4.3c-.1-.1.2-.8.2-.8zM64.4 38c0-.1-.1-.2-.1-.2 1.9.2 4 .4 6.2.4 1.6 0 3.1 0 4.7-.1-.1.2-.2.5-.3.7-.6.1-1.3.1-1.9.2-.2 0-.5 0-.8.1-1.3.1-2.7.1-4.1.1-.6 0-1.2-.1-1.9-.1-.3 0-.5-.1-.8-.1-.2 0-.4 0-.7-.1 0-.3-.1-.6-.3-.9zm-2.8-.6c.3.5.5.9.7 1.2-.3 0-.5-.1-.8-.1l-.8-1.2c.3 0 .6 0 .9.1zm-.8-1.5l.7 1.1c-.3 0-.6-.1-.9-.1l-.8-1.2c.3.1.6.2 1 .2zm9.6-1.1c-2.3 0-4.5 0-6.8-.2h-.5c-.4-1.2-.8-2.3-1.2-3.5 2.6.3 5.4.4 8.2.4 2 0 4-.1 5.9-.2-.3 1-.6 2.2-.9 3.3-1.6.1-3.1.2-4.7.2zm5.4 3.2h.6l2.4-.3-.4.6c-.3.1-.6.1-1 .2-.6.1-1.3.2-1.9.3 0-.3.2-.5.3-.8zm.6-1.4h.5c.9-.1 1.8-.2 2.8-.4l-.1.2c-1 .3-2.1.5-3.1.6h-.3l.2-.4zm-1.3-.8c.3 0 .6 0 .9-.1-.3.1-.6.1-.9.1zm-11.8-.6c2.3.3 4.7.6 7.4.6h1.4c.9 0 1.8 0 2.6-.1-.8.1-1.6.1-2.4.1-1.6.1-3.4.2-5 .2-.8 0-1.5-.1-2.2-.1-.3 0-.6-.1-1-.1h-.5c-.1-.1-.2-.3-.3-.6zm-2.5-.3c.3 0 .5.1.8.1.4.1.8.1 1.2.2l.3.7c-.6 0-1.3-.1-1.9-.2l-.4-.8zm1.2 2.3l-.6-1.2c.6.1 1.3.2 1.9.3l.1.2c.1.3.4.2.3-.1 2.1.2 4.3.4 6.8.4 1.8 0 3.5 0 5.3-.1l-.2.5c-1.2.1-2.3.2-3.5.3-1.5.1-3 .2-4.4.2-.7 0-1.4-.1-2-.1-.3 0-.6-.1-.9-.1-1-.2-1.9-.2-2.8-.3zm-3.1-2.6c.4.1.8.1 1.2.2l.5.9c-.4 0-.7-.1-1-.1-.2-.4-.5-.7-.7-1zm3.8 4c-.1-.3-.3-.7-.6-1.2.6.1 1.3.2 1.9.3v.1c.1.3.3.6.4 1-.5 0-1.1-.1-1.7-.2zm16.2-9.8c.2 0 .4.1.6.1.5 0 1.1-.1 1.6-.4.5-.3 1-.6 1.3-1 .4.1.8.3 1.1.4.4.2.8.5 1.2.7-2.3.4-5.3.8-8.6 1l1.9-1.1c.2.1.5.2.9.3zm-.9-2.7c.1 0 .1 0 0 0 .2-.3.4-.6.7-.8.2-.1.4-.3.6-.4h.1c.4-.2.9-.3 1.3-.3h.5c.5.1.9.4 1.1.7v.1c.1.2.1.4.1.6 0 .1-.1.3-.1.4-.1-.2-.3-.3-.4-.5l-.2-.2c-.2-.2-.3-.1-.2.1.2.3.3.6.5.9l.1.1c-.1.2-.2.3-.4.4-.2-.2-.4-.5-.5-.7l-.2-.1c-.2-.2-.3-.1-.2.1l.3.6c.1.1.2.3.2.5-.2.1-.3.2-.5.3-.2-.3-.5-.6-.7-.9-.2-.2-.3-.1-.2.1.2.3.3.6.5 1-.3.1-.5.1-.8.1-.2-.3-.4-.6-.7-.9-.2-.2-.3-.1-.2.1.1.2.3.5.4.7H79c-.2 0-.4-.1-.6-.2-.2-.1-.4-.3-.5-.5v-.1c-.1-.3-.1-.5 0-.8 0-.2.1-.3.1-.4zm-26 1.2c0-1.6 7.6-3.9 18.1-3.9 3.5 0 6.6.3 9.3.7-.1 0-.2.1-.3.1-.3.1-.6.3-.9.6-.5-.1-1-.1-1.5-.1-1.3-.1-2.6-.1-3.9-.2 0 0-.1 0-.1.1 0 0 0 .1.1.1 1.9.1 3.5.3 5 .5-.2.2-.3.4-.4.6-.1.1-.1.2-.1.3-.6 0-1.1-.1-1.7-.1 0 0-.1 0-.1.1 0 0 0 .1.1.1.5.1 1.1.1 1.6.2-.1.3-.1.6 0 1L74 29.5l-.1.1c-1.2 0-2.4.1-3.6.1-6.1 0-11-.5-14.6-1.2.7-.3 1.5-.6 2.3-.8.5-.2 1-.3 1.5-.4 1.5-.4 3-.7 4.5-.9.4-.1.9-.2 1.3-.2 0 0 .1 0 .1-.1h-.1c-2 .2-3.7.4-5.3.7-.9.2-1.9.4-2.8.7-.8.3-1.5.6-2.2 1.1-.6-.1-1.1-.2-1.7-.4.3-.2.6-.4 1-.5 1-.4 2-.8 3-1.1.5-.1.9-.2 1.4-.3.7-.1 1.4-.3 2.1-.4.3-.1.6-.1 1-.2.8-.1 1.6-.3 2.4-.4l2.7-.3c.7-.1 1.4-.1 2-.2 0 0 .1 0 .1-.1 0 0 0-.1-.1-.1h-.3c-1.3.1-2.6.1-3.8.3-1.3.1-2.7.3-4.1.5h-.2c-1 .2-2 .3-3 .5s-1.9.6-2.8 1c-.1.1-.3.1-.4.2-.4.2-.8.5-1.1.8l-.2.1c-.3-.1-.5-.1-.8-.2-.1-.2-.2-.4-.2-.5zm39.7-1.5c0 .1 0 .2-.1.3 0 0-.1.1-.1.2-.3.4-1.2.9-2.5 1.3 0-.1.1-.2.1-.2 0-.9-1.1-1.8-2.9-2.5.6-.4 1-1 1.2-1.6 2.7.8 4.3 1.7 4.3 2.5zm-4.3-3.6v-.1l3.6-2.6c.1-.1.1-.2.1-.4l-.6-.8c-.1-.1-.2-.1-.4 0L86.3 21c-.8-.3-1.8-.3-2.8.1-.1 0-.2.1-.2.1-3.9-.7-8.5-1.1-13-1.1-10.8 0-22.4 2.2-22.4 5.6 0 .3.1.6.3 1 .7 1.1 3 4.1 5.6 7.6 3.1 4.2 6.6 8.9 7.8 10.8l3 4.5c1 1.5 2 3.1 2.5 4.8.5 1.7.7 3.5.8 5.4.2 2.2.2 4.5.2 6.7v3.6c.1 5.3-.4 9.2-1 11.8-2.4.1-4.8.5-7.2 1.4-1.2.5-2.5 1.1-3.4 2.2-.5.5-.8 1.2-.9 2 0 .8.2 1.5.6 2.1.9 1.2 2.1 1.9 3.4 2.5 1.2.6 2.6.9 3.9 1.2 2.6.6 5.3.8 8 .7 2.7-.1 5.4-.5 8-1.4 1.3-.4 2.5-1 3.7-1.9.5-.5 1.1-.9 1.4-1.6.3-.7.5-1.5.3-2.2-.2-.8-.7-1.3-1.2-1.8s-1.1-.9-1.7-1.2c-1.2-.6-2.5-1.1-3.8-1.4-1.3-.3-2.6-.5-4-.6-.2 0-.5 0-.7-.1-.6-2.6-1.1-6.5-1-11.7v-3.6c0-2.2 0-4.5.2-6.7.1-1.8.3-3.6.8-5.4.5-1.7 1.5-3.2 2.5-4.8l3-4.5c1.3-1.9 4.7-6.7 7.8-10.9 2.6-3.6 4.9-6.7 5.6-7.7v-.1c.1-.2.2-.5.2-.7.1-1.3-2-2.6-5.2-3.5z"/>
    <path d="M65.3 91.4c-.6-.1-1.2-.3-1.8-.5-.8-.3-1.5-.5-2.3-.9-1.1-.5-2.6-1.2-2.7-2.5 0-.2 0-.4.1-.6.1-.3.3-.6.6-.8.3-.2.6-.4.8-.5 0 0 .1 0 .1-.1s-.1-.1-.2 0c-.7.2-1.5.7-1.9 1.3-.3.5-.4 1.1-.1 1.6.3.7 1 1.2 1.6 1.5 1.3.7 2.7 1.2 4.1 1.5.9.2 1.9.4 2.8.5.5.1 1 .1 1.4.1.5 0 .9-.1 1.4-.1 0 0 .1 0 .1-.1 0 0 0-.1-.1-.1-1-.1-2-.2-2.9-.3-.3.1-.7 0-1 0"/>
    <path d="M65.4 88.9c-.4-.1-.9-.3-1.3-.5-.5-.2-1.2-.5-1.4-1.2h-.1c-.1.4 0 .8.3 1.1.1.1.3.2.4.3.4.3.9.4 1.4.6.5.1 1 .2 1.6.3.5.1 1.1.1 1.6.1.2 0 .4 0 .5-.1v-.1c-.3-.1-.6-.1-.9-.1-.7-.1-1.4-.2-2.1-.4m14.6.9c-1.2.7-2.6 1.3-4.4 1.7l-.1.1s0 .1.1.1c1.9-.3 3.4-.7 4.7-1.4.7-.4 1.5-.8 2-1.6.2-.3.5-.9.3-1.4-.2-.6-.7-.8-1-.9h-.1v.1c.3.3.5.6.6.9 0 .3-.1.6-.3.9-.6.6-1.1 1.1-1.8 1.5"/>
    <path d="M78.1 90c.8-.2 1.6-.7 2.2-1.3.2-.2.3-.5.4-.7 0-.2 0-.6-.2-.7h-.1v.1c.1.3-.2.6-.4.8-.6.7-1.2 1.1-2.1 1.5-.4.2-.8.3-1.2.5v.1h.1c.5-.1.9-.2 1.3-.3m-2.3.5c0-.1 0-.1 0 0-.2-.1-.3 0-.4 0-.3.1-.6.2-1 .2-.3.1-.7.1-1 .1-.1 0-.4 0-.5.1.6.3 2.3.1 2.9-.4M27.4 69.1v-.3c0-.9 0-1.8-.1-2.6v-.7l-.3-6.6c0-.1-.1-.1-.1-.1-.1 0-.1.1-.1.1V69c0 1 .1 2.1.2 3.1 0 .1 0 .1.1.1s.1 0 .1-.1c.1-.9.1-1.9.2-3m-12.8-4.7l-.4-6.6c-.1-.8-.1-1.7-.2-2.5-.1-1.4-.2-2.7-.3-4.1 0-.1-.1-.1-.1-.1h-.1v.1c.1 1.4.1 2.8.2 4.2 0 .8.1 1.6.1 2.4l.3 6.6c.1 2.4.2 4.6.4 6.6v.4c.2 2 .4 4.2.9 6.2 0 .1.1.1.1.1s.1 0 .1-.1v-.1c-.2-2.2-.4-4.4-.5-6.6l-.5-6.5zm22.2 5.1c.1 0 .1-.1.1-.1.1-.6.2-1.2.2-1.7 0-.4.1-1 .1-1.5v-.3c0-.1 0-.1-.1-.1s-.1 0-.1.1c-.1.6-.2 1.2-.2 1.7-.1.6-.1 1.2-.1 1.7 0 .1 0 .2.1.2M11.9 42.8v-.5c0-.1-.1-.2-.2-.2s-.1.1-.1.2c0 1.1.1 2.2.1 3.2 0 .9.1 4 .2 5.1 0 .1.1.2.1.2s.1 0 .1-.1v-.1c0-1.1 0-4.1-.1-5.1 0-1-.1-1.8-.1-2.7m25.2 21.4c0 .1.1.1.1.1.1 0 .1-.1.1-.1v-.8-.4c0-.1 0-.2-.1-.2s-.1.2-.1.2v1.2m-12.7-4.3c-.1 0-.1.2-.1.2v1.2c0 .1.1.1.1.1.1 0 .1 0 .1-.1v-.8-.4c0-.1 0-.2-.1-.2m2.4-2c.1 0 .1 0 .1-.1v-.5c0-.1 0-.2-.1-.2s-.1.2-.1.2v.5s0 .1.1.1"/>
    <path d="M3.6 25.6c.5-.5 1.2-.7 1.9-.7-.2.3-.4.5-.5.9-.2.6-.3 1.2-.3 1.8.1.6.2 1.2.5 1.7.1.2.2.3.3.4h-.2c-1.3-.1-2.4-1.1-2.4-2.4-.1-.7.2-1.3.7-1.7zM17.7 1.8v-.1c0 .1 0 0 .1 0 .1-.1.1-.1.2-.1.1-.1.3-.1.4-.1-.4 2-1.9 10-2.2 11.6-.1.3.2.4.3.1.4-1.7 1.8-8.3 2.7-11.7v-.1h.7c-.4 1.7-1.8 9.5-2.1 11.1-.1.3.2.4.3.1.4-1.7 1.7-7.7 2.5-11v-.1h2.9l.9.1v.3c.9 3.4 1.3 5.4 1.7 7.2.1.3.3.3.3-.1-.2-2-.8-6-1.2-7.6v-.1h.7l2 8c.1.3.3.3.3-.1-.3-1.4-1-5.8-1.4-7.9h.7c.9 3.4 2.1 8.8 2.5 10.5.1.3.4.3.3-.1-.3-1.5-1.4-8-1.9-10.3.2.1.4.1.6.2v.3l.6 3.3c.2 1.1.5 2.2.8 3.3.3 1.1.6 2.2.8 3.3l.3 1.2.3 1.6c-.4 0-.7 0-1.1-.1 0-.2-.1-.5-.1-.7 0-.1-.1-.5-.2-.7 0-.1-.1-.2-.2-.2s-.1.2-.1.3c.1.4.2.9.3 1.3-2.4-.1-4.8.2-7.2.2-1.5 0-2.9.1-4.4.1H18c-1 0-2.1 0-3.2.1l1.4-7.1c.7-2.1 1.1-4 1.5-6zm11.3.1v-.1.1zM4.7 30.3c.2 0 .3.1.5.1h.7c-.1 4.8.1 9.8.3 14.7l.3 7.4.2 7.4c.2 5.8.5 10.5 1.1 14.8.3 2.5.7 5.4 1.1 7.8.3 1.5.6 2.9 1.1 4.3-.5-.9-.9-1.8-1.3-2.9-5.3-14.1-4.2-49-4-53.6zm36.9-4.2c.1.4.2.8.1 1.3 0 .4-.1.8-.2 1.2-.1.3-.2.5-.3.8-.1 0-.2 0-.2.1-.2 0-.4 0-.7.1.4-.6.6-1.2.7-1.9 0-.6-.1-1.6-.3-2.2 0-.1-.1-.2-.2-.3h.7c.2.2.3.5.4.9zm-8.9-.9h1.4c0 .3.1.5.1.8v1.5c0 .5-.1 1-.2 1.5l-.2.8h-1.3l.3-.6c.2-.5.3-1.1.4-1.7 0-.7-.2-1.6-.5-2.3zm6 .6c-.1-.3-.2-.5-.3-.7h1.2c.2.8.2 1.7.1 2.4 0 .5-.1 1-.2 1.5 0 .2-.1.4-.1.5-.4 0-.8 0-1.2.1.4-.6.6-1.3.7-2 .1-.6 0-1.2-.2-1.8zm-2 .1c-.1-.2-.2-.5-.3-.7h1.4c.1.8.2 1.6.1 2.4 0 .5-.1 1-.2 1.5 0 .2-.1.4-.1.6-.5 0-.9 0-1.4.1.4-.6.6-1.4.7-2.1 0-.7 0-1.3-.2-1.8zm-2.2-.7h1.4c.1.8.1 1.5.1 2.3 0 .5-.1 1-.2 1.5 0 .2-.1.5-.1.7-.5 0-.9 0-1.4.1.1-.2.2-.4.3-.5.2-.5.4-1.1.4-1.6 0-.9-.1-1.8-.5-2.5zm-7 4.8v-2.7-2h4.7c0 .3.1.5.1.7 0 .5.1 1 0 1.5 0 .5-.1 1-.2 1.5-.1.3-.1.5-.2.8-1.4 0-2.8.1-4.1.1.1.1-.3.1-.3.1zm-14.2-.1c-.1-.3-.1-.7-.2-1-.1-.5-.1-1-.2-1.5v-1.5c0-.2 0-.5.1-.8h1.4c-.3.7-.4 1.5-.4 2.3 0 .6.2 1.1.4 1.6.1.3.3.6.4.8-.5.1-1 .1-1.5.1zm-1.8 0c-.1-.3-.1-.6-.2-.9-.1-.5-.2-1-.2-1.5V26c0-.3.1-.5.1-.8h1.4c-.4.7-.5 1.5-.4 2.3 0 .6.2 1.1.4 1.6.1.3.2.5.4.8h-1.5zm13.8-2.2v.2c0 .5.1 1 .1 1.4v.6H15.1c-.1-.3-.1-.7-.2-1-.1-.5-.1-1-.2-1.5v-1.5c0-.2 0-.5.1-.7 3.5.1 7 .1 10.4.1.1.8.1 1.6.1 2.4zM9.7 28.9c-.1-.5-.2-1-.2-1.5v-1.5c0-.3.1-.6.1-.8h1.2c-.4.7-.5 1.6-.4 2.4 0 .6.2 1.1.4 1.6.1.3.2.5.4.7H10c-.2-.3-.2-.6-.3-.9zm17.2-1.2v.2c0 .5.1 1 .1 1.4v.6h-1.1v-2.7-2h.9c.1.9.1 1.7.1 2.5zm-19.2-.3v-1.5c0-.3.1-.6.1-.9.5 0 1 0 1.5.1-.4.7-.5 1.6-.5 2.4 0 .6.2 1.1.4 1.6.1.2.2.5.3.7-.5 0-1.1 0-1.5-.1-.1-.8-.2-1.5-.3-2.3zM9.3 23h.1c.8-1.3 1.6-2.5 2.3-3.7.1-.2.3-.4.4-.6.3-.4.6-.8.8-1.3l.2-.3c.1-.2.4-.7.8-1.3.4-.1.7-.1 1.1-.1-.5.8-1.5 2.4-1.7 2.7l-.3.4-2.1 3.6v.1h.2c.8-1.1 1.6-2.2 2.4-3.4.1-.1.2-.3.3-.4.3-.4.6-.9.9-1.3l.1-.1c.1-.3.5-.9.9-1.6h1.1c-.5.9-1.4 2.3-1.6 2.6-.1.2-.2.3-.3.5-.7 1.2-1.4 2.5-2.1 3.7v.1h.2c.8-1.1 1.6-2.3 2.4-3.5.1-.1.2-.3.3-.4.3-.4.6-.9.9-1.3l1-1.6h1.2c-.4.7-.9 1.4-1.3 2.1-.1.1-.1.3-.2.4-.6 1.1-1.2 2.2-1.9 3.2v.1h.2c.7-1 1.4-2 2.2-3 .1-.1.2-.2.3-.4.2-.3 1.1-1.6 1.6-2.4 1.3 0 2.6 0 3.9.1h1.9v2.8l.3 3.3s0 .1.1.1.1 0 .1-.1c0-1.1.1-2.2.1-3.3v-.4-2.4h.9c0 1.3 0 2.7.1 3v.5c.1 1.2.2 2.5.3 3.7 0 .1 0 .1.1.1s.1 0 .1-.1c0-1.2.1-2.5.1-3.7v-.5-3c.8 0 1.6 0 2.4.1.4.8.8 1.7.9 1.8l.2.3c.4.8.8 1.7 1.3 2.5 0 0 .1.1.1 0l.1-.1v-.1c-.3-.9-.6-1.8-.9-2.6 0-.1-.1-.2-.1-.3-.2-.5-.4-1-.5-1.5.2 0 .5 0 .7.1.2.4.5.9.7 1.3l.1.1c.3.5.5 1.1.8 1.6l.3.5c.7 1.3 1.4 2.5 2.1 3.8h.1l.1-.1v-.1c-.6-1.3-1.2-2.5-1.8-3.8l-1.5-3.3c.3 0 .7.1 1 .2.7 1.3 1.5 2.6 2.2 3.8.4.7.8 1.5 1.3 2.2h.1l.1-.1v-.1c-.5-1.2-1-2.3-1.5-3.4-.1-.1-.1-.3-.2-.4-.1-.2-.4-.9-.7-1.7.5.2.9.6 1.2 1 .2.3.4.7.6 1.1l.7 1.2 2.3 4.1c-1.8.1-3.5.2-5.3.3-2.2.1-4.3.2-6.5.2h-4.6c-3 0-5.7 0-8-.1-2.7 0-5.4-.1-8.2-.3l3.8-6.5c.4-.7 1-1.2 1.7-1.5.2-.1.4-.1.6-.2-.6.9-1.4 2.3-1.6 2.6-.1.1-.1.2-.2.4-.7 1.3-1.4 2.6-2 3.9-.4.1-.4.2-.3.2zm-3.4 5.9c-.1-.5-.2-1-.2-1.5-.1-.8 0-1.7.2-2.5.5 0 1 .1 1.6.1-.4.7-.6 1.7-.5 2.5 0 .6.2 1.1.4 1.6l.3.6c-.5 0-1-.1-1.6-.1-.1-.2-.2-.5-.2-.7zm21 45.7c0-.1-.1-.1-.1-.1-.1 0-.1.1-.1.1 0 3.2-.1 6.3-.2 9.5-.1 2.3-.2 4.6-.5 6.8l-.3 2.1c-.4 0-.8.1-1.3.1.2-1.7.3-3.3.3-5 0-1.8.1-3.5.1-5.3 0-1.6-.1-3.1-.1-4.7 0-5.1-.1-10.3-.2-15.4 0-.1-.1-.1-.1-.1-.1 0-.1.1-.1.1l-.2 15.4-.1 4c0 1.4-.1 2.7-.1 4.1 0 2.3-.1 4.6-.3 7h-.7c-2.1 0-4.2-.2-6.1-.8v-.1c-.6-1.1-.9-2.3-1.3-3.6-.4-1.3-.7-2.7-1-4-.7-3.1-1.3-6.3-1.8-9.4-.3-1.9-.6-3.7-.9-5.6-.3-2-.6-4.1-.8-6.1-.2-2-.3-4.1-.4-6.1 0-.1 0-.2-.1-.2s-.1.1-.1.2c.2 4.6.5 9.2 1.1 13.8.2 1.3.4 2.7.6 4 .3 2.2.7 4.3 1.1 6.4.3 2.1.6 4.2 1.2 6.2.3 1.3.7 2.5 1.3 3.7.1.1.1.3.2.4-.4-.2-.9-.4-1.3-.6-.1-.1-.2-.1-.3-.2-.1-.1-.2-.1-.2-.2-.6-2.1-1.4-5.4-1.8-7.4-.4-2.1-1-4.9-1.4-7.7-1-5.3-1.6-10.5-1.9-15.5 0-.1-.1-.1-.1-.1h-.1v.1c.2 5.1.6 10.3 1.4 15.7.3 2.4.7 5 1.3 7.8.5 2.4.9 4.5 1.5 6.5-.1-.1-.3-.2-.4-.3l-.2-.2-.5-.5c-.1-.2-.3-.3-.4-.5-.3-1.1-.7-2.4-1-3.4-.3-1.2-.5-2.4-.8-3.6-.4-2.3-.8-4.7-1.1-7.3-.6-4.6-1-9.4-1.4-14.7l-.1-1c-.1-2.1-.2-4.3-.3-6.4v-4.6-2.8c-.1-5.3.2-10.1-.1-14.6h.9c-.1 2.3.2 9.3.3 10.7l.1 1.7.5 12.6c0 .1.1.1.1.1h.1v-.1l-.1-12.7v-1.5c0-1.5 0-8.4-.2-10.7h.9c0 1.7.1 7.2.2 8.5v.8c.1 2.9.1 8.9.4 12.2 0 .1.1.1.1.1.1 0 .1-.1.1-.1-.1-3.2 0-9.1 0-12.2v-1.5c0-1 .1-6 0-7.8h.8c0 1.7.3 7.8.4 9.4 0 .3.3.4.3 0v-9.4h1.1c0 1.9.1 6.5.2 7.6v.8c.1 2.9.1 6.2.4 9.6 0 .1.1.1.1.1.1 0 .1-.1.1-.1-.1-3.2 0-6.4 0-9.5v-1.5c.1-5.6 0-6.2 0-6.9h1c0 1.9.2 8.8.3 10.4 0 .3.3.4.3 0 .1-1.6.3-8.6.3-10.4 2.2 0 4.6.1 7.5.1h.7c0 2.1.2 24.2.3 25.8 0 .3.3.4.3 0 .1-1.6.2-24.2.3-25.8h2.2c0 2 .2 8.8.3 10.4 0 .3.3.4.3 0 .1-1.6.3-8.5.3-10.4h7.6c0 1.9.2 6.7.2 7.7 0 .5 0 1 .1 1.5.1 3.1.2 6.3.2 9.5 0 .1.1.1.1.1.1 0 .1-.1.1-.1.2-3.3.3-6.7.3-9.6v-.8c0-1.2.1-6.5 0-8.4h.9c-.1 2.4.2 9.1.2 10.6v1.5l.1 12.6v.1h.1c.1 0 .1-.1.1-.1l.4-12.6v-1.6c0-1.5.2-8.3.1-10.6h.8c-.1 2.4.3 9.2.4 10.6.1 7.5-.2 16.9-.2 16.9v.1h.1c.1 0 .1-.1.1-.1s.7-4.6.8-16.4c0-1.5 0-8.8-.1-11.2h.5c.3 7.6.4 15.2.2 22.7-.2 7.7-.6 15.4-1.9 22.9-.5 3.1-1.2 6.2-2.5 9 .3-1.6.6-3.5.9-4.9.7-3.8.9-6.5 1.2-9.8.3-2.9.4-5.8.5-8.7v-.1c0-.1-.1-.1-.2 0v.1c-.3 5-.8 8.8-1.6 14.2-.3 1.7-.6 3.5-.9 5.2-.2.8-.3 1.7-.5 2.5-.2.9-.5 1.8-.7 2.7-.5 1.7-.9 2.4-1.6 3.5-.6.6-1.3 1.1-2 1.5 0 0-.1 0-.2.1 1-1.2 1.5-2.7 2.1-3.9.7-1.7 1.2-3.5 1.6-5.3.8-3.3 1.2-7 1.5-10.8 0-.1 0-.1-.1-.1s-.1 0-.1.1c-.2 1.8-.5 3.6-.8 5.4-.3 1.8-.7 3.5-1.2 5.3-.5 1.7-1 3.5-1.6 5.1-.7 1.8-1.8 3.6-2.8 4.9-1.1.4-2.2.6-3.3.8.1-.6.2-1.2.2-1.7.2-2.2.3-4.4.3-6.6v-.5c.1-3.1 0-6.3-.1-9.5zm15.8-50.2c-.3-.2-.7-.3-1-.4 0-.2-.1-.3-.1-.5l-2.9-4.6-.7-1.1c-.3-.4-.4-.7-.8-1.2-.7-.9-1.6-1.5-2.7-1.7-.2 0-.4-.1-.6-.1L30.7 2c0-.1 0-.2-.1-.3v-.2c0-.1-.1-.2-.1-.2-.1-.1-.2-.2-.2-.3-.2-.2-.3-.3-.5-.4-.3-.2-.6-.3-1-.3C28 0 27.4 0 26.9 0h-3.4l-3.3.2c-.5 0-1.1.1-1.7.2l-.9.3c-.2.1-.3.2-.4.3-.1.2-.3.3-.3.7v-.1c-.3 1.9-.6 3.9-.9 5.8l-1.4 7.4c-.8.1-1.5.2-2.3.5-.9.3-1.7.9-2.2 1.8l-4 6.8h-.3c-1.1.1-2.1.4-2.8 1.1-.6.6-1 1.4-1 2.3 0 1.2.8 2.3 1.9 2.9-.1 3.4-1.4 39.6 4 54.1 1.7 4.5 4 7 6.9 8.4.2.1.5.2.7.3 2.3.9 4.9 1.2 7.3 1.2 3.1 0 6.3-.2 9.2-1.7 1.4-.8 2.6-1.8 3.6-3.1.1-.1.1-.2.2-.3.1-.1.2-.2.3-.4.1-.2.2-.3.3-.5.1-.2.2-.3.3-.5 1-1.7 1.8-3.6 2.3-5.4.6-1.9 1-3.8 1.4-5.7 1.4-7.6 1.9-15.4 2.2-23.1.3-7.7.3-15.4.1-23.2 0-.1 0-.1-.1-.2.9-.6 1.5-1.6 1.6-2.8.1-1.2-.5-2.3-1.5-2.9zm36.2 60.9c.2.1.5.2.7.2.1.1.2.1.3.2.1 0 .2.1.2.1s.1 0 0-.1c-.1-.2-.4-.4-.6-.5-.1 0-.2-.1-.3-.1-.1 0-.2 0-.2-.1-.1 0-.5-.1-.6 0-.1 0-.1.1-.1.1.3.1.5.2.6.2M70.8 26H74.2c.1 0 .1 0 .1-.1s-.1-.1-.1-.1c-.8-.1-1.5-.1-2.3-.1-.4 0-.7 0-1.1.1-.1 0-.1 0-.1.1 0 0 0 .1.1.1-.1 0-.1 0 0 0"/>
  </g>
</svg>
