<svg xmlns="http://www.w3.org/2000/svg" width="36" height="36" viewBox="0 0 36 36">
    <g fill="none" fill-rule="evenodd" stroke="#D09046">
        <path d="M30.066 29.88A16.864 16.864 0 0 0 35 17.947c0-4.655-1.885-8.871-4.933-11.934M19.501 5.589c4.323.89 7.64 6.084 7.64 12.357 0 6.274-3.317 11.467-7.64 12.357"/>
        <path d="M18 34.892a16.97 16.97 0 0 0 11.33-4.312c-1.993 1.317-4.323 2.075-6.813 2.075-4.048 0-7.674-2.002-10.112-5.159-1.88-2.212-3.098-5.482-3.18-9.15v-.799c.082-3.669 1.3-6.939 3.18-9.15 2.438-3.158 6.064-5.16 10.112-5.16 2.49 0 4.82.758 6.814 2.077A16.967 16.967 0 0 0 18.064 1L18 1C8.611 1 1 8.587 1 17.946c0 9.088 7.177 16.505 16.19 16.927.27.012.539.02.81.02z"/>
    </g>
</svg>
