<svg xmlns="http://www.w3.org/2000/svg" width="34" height="36" viewBox="0 0 34 36">
    <path fill="none" fill-rule="nonzero" stroke="#D09046" d="M11.01 21.188c0 .818.123 1.561.375 2.23a6.301 6.301 0 0 0 1.065 1.765c.446.515.967.956 1.58 1.328.591.372 1.236.68 1.924.919.683.244 1.398.425 2.124.542.736.116 1.451.175 2.177.175.914 0 1.763-.07 2.57-.213a18.768 18.768 0 0 0 2.364-.595c.775-.25 1.522-.547 2.269-.887.752-.34 1.516-.712 2.3-1.126v7.204c-.876.425-1.736.78-2.596 1.089-.86.297-1.72.558-2.596.765a20.34 20.34 0 0 1-2.672.467 26.7 26.7 0 0 1-2.806.149c-1.29 0-2.537-.149-3.736-.44a14.753 14.753 0 0 1-3.375-1.265 14.149 14.149 0 0 1-2.892-2.008 12.727 12.727 0 0 1-2.258-2.657 12.805 12.805 0 0 1-1.462-3.22 13.113 13.113 0 0 1-.51-3.697c0-1.397.193-2.725.58-3.995a12.687 12.687 0 0 1 4.338-6.327 14.119 14.119 0 0 1 3.537-2.018 7.369 7.369 0 0 0-1.667 2.512c-.403.967-.655 1.94-.768 2.912H23.12c0-1.222-.124-2.285-.376-3.199-.253-.913-.656-1.673-1.22-2.273-.56-.606-1.28-1.063-2.167-1.36-.887-.303-1.957-.457-3.209-.457-1.478 0-2.956.212-4.435.653A18.78 18.78 0 0 0 7.5 9.967c-1.333.781-2.559 1.7-3.677 2.752A17.202 17.202 0 0 0 1 16.162c.161-1.435.484-2.816.93-4.128a17.48 17.48 0 0 1 1.747-3.666A16.48 16.48 0 0 1 6.171 5.32c.952-.914 2.005-1.7 3.172-2.337a16.159 16.159 0 0 1 3.746-1.499A19.426 19.426 0 0 1 17.37 1c.88 0 1.757.08 2.633.234.876.16 1.731.372 2.564.648a15.332 15.332 0 0 1 4.435 2.348A15.022 15.022 0 0 1 30.28 7.7a15.463 15.463 0 0 1 2.021 4.34c.462 1.577.699 3.219.699 4.924v4.223H11.01z"/>
</svg>
